<?xml version="1.0" encoding="utf-8"?>
<!-- Generator: Adobe Illustrator 27.3.1, SVG Export Plug-In . SVG Version: 6.00 Build 0)  -->
<svg version="1.1" id="Layer_1" xmlns="http://www.w3.org/2000/svg" xmlns:xlink="http://www.w3.org/1999/xlink" x="0px" y="0px"
	 viewBox="0 0 1350 900" style="enable-background:new 0 0 1350 900;" xml:space="preserve">
<style type="text/css">
	.st0{fill:#DCFEFF;}
	.st1{fill:#8A929B;}
	.st2{fill:#5F6870;}
	.st3{fill:#FFC44E;}
	.st4{fill:#3C4042;}
	.st5{fill:#828A8E;}
	.st6{fill:#892743;}
	.st7{fill:#AA2D4B;}
	.st8{fill:#E54A6E;}
	.st9{fill:#FFB278;}
	.st10{fill:#E5804E;}
	.st11{fill:#D69118;}
	.st12{opacity:0.6;}
	.st13{fill:#D87C98;}
	.st14{fill:#441D10;}
	.st15{fill:#FFFFFF;}
	.st16{fill:#30241B;}
	.st17{fill:#5B2A15;}
	.st18{fill:#1E141A;}
	.st19{fill:#33242E;}
	.st20{fill:#626B72;}
	.st21{fill:#C1C1C1;}
	.st22{fill:#FFFDEE;}
	.st23{fill:#844512;}
	.st24{opacity:0.5;fill:#844512;enable-background:new    ;}
	.st25{fill:#91918D;}
	.st26{fill:#4F2D34;}
	.st27{fill:#AFAF2B;}
	.st28{fill:#663D43;}
	.st29{fill:#5B2500;}
	.st30{fill:#192E42;}
	.st31{fill:#7F7D1F;}
	.st32{fill:#798C9E;}
	.st33{fill:#132635;}
	.st34{fill:#A971AF;}
	.st35{fill:#663F6B;}
	.st36{fill:#E0DAD5;}
	.st37{fill:#4C3526;}
	.st38{fill:#203F5E;}
	.st39{fill:#898F93;}
	.st40{fill:#CED9DD;}
	.st41{fill:#2D1E26;}
	.st42{fill:#5E2F4B;}
	.st43{fill:#121619;}
	.st44{fill:#E2CFD5;}
	.st45{fill:#EDEDED;}
</style>
<g>
	<g id="Layer_1_00000098220774596369331170000017847422577259748780_">
		<path class="st0" d="M182.7,803.9h963.5c6.3-10,12.5-21.1,18.1-30.9c55.8-97.9,104.7-199.5,115.8-311.7
			c15.3-154.6-48-307-225.9-342.1C794.8,68,463.3,232,362,458.4c-44.3,7.5-93.4-14-139.8-11.6c-62.1,3.2-128,23.1-155.8,78.6
			c-37.5,74.9,1.1,165.3,55.5,224C131.2,759.6,156.1,783.2,182.7,803.9L182.7,803.9z"/>
		<g>
			<path class="st1" d="M89.3,812.8c0,10.8,258.6,19.5,577.6,19.5s577.6-8.8,577.6-19.5c0-7.1-296.6-19.5-577.6-19.5
				C347.9,793.3,89.3,802,89.3,812.8L89.3,812.8z"/>
			<path class="st2" d="M115.3,813.8c0,5.6,247,10.2,551.6,10.2s551.6-4.6,551.6-10.2c0-5.6-247-10.2-551.6-10.2
				S115.3,808.2,115.3,813.8L115.3,813.8z"/>
			<g>
				<g>
					<g>
						<g>
							<path class="st3" d="M490.6,414.4c-7.5-18.8-29-17.5-30.5-3.1c-3.1,29.9,6.1,101.4,14.5,119.5c3.8,8.1,14.7,10.5,22.9,3.9
								c7.5-6,8.3-11.5,8-19.7C504.6,491.7,495.1,425.8,490.6,414.4L490.6,414.4z"/>
							<g>
								<g>
									<g>
										<polygon class="st4" points="445.6,601.3 441.7,788.3 457.2,788.3 452.5,601.3 										"/>
										<g>
											<g>
												<path class="st4" d="M448.5,771.1c-2.9,1-76.3,30.5-76.3,30.5v9.5h76.3V771.1z"/>
												<path class="st4" d="M449.4,771.1c2.9,1,76.3,30.5,76.3,30.5v9.5h-76.3L449.4,771.1L449.4,771.1z"/>
											</g>
											<path class="st5" d="M448.5,771.1c1.5,1,41,30.5,41,30.5v9.5h-41V771.1z"/>
										</g>
									</g>
									<g>
										<path class="st6" d="M585,644.3c-1.6,12.1-6.8,22.2-19.1,26.8h-31.8c-2.4-8.8-3.9-18.7-9.2-26.8c-0.3-0.4-0.6-0.9-0.9-1.3
											c-7.8-10.7-20.9-16.8-30.3-25.4c-13.4-12.1-20-27.7-23.2-46.5c-5.4-32.2,3.4-66.5-2.4-97.8c0,0-10.8-57.3-3.3-49.2
											c0.4,0.5,0.9,1,1.3,1.5c0,0,0,0,0,0c17.8,21.9,32.5,94.5,40.6,108.9c16.7,30,69.1,17.4,74.4,58.9
											C583.1,608.9,587.1,628.4,585,644.3L585,644.3z"/>
										<path class="st7" d="M306.4,612.2c0,0.6,0,1.1,0,1.7c0.2,7.5,1.4,14.7,4,21.4c6.7,17.5,20.2,28.7,36.4,35.9h218.9
											c5.2-3.4,8.6-9.7,8.6-16.8c0-1.9,0.3-5.5,0.4-10c0.3-11.2-0.4-27.7-10-36c-20.2-17.6-59.1-8.2-66.1-28.5
											c-5.5-16.1-5.7-104.7-32.7-154.2c0,0,0,0,0,0c-10.3-18.9-24.6-32.1-44.6-33.4c-0.1,0-0.3-0.1-0.4-0.1
											c-27.1-6.5-60.6,28.9-92.1,124.6c-0.9,2.8-1.8,5.6-2.7,8.5c-3.5,11.1-7,23-10.5,35.6C311.6,576.2,306.7,594.6,306.4,612.2
											L306.4,612.2z"/>
									</g>
								</g>
								<path class="st8" d="M368.3,644.3H579c3.5,0,6.4,2.9,6.4,6.4v14c0,3.5-2.9,6.4-6.4,6.4H368.3c-3.5,0-6.4-2.9-6.4-6.4v-14
									C361.9,647.2,364.8,644.3,368.3,644.3z"/>
								<g>
									<path class="st3" d="M486.8,474.6c-0.6,5.3-4,17-6.1,20.6c-2.2,3.8-4.6,7.4-6,12.7c-0.3,0.9-0.5,1.9-0.7,2.8
										c-0.2,0.7-0.3,1.3-0.5,1.9c-1.2,4.5-2.3,9.1-3.3,13.6c-0.2,0.9-0.4,1.9-0.7,2.8c-0.2,1-0.5,2-0.7,3.1
										c-0.3,1.2-0.6,2.5-0.8,3.7c-0.5,2-0.9,4-1.3,5.9c-0.2,0.8-0.3,1.5-0.5,2.3c-0.1,0.4-0.2,0.9-0.3,1.3
										c-0.2,0.7-0.3,1.4-0.5,2.2c-0.6,2.8-1.2,5.6-1.8,8.2c-0.1,0.5-0.2,0.9-0.3,1.4c-0.1,0.5-0.2,1-0.3,1.5
										c-0.1,0.3-0.1,0.6-0.2,0.9c-0.1,0.3-0.1,0.6-0.2,0.9c-0.1,0.3-0.1,0.6-0.2,0.9c-0.1,0.5-0.2,1-0.4,1.5c0,0.1,0,0.1,0,0.2
										c-0.1,0.6-0.3,1.1-0.4,1.7c0,0,0,0.1,0,0.1c-0.1,0.5-0.2,1-0.4,1.5c-0.1,0.5-0.3,1.1-0.4,1.6c-0.1,0.5-0.3,1-0.4,1.5
										c-0.1,0.3-0.2,0.6-0.2,0.9c-0.1,0.3-0.1,0.5-0.2,0.8c-0.1,0.3-0.1,0.5-0.2,0.8c-0.1,0.5-0.3,1-0.4,1.5l0,0l0,0
										c-0.7,2.3-1.3,4.2-1.9,5.4c-0.4,0.8-0.7,1.5-1.1,2.2c-6.5,11.8-16.8,16.4-41.1,14.3c-8.4-0.7-48.6-14.2-47.6-18.5
										c0.1-0.6,0.2-1.2,0.4-1.7c0.6-3,1.1-5.9,1.6-8.8c0.1-0.6,0.2-1.3,0.3-1.9c1.4-8.6,2.2-16.9,2.6-25c0.2-3,0.3-6.1,0.4-9.1
										c0.1-1.5,0.1-3.1,0.1-4.6c0-0.7,0-1.5,0-2.2c0-1.6,0-3.3,0.1-4.9c0-4.8,0-9.7,0-14.7c0-0.4,0-0.9,0-1.4
										c0-1.1-0.1-2.3-0.2-3.5c-1.6-20.2-9.1-78.3-12.2-94.9c-0.6-3.3,23.3-17.9,52.5-16.5l53.7,8.3c6.1,4.6,13.2,5.2,17.6,12.6
										C493.1,423.7,491.6,434.5,486.8,474.6L486.8,474.6z"/>
									<g>
										<path class="st9" d="M462.6,401.3c-5.9,3.1-12.7,15.2-18.7,16.1c-6.6,1-27-19-31.3-25c-5.1-7.2,6.9-9.3,8.7-18.8
											c0.3-1.8,10.7-39,9-41.3l33.4,38.1c-1.7,6-3.1,12-3.2,17.9C460.3,392.6,460.9,397,462.6,401.3L462.6,401.3z"/>
										<path class="st10" d="M460.5,388.2c-2.5,0.9,1,4-1.8,4.5c-40.9,7.7-26.7-58.1-28.4-60.4l33.4,38.1
											C462,376.3,460.6,382.3,460.5,388.2z"/>
									</g>
									<path class="st11" d="M416.8,380.9c-3.4,1.2-11.3,6.4-14.7,8c3.3,10.7,28.7,31.7,28.7,31.7s14.2-4.8,16.8-5.2l0.7-0.5
										C438.4,409.6,420.6,392.4,416.8,380.9L416.8,380.9z"/>
									<path class="st11" d="M459.3,387.2c0,0-1.2,13-2.7,15.8c-1.8,3.3-9,11.8-9,11.8c1.3,1.2,7.7,3.5,10.6,3.9
										c2.8-5.8,9.1-21.7,9.1-21.7S460.5,387.2,459.3,387.2L459.3,387.2z"/>
									<path class="st11" d="M434.2,579.5l-1.9-0.7c10.2-31.8,22.3-104.3,17.5-165.8l2-0.2C456.6,474.6,444.4,547.5,434.2,579.5
										L434.2,579.5z"/>
									<g>
										<path class="st11" d="M445.8,433.3c-0.2,1.5-1.6,2.5-3.1,2.3c-1.5-0.2-2.5-1.6-2.3-3.1c0.2-1.5,1.6-2.5,3.1-2.3
											C444.9,430.4,446,431.8,445.8,433.3z"/>
										<path class="st11" d="M444.7,479.5c-0.2,1.5-1.6,2.5-3.1,2.3c-1.5-0.2-2.5-1.6-2.3-3.1c0.2-1.5,1.6-2.5,3.1-2.3
											C443.8,476.6,444.9,478,444.7,479.5L444.7,479.5z"/>
										<path class="st11" d="M441,524.4c-0.2,1.5-1.6,2.5-3.1,2.3c-1.5-0.2-2.5-1.6-2.3-3.1c0.2-1.5,1.6-2.5,3.1-2.3
											C440.1,521.6,441.2,522.9,441,524.4z"/>
									</g>
									<g class="st12">
										<path class="st13" d="M480.6,495.2c-2.2,3.8-4.6,7.4-6,12.7c-0.3,0.9-0.5,1.9-0.7,2.8c-0.2,0.6-0.3,1.3-0.5,1.9
											c-1.2,4.5-2.3,9.1-3.3,13.6c-0.2,0.9-0.4,1.9-0.7,2.8c-0.2,1-0.5,2-0.7,3.1c-0.3,1.2-0.6,2.5-0.8,3.7
											c-0.5,2-0.9,4-1.3,5.9c-0.2,0.8-0.3,1.5-0.5,2.3c-0.1,0.4-0.2,0.9-0.3,1.3c-0.2,0.7-0.3,1.4-0.5,2.2
											c-0.6,2.8-1.2,5.6-1.8,8.2c-0.1,0.5-0.2,0.9-0.3,1.4c-0.1,0.5-0.2,1-0.3,1.5c-0.1,0.3-0.1,0.6-0.2,0.9
											c-0.1,0.3-0.1,0.6-0.2,0.9c-0.1,0.3-0.1,0.6-0.2,0.9c-0.1,0.5-0.2,1-0.4,1.5c0,0.1,0,0.1,0,0.2c-0.1,0.6-0.3,1.1-0.4,1.7
											c0,0,0,0.1,0,0.1c-0.1,0.5-0.2,1-0.4,1.5c-0.1,0.5-0.3,1.1-0.4,1.6c-0.1,0.5-0.3,1-0.4,1.5c-0.1,0.3-0.2,0.6-0.2,0.9
											c-0.1,0.3-0.1,0.5-0.2,0.8c-0.1,0.3-0.1,0.5-0.2,0.8c-0.1,0.5-0.3,1-0.4,1.5l0,0l0,0c-3.3,0.5-6.7,0.9-10,1.3
											c-6,0.6-11.5,0.9-15.9,1c-5.9,0.1-11.9-0.1-17.8-0.5c-11.2-0.7-22.3-2.4-33.1-5c-0.1,0-2.2-0.6-2.2-0.6
											c-1.5-0.4-3-0.8-4.5-1.3c-2.1-0.6-4.2-1.3-6.3-2l0,0c0.1-0.6,0.2-1.3,0.3-1.9c1.4-8.6,2.2-16.9,2.6-25
											c0.2-3,0.3-6.1,0.4-9.1c0.1-1.5,0.1-3.1,0.1-4.6c0-0.7,0-1.5,0-2.2c0-1.6,0-3.3,0.1-4.9c0-4.8,0-9.7,0-14.7
											c0-0.4,0-0.9,0-1.4c0-1.1-0.1-2.3-0.2-3.5c-1.6-20.2-10.9-71-14-87.5c0.5-1.9,1.5-3.7,3.2-5.4
											c0.4,15.4,26.3,21.4,28.6,31.3c2.8,11.8,4.6,41.8,11.5,55.5C407,503.1,452.1,505.6,480.6,495.2L480.6,495.2z"/>
									</g>
									<g>
										<path class="st14" d="M492.1,312.7l-7.8,1.4c-0.6,0.8,0.9,10.1,1.1,12.4c0.4,4.7,1,10.3-0.3,14.9
											c2.6-2.6,8.6-8.6,9.9-12.1C497,324.1,495.7,314.4,492.1,312.7L492.1,312.7z"/>
										<g>
											<path class="st9" d="M477.1,357.5c-1-8.4,12.5-20.9,14.8-10.1c0.9,4-2.4,12.7-6.5,15.7c-4.3,3.1-7.7-0.1-9.9-0.1
												L477.1,357.5z"/>
											<path class="st10" d="M488.3,348.6l-0.2,0.2c-0.7-0.9-3.1-0.3-4.2,1c-1.4,1.6-0.9,2.4-0.4,3.7c0.5,1.4,2,7.1-1.9,4.9
												C476.2,355.3,485.9,342.3,488.3,348.6L488.3,348.6z"/>
										</g>
										<path class="st9" d="M477.1,372.5c5.5-13,9-21.1,10.4-38.8c0.9-11.8-1.5-29.3-8.2-35.3c-14-12.3-26.4-5.9-41.4,5
											c0,0-13.5,49-10.5,57.4c9.7,27.5,28.2,31.2,34.3,32C472.8,394.1,474.1,379.6,477.1,372.5L477.1,372.5z"/>
										<g>
											<path class="st15" d="M454.1,345.4c-1.2-0.4-2.4-0.7-3.6-1.1c0,0,0,0-0.1,0c-2.4-0.6-4.7-1.1-7.1-1.5c0,0-0.1,0-0.1,0
												c-1.1-0.2-2.3-0.3-3.5-0.4c-0.5-2,1-4.9,3.4-6.7c0.8-0.6,1.8-1.1,2.7-1.3c0.8-0.2,1.6-0.3,2.4-0.1c2.5,0.5,4,2,4.8,3.7
												c0.1,0.3,0.3,0.6,0.4,0.9c0,0,0,0,0,0C454.2,341.1,454.1,343.4,454.1,345.4L454.1,345.4z"/>
											<path class="st16" d="M453.4,338.9C453.4,339,453.4,339,453.4,338.9c-0.8,1.8-1.8,3.8-2.9,5.4c0,0,0,0-0.1,0
												c-2.4-0.6-4.7-1.1-7.1-1.5c0,0-0.1,0-0.1,0c-0.4-2.1-0.2-4.7,0-7.1c0.8-0.6,1.8-1.1,2.7-1.3c0.8-0.2,1.6-0.3,2.4-0.1
												c2.5,0.5,4,2,4.8,3.7C453.2,338.3,453.3,338.6,453.4,338.9z"/>
											<path class="st15" d="M446.2,339.4c0.1,1.2-0.1,2.2-0.5,2.3c-0.4,0-0.8-0.9-1-2.2c-0.2-1.2,0-2.2,0.4-2.3
												C445.6,337.3,446.1,338.2,446.2,339.4z"/>
										</g>
										<g>
											<path class="st15" d="M482.9,350.3c-0.9-0.3-1.8-0.6-2.7-0.8c0,0,0,0,0,0c-1.8-0.5-3.6-0.9-5.4-1.2c0,0,0,0-0.1,0
												c-0.9-0.1-1.7-0.3-2.6-0.4c-0.5-2,0.4-4.9,2-6.7c0.6-0.6,1.2-1.2,1.9-1.4c0.6-0.3,1.2-0.3,1.8-0.2c1.9,0.4,3.2,1.7,4,3.4
												c0.1,0.3,0.2,0.6,0.3,0.9c0,0,0,0,0,0C482.8,345.9,482.9,348.3,482.9,350.3L482.9,350.3z"/>
											<path class="st16" d="M482.2,343.8C482.2,343.8,482.2,343.8,482.2,343.8c-0.5,1.9-1.2,4-2,5.6c0,0,0,0,0,0
												c-1.8-0.5-3.6-0.9-5.4-1.2c0,0,0,0-0.1,0c-0.4-2.1-0.5-4.7-0.6-7.1c0.6-0.6,1.2-1.2,1.9-1.4c0.6-0.3,1.2-0.3,1.8-0.2
												c1.9,0.4,3.2,1.7,4,3.4C481.9,343.2,482.1,343.5,482.2,343.8L482.2,343.8z"/>
											<path class="st15" d="M476.7,344.7c0.2,1.2,0.1,2.2-0.2,2.3c-0.3,0-0.7-0.9-0.9-2.1c-0.2-1.2-0.2-2.2,0.1-2.3
												C476.1,342.6,476.5,343.5,476.7,344.7z"/>
										</g>
										<path class="st17" d="M438.5,327.7l-0.3,5.9c0.6,1.1,14.8,3.6,17.9,4.4c1.2-2.1,4.1-7.1,1.8-8.4
											C456,327.4,442.7,326.2,438.5,327.7z"/>
										<path class="st17" d="M488.8,335.3l-1.2,5.8c-0.7,0.9-12.8,0.5-15.5,0.6c-0.5-2.3-0.9-5.7,0.6-8.5
											C476.5,330.2,487.7,333,488.8,335.3L488.8,335.3z"/>
										<path class="st10" d="M465.5,343.6c0,0.7,0,1.4-0.1,2.1c0,0.7,0,1.4-0.1,2.1c0,0.7,0,1.4,0,2.1l0.1,2.1l0.2,2
											c0.1,0.7,0.2,1.3,0.3,2l0.4,2l0.5,2l0.1,0.6l-0.5,0.3c-0.5,0.3-0.9,0.5-1.4,0.8c-0.2,0.1-0.5,0.2-0.7,0.3l-0.7,0.3
											c-0.5,0.2-1,0.2-1.5,0.3c-0.5,0.1-1,0.1-1.5,0.1c-0.3,0-0.5,0-0.7,0l-0.7,0c-0.5,0-1-0.1-1.5-0.1c-0.5,0-1-0.1-1.5-0.1
											c-0.5,0-1,0-1.5-0.1c0.5-0.1,1-0.2,1.4-0.3c0.5-0.1,1-0.1,1.5-0.2c1-0.1,1.9-0.2,2.9-0.3c0.5-0.1,0.9-0.1,1.4-0.3l0.7-0.2
											c0.2-0.1,0.4-0.1,0.6-0.2l0.6-0.3c0.2-0.1,0.4-0.2,0.6-0.3c0.4-0.2,0.8-0.5,1.2-0.7l-0.3,0.9l-0.5-2.1
											c-0.1-0.7-0.2-1.4-0.4-2.1c-0.1-0.7-0.2-1.4-0.2-2.1l0-2.1c0-0.7,0.1-1.4,0.1-2.1c0.1-0.7,0.2-1.4,0.3-2.1
											c0.1-0.7,0.3-1.4,0.4-2.1C465.1,345,465.3,344.3,465.5,343.6L465.5,343.6z"/>
										<path class="st10" d="M455,382.1c0,0,0-0.1,0.1-0.3c0.1-0.2,0.3-0.5,0.6-0.7c0.3-0.2,0.7-0.5,1.2-0.6
											c0.5-0.1,1-0.2,1.5-0.2c1,0.1,1.9,0.4,2.5,0.9c0.3,0.2,0.5,0.4,0.6,0.6c0.1,0.2,0.2,0.3,0.2,0.3s-0.1,0-0.3,0
											c-0.2,0-0.5,0-0.8,0c-0.7,0-1.5-0.1-2.3-0.1c-0.2,0-0.4,0-0.6,0c-0.2,0-0.4,0-0.6,0c-0.2,0-0.4,0-0.5,0
											c-0.2,0-0.3,0-0.5,0c-0.3,0-0.6,0-0.8,0.1C455.2,382.1,455,382.1,455,382.1z"/>
										<g>
											<path class="st10" d="M471.1,367.2c-1.7,0.8-4.8,3.1-6.6,4.1c-0.5,0.3-1.1,0.8-1.7,1.3c-1,0.8-2,1.5-3.1,1.4
												c-3.4-0.4-12.6-10.3-12.6-10.3c2.3,1.4,11.4,2.8,17.9,3.4C467.8,367.3,470,367.3,471.1,367.2L471.1,367.2z"/>
											<path class="st15" d="M464.6,367.5c-1.4,1.6-1.6,3.3-1.8,5.1c-1,0.8-2,1.5-3.1,1.4c-3.4-0.4-12.6-10.3-12.6-10.3
												c2.3,1.4,11.4,2.8,17.9,3.4C464.9,367.2,464.7,367.4,464.6,367.5L464.6,367.5z"/>
										</g>
										<path class="st17" d="M502.6,305.5c-2.6,4.6-6.9,10-8.8,11.6c-5.7,4.9-31.3-6.9-37.5-9.6c-1.8,4.5-2.7,6.8-7.9,6.9
											c-5.4,0.1-13.9,0.1-13.7,5.7c0.7,17.3-4,20.6-6.7,26.5l-7.3-9.8c-1.9-6.8-2.6-31.2-0.3-33.6c2.3-2.5,14.7-5.8,17.2-7.1
											c0.6-0.3,1.8-2.1,3.5-4.3c4.6-6.1,13.3-15.7,27.6-10c4.2,1.7,35.4,14.8,35.9,17.7C504.8,300.9,503.9,303.1,502.6,305.5
											L502.6,305.5z"/>
										<path class="st14" d="M502.6,305.5c-2.6,4.6-6.9,10-8.8,11.6c-5.7,4.9-31.3-6.9-37.5-9.6c-1.8,4.5-2.7,6.8-7.9,6.9
											c-5.4,0.1-13.9,0.1-13.7,5.7c0.7,17.3-4,20.6-6.7,26.5l-7.3-9.8c-1.9-6.8-2.6-31.2-0.3-33.6c2.3-2.5,14.7-5.8,17.2-7.1
											c0.6-0.3,1.8-2.1,3.5-4.3c1.4,3.2,3.9,5.8,7,7.7c9.2,5.6,21.5,8.8,32.3,9.8C487.1,310,495.5,308.7,502.6,305.5
											L502.6,305.5z"/>
										<g>
											<path class="st9" d="M428.7,346.9c3.5-7.9-6.4-23-11.9-13.1c-2.1,3.7-1.3,12.9,1.9,16.6c3.4,4,7.7,1.6,9.9,2.1
												L428.7,346.9L428.7,346.9z"/>
											<path class="st10" d="M420.1,335.8l0.1,0.3c1-0.7,3.2,0.4,3.9,1.9c0.9,1.8,0.2,2.5-0.7,3.6c-0.9,1.2-4.1,6.4,0.4,5.2
												C430.2,345,424.3,330.2,420.1,335.8L420.1,335.8z"/>
										</g>
									</g>
								</g>
								<g>
									<path class="st15" d="M528.2,798.8l-7,0c-1.5,1.8-2.8,3.7-5.3,11.3c12.1,1.9,16.8,2.5,29.4,2
										C541.5,804.7,533.9,803.2,528.2,798.8z"/>
									<path class="st18" d="M584.5,595.4c-42.7-19.5-124.5-27.7-124.5-27.7c-17.1,3-79.3-3.3-84.8,5.5
										c-9.4,15.1,34.8,47,37.4,59.4c14.4,0.7,102.5,10.3,116.6,11.9c-0.6,11.8-8.8,130-8,154.3c1.8,0.6,5.2,0.5,7,0
										c14.3-31.7,49.2-136.7,52.4-155.4C582.3,633.4,595.2,600.3,584.5,595.4L584.5,595.4z"/>
								</g>
								<g>
									<path class="st15" d="M449.5,798.8l-6.3,0c-1.3,1.8-8.1,5.5-10.4,13.2c10.9,1.9,12.1,1.5,23.4,0.9
										C452.9,805.5,454.7,803.2,449.5,798.8z"/>
									<path class="st19" d="M500,595.4c-38.2-19.5-121.8-29.3-121.8-29.3c-41.5,8.1-34.4,56.9-30.7,76.4
										c12.9,0.7,85.4,1.2,98,2.8c-0.5,11.8-2.8,129.2-2.1,153.4c1.6,0.6,4.6,0.5,6.3,0c12.8-31.7,44-136.7,46.9-155.4
										C497.9,633.4,509.5,600.3,500,595.4L500,595.4z"/>
								</g>
								<path class="st8" d="M306.4,612.2c0,0.6,0,1.1,0,1.7c0.2,7.5,1.4,14.7,4,21.4c6.7,17.5,20.2,28.7,36.4,35.9h47.9
									c-0.1-0.3-0.1-0.5-0.2-0.8c-1.6-7.3-1.6-16.9-1.3-26c0.1-4.8,0.3-9.6,0.2-13.8c-0.2-25.4,11.2-59.9-9.5-71.7
									c-12-6.8-38.7-0.9-47.3-13.5c-2.7-3.1-5-6.8-6.9-10.9c-1.4-3-2.6-6.1-3.5-9.3c-3.5,11.1-7,23-10.5,35.6
									C311.6,576.2,306.7,594.6,306.4,612.2L306.4,612.2z"/>
							</g>
							<path class="st3" d="M355.2,414.4c3.7-19.9,25.1-22.8,29.4-8.9c8.9,28.8,13.7,100.6,9,120c-2.1,8.7-12.4,13.1-21.7,8.3
								c-8.6-4.4-10.3-9.7-11.6-17.7C356.5,492.9,353,426.4,355.2,414.4L355.2,414.4z"/>
							<path class="st3" d="M361,513.3c3.2-7.1,17.8-2.5,24.3-3.8c8.6-1.7,20.1,2.1,27.5-3.2l17.9,11.5c-4.4,6.4-11.8,9.9-17.4,15.2
								c-4.9,4.5-39.3,15-47.1,10.4C360.8,540.2,358.2,519.4,361,513.3L361,513.3z"/>
							<path class="st9" d="M414,503.1c2.2-1.2,6.9,0.4,9.5-0.1c2.8-0.6,3.7-2.5,7-2.3c2.4,0.2,4.2,1.9,6.7,1.9
								c2.7,0,4.3-1.9,7.4-1.3c3.6,0.7,9,7.6,9.7,7.5l-10.2,8.9c-2.5-1-11.9,0.4-16.6,0.6c-6.3,0.3-12.6,0.9-19.1,0.5
								C408.5,514.7,409.6,505.4,414,503.1L414,503.1z"/>
							<g>
								<path class="st20" d="M580.9,512.7c0,2.4-2.3,4.4-5.2,4.4H416.1c-2.9,0-5.2-2-5.2-4.4l0,0c0-2.4,2.3-4.4,5.2-4.4h159.6
									C578.6,508.3,580.9,510.2,580.9,512.7L580.9,512.7z"/>
								<g>
									<path class="st21" d="M613.8,513c-0.5,2.3-2.8,4.1-5.1,4.1H480.2c-2.3,0-3.6-1.9-3-4.1l22.8-86c0.6-2.3,2.9-4.1,5.1-4.1
										h124.9c2.2,0,3.6,1.9,3.1,4.1L613.8,513L613.8,513z"/>
									<path class="st20" d="M616.6,513c-0.5,2.3-2.8,4.1-5.1,4.1H482.9c-2.3,0-3.6-1.9-3-4.1l22.7-86c0.6-2.3,2.9-4.1,5.1-4.1
										h124.9c2.2,0,3.6,1.9,3.1,4.1L616.6,513z"/>
									<path class="st15" d="M562.8,470c-0.6,2.3-2.8,4.1-5.1,4.1c-2.3,0-3.6-1.9-3.1-4.1c0.6-2.3,2.8-4.1,5.1-4.1
										S563.3,467.7,562.8,470z"/>
								</g>
							</g>
						</g>
						<g>
							<polygon class="st22" points="394,471.6 394.6,476 396.1,486.1 398.8,505 400.5,516.3 420.3,516.3 421.7,506.1 421.9,505 
								424.7,486.1 426.1,476 426.8,471.6 							"/>
							<polygon class="st23" points="396.1,486.1 398.8,505 421.9,505 424.7,486.1 							"/>
							<path class="st24" d="M394,471.6l0.6,4.3l1.5,10.1l2.8,18.9l1.6,11.3h19.8l2.1-14.9c-1.7,0.1-11.1,2.6-15.1-6.5
								c-1.2-2.8-2.1-5.8-2.8-8.8c-1-4.7-1.6-9.6-1.9-14.4H394z"/>
							<g>
								<path class="st25" d="M393.7,469.1c0,1.2,1,2.3,2.3,2.3h28.8c1.2,0,2.3-1,2.3-2.3l0,0c0-1.2-1-2.3-2.3-2.3h-28.8
									C394.7,466.8,393.7,467.9,393.7,469.1L393.7,469.1z"/>
								<path class="st25" d="M389.7,472.5c0,1.9,0.9,3.5,2,3.5H429c1.1,0,2-1.6,2-3.5l0,0c0-1.9-0.9-3.5-2-3.5h-37.3
									C390.6,469,389.7,470.6,389.7,472.5L389.7,472.5z"/>
							</g>
						</g>
					</g>
					<g>
						<g>
							<g>
								<polygon class="st4" points="773.6,608.4 777.5,795.4 762,795.4 766.6,608.4 								"/>
								<g>
									<g>
										<path class="st4" d="M770.7,778.2c2.9,1,76.3,30.5,76.3,30.5v9.5h-76.3V778.2z"/>
										<path class="st4" d="M769.7,778.2c-2.9,1-76.3,30.5-76.3,30.5v9.5h76.3V778.2z"/>
									</g>
									<path class="st5" d="M770.7,778.2c-1.5,1-41,30.5-41,30.5v9.5h41V778.2z"/>
								</g>
							</g>
							<g>
								<path class="st6" d="M634.2,651.4c1.6,12.1,6.8,22.2,19.1,26.8h31.8c2.4-8.8,3.9-18.7,9.2-26.8c0.3-0.4,0.6-0.9,0.9-1.3
									c7.8-10.7,20.9-16.8,30.3-25.4c13.4-12.1,20-27.7,23.2-46.5c5.4-32.2-3.4-66.5,2.4-97.8c0,0,10.8-57.3,3.3-49.2
									c-0.4,0.5-0.9,1-1.3,1.5l0,0c-17.8,21.9-32.5,94.5-40.6,108.9c-16.7,30-69.1,17.4-74.4,58.9
									C636.1,616,632.1,635.5,634.2,651.4L634.2,651.4z"/>
								<path class="st7" d="M644.3,651.4c0.1,4.5,0.4,8.1,0.4,10c0,7.2,3.5,13.4,8.6,16.8h218.9c16.2-7.2,29.6-18.4,36.4-35.9
									c2.8-7.2,3.9-15,4.1-23.1c-0.2-17.5-5.1-36-9.3-51.3c-4.3-15.9-8.8-30.6-13.2-44.1c-31.5-95.7-65.1-131.1-92.1-124.6
									c-0.1,0-0.2,0.1-0.4,0.1c-20,1.3-34.2,14.5-44.6,33.4c0,0,0,0,0,0c-27.1,49.5-27.2,138-32.7,154.2
									c-6.9,20.3-45.9,10.9-66.1,28.5C644.8,623.7,644,640.3,644.3,651.4L644.3,651.4z"/>
							</g>
						</g>
						<g>
							<path class="st26" d="M825.9,341.3c-1.5-4.4-6.2-18.8-10.8-19.9l-50.7,37.9c-3.8,5.4-5.6,12.6-7.6,18.9
								c-2.8,9-13.8-5-14.2,4.5c-0.4,8.3-8.6,45.8-2.7,52.2c4.8,5.2,28.4,4.9,35.2,6.7c9,2.4,39.3,7.8,47.7,3.8
								c8.3-4-8.6-15.8-3.6-23.1c9.8-14.1,12.7-31.6,11.9-48.7C830.5,363.2,829.3,351.1,825.9,341.3z"/>
							<g>
								<path class="st27" d="M767.2,428.3l0.8-8.2c-17.2-5.3-25.3,8.1-32.5,20c-9.2,15.3-15.2,31.4-21.1,48.7
									c-1.6,4.6-3.3,9.1-3.4,14c-1.4,10.3,1,21.5,6,23.9c5,2.3,12.2,1.5,20.3-7.2C748.7,497.5,768.6,444.6,767.2,428.3
									L767.2,428.3z"/>
								<path class="st9" d="M696.4,466.1c1.2,9.9,20,25.6,29.3,31c8.9,5.1,28.5,12.8,31.6,23.4c4.2,14.3-15.9,17.3-26,13.4
									c-12.8-5-23.3-16.4-31.9-26.4c-8-9.2-12.8-19.7-16.5-30.7L696.4,466.1z"/>
								<g>
									<g>
										<polygon class="st22" points="671.7,441.2 672.3,445.5 673.8,455.6 676.5,474.6 678.2,485.9 698,485.9 699.5,475.6 
											699.6,474.6 702.4,455.6 703.9,445.5 704.5,441.2 										"/>
										<polygon class="st23" points="673.8,455.6 676.5,474.6 699.6,474.6 702.4,455.6 										"/>
										<path class="st24" d="M671.7,441.2l0.6,4.3l1.5,10.1l2.8,18.9l1.6,11.3H698l2.1-14.9c-1.7,0.1-11.1,2.6-15.1-6.5
											c-1.2-2.8-2.1-5.8-2.8-8.8c-1-4.7-1.6-9.6-1.9-14.4H671.7z"/>
										<g>
											<path class="st25" d="M671.4,438.7c0,1.2,1,2.3,2.3,2.3h28.8c1.2,0,2.3-1,2.3-2.3l0,0c0-1.2-1-2.3-2.3-2.3h-28.8
												C672.4,436.4,671.4,437.4,671.4,438.7L671.4,438.7z"/>
											<path class="st25" d="M667.4,442.1c0,1.9,0.9,3.5,2,3.5h37.3c1.1,0,2-1.6,2-3.5l0,0c0-1.9-0.9-3.5-2-3.5h-37.3
												C668.3,438.6,667.4,440.1,667.4,442.1L667.4,442.1z"/>
										</g>
									</g>
									<g>
										<path class="st9" d="M670.8,457.2c-0.6-2.4,3.2-5.9,5.2-6.6c2.8-0.9,6-1.2,8.9-0.6c1.2,3.4-5.8,3.8-7.7,4.3
											c-0.4,2.4-3.7,11.5-6.5,5.7L670.8,457.2z"/>
										<path class="st9" d="M671.4,462.7c-0.7-2.4,3.9-6,6.3-6.8c3.3-1.1,7-1.4,10.3-1c1.2,3.4-6.9,4-9.1,4.7
											c-0.5,2.4-4.7,11.7-7.7,6L671.4,462.7L671.4,462.7z"/>
										<path class="st9" d="M672.3,467.9c-0.7-2.4,3.4-6,5.6-6.7c3-1,6.4-1.4,9.4-0.8c1.2,3.4-6.2,3.9-8.2,4.5
											c-0.4,2.4-4,11.6-6.9,5.9L672.3,467.9L672.3,467.9z"/>
										<path class="st9" d="M674.4,471.3c0-2.2,4-4,5.9-4c2.6,0,5.4,0.6,7.6,1.9c0.2,3.1-5.8,1.5-7.5,1.5
											c-0.8,1.9-5.6,8.5-6.8,2.9L674.4,471.3L674.4,471.3z"/>
									</g>
									<path class="st9" d="M699.9,457.7c-1-2.1-2.3-6.8,0.1-8.6c1.4,1.4,2.1,3.9,3,5.6c0.9,1.8,2.2,3.1,2.1,5.2
										c-0.2,4-3.6,9.6-4.9,11.7C700.1,471.6,695.9,461.3,699.9,457.7L699.9,457.7z"/>
								</g>
							</g>
							<g>
								<g>
									<path class="st27" d="M723.4,482.6c0.5,3.5,1.3,6.4,2.3,9.1c2.8,7.7,6.9,13.1,9.5,23.3c3.5,13.7,6.7,39.1,1.1,52.4
										c-5.7,13.4-5.5,15.5-12.3,28.5c-4.4,8.5,101.1,19.8,101.8,13.2c1.8-16.7-12.5-38.1-15.4-53.7
										c-5.8-30.6,11.4-53.4,21.1-79.9c3.6-9.8,12.7-22.6,12.5-32.9c-0.1-3.8-1.4-7.2-4.7-10c-10-8.5-17.1-13.1-36.2-20.4
										l-37.7,2.7c-7.6,4.4-18.8,5.5-21.8,14.5c-2.3,7.1-4.1,14.1-7.2,21.1C731.3,462,721.7,470.4,723.4,482.6L723.4,482.6z"/>
									<g>
										<path class="st9" d="M760.1,387.8c0.3,2.1,1,4.2,1.5,6.2c0.6,2.4,1.7,5.3,2.6,8.2c0.8,2.8,1.1,8.4,1,12.4
											c-0.1,1.4-0.2,2.7-0.4,3.5c-0.6,2.7-0.1,8.8,1.6,14.2c1.4-3.5,3.5-6.8,6.5-7.3c3.5,3.9,5.4,8.6,7.8,13.1
											c11.1-6,28.1-19.4,31.1-22.7c-2.1-1.1-4.1-2.5-6-4.1l0,0c-6.8-5.9-11.5-14.5-11.3-21.4c0.1-2.2,0.3-6.2,0.9-10.4
											c0.8-6.5,2.3-13.6,4.8-15.3L760.1,387.8L760.1,387.8z"/>
										<path class="st10" d="M800.2,364.2c-2.5,1.7-4,8.7-4.8,15.3c-2.8,3.5-4.6,8.5-8,11.9c-4.6,4.7-14.1,14.1-23.3,10.9
											c-0.9-2.9-2-5.8-2.6-8.2c-0.5-2-1.2-4.1-1.5-6.2L800.2,364.2L800.2,364.2z"/>
									</g>
									<g>
										<path class="st28" d="M794,310.9l-7.8,14.3l-0.7,1.4c-1.6,0.2-3.3,0.7-5,1.3c-7.2,2.8-15.1,8.9-20.3,13.4
											c-2.4,2.1-5.1,5.1-7.6,8c-4.8,5.4-9.2,10.4-10.2,7.3c-7.4-23.1-7.7-43.3,5.3-50.8c6.5-3.8,12.7-6.2,25.2-2.3
											c1.3,0.4,4.7,1.9,8.7,3.5C785.5,308.4,790.2,310.1,794,310.9L794,310.9z"/>
										<path class="st9" d="M797.4,335.6c-3.5-2.1-6.5-5.2-9.4-8.3c-0.6-0.7-1.2-1.4-1.8-2.1c-2.5-3.1-4.7-6.8-7.2-9.8
											c-6.4-1.4-13.4-1-18.8,0.9c-6.3,2.3-10.6,10.5-13.6,21.5c-2.6,9.5-4.3,20.9-5.6,32.3c-1.1,9.3,9.1,20.6,14.8,28.5
											c5.9,8.1,26.6-5.6,33.2-11.3c6.5-5.7,9.6-10.9,10.8-18.5c0.1-0.7,0.2-1.5,0.3-2.3C801.3,352.6,799.4,343.3,797.4,335.6
											L797.4,335.6z"/>
										<g>
											<path class="st29" d="M785.9,350.7c-0.4,0.6-0.4,1.5,0,2.1c-1.5-0.4-2.7-1.8-2.1-3c-0.3,0.6-0.6,1.4-0.2,2
												c-1.1,0-2.3-1-2.6-1.7c0.2,2.1,1.7,2.2,2.9,3.5l3.9,2.7C787.8,354.5,785,352.6,785.9,350.7L785.9,350.7z"/>
											<g>
												<path class="st10" d="M780.6,354.3c-2.8,2.4-4.4,7.1-4.4,7.1c-0.4,0.6-0.5,0.5-0.6,1.2c5.4,0.1,9.7,1.2,14.5,3.2
													C790.8,361.8,787.1,348.6,780.6,354.3L780.6,354.3z"/>
												<path class="st15" d="M788.8,363.7c-0.6-0.4-1.5-0.8-2.6-1.1c-2.9-0.8-6.9-1.1-8.9-1.1c-0.5,0-0.9,0-1.1,0.1
													c0-0.3,0.2-0.8,0.5-1.4v0c1.2-2.7,4.2-7.5,6.2-6.9c1.9,0.6,3.3,2.4,4.2,4.8C787.9,359.7,788.4,361.7,788.8,363.7
													L788.8,363.7z"/>
												<path class="st30" d="M787.1,358c0,1.7-0.4,3.3-1,4.6c-2.9-0.8-6.9-1.1-8.9-1.1c-0.2-0.4-0.4-0.9-0.5-1.3v0
													c1.2-2.7,4.2-7.5,6.2-6.9C784.8,353.8,786.2,355.7,787.1,358z"/>
												<path class="st15" d="M781,359.2c0.1,0.7-0.2,1.2-0.6,1.2c-0.4,0-0.8-0.5-0.8-1.2c-0.1-0.7,0.2-1.2,0.6-1.2
													C780.5,358,780.9,358.5,781,359.2L781,359.2z"/>
											</g>
										</g>
										<g>
											<path class="st29" d="M751.8,347c-0.4,0.6-0.4,1.5,0,2.1c-1.2-0.4-2.3-1.8-1.9-3c-0.3,0.6-0.5,1.4-0.1,2
												c-1,0-2-1-2.2-1.7c0.2,2.1,1.4,2.2,2.5,3.5l3.4,2.7C753.4,350.8,751,348.9,751.8,347z"/>
											<g>
												<path class="st10" d="M747.1,350.6c-1.7,2.5-2.2,7-2.2,7c-0.2,0.6-0.3,0.5-0.3,1.2c4.1-0.5,7.4,0,11.4,1.3
													C755.9,356.3,751,344.7,747.1,350.6L747.1,350.6z"/>
												<path class="st15" d="M754.7,358.2c-0.5-0.3-1.3-0.5-2.1-0.7c-2.3-0.4-5.4-0.3-6.9,0c-0.4,0.1-0.7,0.1-0.8,0.2
													c0-0.3,0.1-0.8,0.2-1.4l0,0c0.5-2.6,2-7.3,3.5-7c1.5,0.3,2.8,1.8,3.9,3.8C753.3,354.7,754.1,356.5,754.7,358.2
													L754.7,358.2z"/>
												<path class="st30" d="M752.5,353.3c0.2,1.6,0.2,3.1,0,4.3c-2.3-0.4-5.4-0.3-6.9,0c-0.2-0.4-0.4-0.8-0.6-1.2l0,0
													c0.5-2.6,2-7.3,3.5-7C750.1,349.7,751.4,351.2,752.5,353.3L752.5,353.3z"/>
												<path class="st15" d="M748.5,355.3c0.1,0.6,0,1.1-0.3,1.2c-0.3,0.1-0.7-0.4-0.8-1c-0.1-0.6,0-1.1,0.3-1.2
													C748,354.2,748.3,354.7,748.5,355.3L748.5,355.3z"/>
											</g>
										</g>
										<path class="st10" d="M750.3,376.4c0,0,0.3,0.2,0.8,0.5c0.3,0.2,0.6,0.4,1,0.6c0.4,0.2,0.8,0.5,1.2,0.7
											c0.5,0.2,1,0.5,1.5,0.7c0.5,0.3,1.1,0.4,1.7,0.7c0.6,0.2,1.2,0.4,1.9,0.5c0.3,0.1,0.7,0.1,1,0.2l1,0.1
											c0.3,0.1,0.7,0.1,1,0.1c0.3,0,0.7,0,1,0c0.3,0,0.7,0,1,0c0.3,0,0.6-0.1,1-0.1c0.3,0,0.6-0.1,0.9-0.2
											c0.3-0.1,0.6-0.1,0.9-0.2c0.6-0.2,1.1-0.3,1.6-0.5c0.2-0.1,0.5-0.2,0.7-0.3c0.2-0.1,0.4-0.2,0.6-0.3
											c0.4-0.2,0.7-0.3,1-0.5c0.5-0.3,0.9-0.5,0.9-0.5s-0.2,0.3-0.7,0.8c-0.2,0.2-0.5,0.5-0.8,0.8c-0.2,0.1-0.4,0.3-0.6,0.5
											c-0.2,0.1-0.4,0.3-0.7,0.4c-0.5,0.3-1,0.6-1.6,0.8c-0.6,0.2-1.2,0.5-1.9,0.6c-0.3,0.1-0.7,0.1-1.1,0.2
											c-0.4,0.1-0.7,0.1-1.1,0.1c-0.4,0-0.7,0-1.1,0c-0.4,0-0.8,0-1.1-0.1l-1.1-0.2c-0.4-0.1-0.7-0.2-1.1-0.3
											c-0.4-0.1-0.7-0.2-1-0.3c-0.3-0.1-0.7-0.2-1-0.4c-0.6-0.3-1.2-0.6-1.8-1c-0.6-0.3-1-0.7-1.5-1c-0.4-0.3-0.8-0.7-1.1-1
											c-0.3-0.3-0.6-0.6-0.8-0.9C750.5,376.7,750.3,376.4,750.3,376.4L750.3,376.4z"/>
										<path class="st10" d="M757.5,384c0,0,0.1,0.1,0.3,0.2c0.2,0.2,0.4,0.3,0.8,0.6c0.3,0.2,0.7,0.4,1.2,0.6
											c0.2,0.1,0.4,0.2,0.7,0.2c0.2,0.1,0.5,0.1,0.7,0.1c0.2,0,0.5,0,0.7,0c0.2,0,0.5,0,0.7-0.1c0.4-0.1,0.8-0.3,1.2-0.5
											c0.3-0.2,0.6-0.4,0.8-0.6c0.2-0.1,0.3-0.2,0.3-0.2s-0.1,0.1-0.2,0.3c-0.1,0.1-0.1,0.3-0.2,0.4c-0.1,0.1-0.2,0.3-0.4,0.5
											c-0.2,0.1-0.3,0.3-0.5,0.5c-0.2,0.1-0.4,0.3-0.7,0.4c-0.3,0.1-0.5,0.2-0.8,0.2c-0.3,0-0.6,0.1-0.9,0
											c-0.3,0-0.6-0.1-0.9-0.2c-0.3-0.1-0.5-0.2-0.8-0.4c-0.2-0.1-0.5-0.3-0.6-0.4c-0.2-0.2-0.4-0.3-0.5-0.5
											c-0.3-0.3-0.5-0.6-0.6-0.8C757.5,384.2,757.5,384,757.5,384L757.5,384z"/>
										<path class="st29" d="M755.1,341.4c-2.8-4.7-8.4-1.7-9.7,2.8c1-2.3,3-2.2,5-1.6C751.2,342.9,756.4,343.7,755.1,341.4
											L755.1,341.4z"/>
										<path class="st29" d="M778.2,344.9c3.2-5,11.1-2.7,13.4,1.7c-1.6-2.1-4.3-1.9-6.9-1C783.5,346,776.7,347.4,778.2,344.9z"
											/>
										<path class="st10" d="M757.1,370.5c2.1-3.1,3.3-7.8,3-10.1c0,0-3.2,8.3-5.4,10.4c2.1,1.2,4,3.2,6.4,1.5
											C759.8,372.6,757.8,371.9,757.1,370.5L757.1,370.5z"/>
										<path class="st28" d="M819.1,335.4c-0.1,3.1-0.7,6.2-1.6,8.9c-3.8,11.9-13.4,20.3-22.4,28.5c0-11.7,4.7-20.7-0.8-32.6
											c-3.1-6.5-7.6-7.6-12.9-11.6c-0.3-0.2-0.7-0.5-1-0.8c-1.8-1.5-3.3-3.5-4.2-5.6c-0.7-1.7-3.9-8-4-8.1c0,0,0.9-1.2,2.6-2.8
											c0.1-0.1,0.2-0.2,0.3-0.3c1.5-1.4,3.7-3,6.3-4.3c6.3-3.1,15.6-4.5,26.9,3c5,3.3,8.1,8.7,9.7,14.6
											C819,328,819.3,331.7,819.1,335.4L819.1,335.4z"/>
										<path class="st26" d="M779,315.3c-6.4-1.4-13.4-1-18.8,0.9c-6.3,2.3-10.6,10.5-13.6,21.5l-0.3-0.3
											c-2.6-2.6,2-14.3,3.9-17.7c2.9-5.3,8.5-8.5,14.1-9.9c4.4-1.1,7.8-0.3,10.6,1.7C776.4,312.4,777.7,313.8,779,315.3
											L779,315.3z"/>
										<path class="st26" d="M819.1,335.4c-0.1,3.1-0.7,6.2-1.6,8.9c-3.8,11.9-13.4,20.3-22.4,28.5c-4.3-19,4.7-20.7-0.8-32.6
											c-3.1-6.5-7.6-7.6-12.9-11.6c-0.3-0.2-0.7-0.5-1-0.8c-1.8-1.5-3.3-3.5-4.2-5.6c-0.7-1.7-3.9-8-4-8.1c0,0,0.9-1.2,2.6-2.8
											c0.1-0.1,0.2-0.2,0.3-0.3c5.5,3.7,7,11.5,12.6,15.6c7,5.2,18.2,5.7,25.7,1.2c1.6-1,3.1-2.1,4.6-3.5
											C819,328,819.3,331.7,819.1,335.4L819.1,335.4z"/>
										<g>
											<path class="st9" d="M813.2,367.2c-0.3-3.9-3.9-7.2-7.7-5.7c-11.1,4.4-7.7,14.5-7.7,14.5c0.6,3.9,6.7,3.6,9.4,2.1
												C810.5,376.1,813.5,371,813.2,367.2z"/>
											<path class="st10" d="M803.8,365.5c-1.2,1.9-3.3,6-3.3,6c-0.4,3.2,6.1,2.3,6.4-1.4c0.1-1.7-1.7-3.1,0.3-4.3
												c1.4-0.8,2.8,0.2,3.6,1.4C811.1,363.6,805.7,362.6,803.8,365.5L803.8,365.5z"/>
										</g>
									</g>
									<path class="st31" d="M724,595.9c-4.4,8.5,101.1,19.8,101.8,13.2c1.8-16.7-12.5-38.1-15.4-53.7
										c-5.8-30.6,11.4-53.4,21.1-79.9c3.6-9.8,12.7-22.6,12.5-32.9c-4,6.7-7.6,14.6-11.3,20.2c-8.6,12.7-20.8,24.6-33.6,33.2
										c-14.5,9.8-28.9,9.5-45.3,6.1c-7.6-1.6-20.7-4.2-28.1-10.4c2.8,7.7,6.9,13.1,9.5,23.3c3.5,13.7,6.7,39.1,1.1,52.4
										C730.6,580.7,730.8,582.9,724,595.9L724,595.9z"/>
									<path class="st31" d="M772.8,425C772.8,425,772.8,425,772.8,425c3.6,3.9,5.5,8.7,7.9,13.1c1,1.8,2,3.5,3.2,5
										c5.6-2.3,12.4-6.3,16.9-10.5c3.2-3,6.2-6,9-9.3c1.5-1.7,5.1-4.8,5-6.7l-14.7-11.8c-0.5,3.5-20.2,20.1-26.5,20.1h0
										c-0.1,0-0.2,0-0.3,0C773.1,425,773,425,772.8,425L772.8,425z"/>
									<path class="st31" d="M762.1,438.4c0.2-1.7,7.7-12.9,10.7-13.4c0.2,0,0.5-0.1,0.7-0.1h-0.3c0,0,0,0,0,0
										c-5.6-1.4-8.6-18-8.6-18.2C759.9,406.8,759.1,435.2,762.1,438.4L762.1,438.4z"/>
									<g>
										<g>
											<path class="st31" d="M772.7,440.3c0,0.8,0.7,1.5,1.5,1.5c0.8,0,1.5-0.7,1.5-1.5c0-0.8-0.7-1.5-1.5-1.5
												C773.3,438.8,772.7,439.5,772.7,440.3L772.7,440.3z"/>
											<path class="st31" d="M766.2,464.8c0,0.8,0.7,1.5,1.5,1.5c0.8,0,1.5-0.7,1.5-1.5c0-0.8-0.7-1.5-1.5-1.5
												C766.9,463.3,766.2,464,766.2,464.8L766.2,464.8z"/>
										</g>
										<path class="st31" d="M760.3,490.6c0,0.8,0.7,1.5,1.5,1.5c0.8,0,1.5-0.7,1.5-1.5c0-0.8-0.7-1.5-1.5-1.5
											C761,489.1,760.3,489.7,760.3,490.6L760.3,490.6z"/>
									</g>
									<path class="st31" d="M755.8,513.4l1.3-0.2c-2.4-17.5,9.8-79.4,15.8-86.9c0.4-0.5,0.6-0.5,0.6-0.5l-0.1-1.3
										c-0.5,0-1,0.4-1.5,1C765.7,433.1,753.4,495.7,755.8,513.4L755.8,513.4z"/>
								</g>
								<g>
									<path class="st27" d="M820.6,432.4l2.4-7.9c20.4,2.5,23.7,18.3,26.7,32.3c3.8,18.1,3.8,35.3,3.2,53.8
										c-0.2,4.9,0,9.8-1.9,14.4c-2.6,10.1-7.2,13-13.5,13c-6.2,0-16,2.6-21.1-8.9C813,503.9,812.7,446.8,820.6,432.4L820.6,432.4
										z"/>
									<path class="st31" d="M823.4,497.1l31.9,8.3c2.8,1.5,0.6,19.7-1.9,23.6c-4.1,6.4-13.1,11.4-20.4,9.7
										C813.3,534.4,818,509.8,823.4,497.1L823.4,497.1z"/>
									<g>
										<path class="st9" d="M832.5,423.6c0.2,0,0.3,0,0.5-0.1c0.2,0.3,0.4,0.6,0.5,0.9c4.3,12.6,26.1,68.7,23.9,91.2
											c0,0-1.1,7.2-2.1,9.3c-2.8,5.5-10.9,9.6-18.5,10.2c-10.9,0.8-14.2-12.2-15.6-21.6c-4-29,1.8-58.9-0.6-87.7
											C824.5,425,828.5,424.2,832.5,423.6z"/>
										<g>
											<path class="st9" d="M817.2,399.2c4.5-5.9,11.6-2.2,15.2-8.8c1-1.8,4.2-20.6,6.8-19c1.8,1.1-1.5,24.6-2.1,29.3
												c-0.8,6.4-5,20-2.4,27.8l-13.2,3.2c-0.1-4.1-0.7-7.3-1.9-10.8C818.1,416.8,815.6,401.2,817.2,399.2L817.2,399.2z"/>
											<path class="st9" d="M813.1,395.9c0.3-1.9,0.6-5.1,2.5-6.2c2-1.2,4.9,0.1,5.8,2.1c-0.3-5.3,4.7-7.2,6.1-1.6
												c0.6-2,2.5-6,4.9-3.5c1.3,1.4,0.9,8.3,0.9,9.4l-14.8,6.1c-4.2-1.1-0.2,6-2.9,7.8C811.6,407.2,812.4,399.9,813.1,395.9
												L813.1,395.9z"/>
											<path class="st9" d="M843.7,393.3c1,2.5-0.9,5.2-2,7.4c-1.4,2.6-1.6,4.3-2.2,7.1c-1.1,5.4-5.3,9.8-6.8,14.8l-1-13.2
												C833,404.6,838,394.8,843.7,393.3z"/>
										</g>
									</g>
								</g>
							</g>
						</g>
						<g>
							<path class="st8" d="M626.8,651.4h210.7c3.5,0,6.4,2.9,6.4,6.4v14c0,3.5-2.9,6.4-6.4,6.4H626.8c-3.5,0-6.4-2.9-6.4-6.4v-14
								C620.4,654.3,623.3,651.4,626.8,651.4z"/>
							<path class="st18" d="M668.5,591.7c10.2-9.1,66.5-21.6,67.9-28.9c0,0,12.3-5,28.3-4.4c23,0.9,48.8,7.6,48.8,7.6
								c8.3,15.3,19.7,24.6,23,43.2c2.5,14.2,1.6,29.2-9.2,39.7c-23,22.4-134.5,12.8-148.2,8.5C665.1,653,641.7,615.6,668.5,591.7
								L668.5,591.7z"/>
							<path class="st8" d="M801.2,677.4c-0.1,0.3-0.2,0.5-0.3,0.8h71.4c16.2-7.2,29.6-18.4,36.4-35.9c2.8-7.2,3.9-15,4.1-23.1
								c-0.2-17.5-5.1-36-9.3-51.3c-4.3-15.9-8.8-30.6-13.2-44.1c-1.4,6.1-3.5,12.1-7,17.7c-2.5,4.1-5.3,7.8-8.8,10.9
								c-10.8,12.6-44.7,6.6-59.9,13.5c-26.2,11.8-11.8,46.2-12.1,71.7c0,4.2,0.2,8.9,0.3,13.8C803.1,660.6,803.2,670.1,801.2,677.4
								z"/>
							<g>
								<path class="st9" d="M718.4,805.2c5-47.7,8.1-191,19.4-207.5c21.8-31.8,26,16.6,29.1,32.4c13.9,71.4-32.1,140.9-41,175.1
									H718.4z"/>
								<path class="st9" d="M711,805.2h-7.4c-8.7-48.3-46.4-186-37.4-203.8c13.8-27.3,26.7,3.7,34,18
									C733.2,684.7,709.5,770.1,711,805.2z"/>
								<path class="st15" d="M718.1,804.5h8.3c3.5,3.1,5.7,7.7,8.9,14c5.6,0.3-14,0.3-19.7,0.3
									C715.5,814.6,716.8,807.7,718.1,804.5z"/>
								<path class="st15" d="M711.2,804.5h-8c-3.4,3.1-11.1,7.3-14.2,13.7c-5.5,0.3,19.1,0.6,24.6,0.6
									C713.8,814.6,712.5,807.7,711.2,804.5z"/>
							</g>
						</g>
					</g>
				</g>
				<g>
					<g>
						<g>
							<polygon class="st4" points="1120.1,603.3 1124,790.3 1108.4,790.3 1113.1,603.3 							"/>
							<g>
								<g>
									<path class="st4" d="M1117.2,773.1c2.9,1,76.3,30.5,76.3,30.5v9.5h-76.3V773.1z"/>
									<path class="st4" d="M1116.2,773.1c-2.9,1-76.3,30.5-76.3,30.5v9.5h76.3V773.1z"/>
								</g>
								<path class="st5" d="M1117.2,773.1c-1.5,1-41,30.5-41,30.5v9.5h41V773.1z"/>
							</g>
						</g>
						<g>
							<path class="st6" d="M980.6,646.3c1.6,12.1,6.8,22.2,19.1,26.8h31.8c2.4-8.8,3.9-18.7,9.2-26.8c0.3-0.4,0.6-0.9,0.9-1.3
								c7.8-10.7,20.9-16.8,30.3-25.4c13.4-12.1,20-27.7,23.2-46.5c5.4-32.2-3.4-66.5,2.4-97.8c0,0,10.8-57.3,3.3-49.2
								c-0.4,0.5-0.9,1-1.3,1.5c0,0,0,0,0,0c-17.8,21.9-32.5,94.5-40.6,108.9c-16.7,30-69.1,17.4-74.4,58.9
								C982.6,610.9,978.6,630.4,980.6,646.3z"/>
							<path class="st7" d="M990.8,646.3c0.1,4.5,0.4,8.1,0.4,10c0,7.2,3.5,13.4,8.6,16.8h218.9c16.2-7.2,29.6-18.4,36.4-35.9
								c2.8-7.2,3.9-15,4.1-23.1c-0.2-17.5-5.1-36-9.3-51.3c-4.3-15.9-8.8-30.6-13.2-44.1c-31.5-95.7-65.1-131.1-92.1-124.6
								c-0.1,0-0.2,0.1-0.4,0.1c-20,1.3-34.2,14.5-44.6,33.4c0,0,0,0,0,0c-27.1,49.5-27.2,138-32.7,154.2
								c-6.9,20.3-45.9,10.9-66.1,28.5C991.3,618.6,990.5,635.1,990.8,646.3z"/>
						</g>
					</g>
					<g>
						<g>
							<path class="st32" d="M994,799.6l7.1,0c1.5,1.8,2.8,3.7,5.4,11.4c-12.3,2-26.7,4.8-39.5,4.2C970.8,807.7,988.2,804,994,799.6
								z"/>
							<path class="st33" d="M937,593.9c43.1-19.7,137.7-29.6,137.7-29.6c46.9,8.2,40.3,47.5,36.1,67.2
								c-14.6,0.7-103.6,10.4-117.9,12.1c0.6,11.9,8.9,131.4,8.1,156c-1.8,0.6-5.2,0.5-7.1,0c-14.4-32-49.7-138.2-52.9-157.1
								C939.3,632.4,926.2,598.9,937,593.9z"/>
						</g>
						<g>
							<path class="st9" d="M950.7,496.3c2.4,0.7,4.9,1.5,7.4,2.3c19,5.9,38.6,12,55.2,13.6c12.3,1.2,23,0,33.6-4.2
								c4.8-1.9,10-2,9.4-8.9c0-0.5-0.2-1.1-0.5-1.8c-2.5-5.6-13.3-15.2-13.3-15.2c-14.6-9.6-34.2-7.2-49.2-3.6
								c-14.3,3.5-27.6,4.5-41.8,5.3L950.7,496.3L950.7,496.3z"/>
							<g>
								<path class="st9" d="M929.6,484.3c1.1,0.5,2.1,1,3,1.5c1.1,0.6,2.1,1.2,2.9,1.9c1.3,1.1,2.4,2.3,3.6,4.1
									c0.1,0.1,0.1,0.2,0.2,0.3c0.5,0.8,1.1,1.5,1.7,2.2c4.8,5.1,11.3,3.3,17,0.2c1.1-0.6,2.2-1.2,3.3-1.9l-1.6-7.7
									c-6.2-1.4-11.6-4.1-18.1-4.7c-5.9-0.5-17.1-5.6-18.7-5.1c-0.1,0.3-0.2,0.7-0.3,1C921.8,479.9,926.9,483.1,929.6,484.3
									L929.6,484.3z"/>
								<path class="st9" d="M926.2,499.4c0.6-0.3,1.2-0.5,1.8-0.8c-0.5,0.3-1.1,0.6-1.7,0.9l0,0c-0.6,0.3-1.2,0.6-1.9,0.9
									c-7.7,3.3-18.3,5.1-16.1,7.7c1.4,3.7,12.5-0.4,22.6-4c0.4-0.1,0.7-0.3,1.1-0.4c0.7-0.3,1.5-0.5,2.2-0.8
									c-0.6,0.2-1.3,0.5-2.1,0.8c-0.3,0.1-0.7,0.3-1.1,0.4c-5.3,2-13.6,5.2-13.6,6.6c3,4.1,19.8-3.6,25.6-5.9
									c6.6-2.5,11.8-5.5,17.8-9l-2.9-1.5l-19.4-10.4c-1.4,0.2-2.8,0.6-4,1c-0.7,0.2-1.3,0.5-1.9,0.7c-2.6,1.1-5.1,2.5-8.1,3.7
									c-2.7,1.1-5.5,1.9-8.3,2.5c-7.5,1.7-14.2,2.3-13.2,5.4c1.5,1.4,4.9,1.3,8.4,0.7c-4.9,1.5-9.2,3.2-8.7,4.7
									c1,3,10.8,1.4,21.3-2.7C924.8,500,925.5,499.7,926.2,499.4L926.2,499.4z M922.5,495.1c-0.4,0.1-0.8,0.2-1.2,0.3
									C921.7,495.3,922.1,495.1,922.5,495.1c1-0.4,1.6-0.6,1.8-0.6C924,494.6,923.3,494.8,922.5,495.1z"/>
								<g>
									<path class="st10" d="M919.2,496C919.2,496,919.3,496,919.2,496c1.5,1.6,3.2,3,4.9,4.3c0.1,0.1,0.2,0.1,0.3,0.2
										c2.1,1.5,4.3,2.8,6.5,3.7c0,0,0.1,0,0.1,0c1.1,0.5,2.2,0.9,3.2,1.2c-0.7-0.6-1.4-1.1-2.2-1.6c0,0,0,0-0.1,0
										c-1.9-1.4-3.9-2.7-5.7-4.2l0,0c-0.1-0.1-0.1-0.1-0.2-0.2c-1.5-1.3-2.8-2.7-3.7-4.4c0,0,0,0,0-0.1c-0.5-0.9-0.8-1.8-1.1-2.8
										c4.6,0.2,9.4-2.4,11.4-3.2c1.8,3,5.3,4.2,8.2,5.3c2,0.7,4.2,1,6.6,0.8c-1.5-0.4-5.5-1.5-8.5-3.3c-2-1.2-3.5-2.5-3.6-4.1
										c0-0.7,0.2-1.4,0.7-2.1c-0.6-0.1-1.2-0.3-1.7-0.5c-4.6-1.6-9-4.9-12-9c-0.7,3.8,4.3,7,7.1,8.3c1.1,0.5,2.1,1,3,1.5
										c-2.6,1.1-5.1,2.5-8.1,3.7c-2.7,1.1-5.5,1.9-8.3,2.5C917,493.4,918.1,494.7,919.2,496L919.2,496z"/>
									<path class="st10" d="M947.7,495.1C947.6,495.1,947.6,495.1,947.7,495.1C947.6,495.1,947.6,495.1,947.7,495.1
										C947.8,495.1,947.8,495.1,947.7,495.1z"/>
								</g>
							</g>
							<path class="st10" d="M958,498.6c19,5.9,38.6,12,55.2,13.6c12.3,1.2,23,0,33.6-4.2c4.8-1.9,10-2,9.4-8.9
								c0-0.5-0.2-1.1-0.5-1.8l-11.7-7.9c-4.4,15.1-32.1,15-44.1,13.9C986,502.2,972,498,958,498.6L958,498.6z"/>
						</g>
						<g>
							<g>
								<path class="st34" d="M1021.5,476.1c6.5,16.8,32.1,27.1,33.7,27.9c1.8,0.9,18.1-26,31-50.9c10.4-20,18.7-38.6,15.6-40.4
									c-8.4-4.8-27.7-9.9-33.4-2.5c-6.5,8.3-28,39.6-46.6,65.7C1021.6,475.9,1021.5,476,1021.5,476.1z"/>
								<path class="st35" d="M1021.5,476.1c6.5,16.8,32.1,27.1,33.7,27.9c1.8,0.9,18.1-26,31-50.9l-2.5-23.5
									c-0.2,9.1-3.8,19.8-8.4,27.4c-5.5,9.2-8.9,17.2-17.6,24c-11.4,9-27.5,6.5-36-5.2C1021.6,475.9,1021.5,476,1021.5,476.1z"/>
							</g>
							<g>
								<path class="st34" d="M1061.9,469.3c0.2,20.6,11.5,75.6,0.9,108.3c-0.4,1.2-0.8,2.5-1.3,3.6c-0.1,0.2-0.1,0.4-0.1,0.6
									c1.3,6.6,68.1,7,87,45.1c3.3-5.1,6.7-11.6,8.6-17.7c0.1-0.2,0.1-0.4,0.2-0.6c2.4-8.1,5.1-18.2,7.9-29.3
									c8.2-32.3,17-72.9,20.5-96.6c0.6-4,1-7.4,1.3-10.3c1.9-20.7,11.1-53.7,1-63.8c-7.7-7.8-33.9-13.4-41.4-15.3
									c-9.9-2.5-29.1-9.4-31.6-15.4l-8.2,14.4c-4.3,4.8-10.5,5-17.2,8.8c-7.2,4.1-16.9,2.8-21.8,10.4
									C1065.7,426.7,1061.8,453.3,1061.9,469.3L1061.9,469.3z"/>
								<g>
									<path class="st9" d="M1087.9,404.3c2,5.1,10.3,19.5,15.5,21.7c11.5-5.7,23.9-19,33.8-28.8c-3.2-6.8-1.2-30.6-2.7-36.6
										c-0.5-2-6.3,12.6-7.2,9.7c-1.5-5.1-3.1-10.8-2.5-13.5l-36.3,26.9c1.9,4.8-0.7,11.2-1.1,16.3
										C1087.3,401.5,1087.4,403,1087.9,404.3L1087.9,404.3z"/>
									<path class="st10" d="M1087.5,399.9c4.5,4,10,6.1,17.5,4.2c13.7-3.5,26.6-15.1,28.7-28.8c-1.5-5.1-9.3-15.9-8.7-18.6
										l-36.3,26.9C1090.5,388.3,1087.9,394.8,1087.5,399.9z"/>
								</g>
								<path class="st36" d="M1129.8,376.7c0,0.1,0,0.1,0,0.2c-0.2-0.1-0.4-0.2-0.6-0.3L1129.8,376.7L1129.8,376.7z"/>
							</g>
							<path class="st35" d="M1061.5,581.8c1.3,6.6,68.1,7,87,45.1c3.3-5.1,6.7-11.6,8.6-17.7c0.1-0.2,0.1-0.4,0.2-0.6
								c1.7-6.9,3-13,3.8-15.7c1.3-4.5,2.7-9,4.1-13.6c8.2-32.3,17-72.9,20.5-96.6l-20.2-26.6c-3.9,21.4-27.6,119.1-45.7,133.6
								c-11.5-4.7-40.1-10.2-52.3-11.5c-1.6-0.2-1.7-4.3-3.2-4.6C1064,574.3,1062.7,578.2,1061.5,581.8L1061.5,581.8z"/>
							<path class="st34" d="M1202,536.2c-7.4-3.8-12.7-6.6-20.9-23.5c0.4-21-27-72-27.9-87.4c-0.3-5,10.5-21.8,16.8-23.6
								c11.9-3.4,20.1,8.8,22.5,12.7c10.7,17.7,18.6,52.3,23.7,72.4c4.5,17.7,4.8,29.9,6.7,45.8C1216.6,539,1208.4,539.5,1202,536.2
								L1202,536.2z"/>
							<g>
								<path class="st18" d="M1106.1,425c0.6-2.5,2.7,3.5,2.5,4.8c-0.3,1.4-4.9,4.8-6,6.1c-2.1-2.2-7.4-10.1-7.3-10.4L1106.1,425
									L1106.1,425z"/>
								<polygon class="st18" points="1103.7,431.1 1093.7,567.7 1083.8,574.6 1078.9,564.2 1101.9,430.8 								"/>
							</g>
							<path class="st35" d="M1089.2,390.3c0.6,7.2,6.7,25.7,14.6,27.4c6.8,0.3,30.2-22,31.6-30.4c0,0,4.4,2.8,7.3,4.8
								c-2.3,3.5-23.8,43.6-26.4,46c-4.7-3.5-8.9-8.3-13.2-12.3c-4.4,2.6-9.2,4.8-13,8.4C1081.9,423.1,1088.6,390.1,1089.2,390.3
								L1089.2,390.3z"/>
							<g>
								<g>
									<path class="st9" d="M1092.4,343.6c6-8-3-23.9-11.9-13.9c-3.3,3.7-4.4,13.1-1.2,17.1c3.4,4.2,9.2,1.9,11.8,2.6
										L1092.4,343.6z"/>
									<path class="st10" d="M1084.1,331.8l0.1,0.3c1.3-0.7,3.9,0.5,4.5,2.1c0.8,1.9-0.3,2.6-1.6,3.7c-1.4,1.2-6.4,6.4-0.5,5.3
										C1094.7,341.6,1090.5,326.2,1084.1,331.8L1084.1,331.8z"/>
								</g>
								<path class="st16" d="M1094.6,309.2c1.5-2.2,4.8-8.2,6.5-8.7l7.2,9.9c-0.4,1.3-2.9,2.7-4.2,3.7c-2.8,2.4-5,5.2-6.8,8.4
									c-2.8,4.8-4.8,9.8-7.3,14.7c-1-5.8-0.3-13.7,0.7-19.5C1091.3,314.5,1092.8,311.9,1094.6,309.2L1094.6,309.2z"/>
								<path class="st9" d="M1079.6,369.7c1.3-13.8,4.7-24.8,11.8-40.7c4.7-10.5,15-24.5,23.6-26.5c17.8-4,27.5,6.3,35.3,22.7
									c0,0-13.2,48-16.1,56.2c-5.9,16.9-32.7,12.2-38.4,10.4C1074.2,385,1078.8,377.3,1079.6,369.7L1079.6,369.7z"/>
								<g>
									<path class="st15" d="M1116.5,352.6l3.3,1.2l0.1,0l6.6,2.3l0.1,0l3.1,1.1c1.3-1.6,1.1-4.6,0-7.1c-0.4-0.9-0.9-1.7-1.4-2.3
										c-0.5-0.5-1.1-0.9-1.7-1.1c-2-0.7-3.7-0.3-5.2,0.7c-0.3,0.2-0.5,0.3-0.8,0.5l0,0C1119,349.3,1117.7,351.1,1116.5,352.6
										L1116.5,352.6z"/>
									<path class="st16" d="M1120.6,348L1120.6,348c-0.4,1.9-0.7,4-0.8,5.8l0.1,0l6.6,2.3l0.1,0c1.3-1.6,2.3-3.9,3.2-6
										c-0.4-0.9-0.9-1.7-1.4-2.3c-0.5-0.5-1.1-0.9-1.7-1.1c-2-0.7-3.7-0.3-5.2,0.7C1121.1,347.6,1120.9,347.8,1120.6,348z"/>
									<path class="st15" d="M1125.7,352c-0.7,0.9-1,1.9-0.7,2.1c0.3,0.2,1.1-0.4,1.8-1.3c0.7-0.9,1-1.9,0.7-2.1
										C1127.2,350.5,1126.4,351.1,1125.7,352L1125.7,352z"/>
								</g>
								<g>
									<path class="st15" d="M1088.6,341.7l2.5,0.9l0,0l4.9,1.7l0.1,0l2.3,0.8c1.3-1.5,1.6-4.4,1.2-6.6c-0.2-0.8-0.4-1.5-0.8-2
										c-0.3-0.5-0.7-0.8-1.2-0.9c-1.5-0.5-2.9,0-4.3,1c-0.2,0.2-0.5,0.4-0.7,0.5l0,0C1091.1,338.4,1089.7,340.2,1088.6,341.7
										L1088.6,341.7z"/>
									<path class="st16" d="M1092.6,337.1L1092.6,337.1c-0.6,1.8-1.2,3.7-1.5,5.4l0,0l4.9,1.7l0.1,0c1.3-1.6,2.5-3.7,3.5-5.8
										c-0.2-0.8-0.4-1.5-0.8-2c-0.3-0.5-0.7-0.8-1.2-0.9c-1.5-0.5-2.9,0-4.3,1C1093.1,336.8,1092.8,336.9,1092.6,337.1
										L1092.6,337.1z"/>
									<path class="st15" d="M1096.1,340.5c-0.7,0.9-1.1,1.8-0.9,2c0.2,0.2,0.9-0.4,1.6-1.4c0.7-0.9,1.1-1.8,0.9-2
										C1097.5,339,1096.8,339.6,1096.1,340.5z"/>
								</g>
								<path class="st16" d="M1136.6,346.9l-1.9,3.3c-0.9,0.3-13.8-5.4-16.8-6.5c-0.3-1.7,1.1-3.9,1.6-5.4
									C1125.2,341.4,1131,343.6,1136.6,346.9z"/>
								<path class="st16" d="M1090.6,327.2l-0.4,3.9c0.4,0.8,11.2,5.6,13.6,6.8c1-1.1,1.2-3.8,1.6-5.3
									C1100.4,330.9,1095.7,328.6,1090.6,327.2L1090.6,327.2z"/>
								<path class="st10" d="M1104.1,349.4c-0.2,0.4-0.4,0.8-0.6,1.3c-0.2,0.4-0.4,0.8-0.6,1.3c-0.2,0.4-0.5,0.8-0.7,1.2l-0.7,1.2
									l-0.8,1.1c-0.3,0.4-0.6,0.7-0.9,1.1l-1,1l-1,1l-0.3,0.3l0.3,0.4c0.3,0.4,0.6,0.7,0.9,1.1c0.1,0.2,0.3,0.3,0.5,0.5l0.5,0.5
									c0.4,0.3,0.8,0.6,1.2,0.9c0.4,0.3,0.8,0.5,1.3,0.8c0.2,0.1,0.4,0.2,0.6,0.3l0.6,0.3c0.4,0.2,0.9,0.4,1.3,0.6
									c0.4,0.2,0.8,0.4,1.3,0.6c0.4,0.2,0.8,0.4,1.3,0.7c-0.4-0.3-0.7-0.6-1.1-0.9c-0.4-0.3-0.8-0.5-1.2-0.8
									c-0.8-0.5-1.6-1-2.4-1.5c-0.4-0.3-0.8-0.5-1.1-0.8l-0.5-0.4c-0.2-0.1-0.3-0.3-0.5-0.4l-0.4-0.5c-0.1-0.2-0.3-0.3-0.4-0.5
									c-0.2-0.3-0.5-0.6-0.8-1l0,0.7l1.1-1c0.3-0.4,0.7-0.7,1-1.1c0.3-0.4,0.6-0.8,0.9-1.2l0.7-1.3c0.2-0.4,0.4-0.9,0.6-1.3
									c0.2-0.5,0.3-0.9,0.4-1.4c0.1-0.5,0.2-1,0.3-1.4C1104,350.4,1104,349.9,1104.1,349.4L1104.1,349.4z"/>
								<path class="st10" d="M1099.4,378.6c0,0,0-0.1,0-0.3c0-0.2-0.1-0.6-0.2-0.9c-0.1-0.4-0.4-0.7-0.7-1
									c-0.3-0.3-0.7-0.6-1.2-0.8c-0.9-0.4-1.8-0.5-2.6-0.4c-0.4,0-0.6,0.1-0.8,0.2c-0.2,0.1-0.3,0.2-0.3,0.2s0.1,0.1,0.3,0.2
									c0.2,0.1,0.4,0.2,0.7,0.4c0.6,0.3,1.3,0.6,2,1c0.2,0.1,0.3,0.2,0.5,0.3c0.2,0.1,0.3,0.2,0.5,0.3c0.2,0.1,0.3,0.2,0.5,0.2
									c0.1,0.1,0.3,0.2,0.4,0.2c0.3,0.2,0.5,0.3,0.6,0.4C1099.3,378.5,1099.4,378.6,1099.4,378.6L1099.4,378.6z"/>
								<path class="st16" d="M1094,290.4c0.8,10.4,4.5,17.2,12.6,25.1c8.5,8.2,25.7,6,34.8,11.3c-0.4,2.6-6.6,5.1-5.5,10.3
									c1,4.7,5,8.8,2.9,12.2c-2.8,4.7-2.7,12.3-2.3,16.4l11.7-5.6c5.1-1.8,15.4-12.9,17.8-19.7c4.2-11.9-1-14.7-7.4-21.5
									c0-0.1,0-0.1,0.1-0.2c4-11.9-12.9-30.5-21.9-34.8c-10.1-4.7-25.4-1.6-37.2,3.6C1097.7,288.5,1095.8,289.4,1094,290.4
									L1094,290.4z"/>
								<g>
									<path class="st9" d="M1137.9,362.8c3.4-9.4,21.6-10.6,18.2,2.4c-1.3,4.8-8.6,10.8-13.7,10.4c-5.4-0.5-6.7-6.6-8.6-8.4
										L1137.9,362.8z"/>
									<path class="st10" d="M1152.3,363.3l-0.3,0.1c-0.2-1.5-2.6-2.9-4.2-2.6c-2,0.4-2,1.6-2.2,3.3c-0.3,1.8-1.9,8.9-4.2,3.4
										C1138.2,359.8,1153.5,354.9,1152.3,363.3L1152.3,363.3z"/>
								</g>
								<path class="st10" d="M1114.5,370.6c0,0-0.1,0.1-0.3,0.2c-0.2,0.2-0.4,0.3-0.8,0.6c-0.7,0.4-1.9,0.9-3.3,1.3
									c-0.7,0.2-1.5,0.3-2.3,0.5c-0.8,0.1-1.7,0.2-2.6,0.2c-0.9,0-1.8-0.1-2.7-0.2c-0.9-0.1-1.8-0.4-2.7-0.7
									c-0.9-0.3-1.7-0.8-2.4-1.3c-0.7-0.5-1.4-1.1-2-1.8c-0.6-0.6-1.1-1.4-1.5-2.1c-0.2-0.4-0.4-0.7-0.6-1.1
									c-0.2-0.3-0.3-0.7-0.5-1c-0.2-0.3-0.2-0.7-0.4-1c-0.1-0.3-0.2-0.6-0.3-0.9c-0.1-0.6-0.3-1.1-0.4-1.5
									c-0.2-0.8-0.3-1.3-0.3-1.3s0,0.5,0,1.4c0,0.4,0.1,1,0.1,1.6c0.1,0.6,0.2,1.3,0.4,2c0.1,0.4,0.2,0.8,0.3,1.1
									c0.2,0.4,0.3,0.8,0.5,1.2c0.4,0.8,0.8,1.6,1.5,2.4c0.6,0.8,1.3,1.5,2.2,2.1c0.9,0.6,1.8,1.1,2.8,1.5c1,0.4,2,0.6,3,0.7
									c1,0.1,2,0.1,3,0.1c1.9-0.1,3.7-0.6,5.1-1.2c0.7-0.3,1.3-0.6,1.9-0.9c0.5-0.3,1-0.6,1.3-0.9c0.3-0.3,0.6-0.6,0.7-0.8
									C1114.4,370.7,1114.5,370.6,1114.5,370.6L1114.5,370.6z"/>
								<path class="st37" d="M1099.6,287.6c0.1,0.5,0.2,1,0.3,1.5c2.4,10.5,9.5,19.4,18.7,24.4c9.7,5.2,24.2,12.1,35.6,7.9
									c1.7-0.6,3.2-1.5,4.5-2.6c4-11.9-12.9-30.5-21.9-34.8C1126.7,279.3,1111.4,282.4,1099.6,287.6L1099.6,287.6z"/>
								<g>
									<path class="st16" d="M1109.9,350.7c2.8-5.6,9.7-7.9,15.3-5c5.6,2.8,7.9,9.7,5,15.3c-2.8,5.6-9.7,7.9-15.3,5
										C1109.4,363.1,1107.1,356.3,1109.9,350.7L1109.9,350.7z M1111,351.2c-2.5,5-0.5,11.1,4.5,13.6c5,2.5,11.1,0.5,13.6-4.5
										c2.5-5,0.5-11.1-4.5-13.6C1119.7,344.2,1113.5,346.2,1111,351.2z"/>
									<path class="st16" d="M1082.2,338.1c2.8-5.6,9.7-7.9,15.3-5c5.6,2.8,7.9,9.7,5,15.3c-2.8,5.6-9.7,7.9-15.3,5
										C1081.6,350.6,1079.4,343.7,1082.2,338.1z M1083.3,338.7c-2.5,5-0.5,11.1,4.5,13.6c5,2.5,11.1,0.5,13.6-4.5
										c2.5-5,0.5-11.1-4.5-13.6C1091.9,331.6,1085.8,333.7,1083.3,338.7z"/>
									<path class="st16" d="M1102.9,346.7c1.2-1,2.5-1.3,3.7-0.9c1.6,0.5,3,2.2,3.7,4.5l1.2-0.3c-0.8-2.7-2.5-4.6-4.5-5.3
										c-1.1-0.4-2.9-0.5-4.9,1.1L1102.9,346.7L1102.9,346.7z"/>
								</g>
							</g>
							<path class="st35" d="M1189.5,495c9.2-5.5,18.3,1.1,25.2,7.7c21.4,20.4,5.4,36.4,5.4,36.4c-3.5,2.6-10,4-14.8,1.8
								C1181.4,529.9,1172.6,505.1,1189.5,495z"/>
							<g>
								<path class="st9" d="M1197.3,520.9c0,0,0.4,0.8,1,2c2.4,4.7,8.5,16.1,12.9,17.7c7.5,2.7,9.4-2.7,13.2-7.1
									c8.3-9.8,13.5-20.7,16.6-33.9c4.4-19,4.3-43.3,4.6-66.2c0-1.3,0-2.7,0.1-4l-14-3.1c-5.9,14.6-11.8,28.2-20.7,42.2
									C1201.5,483,1191.9,502.7,1197.3,520.9L1197.3,520.9z"/>
								<g>
									<path class="st9" d="M1229,438.9c0.3-0.3,1.5,6.2,1.7,5.9l9.1-9.8c4.9-1,7.8-4.5,11.7-7.4c3.8-2.8,8.5-4,12.4-6.7
										c6.6-4.5,19.1-20.4,12.9-23.1c-2.3,0.2-8.1,15.8-6.6,10.6c1.2-4.1,13.1-20.8,6.5-24.5c-2.3-0.3-5.3,13.5-10,19.4
										c-0.2,0.2-0.4,0.4-0.6,0.6c0.1-0.2,0.2-0.5,0.4-0.9c2.4-5.4,12.6-24.7,6.4-26.1c-1.7,0.3-3.6,4.4-5.6,9.3
										c1.7-4.7,2.3-8.8-0.8-8.6c-2.1,0.1-5.9,8-8.4,12.8c-0.8,1.5-1.5,2.7-2,3.3c-2.7,3.1-5.7,6-9,8.6c-0.6,0.5-1.3,1-2,1.5
										c-0.5,0.4-1.1,0.8-1.6,1.1C1239.4,407.9,1232,415.8,1229,438.9L1229,438.9z M1260.9,399.7c0.1-0.2,0.3-0.5,0.5-0.9
										c0.4-0.6,0.8-1.4,1.3-2.3c0.7-1.4,1.6-3,2.4-4.7c-0.7,1.7-1.5,3.4-2.3,4.8c-0.4,0.8-0.9,1.5-1.3,2.2
										C1261.3,399.2,1261.1,399.5,1260.9,399.7L1260.9,399.7z"/>
									<path class="st9" d="M1234.3,421.6l12.5-9.1c0.8-0.8,1.4-2,1.7-3.3c0.5-2.4,0.2-5.2-1.2-7c-0.4-0.5-0.8-0.9-1.3-1.2
										c0.4-3.2,6.1-13.2,3.4-16.9c-0.4-0.5-0.9-0.9-1.5-1.1c-2.4,6.4-8.6,10.6-10.9,16.7c-1.1,2.9-2.4,11.1-2.9,15.6
										c-0.1,0.7-0.2,1.4-0.2,1.9C1233.6,420.6,1234.9,419,1234.3,421.6L1234.3,421.6z"/>
									<path class="st10" d="M1243.4,401.6c0.7,0.7,1.4,1.4,2,2.1c1.4,1.7,2.4,3.5,3.1,5.5c1.4,3.8,1.7,7.9,0.8,12
										c2.8-4.3,2.2-12.4,0.1-16.8c3.7-2.1,5.2-5.3,8.1-8.3c1.4,0.6,2.7,1.6,3.9,2.8c0,0,0,0,0,0c3.9,4.1,7.2,7.6,5.4,4.3
										c-0.1-0.1-0.1-0.2-0.2-0.3c-0.7-1.2-1.5-2.5-2.2-3.6c-0.4-0.6-1-1.6-1.7-2.6c0,0-0.1-0.1-0.1-0.1c-1.3-2-2.9-4.5-4.4-6.2
										c-0.8,1.5-1.5,2.7-2,3.3c-2.7,3.1-5.7,6-9,8.6c-0.4-0.5-0.8-0.9-1.3-1.2c0.4-3.2,6.1-13.2,3.4-16.9
										C1249.1,390.2,1245,398.1,1243.4,401.6L1243.4,401.6z"/>
								</g>
								<path class="st10" d="M1198.2,522.9c2.4,4.7,8.5,16.1,12.9,17.7c7.5,2.7,9.4-2.7,13.2-7.1c8.3-9.8,13.5-20.7,16.6-33.9
									c4.4-19,4.3-43.3,4.6-66.2c-5.5,6-4.9,19.7-5.6,26.5c-1.2,11.2-1.8,49.8-20.3,70.1c-0.7,0.8-3.2-2.5-4.9-2.5
									c-1.7-0.1-3.6,2.1-6.1,1.9C1204,528.9,1200.7,526.4,1198.2,522.9L1198.2,522.9z"/>
							</g>
						</g>
						<g>
							<path class="st38" d="M1011.5,539.9c34.5,10.4,79.7,28.3,99.8,33.5c12,3.1,47.7,20.1,46.7,34.5c-0.7,10.7-13.8,27.8-22,33.5
								c-19.2,13.4-28.4,14.9-50.8,11.5c-15.1-2.3-82.6-52.6-83.6-59.2L1011.5,539.9L1011.5,539.9z"/>
							<g>
								<path class="st32" d="M870.1,710.5l4.9,4.1c-0.1,2.3-1.8,9.6-4.9,17c-9.8-5.6-30.5-16.8-39-24.7
									C838.6,703.5,863.2,710.6,870.1,710.5z"/>
								<path class="st38" d="M962.2,519.5c52.2,12.3,149.1,53.9,149.1,53.9c-5.2,19.2-48,43.4-63.7,56.1
									c-19.8-9.6-60.5-40.9-71.5-47.9c-7.2,9.5-85.8,115.7-101.1,133c-1.6-0.6-4-2.6-4.9-4.1c10.5-33,54-135,63.8-151.4
									C939.2,550.4,951.5,517,962.2,519.5L962.2,519.5z"/>
							</g>
						</g>
					</g>
					<path class="st8" d="M973.3,646.3H1184c3.5,0,6.4,2.9,6.4,6.4v14c0,3.5-2.9,6.4-6.4,6.4H973.3c-3.5,0-6.4-2.9-6.4-6.4v-14
						C966.9,649.2,969.8,646.3,973.3,646.3z"/>
					<path class="st8" d="M1147.6,672.3c-0.1,0.3-0.2,0.5-0.3,0.8h71.4c16.2-7.2,29.6-18.4,36.4-35.9c2.8-7.2,3.9-15,4.1-23.1
						c0.3-18.3-4.9-37.9-9.3-54c-4.3-15.6-8.5-30-12.8-43.2c-0.1,0.6-0.3,1.2-0.4,1.8c-1.4,6.1-3.5,12.1-7,17.7
						c-2.5,4.1-5.3,7.8-8.8,10.9c-10.8,12.6-44.7,6.6-59.9,13.5c-26.2,11.8-11.8,46.2-12.1,71.7c0,4.2,0.2,8.9,0.3,13.8
						C1149.6,655.4,1149.7,665,1147.6,672.3L1147.6,672.3z"/>
				</g>
				<g>
					<polygon class="st39" points="951.9,818.9 984.1,530.6 1007.1,530.7 957.3,818.9 					"/>
					<polygon class="st20" points="750.3,818.9 787.8,529.6 807.2,530.7 757.4,818.9 					"/>
					<polygon class="st20" points="265.9,818.9 216.1,530.7 237.1,529.6 271.3,818.9 					"/>
					<polygon class="st39" points="465.7,818.9 415.9,530.7 438.2,531.6 472.1,818.9 					"/>
					<g>
						<g>
							<rect x="176.5" y="521" class="st39" width="866.1" height="17.6"/>
							<rect x="732" y="521" class="st20" width="310.6" height="17.6"/>
						</g>
						<rect x="151.6" y="516.9" class="st40" width="916.1" height="8.1"/>
					</g>
				</g>
				<g>
					<g>
						<g>
							<polygon class="st4" points="194.2,603.3 190.2,790.3 205.8,790.3 201.1,603.3 							"/>
							<g>
								<g>
									<path class="st4" d="M197.1,773.1c-2.9,1-76.3,30.5-76.3,30.5v9.5h76.3V773.1z"/>
									<path class="st4" d="M198,773.1c2.9,1,76.3,30.5,76.3,30.5v9.5H198L198,773.1L198,773.1z"/>
								</g>
								<path class="st5" d="M197.1,773.1c1.5,1,41,30.5,41,30.5v9.5h-41V773.1z"/>
							</g>
						</g>
						<g>
							<path class="st6" d="M333.6,646.3c-1.6,12.1-6.8,22.2-19.1,26.8h-31.8c-2.4-8.8-3.9-18.7-9.2-26.8c-0.3-0.4-0.6-0.9-0.9-1.3
								c-7.8-10.7-20.9-16.8-30.3-25.4c-13.4-12.1-20-27.7-23.2-46.5c-5.4-32.2,3.4-66.5-2.4-97.8c0,0-10.8-57.3-3.3-49.2
								c0.4,0.5,0.9,1,1.3,1.5l0,0c17.8,21.9,32.5,94.5,40.6,108.9c16.7,30,69.1,17.4,74.4,58.9
								C331.6,610.9,335.7,630.4,333.6,646.3L333.6,646.3z"/>
							<path class="st7" d="M55,614.1c0.1,8.1,1.3,15.9,4.1,23.1c6.7,17.5,20.2,28.7,36.4,35.9h218.9c5.2-3.4,8.6-9.7,8.6-16.8
								c0-1.9,0.3-5.5,0.4-10c0.3-11.2-0.4-27.7-10-36c-20.2-17.6-59.1-8.2-66.1-28.5c-5.5-16.1-5.7-104.7-32.7-154.2c0,0,0,0,0,0
								c-10.3-18.9-24.6-32.1-44.6-33.4c-0.1,0-0.3-0.1-0.4-0.1c-27.1-6.5-80.4-8-92.1,124.6c-0.3,2.9-1.8,5.5-2.7,8.4
								c-3.5,11.1-7,23.1-10.5,35.8C60.1,578.2,55.3,596.6,55,614.1L55,614.1z"/>
						</g>
					</g>
					<g>
						<path class="st8" d="M323.4,652.7v14c0,3.5-2.6,6.4-5.7,6.4H129.6c-3.1,0-5.7-2.9-5.7-6.4v-14c0-3.5,2.6-6.4,5.7-6.4h188.1
							C320.8,646.3,323.4,649.2,323.4,652.7z"/>
						<g>
							<g>
								<path class="st41" d="M256.7,799.6l-6.6,0c-1.4,1.8-2.6,3.7-5,11.4c11.5,2,16,2.6,27.9,2C269.3,805.5,262.1,804,256.7,799.6
									z"/>
								<path class="st9" d="M147.1,650c6.4,0.3,28.2-0.6,50.9-1.6c14.2-0.6,28.8-1.2,40.1-1.4c8.9-0.2,15.7-0.2,18.8,0.2
									c-0.6,12-7.6,127.7-6.8,152.3c1.7,0.6,4.9,0.5,6.6,0c6.9-16.2,18.8-51.6,29.3-85c4.3-13.7,8.4-27.1,11.7-38.7
									c4.6-15.7,7.8-28.1,8.7-33.4c1.6-10.1,13.9-43.6,3.8-48.6c-17.4-8.5-41.7-14.5-63.6-18.7c-29.2-5.5-54.4-7.6-54.4-7.6
									c-17.2,3.2-28.4,13.4-35.5,25.9C145.6,613,144.7,638,147.1,650L147.1,650z"/>
							</g>
							<path class="st42" d="M147.1,651c6.4,0.3,28.2-0.7,50.9-1.6c14.2-0.6,28.8-1.2,40.1-1.4c8-20,26.9-58.7,39-60.1l-24.3,1
								l-96,4C145.6,612.8,144.7,638.5,147.1,651L147.1,651z"/>
							<path class="st10" d="M269.5,620.6c2.8,13.8,8.1,26,12.7,39.1c5.5,15.6,6.5,31,6.7,47.3c4.3-13.7,8.4-27.1,11.7-38.7
								c-2.6-7.1-6.4-14.3-9.1-20.1c-10.3-22.8-23.8-49.8-24.7-73.7v-1.9C261.9,583.9,267,608.1,269.5,620.6L269.5,620.6z"/>
							<g>
								<g>
									<g>
										<path class="st15" d="M99.7,599.5l112.2,10.9c-0.8-15.3-10.2-26.9-14.6-40.3c-2.2-6.6-3.1-13.6-1.2-21.8
											c3-12.7,9.4-41.9,14.7-53.6c2.5-5.6,5.1-10.1,7-14.5c0.6-1.4-3.8-7.4-3.3-8.8c2.7-7.8-13.6-48.9-17.4-55.1
											c-7.6-12.5-23.9-10.7-38.9-10.7c-20.8,0-28.3-4.9-45.1,11c-12.8,12.1-8.9,31-3.6,45.6c6.1,16.9,8,40.1,7.6,57.7
											c0,1.1-0.1,2.2-0.1,3.3c-0.5,13.2-3.7,26.4-7.3,39.2c-1,3.8-2.9,8.4-4.8,13.2C101.6,584.4,98.3,593.6,99.7,599.5
											L99.7,599.5z"/>
										<g>
											<g>
												<path class="st9" d="M134.7,406.2c3,3.4,24.1,14.1,35.9,17.4c1.9-1.6,3.9-2.8,5.6-2.9c1.3,0.1,2.6,0.4,3.9,0.8
													c1.2-4.4-3.7-10.8-4.4-14.3c-0.2-0.8-0.2-1.7-0.2-2.7c0.1-2.4,0.8-5,1.7-7.6c0.9-2.8,2-5.6,2.6-7.9
													c0.5-2,1.3-3.9,1.5-5.9l-38.3-23.4c2.4,1.6,3.7,8.5,4.4,14.8c0.4,4.1,0.6,7.9,0.7,10c0.1,5.2-2.9,10.5-6.5,14.7
													C139.2,402.1,136.7,404.4,134.7,406.2L134.7,406.2z"/>
												<path class="st10" d="M142.9,359.9c2.4,1.6,3.7,8.5,4.4,14.8c2.6,3.4,5.5,6.6,8.6,9.9c4.4,4.6,13.8,10.5,21.1,12.5
													c0.9-2.8,2-5.6,2.6-7.9c0.5-2,1.3-3.9,1.5-5.9L142.9,359.9z"/>
											</g>
											<g>
												<path class="st26" d="M110.8,290.7c6.7-7.6,16-6.9,23.8-1.8c4.1,2.7,8.5,5,13,7.1c2.8,1.3,9.8,5.5,12.7,3.6l-21,22.3
													c-0.9,1-1.8,1.7-3,2.4c-9.2,5.9-21.9,0.3-27-8.3C104.4,307.8,104.4,298,110.8,290.7L110.8,290.7z"/>
												<path class="st28" d="M140.2,306.6l10,13.5l1,1.3c1.7,0,3.4,0.2,5.3,0.7c7.8,1.8,16.6,6.9,22.6,10.7
													c2.7,1.8,5.9,4.5,8.9,7.1c5.7,4.9,10.9,9.3,11.4,6c4.3-24.5-3.8-39.3-17.3-47C157.1,284.5,143.9,305.3,140.2,306.6
													L140.2,306.6z"/>
												<path class="st9" d="M140.2,332.3c3.2-2.7,5.9-6.3,8.4-9.8c0.5-0.8,1-1.6,1.5-2.4c2.1-3.5,3.8-7.6,5.9-11
													c6.3-2.3,13.5-3,19.3-1.8c6.8,1.4,12.3,9.2,16.9,19.9c4,9.3,6,15.7,8.9,27.1c2.4,9.3-5,27.3-9.6,36.2
													c-4.8,9.1-27.9-1.9-35.4-6.8c-7.5-4.8-11.3-9.8-13.6-17.3c-0.2-0.7-0.4-1.5-0.6-2.3
													C138.8,350.2,139.3,340.4,140.2,332.3L140.2,332.3z"/>
												<g>
													<path class="st29" d="M159.4,342.6c0.5,0.6,0.6,1.6,0.2,2.2c1.5-0.5,2.6-2,1.9-3.2c0.4,0.7,0.8,1.4,0.4,2.1
														c1.2,0,2.3-1.1,2.5-1.9c0,2.2-1.5,2.4-2.7,3.8l-3.8,2.9C157.8,346.7,160.5,344.6,159.4,342.6L159.4,342.6z"/>
													<g>
														<path class="st10" d="M165.2,346.3c3.1,2.5,5.2,7.5,5.2,7.5c0.4,0.7,0.6,0.5,0.7,1.3c-5.6,0.3-9.9,1.5-14.7,3.7
															C155.4,354.5,158,340.5,165.2,346.3L165.2,346.3z"/>
														<path class="st15" d="M157.6,356.5c0.6-0.5,1.5-0.9,2.6-1.2c2.9-0.9,7-1.4,9.1-1.4c0.5,0,0.9,0,1.1,0.1
															c-0.1-0.3-0.3-0.8-0.7-1.5v0c-1.5-2.8-5-7.9-7-7.2c-1.9,0.7-3.1,2.7-4,5.2C158.2,352.3,157.8,354.4,157.6,356.5z"/>
														<path class="st43" d="M158.8,350.4c0.2,1.9,0.7,3.5,1.4,4.9c2.9-0.9,7-1.4,9.1-1.4c0.2-0.5,0.3-0.9,0.4-1.5v0
															c-1.5-2.8-5-7.9-7-7.2C160.8,345.9,159.6,347.9,158.8,350.4L158.8,350.4z"/>
														<path class="st15" d="M161.6,350.9c0,0.7,0.3,1.3,0.8,1.3c0.4,0,0.8-0.6,0.8-1.3c0-0.7-0.3-1.3-0.8-1.3
															C161.9,349.6,161.6,350.2,161.6,350.9z"/>
													</g>
												</g>
												<g>
													<path class="st29" d="M187.4,338c0.4,0.6,0.5,1.6,0.1,2.2c1.2-0.5,2.2-2,1.7-3.2c0.3,0.7,0.7,1.4,0.3,2.1
														c1,0,2-1.1,2.1-1.9c0,2.2-1.3,2.4-2.3,3.8l-3.2,2.9C185.9,342,188.3,340,187.4,338L187.4,338z"/>
													<g>
														<path class="st10" d="M192.5,341.7c2,2.6,2.8,7.4,2.8,7.4c0.2,0.6,0.4,0.6,0.4,1.2c-4.2-0.4-7.7,0.2-11.6,1.6
															C183.9,347.9,187.9,335.5,192.5,341.7L192.5,341.7z"/>
														<path class="st15" d="M185.3,350c0.5-0.3,1.3-0.6,2.1-0.8c2.3-0.5,5.5-0.4,7.1-0.2c0.4,0.1,0.7,0.1,0.8,0.2
															c0-0.3-0.1-0.8-0.3-1.5l0,0c-0.7-2.7-2.7-7.7-4.2-7.3c-1.5,0.4-2.8,2-3.7,4.2C186.4,346.2,185.8,348.1,185.3,350
															L185.3,350z"/>
														<path class="st43" d="M187.1,344.6c-0.1,1.7,0,3.3,0.4,4.6c2.3-0.5,5.5-0.4,7.1-0.2c0.2-0.4,0.4-0.8,0.5-1.3l0,0
															c-0.7-2.7-2.7-7.7-4.2-7.3C189.3,340.8,188.1,342.4,187.1,344.6L187.1,344.6z"/>
														<path class="st15" d="M189.1,345.4c-0.1,0.6,0.1,1.2,0.4,1.3c0.3,0,0.7-0.4,0.8-1.1c0.1-0.6-0.1-1.2-0.4-1.3
															C189.6,344.2,189.2,344.7,189.1,345.4z"/>
													</g>
												</g>
												<path class="st43" d="M181.6,329.6c2.2-5.2,8.3-2.9,10.3,1.5c-1.4-2.2-3.4-1.9-5.3-0.9
													C185.7,330.6,180.6,332.2,181.6,329.6L181.6,329.6z"/>
												<path class="st43" d="M163.4,335.5c-4-4.6-11.7-1.1-13.4,3.6c1.4-2.4,4.1-2.5,6.8-2
													C158.1,337.3,165.3,337.8,163.4,335.5z"/>
												<path class="st10" d="M184.5,363c-2.5-2.9-4.5-7.5-4.4-9.9c0,0,4.4,8,7,9.8c-1.9,1.5-3.6,3.8-6.3,2.4
													C182.1,365.6,184.1,364.6,184.5,363z"/>
												<path class="st28" d="M118.1,335.1c0.6,3.1,1.6,6.2,2.9,8.9c5.5,11.6,16.6,18.7,26.8,25.8c-1.6-11.9-7.8-20.4-3.8-33.3
													c2.2-7.1,6.6-8.9,11.5-13.6c0.3-0.3,0.6-0.6,0.9-0.9c1.6-1.8,2.9-4.1,3.5-6.4c0.5-1.9,2.8-8.7,2.9-8.8
													c0,0-1.1-1.1-3.1-2.4c-0.1-0.1-0.2-0.2-0.3-0.2c-1.8-1.2-4.2-2.5-7.1-3.5c-6.9-2.3-16.5-2.4-27,6.8
													c-4.6,4.1-7.1,10-7.8,16.3C117.2,327.6,117.4,331.4,118.1,335.1z"/>
												<path class="st26" d="M156.1,309c6.3-2.3,13.5-3,19.3-1.8c6.8,1.4,12.3,9.2,16.9,19.9l0.3-0.4c2.2-3-4-14.2-6.5-17.5
													c-3.7-4.9-9.9-7.4-15.8-8.1c-4.7-0.5-8,0.8-10.6,3.2C158.4,305.7,157.2,307.3,156.1,309L156.1,309z"/>
												<path class="st26" d="M118.1,335.1c0.6,3.1,1.6,6.2,2.9,8.9c5.5,11.6,16.6,18.7,26.8,25.8c1.7-20-7.8-20.4-3.8-33.3
													c2.2-7.1,6.6-8.9,11.5-13.6c0.3-0.3,0.6-0.6,0.9-0.9c1.6-1.8,2.9-4.1,3.5-6.4c0.5-1.9,2.8-8.7,2.9-8.8
													c0,0-1.1-1.1-3.1-2.4c-0.1-0.1-0.2-0.2-0.3-0.2c-5.1,4.6-5.5,12.7-10.6,17.7c-6.4,6.2-17.8,8.4-26,4.9
													c-1.7-0.7-3.5-1.7-5.2-2.9C117.2,327.6,117.4,331.4,118.1,335.1L118.1,335.1z"/>
												<g>
													<path class="st9" d="M130.7,366.3c-0.3-4.1,2.9-7.9,7-6.9c11.9,2.9,9.9,13.6,9.9,13.6c-0.1,4.1-6.4,4.7-9.2,3.5
														C134.7,374.9,130.9,370.2,130.7,366.3z"/>
													<path class="st10" d="M140,363.2c1.5,1.7,4.2,5.7,4.2,5.7c0.8,3.2-5.9,3.2-6.7-0.6c-0.3-1.7,1.3-3.4-0.9-4.3
														c-1.5-0.6-2.9,0.6-3.4,1.9C132.4,362.3,137.7,360.5,140,363.2L140,363.2z"/>
												</g>
												<g>
													<g>
														<path class="st10" d="M189.1,372.1c-0.1,0.1-0.2,0.2-0.2,0.3c0-0.1,0-0.2,0-0.2L189.1,372.1L189.1,372.1z"/>
														<path class="st10" d="M178.2,372.7c1.5,2.1,3.1,5.7,6.1,5.5c1.3-0.1,2.3-0.8,3-1.8c0.9-1.2,1.4-2.8,1.5-4
															c-0.6,0.7-1.4,1.3-2.3,1.7C183.8,375.2,180.4,374.8,178.2,372.7L178.2,372.7z"/>
													</g>
													<path class="st15" d="M178.2,372.7c1.5,2.1,3.1,5.7,6.1,5.5c1.3-0.1,2.3-0.8,3-1.8c-0.3-0.8-0.6-1.6-0.7-2.4
														C183.8,375.2,180.4,374.8,178.2,372.7z"/>
												</g>
											</g>
										</g>
										<path class="st44" d="M133.4,405.3c4,5,26.2,20.3,31.2,25c1.3-1.9,3.5-4.7,6-6.7c1.9-1.6,3.9-2.8,5.6-2.9c0,0,0.1,0,0.1,0
											c0,0-0.8-0.3-2.1-1c-6.3-2.9-24.8-12.1-31.4-21.5c-0.3,0.3-0.8,0.7-1.4,1.1C139,401.3,134.7,404,133.4,405.3L133.4,405.3z
											"/>
										<path class="st44" d="M174,420.7c0.7,0,1.4,0,2.2,0.1c1.3,0.1,2.6,0.4,3.9,0.8c3.2,1,6.3,2.9,8.7,5.1
											c-0.3-3.7-9.6-23.1-13.3-22c0,0-0.1,0-0.1,0c0,0-0.1,10-1.1,15.1C174.1,420.1,174.1,420.4,174,420.7z"/>
									</g>
									<path class="st15" d="M217.7,457.8c-3.7-16.5-12.9-50.1-33.3-50l1.1,50c0.6,6.2,4.1,15.8,6.3,22.5
										c3.8,11.8,10.3,55.6,15.7,66.7c5.6,11.7,19.8,10.6,22.6-8c1.5-9.8-3.9-25.6-5.3-35.5C222.8,488.2,221,472.8,217.7,457.8
										L217.7,457.8z"/>
									<path class="st44" d="M105,575.7c9.8,4.5,20.2,7.2,31.7,9.3c21.9,4,43.1-2.5,60.6-14.9c-2.2-6.6-3.1-13.6-1.2-21.8
										c3-12.7,14.2-62.6,16.2-67c-3.5,2-1.9,1.7-5.8,2.6c-10.4,2.3-22.7,2.7-33.3,1.8c-10.2-0.8-20.6-1.4-30.1-5.4
										c-2.7-1.1-6.9-2.7-8.9-4.9c-2.4-2.6-2.4-6.4-3-10.1c-0.9-5.8-1.9-11.6-3.1-17.3c-0.8-3.9-1-10.4-3.4-13.3
										c1.8,5.7,1.1,14,1.6,19.9c0.7,7.5,0.3,15.1-0.4,22.6c-1.4,14.3-4.3,28.6-8.9,42.7c0,1.1-0.1,2.2-0.1,3.3
										c-0.5,13.2-3.7,26.4-7.3,39.2C108.7,566.3,106.8,570.9,105,575.7z"/>
									<path class="st9" d="M213.3,523.7c1.6-1.1,3.1-1.1,4.6-1.3c1.1-0.1,2,1,3,0.9c0.6-0.1,1.3-1.1,1.8-1.2
										c1.9-0.2,2.9-0.1,4.9,0c2.2,0.1,2.9-0.7,4.8-1.1c5.6-1,4.4,3.2,8.5,5.2l-3.4,8.9c-4.1,8.7-20.5,1.6-26.4-1.9
										C209.9,529.3,210.4,525.8,213.3,523.7L213.3,523.7z"/>
									<path class="st15" d="M102.6,457.7c0-14.8,0-44.8,20-48.5l9.8,43c0.7,5.4-0.6,14.3-1.3,20.4c-1.2,10.8,2,49.5-0.9,60
										c-3,11.1-17,12.9-23.8-2.6c-3.6-8.1-1.7-22.6-2.6-31.4C102.6,485.2,102.6,471.2,102.6,457.7L102.6,457.7z"/>
									<g>
										<path class="st44" d="M99.5,501.8l3.4-15.3c9.1,2.2,16.4,13.5,14.4,22.6C114,524.5,98.3,514.1,99.5,501.8L99.5,501.8z"/>
										<g>
											<path class="st9" d="M74.6,516.2c2.2,2.1,10.6-7.2,15.3-10.9c0.5-0.4,0.9-0.7,1.3-0.9c-0.3,0.4-0.7,0.8-1,1.2
												c-5,5.6-15.1,15.8-13.7,18.2c3.2,3.1,13.7-8.6,17.7-13.6c-1.8,6.3-12.5,15.2-9.9,17.4c4.5,1.6,9.7-7.2,13.1-11.6
												c-1.5,4.8-7.3,11.9-4.9,13.3c3,1.5,11.3-10.4,13.8-14.6c1.2-1.9,2.9-4.8,3.7-7.3c0.3-0.8,0.4-1.6,0.5-2.3
												c0.1-1.4-3.2-5.9-7.3-10c-0.3-0.3-0.5-0.5-0.8-0.8c-3.4-3.2-7.2-6.1-10.4-6.9c-0.3-0.1-0.6-0.2-0.9-0.2
												c-6-1.7-13.4-5.1-10.1,1.3c0.1,0.3,0.3,0.5,0.5,0.7c2.1,2.5,7.4,3.4,9.9,4.7c-0.9,1.1-2.9,3.4-5.3,6.1
												C80.7,506,73.5,514.3,74.6,516.2L74.6,516.2z"/>
											<path class="st9" d="M105.3,491.5c1.2,3.6,2.5,3,4.6,6c1.5,2.2,2.9,6.6-2.6,14.4l-4.4-12.4c-4.8-6.1-5.9-7.9-13-11.7
												C96.4,483.7,103,485.1,105.3,491.5z"/>
											<path class="st10" d="M91.4,493.8c-0.9,1.1-2.9,3.4-5.3,6.1c0,0.2,0,0.4,0.1,0.6c0.5,1.6,2.2,3.3,3.6,4.8
												c0.1,0.1,0.2,0.2,0.2,0.3c0.3,0.3,0.6,0.6,0.8,0.9c2.8,3.2,5.9,5.2,9.2,7.3c-1.7-1.5-10.6-10.1-10.4-12.9
												c0.3-3.3,4.2-3.4,6.7-3.5c1.5,0,2.8-0.3,4-0.9c0.9-0.4,1.8-0.9,2.6-1.4c0.4-0.3,0.8-0.6,1.2-0.9l-0.2-0.5
												c-0.6,0.3-1.2,0.5-1.8,0.7c-1.2,0.3-2.3,0.5-3.3,0.4c-3-0.1-5.7-1.4-8.9-2.3c-3.3-1-6.1-1.7-8.7-3.2
												C83.5,491.6,88.8,492.5,91.4,493.8L91.4,493.8z"/>
										</g>
									</g>
									<path class="st44" d="M122.1,499c4.3,3,5.8,8.1,6.9,13c-2.3-7.1-8.3-10.9-15.3-11.4l-3.8-9.4
										C113.8,494,118.3,496.3,122.1,499z"/>
									<g>
										<path class="st44" d="M198.8,437c1.4,8.9,9.3,23.9,13.4,34.5c1.4,3.5,2.6,6.4,2.2,10.2c-0.3,2.6-5.7,14-12.5,14.7
											c5.7-5.8,8.3-17.6,6.1-23.6C205.4,465.5,200,445,198.8,437L198.8,437z"/>
										<path class="st44" d="M207.8,488.7C207.8,488.7,207.8,488.7,207.8,488.7c-0.1,0.1-0.2,0.2-0.3,0.3L207.8,488.7
											L207.8,488.7z"/>
									</g>
								</g>
								<g>
									<path class="st45" d="M153.6,518.8l67.9,9.2c0,0,44-6,46.7-9.8l-8.9,51.9c-7,3.4-48.6,13.1-57.2,13.8
										c-4.1,0.3-47.2-11.1-62.5-14C143.1,563.4,153.6,518.8,153.6,518.8L153.6,518.8z"/>
									<path class="st15" d="M158.7,520.1l67.9,9.2c0,0,44-6,46.7-9.8l-8.9,51.9c-7,3.4-48.6,13.1-57.2,13.8
										c-4.1,0.3-47.2-11.1-62.5-14C148.3,564.7,158.7,520.1,158.7,520.1z"/>
									<path class="st18" d="M164.6,522.7l67.9,9.2c0,0,44-6,46.7-9.8l-8.9,51.9c-7,3.4-48.6,13.1-57.2,13.8
										c-4.1,0.3-47.2-11.1-62.5-14C154.2,567.3,164.6,522.7,164.6,522.7L164.6,522.7z"/>
								</g>
							</g>
							<g>
								<path class="st41" d="M324.9,757.8l-6,2.2c-0.6,2.2-1.8,1.4-1.2,9.5c10.3,1.3,16.9,3.8,25.7,2.8
									C343.4,768.3,330.2,762.4,324.9,757.8z"/>
								<path class="st9" d="M228.5,615.5c-33.7-6.1-44.2-45.8-45-50.8c29.7-12.4,99.6-22.5,114.7-20.9c10.9,1.1,14,40,16.1,50
									c3.9,18.7,11.5,129.4,10.6,163.9c-1.4,1.1-4.3,2.2-6,2.2c-8.8-21.4-48.2-147.4-51.9-158.8
									C266.9,600.8,235.9,616.9,228.5,615.5L228.5,615.5z"/>
							</g>
							<g>
								<path class="st41" d="M250.5,548.5l-2.3,0.5C249,548.4,249.8,548.1,250.5,548.5z"/>
								<path class="st42" d="M249.5,547c-5.2,4.6-11.2,32.5-11.6,37.8c-1.1,13.1,1.6,26.2,4.9,38.2c-23.5,21.5-96.9,35-111.6,22.7
									c-13-10.8-22.1-56.2-7.7-63.2C182.9,553.9,249.5,547,249.5,547L249.5,547z"/>
							</g>
						</g>
						<path class="st8" d="M55,614.1c0.1,8.1,1.3,15.9,4.1,23.1c6.7,17.5,20.2,28.7,36.4,35.9h71.4c-0.1-0.3-0.2-0.5-0.3-0.8
							c-2.1-7.3-2-16.9-1.7-26c0.2-4.8,0.4-9.6,0.3-13.8c-0.2-25.4,14.2-59.9-12.1-71.7c-14.4-6.5-62.4,11.3-78.3-33.8
							c-3.5,11.1-7,23.1-10.5,35.8C60.1,578.2,55.3,596.6,55,614.1L55,614.1z"/>
					</g>
				</g>
				<g>
					<g>
						<path class="st20" d="M832.6,513.1c0,2.4,2.3,4.4,5.2,4.4h159.6c2.9,0,5.2-2,5.2-4.4l0,0c0-2.4-2.3-4.4-5.2-4.4H837.8
							C834.9,508.6,832.6,510.6,832.6,513.1L832.6,513.1z"/>
						<g>
							<path class="st21" d="M799.6,513.4c0.5,2.3,2.8,4.1,5.1,4.1h128.6c2.3,0,3.6-1.9,3-4.1l-22.8-86c-0.6-2.3-2.9-4.1-5.1-4.1
								H783.6c-2.2,0-3.6,1.9-3.1,4.1L799.6,513.4L799.6,513.4z"/>
							<path class="st20" d="M796.9,513.4c0.5,2.3,2.8,4.1,5.1,4.1h128.6c2.3,0,3.6-1.9,3-4.1l-22.7-86c-0.6-2.3-2.9-4.1-5.1-4.1
								H780.9c-2.2,0-3.6,1.9-3.1,4.1L796.9,513.4L796.9,513.4z"/>
							<path class="st15" d="M850.7,470.4c0.6,2.3,2.8,4.1,5.1,4.1s3.6-1.9,3.1-4.1c-0.6-2.3-2.8-4.1-5.1-4.1
								S850.2,468.1,850.7,470.4z"/>
						</g>
					</g>
					<g>
						<polygon class="st22" points="866.9,473.2 867.6,477.5 869,487.6 871.8,506.6 873.4,517.9 893.2,517.9 894.7,507.6 
							894.9,506.6 897.6,487.6 899.1,477.5 899.7,473.2 						"/>
						<polygon class="st23" points="869,487.6 871.8,506.6 894.9,506.6 897.6,487.6 						"/>
						<path class="st24" d="M866.9,473.2l0.6,4.3l1.5,10.1l2.8,18.9l1.6,11.3h19.8l2.1-14.9c-1.7,0.1-11.1,2.6-15.1-6.5
							c-1.2-2.8-2.1-5.8-2.8-8.8c-1-4.7-1.6-9.6-1.9-14.4H866.9L866.9,473.2z"/>
						<g>
							<path class="st25" d="M866.6,470.7c0,1.2,1,2.3,2.3,2.3h28.8c1.2,0,2.3-1,2.3-2.3l0,0c0-1.2-1-2.3-2.3-2.3h-28.8
								C867.7,468.4,866.6,469.4,866.6,470.7L866.6,470.7z"/>
							<path class="st25" d="M862.7,474.1c0,1.9,0.9,3.5,2,3.5H902c1.1,0,2-1.6,2-3.5l0,0c0-1.9-0.9-3.5-2-3.5h-37.3
								C863.6,470.6,862.7,472.1,862.7,474.1L862.7,474.1z"/>
						</g>
					</g>
				</g>
				<g>
					<polygon class="st22" points="285.7,473 286.4,477.3 287.8,487.4 290.6,506.4 292.2,517.7 312,517.7 313.5,507.4 313.7,506.4 
						316.4,487.4 317.9,477.3 318.5,473 					"/>
					<polygon class="st23" points="287.8,487.4 290.6,506.4 313.7,506.4 316.4,487.4 					"/>
					<path class="st24" d="M285.7,473l0.6,4.3l1.5,10.1l2.8,18.9l1.6,11.3H312l2.1-14.9c-1.7,0.1-11.1,2.6-15.1-6.5
						c-1.2-2.8-2.1-5.8-2.8-8.8c-1-4.7-1.6-9.6-1.9-14.4H285.7z"/>
					<g>
						<path class="st25" d="M285.5,470.4c0,1.2,1,2.3,2.3,2.3h28.8c1.2,0,2.3-1,2.3-2.3l0,0c0-1.2-1-2.3-2.3-2.3h-28.8
							C286.5,468.2,285.5,469.2,285.5,470.4L285.5,470.4z"/>
						<path class="st25" d="M281.5,473.8c0,1.9,0.9,3.5,2,3.5h37.3c1.1,0,2-1.6,2-3.5l0,0c0-1.9-0.9-3.5-2-3.5h-37.3
							C282.4,470.4,281.5,471.9,281.5,473.8L281.5,473.8z"/>
					</g>
				</g>
			</g>
		</g>
	</g>
</g>
<image style="overflow:visible;" width="540" height="231" xlink:href="/images/team/Untitled_design_-_Copy-removebg-preview.png"  transform="matrix(0.5557 0 0 0.5557 829.4966 137.34)">
</image>
</svg>
