<?xml version="1.0" encoding="utf-8"?>
<!-- Generator: Adobe Illustrator 27.3.1, SVG Export Plug-In . SVG Version: 6.00 Build 0)  -->
<svg version="1.1" id="Layer_1" xmlns="http://www.w3.org/2000/svg" xmlns:xlink="http://www.w3.org/1999/xlink" x="0px" y="0px"
	 viewBox="0 0 128.3 142" style="enable-background:new 0 0 128.3 142;" xml:space="preserve">
<style type="text/css">
	.st0{fill:#1E1E1E;}
	.st1{fill:#ADADAD;}
	.st2{clip-path:url(#SVGID_00000129171899857211007600000016267684434932524944_);}
	.st3{opacity:0.73;}
	.st4{clip-path:url(#SVGID_00000067946774530667261850000005366986889100280758_);}
	.st5{clip-path:url(#SVGID_00000035518355483977791090000000764279416874399917_);}
	.st6{clip-path:url(#SVGID_00000086668904034002801910000016461533073682342296_);}
	.st7{clip-path:url(#SVGID_00000036961606662399050650000012943733394036689076_);}
	.st8{clip-path:url(#SVGID_00000179603698548710320070000006218421326010005436_);}
	.st9{clip-path:url(#SVGID_00000064328499501305025680000005164515735264003230_);}
	.st10{clip-path:url(#SVGID_00000074404390388139512310000008670511935390977206_);}
	.st11{fill:#242424;}
	.st12{fill:#B3B3B3;}
	.st13{fill:url(#SVGID_00000112619600346890964330000009017545264031240079_);}
	.st14{fill:#17181A;}
</style>
<g>
	<g id="Layer_1_00000095330720234960889450000005308815300316734125_">
		<g>
			<g>
				<g>
					<g>
						<g>
							
								<image style="overflow:visible;enable-background:new    ;" width="533" height="592" xlink:href="77C0C14E.png"  transform="matrix(0.2404 0 0 0.2404 6.386045e-02 -0.1277)">
							</image>
							
								<image style="overflow:visible;opacity:0.55;enable-background:new    ;" width="533" height="591" xlink:href="77C0C152.png"  transform="matrix(0.2404 0 0 0.2404 6.367734e-02 -0.1277)">
							</image>
						</g>
						
							<image style="overflow:visible;enable-background:new    ;" width="533" height="25" xlink:href="77C0C155.png"  transform="matrix(0.24 0 0 0.24 0.1719 136.1923)">
						</image>
					</g>
					<g>
						
							<image style="overflow:visible;opacity:0.26;enable-background:new    ;" width="533" height="9" xlink:href="77C0C156.png"  transform="matrix(0.2414 0 0 0.2414 -0.1881 133.9062)">
						</image>
					</g>
				</g>
				
					<image style="overflow:visible;opacity:0.5;enable-background:new    ;" width="5" height="568" xlink:href="77C0C154.png"  transform="matrix(0.24 0 0 0.24 63.6519 -7.700004e-03)">
				</image>
			</g>
			<g>
				<g>
					
						<image style="overflow:visible;opacity:0.57;enable-background:new    ;" width="20" height="31" xlink:href="77C0C153.png"  transform="matrix(0.24 0 0 0.24 12.5319 47.9923)">
					</image>
				</g>
				<g>
					
						<image style="overflow:visible;opacity:0.57;enable-background:new    ;" width="18" height="31" xlink:href="77C0C15D.png"  transform="matrix(0.2477 0 0 0.2477 19.4222 47.8723)">
					</image>
				</g>
				<g>
					
						<image style="overflow:visible;opacity:0.57;enable-background:new    ;" width="17" height="31" xlink:href="77C0C15E.png"  transform="matrix(0.2477 0 0 0.2477 26.2661 47.8723)">
					</image>
				</g>
				<g>
					
						<image style="overflow:visible;opacity:0.57;enable-background:new    ;" width="19" height="31" xlink:href="77C0C15C.png"  transform="matrix(0.24 0 0 0.24 32.6919 47.9923)">
					</image>
				</g>
				<g>
					
						<image style="overflow:visible;opacity:0.57;enable-background:new    ;" width="18" height="31" xlink:href="4EDBF091.png"  transform="matrix(0.2477 0 0 0.2477 39.3422 47.8723)">
					</image>
				</g>
				<g>
					
						<image style="overflow:visible;opacity:0.57;enable-background:new    ;" width="17" height="31" xlink:href="4EDBF097.png"  transform="matrix(0.2477 0 0 0.2477 46.1861 47.8723)">
					</image>
				</g>
				<g>
					
						<image style="overflow:visible;opacity:0.57;enable-background:new    ;" width="20" height="31" xlink:href="4EDBF090.png"  transform="matrix(0.24 0 0 0.24 12.5319 57.2323)">
					</image>
				</g>
				<g>
					
						<image style="overflow:visible;opacity:0.57;enable-background:new    ;" width="18" height="31" xlink:href="4EDBF093.png"  transform="matrix(0.24 0 0 0.24 19.4919 57.2323)">
					</image>
				</g>
				<g>
					
						<image style="overflow:visible;opacity:0.57;enable-background:new    ;" width="17" height="31" xlink:href="4EDBF08F.png"  transform="matrix(0.24 0 0 0.24 26.3319 57.2323)">
					</image>
				</g>
				<g>
					
						<image style="overflow:visible;opacity:0.57;enable-background:new    ;" width="19" height="31" xlink:href="4EDBF0AF.png"  transform="matrix(0.24 0 0 0.24 32.6919 57.2323)">
					</image>
				</g>
				<g>
					
						<image style="overflow:visible;opacity:0.57;enable-background:new    ;" width="18" height="31" xlink:href="4EDBF0B1.png"  transform="matrix(0.24 0 0 0.24 39.4119 57.2323)">
					</image>
				</g>
				<g>
					
						<image style="overflow:visible;opacity:0.57;enable-background:new    ;" width="17" height="31" xlink:href="4EDBF0B3.png"  transform="matrix(0.24 0 0 0.24 46.2519 57.2323)">
					</image>
				</g>
				<g>
					
						<image style="overflow:visible;opacity:0.57;enable-background:new    ;" width="20" height="29" xlink:href="4EDBF0B0.png"  transform="matrix(0.24 0 0 0.24 12.5319 66.7123)">
					</image>
				</g>
				<g>
					
						<image style="overflow:visible;opacity:0.57;enable-background:new    ;" width="18" height="29" xlink:href="4EDBF0B7.png"  transform="matrix(0.2648 0 0 0.2648 19.2685 66.3523)">
					</image>
				</g>
				<g>
					
						<image style="overflow:visible;opacity:0.57;enable-background:new    ;" width="17" height="29" xlink:href="4EDBF0D4.png"  transform="matrix(0.2648 0 0 0.2648 26.1209 66.3523)">
					</image>
				</g>
				<g>
					
						<image style="overflow:visible;opacity:0.57;enable-background:new    ;" width="19" height="29" xlink:href="4EDBF0D7.png"  transform="matrix(0.24 0 0 0.24 32.6919 66.7123)">
					</image>
				</g>
				<g>
					
						<image style="overflow:visible;opacity:0.57;enable-background:new    ;" width="18" height="29" xlink:href="4EDBF0D5.png"  transform="matrix(0.2648 0 0 0.2648 39.1885 66.3523)">
					</image>
				</g>
				<g>
					
						<image style="overflow:visible;opacity:0.57;enable-background:new    ;" width="17" height="29" xlink:href="4EDBF0DB.png"  transform="matrix(0.2648 0 0 0.2648 46.0409 66.3523)">
					</image>
				</g>
				<g>
					
						<image style="overflow:visible;opacity:0.57;enable-background:new    ;" width="20" height="30" xlink:href="4EDBF0DC.png"  transform="matrix(0.24 0 0 0.24 12.5319 75.9523)">
					</image>
				</g>
				<g>
					
						<image style="overflow:visible;opacity:0.57;enable-background:new    ;" width="18" height="30" xlink:href="4EDBF0DF.png"  transform="matrix(0.256 0 0 0.256 19.3479 75.7123)">
					</image>
				</g>
				<g>
					
						<image style="overflow:visible;opacity:0.57;enable-background:new    ;" width="17" height="30" xlink:href="4EDBF0DD.png"  transform="matrix(0.256 0 0 0.256 26.1959 75.7123)">
					</image>
				</g>
				<g>
					
						<image style="overflow:visible;opacity:0.57;enable-background:new    ;" width="17" height="32" xlink:href="4EDBF0DA.png"  transform="matrix(0.24 0 0 0.24 26.3319 85.0723)">
					</image>
				</g>
				<g>
					
						<image style="overflow:visible;opacity:0.57;enable-background:new    ;" width="19" height="32" xlink:href="4EDBF0D6.png"  transform="matrix(0.24 0 0 0.24 32.6919 85.0723)">
					</image>
				</g>
				<g>
					
						<image style="overflow:visible;opacity:0.57;enable-background:new    ;" width="17" height="28" xlink:href="4EDBF0E9.png"  transform="matrix(0.2657 0 0 0.2657 26.1133 94.4323)">
					</image>
				</g>
				<g>
					
						<image style="overflow:visible;opacity:0.57;enable-background:new    ;" width="19" height="28" xlink:href="4EDBF0FB.png"  transform="matrix(0.24 0 0 0.24 32.6919 94.7923)">
					</image>
				</g>
				<g>
					
						<image style="overflow:visible;opacity:0.57;enable-background:new    ;" width="19" height="30" xlink:href="4EDBF0F9.png"  transform="matrix(0.24 0 0 0.24 32.6919 75.9523)">
					</image>
				</g>
				<g>
					
						<image style="overflow:visible;opacity:0.57;enable-background:new    ;" width="18" height="30" xlink:href="4EDBF0C7.png"  transform="matrix(0.256 0 0 0.256 39.2679 75.7123)">
					</image>
				</g>
				<g>
					
						<image style="overflow:visible;opacity:0.57;enable-background:new    ;" width="17" height="30" xlink:href="4EDBF0C9.png"  transform="matrix(0.256 0 0 0.256 46.1159 75.7123)">
					</image>
				</g>
				<g>
					<rect x="12.8" y="48" class="st0" width="4.2" height="6.9"/>
					<g>
						<g>
							
								<image style="overflow:visible;enable-background:new    ;" width="12" height="14" xlink:href="4EDBF0CB.png"  transform="matrix(0.2571 0 0 0.2571 13.269 50.9923)">
							</image>
						</g>
						
							<image style="overflow:visible;enable-background:new    ;" width="11" height="9" xlink:href="4EDBF0CE.png"  transform="matrix(0.2618 0 0 0.2618 13.4919 51.7341)">
						</image>
					</g>
					<rect x="19.4" y="48" class="st0" width="4.2" height="6.9"/>
					<g>
						<g>
							
								<image style="overflow:visible;enable-background:new    ;" width="11" height="14" xlink:href="4EDBF0CF.png"  transform="matrix(0.2571 0 0 0.2571 20.1176 50.9923)">
							</image>
						</g>
						
							<image style="overflow:visible;enable-background:new    ;" width="10" height="9" xlink:href="4EDBF0CA.png"  transform="matrix(0.312 0 0 0.312 19.9719 51.5083)">
						</image>
					</g>
					<rect x="26.1" y="48" class="st0" width="4.2" height="6.9"/>
					<g>
						<g>
							
								<image style="overflow:visible;enable-background:new    ;" width="14" height="14" xlink:href="4EDBF0C5.png"  transform="matrix(0.2571 0 0 0.2571 26.4519 50.9923)">
							</image>
						</g>
						
							<image style="overflow:visible;enable-background:new    ;" width="12" height="9" xlink:href="4EDBF0C6.png"  transform="matrix(0.24 0 0 0.24 26.6919 51.8323)">
						</image>
					</g>
					<rect x="32.7" y="48" class="st0" width="4.2" height="6.9"/>
					<g>
						<g>
							
								<image style="overflow:visible;enable-background:new    ;" width="12" height="14" xlink:href="4EDBF122.png"  transform="matrix(0.2571 0 0 0.2571 33.309 50.9923)">
							</image>
						</g>
						
							<image style="overflow:visible;enable-background:new    ;" width="11" height="9" xlink:href="4EDBF121.png"  transform="matrix(0.2618 0 0 0.2618 33.4119 51.7341)">
						</image>
					</g>
					<rect x="39.4" y="48" class="st0" width="4.2" height="6.9"/>
					<g>
						<g>
							
								<image style="overflow:visible;enable-background:new    ;" width="15" height="14" xlink:href="4EDBF126.png"  transform="matrix(0.24 0 0 0.24 39.6519 51.1123)">
							</image>
						</g>
						
							<image style="overflow:visible;enable-background:new    ;" width="10" height="9" xlink:href="4EDBF120.png"  transform="matrix(0.288 0 0 0.288 40.1319 51.6163)">
						</image>
					</g>
					<rect x="46.1" y="48" class="st0" width="4.2" height="6.9"/>
					<g>
						<g>
							
								<image style="overflow:visible;enable-background:new    ;" width="14" height="14" xlink:href="4EDBF123.png"  transform="matrix(0.2571 0 0 0.2571 46.3719 50.9923)">
							</image>
						</g>
						
							<image style="overflow:visible;enable-background:new    ;" width="13" height="9" xlink:href="4EDBF13F.png"  transform="matrix(0.24 0 0 0.24 46.6119 51.8323)">
						</image>
					</g>
					<rect x="12.8" y="57.2" class="st0" width="4.2" height="6.9"/>
					<g>
						<g>
							
								<image style="overflow:visible;enable-background:new    ;" width="12" height="12" xlink:href="4EDBF13E.png"  transform="matrix(0.3 0 0 0.3 13.0119 60.3523)">
							</image>
						</g>
						
							<image style="overflow:visible;enable-background:new    ;" width="11" height="11" xlink:href="4EDBF125.png"  transform="matrix(0.2618 0 0 0.2618 13.4919 60.7123)">
						</image>
					</g>
					<rect x="19.4" y="57.2" class="st0" width="4.2" height="6.9"/>
					<g>
						<g>
							
								<image style="overflow:visible;enable-background:new    ;" width="11" height="12" xlink:href="4EDBF127.png"  transform="matrix(0.3 0 0 0.3 19.8819 60.3523)">
							</image>
						</g>
						
							<image style="overflow:visible;enable-background:new    ;" width="10" height="11" xlink:href="4EDBF124.png"  transform="matrix(0.2836 0 0 0.2836 20.1137 60.5923)">
						</image>
					</g>
					<rect x="26.1" y="57.2" class="st0" width="4.2" height="6.9"/>
					<g>
						<g>
							
								<image style="overflow:visible;enable-background:new    ;" width="14" height="12" xlink:href="4EDBF11D.png"  transform="matrix(0.2571 0 0 0.2571 26.4519 60.6094)">
							</image>
						</g>
						
							<image style="overflow:visible;enable-background:new    ;" width="12" height="11" xlink:href="4EDBF103.png"  transform="matrix(0.24 0 0 0.24 26.6919 60.8323)">
						</image>
					</g>
					<rect x="32.7" y="57.2" class="st0" width="4.2" height="6.9"/>
					<g>
						<g>
							
								<image style="overflow:visible;enable-background:new    ;" width="12" height="12" xlink:href="4EDBF105.png"  transform="matrix(0.28 0 0 0.28 33.1719 60.4723)">
							</image>
						</g>
						
							<image style="overflow:visible;enable-background:new    ;" width="11" height="11" xlink:href="4EDBF107.png"  transform="matrix(0.2618 0 0 0.2618 33.4119 60.7123)">
						</image>
					</g>
					<rect x="39.4" y="57.2" class="st0" width="4.2" height="6.9"/>
					<g>
						<g>
							
								<image style="overflow:visible;enable-background:new    ;" width="15" height="12" xlink:href="4EDBF104.png"  transform="matrix(0.24 0 0 0.24 39.6519 60.7123)">
							</image>
						</g>
						
							<image style="overflow:visible;enable-background:new    ;" width="10" height="11" xlink:href="4EDBF10C.png"  transform="matrix(0.2836 0 0 0.2836 40.1537 60.5923)">
						</image>
					</g>
					<rect x="46.1" y="57.2" class="st0" width="4.2" height="6.9"/>
					<g>
						<g>
							
								<image style="overflow:visible;enable-background:new    ;" width="14" height="12" xlink:href="4EDBF10D.png"  transform="matrix(0.2571 0 0 0.2571 46.3719 60.6094)">
							</image>
						</g>
						
							<image style="overflow:visible;enable-background:new    ;" width="13" height="11" xlink:href="4EDBF10F.png"  transform="matrix(0.24 0 0 0.24 46.6119 60.8323)">
						</image>
					</g>
					<rect x="12.8" y="66.5" class="st0" width="4.2" height="6.9"/>
					<g>
						<g>
							
								<image style="overflow:visible;enable-background:new    ;" width="12" height="12" xlink:href="4EDBF10B.png"  transform="matrix(0.28 0 0 0.28 13.1319 69.7123)">
							</image>
						</g>
						
							<image style="overflow:visible;enable-background:new    ;" width="11" height="11" xlink:href="4EDBF106.png"  transform="matrix(0.2618 0 0 0.2618 13.4919 69.9523)">
						</image>
					</g>
					<rect x="19.4" y="66.5" class="st0" width="4.2" height="6.9"/>
					<g>
						<g>
							
								<image style="overflow:visible;enable-background:new    ;" width="11" height="12" xlink:href="4EDBF168.png"  transform="matrix(0.28 0 0 0.28 19.9919 69.7123)">
							</image>
						</g>
						
							<image style="overflow:visible;enable-background:new    ;" width="10" height="11" xlink:href="4EDBF16B.png"  transform="matrix(0.2618 0 0 0.2618 20.2228 69.9523)">
						</image>
					</g>
					<rect x="26.1" y="66.5" class="st0" width="4.2" height="6.9"/>
					<g>
						<g>
							
								<image style="overflow:visible;enable-background:new    ;" width="14" height="12" xlink:href="4EDBF169.png"  transform="matrix(0.2571 0 0 0.2571 26.4519 69.8494)">
							</image>
						</g>
						
							<image style="overflow:visible;enable-background:new    ;" width="12" height="11" xlink:href="4EDBF117.png"  transform="matrix(0.24 0 0 0.24 26.6919 70.0723)">
						</image>
					</g>
					<rect x="32.7" y="66.5" class="st0" width="4.2" height="6.9"/>
					<g>
						<g>
							
								<image style="overflow:visible;enable-background:new    ;" width="12" height="12" xlink:href="4EDBF118.png"  transform="matrix(0.28 0 0 0.28 33.1719 69.7123)">
							</image>
						</g>
						
							<image style="overflow:visible;enable-background:new    ;" width="11" height="11" xlink:href="4EDBF11B.png"  transform="matrix(0.2618 0 0 0.2618 33.4119 69.9523)">
						</image>
					</g>
					<rect x="39.4" y="66.5" class="st0" width="4.2" height="6.9"/>
					<g>
						<g>
							
								<image style="overflow:visible;enable-background:new    ;" width="15" height="12" xlink:href="4EDBF119.png"  transform="matrix(0.24 0 0 0.24 39.6519 69.9523)">
							</image>
						</g>
						
							<image style="overflow:visible;enable-background:new    ;" width="10" height="11" xlink:href="4EDBF11F.png"  transform="matrix(0.2618 0 0 0.2618 40.2628 69.9523)">
						</image>
					</g>
					<rect x="46.1" y="66.5" class="st0" width="4.2" height="6.9"/>
					<g>
						<g>
							
								<image style="overflow:visible;enable-background:new    ;" width="14" height="12" xlink:href="4EDBF11A.png"  transform="matrix(0.2571 0 0 0.2571 46.3719 69.8494)">
							</image>
						</g>
						
							<image style="overflow:visible;enable-background:new    ;" width="13" height="11" xlink:href="4EDBF115.png"  transform="matrix(0.24 0 0 0.24 46.6119 70.0723)">
						</image>
					</g>
					<rect x="12.8" y="75.8" class="st0" width="4.2" height="6.9"/>
					<g>
						<g>
							
								<image style="overflow:visible;enable-background:new    ;" width="12" height="14" xlink:href="4EDBF131.png"  transform="matrix(0.2571 0 0 0.2571 13.269 78.8323)">
							</image>
						</g>
						
							<image style="overflow:visible;enable-background:new    ;" width="11" height="8" xlink:href="4EDBF13D.png"  transform="matrix(0.2618 0 0 0.2618 13.4919 79.705)">
						</image>
					</g>
					<rect x="19.4" y="75.8" class="st0" width="4.2" height="6.9"/>
					<g>
						<g>
							
								<image style="overflow:visible;enable-background:new    ;" width="11" height="14" xlink:href="4EDBF133.png"  transform="matrix(0.2571 0 0 0.2571 20.1176 78.8323)">
							</image>
						</g>
						
							<image style="overflow:visible;enable-background:new    ;" width="10" height="8" xlink:href="4EDBF135.png"  transform="matrix(0.312 0 0 0.312 19.9719 79.5043)">
						</image>
					</g>
					<rect x="26.1" y="75.8" class="st0" width="4.2" height="6.9"/>
					<g>
						<g>
							
								<image style="overflow:visible;enable-background:new    ;" width="14" height="14" xlink:href="4EDBF137.png"  transform="matrix(0.2571 0 0 0.2571 26.4519 78.8323)">
							</image>
						</g>
						
							<image style="overflow:visible;enable-background:new    ;" width="12" height="8" xlink:href="4EDBF132.png"  transform="matrix(0.24 0 0 0.24 26.6919 79.7923)">
						</image>
					</g>
					<rect x="32.7" y="75.8" class="st0" width="4.2" height="6.9"/>
					<g>
						<g>
							
								<image style="overflow:visible;enable-background:new    ;" width="12" height="14" xlink:href="4EDBF130.png"  transform="matrix(0.2571 0 0 0.2571 33.309 78.8323)">
							</image>
						</g>
						
							<image style="overflow:visible;enable-background:new    ;" width="11" height="8" xlink:href="4EDBF1CD.png"  transform="matrix(0.2618 0 0 0.2618 33.4119 79.705)">
						</image>
					</g>
					<rect x="26.1" y="85.2" class="st0" width="4.2" height="6.9"/>
					<g>
						<g>
							
								<image style="overflow:visible;enable-background:new    ;" width="14" height="15" xlink:href="4EDBF1CF.png"  transform="matrix(0.24 0 0 0.24 26.5719 88.1923)">
							</image>
						</g>
						
							<image style="overflow:visible;enable-background:new    ;" width="12" height="10" xlink:href="4EDBF1D2.png"  transform="matrix(0.24 0 0 0.24 26.6919 88.9123)">
						</image>
					</g>
					<rect x="32.7" y="85.2" class="st0" width="4.2" height="6.9"/>
					<g>
						<g>
							
								<image style="overflow:visible;enable-background:new    ;" width="12" height="15" xlink:href="4EDBF1CE.png"  transform="matrix(0.24 0 0 0.24 33.4119 88.1923)">
							</image>
						</g>
						
							<image style="overflow:visible;enable-background:new    ;" width="11" height="10" xlink:href="4EDBF1CC.png"  transform="matrix(0.2618 0 0 0.2618 33.4119 88.8032)">
						</image>
					</g>
					<rect x="26.1" y="94.4" class="st0" width="4.2" height="6.9"/>
					<g>
						<g>
							
								<image style="overflow:visible;enable-background:new    ;" width="14" height="12" xlink:href="4EDBF1F2.png"  transform="matrix(0.2571 0 0 0.2571 26.4519 97.8094)">
							</image>
						</g>
						
							<image style="overflow:visible;enable-background:new    ;" width="12" height="11" xlink:href="4EDBF1F5.png"  transform="matrix(0.24 0 0 0.24 26.6919 98.0323)">
						</image>
					</g>
					<rect x="32.7" y="94.4" class="st0" width="4.2" height="6.9"/>
					<g>
						<g>
							
								<image style="overflow:visible;enable-background:new    ;" width="12" height="12" xlink:href="4EDBF1F6.png"  transform="matrix(0.28 0 0 0.28 33.1719 97.6723)">
							</image>
						</g>
						
							<image style="overflow:visible;enable-background:new    ;" width="11" height="11" xlink:href="4EDBF1F4.png"  transform="matrix(0.2618 0 0 0.2618 33.4119 97.9123)">
						</image>
					</g>
					<rect x="39.4" y="75.8" class="st0" width="4.2" height="6.9"/>
					<g>
						<g>
							
								<image style="overflow:visible;enable-background:new    ;" width="15" height="14" xlink:href="4EDBF1F3.png"  transform="matrix(0.24 0 0 0.24 39.6519 78.9523)">
							</image>
						</g>
						
							<image style="overflow:visible;enable-background:new    ;" width="10" height="8" xlink:href="4EDBF1FD.png"  transform="matrix(0.288 0 0 0.288 40.1319 79.6003)">
						</image>
					</g>
					<rect x="46.1" y="75.8" class="st0" width="4.2" height="6.9"/>
					<g>
						<g>
							
								<image style="overflow:visible;enable-background:new    ;" width="14" height="14" xlink:href="4EDBF1FE.png"  transform="matrix(0.2571 0 0 0.2571 46.3719 78.8323)">
							</image>
						</g>
						
							<image style="overflow:visible;enable-background:new    ;" width="13" height="8" xlink:href="4EDBF1FC.png"  transform="matrix(0.24 0 0 0.24 46.6119 79.7923)">
						</image>
					</g>
					<rect x="13" y="48.2" class="st1" width="3.7" height="2.8"/>
					<rect x="19.7" y="48.2" class="st1" width="3.7" height="2.8"/>
					<rect x="26.4" y="48.2" class="st1" width="3.7" height="2.8"/>
					<rect x="33" y="48.2" class="st1" width="3.7" height="2.8"/>
					<rect x="39.7" y="48.2" class="st1" width="3.7" height="2.8"/>
					<rect x="46.3" y="48.2" class="st1" width="3.7" height="2.8"/>
					<rect x="13" y="57.5" class="st1" width="3.7" height="2.8"/>
					<rect x="19.7" y="57.5" class="st1" width="3.7" height="2.8"/>
					<rect x="26.4" y="57.5" class="st1" width="3.7" height="2.8"/>
					<rect x="33" y="57.5" class="st1" width="3.7" height="2.8"/>
					<rect x="39.7" y="57.5" class="st1" width="3.7" height="2.8"/>
					<rect x="46.3" y="57.5" class="st1" width="3.7" height="2.8"/>
					<rect x="13" y="66.7" class="st1" width="3.7" height="2.8"/>
					<rect x="19.7" y="66.7" class="st1" width="3.7" height="2.8"/>
					<rect x="26.4" y="66.7" class="st1" width="3.7" height="2.8"/>
					<rect x="33" y="66.7" class="st1" width="3.7" height="2.8"/>
					<rect x="39.7" y="66.7" class="st1" width="3.7" height="2.8"/>
					<rect x="46.3" y="66.7" class="st1" width="3.7" height="2.8"/>
					<rect x="13" y="76" class="st1" width="3.7" height="2.8"/>
					<rect x="19.7" y="76" class="st1" width="3.7" height="2.8"/>
					<rect x="26.4" y="76" class="st1" width="3.7" height="2.8"/>
					<rect x="33" y="76" class="st1" width="3.7" height="2.8"/>
					<rect x="26.4" y="85.4" class="st1" width="3.7" height="2.8"/>
					<rect x="33" y="85.4" class="st1" width="3.7" height="2.8"/>
					<rect x="26.4" y="94.7" class="st1" width="3.7" height="2.8"/>
					<rect x="33" y="94.7" class="st1" width="3.7" height="2.8"/>
					<rect x="39.7" y="76" class="st1" width="3.7" height="2.8"/>
					<rect x="46.3" y="76" class="st1" width="3.7" height="2.8"/>
					<g>
						<path d="M27.6,59.6h-0.3c-0.2,0-0.3-0.2-0.3-0.3v-0.7c0-0.2,0.2-0.3,0.3-0.3h0.3c0.2,0,0.3,0.2,0.3,0.3v0.7
							C28,59.5,27.8,59.6,27.6,59.6z M27.7,58.6c0-0.1-0.1-0.2-0.1-0.2h-0.3c-0.1,0-0.1,0.1-0.1,0.2v0.7c0,0.1,0.1,0.2,0.1,0.2h0.3
							c0.1,0,0.1-0.1,0.1-0.2V58.6z"/>
						<path d="M29.1,59.6c-0.1,0-0.1,0-0.1-0.1l-0.5-0.9v1h-0.2v-1.4h0.1c0.1,0,0.1,0,0.1,0.1l0.5,0.9v-1h0.2v1.4
							C29.2,59.6,29.1,59.6,29.1,59.6z"/>
					</g>
					<g>
						<path d="M34.3,59.6H34c-0.2,0-0.3-0.2-0.3-0.3v-0.7c0-0.2,0.2-0.3,0.3-0.3h0.3c0.2,0,0.3,0.2,0.3,0.3v0.7
							C34.6,59.5,34.5,59.6,34.3,59.6z M34.4,58.6c0-0.1-0.1-0.2-0.1-0.2H34c-0.1,0-0.1,0.1-0.1,0.2v0.7c0,0.1,0.1,0.2,0.1,0.2h0.3
							c0.1,0,0.1-0.1,0.1-0.2V58.6z"/>
						<path d="M35.7,59.6c-0.1,0-0.1,0-0.1-0.1l-0.5-0.9v1h-0.2v-1.4H35c0.1,0,0.1,0,0.1,0.1l0.5,0.9v-1h0.2v1.4
							C35.9,59.6,35.7,59.6,35.7,59.6z"/>
					</g>
					<g>
						<path d="M27.6,87.5h-0.3c-0.2,0-0.3-0.2-0.3-0.3v-0.7c0-0.2,0.2-0.3,0.3-0.3h0.3c0.2,0,0.3,0.2,0.3,0.3v0.7
							C28,87.4,27.8,87.5,27.6,87.5z M27.7,86.5c0-0.1-0.1-0.2-0.1-0.2h-0.3c-0.1,0-0.1,0.1-0.1,0.2v0.7c0,0.1,0.1,0.2,0.1,0.2h0.3
							c0.1,0,0.1-0.1,0.1-0.2V86.5z"/>
						<path d="M29.1,87.5c-0.1,0-0.1,0-0.1-0.1l-0.5-0.9v1h-0.2v-1.4h0.1c0.1,0,0.1,0,0.1,0.1l0.5,0.9v-1h0.2v1.4
							C29.2,87.5,29.1,87.5,29.1,87.5z"/>
					</g>
					<g>
						<path d="M34.3,87.5H34c-0.2,0-0.3-0.2-0.3-0.3v-0.7c0-0.2,0.2-0.3,0.3-0.3h0.3c0.2,0,0.3,0.2,0.3,0.3v0.7
							C34.6,87.4,34.5,87.5,34.3,87.5z M34.4,86.5c0-0.1-0.1-0.2-0.1-0.2H34c-0.1,0-0.1,0.1-0.1,0.2v0.7c0,0.1,0.1,0.2,0.1,0.2h0.3
							c0.1,0,0.1-0.1,0.1-0.2V86.5z"/>
						<path d="M35.7,87.5c-0.1,0-0.1,0-0.1-0.1l-0.5-0.9v1h-0.2v-1.4H35c0.1,0,0.1,0,0.1,0.1l0.5,0.9v-1h0.2v1.4
							C35.9,87.5,35.7,87.5,35.7,87.5z"/>
					</g>
					<g>
						<path d="M27.6,96.7h-0.3c-0.2,0-0.3-0.2-0.3-0.3v-0.7c0-0.2,0.2-0.3,0.3-0.3h0.3c0.2,0,0.3,0.2,0.3,0.3v0.7
							C28,96.6,27.8,96.7,27.6,96.7z M27.7,95.7c0-0.1-0.1-0.2-0.1-0.2h-0.3c-0.1,0-0.1,0.1-0.1,0.2v0.7c0,0.1,0.1,0.2,0.1,0.2h0.3
							c0.1,0,0.1-0.1,0.1-0.2V95.7z"/>
						<path d="M29.1,96.7c-0.1,0-0.1,0-0.1-0.1l-0.5-0.9v1h-0.2v-1.4h0.1c0.1,0,0.1,0,0.1,0.1l0.5,0.9v-1h0.2v1.4
							C29.2,96.7,29.1,96.7,29.1,96.7z"/>
					</g>
					<g>
						<path d="M34.3,96.7H34c-0.2,0-0.3-0.2-0.3-0.3v-0.7c0-0.2,0.2-0.3,0.3-0.3h0.3c0.2,0,0.3,0.2,0.3,0.3v0.7
							C34.6,96.6,34.5,96.7,34.3,96.7z M34.4,95.7c0-0.1-0.1-0.2-0.1-0.2H34c-0.1,0-0.1,0.1-0.1,0.2v0.7c0,0.1,0.1,0.2,0.1,0.2h0.3
							c0.1,0,0.1-0.1,0.1-0.2V95.7z"/>
						<path d="M35.7,96.7c-0.1,0-0.1,0-0.1-0.1l-0.5-0.9v1h-0.2v-1.4H35c0.1,0,0.1,0,0.1,0.1l0.5,0.9v-1h0.2v1.4
							C35.9,96.7,35.7,96.7,35.7,96.7z"/>
					</g>
					<g>
						<path d="M40.6,59.6h-0.3c-0.2,0-0.3-0.2-0.3-0.3v-0.7c0-0.2,0.2-0.3,0.3-0.3h0.3c0.2,0,0.3,0.2,0.3,0.3v0.7
							C41,59.5,40.8,59.6,40.6,59.6z M40.8,58.6c0-0.1-0.1-0.2-0.1-0.2h-0.3c-0.1,0-0.1,0.1-0.1,0.2v0.7c0,0.1,0.1,0.2,0.1,0.2h0.3
							c0.1,0,0.1-0.1,0.1-0.2V58.6z"/>
						<path d="M41.5,59v0.6h-0.2v-1.4H42v0.2h-0.6v0.4H42V59C42,59,41.5,59,41.5,59z"/>
						<path d="M42.5,59v0.6h-0.2v-1.4h0.8v0.2h-0.6v0.4h0.6V59C43.1,59,42.5,59,42.5,59z"/>
					</g>
					<g>
						<path d="M47.3,59.6H47c-0.2,0-0.3-0.2-0.3-0.3v-0.7c0-0.2,0.2-0.3,0.3-0.3h0.3c0.2,0,0.3,0.2,0.3,0.3v0.7
							C47.6,59.5,47.5,59.6,47.3,59.6z M47.4,58.6c0-0.1-0.1-0.2-0.1-0.2H47c-0.1,0-0.1,0.1-0.1,0.2v0.7c0,0.1,0.1,0.2,0.1,0.2h0.3
							c0.1,0,0.1-0.1,0.1-0.2V58.6z"/>
						<path d="M48.1,59v0.6h-0.2v-1.4h0.8v0.2h-0.6v0.4h0.6V59C48.7,59,48.1,59,48.1,59z"/>
						<path d="M49.2,59v0.6H49v-1.4h0.8v0.2h-0.6v0.4h0.6V59C49.7,59,49.2,59,49.2,59z"/>
					</g>
					<g>
						<path d="M13.4,49.6v-0.5h0.1L13.4,49.6l0.2-0.1v0.1C13.6,49.6,13.4,49.6,13.4,49.6z"/>
						<path d="M13.9,49.6L13.9,49.6c-0.1,0-0.2-0.1-0.2-0.1v-0.1c0-0.1,0.1-0.1,0.1-0.1h0.1c0.1,0,0.1,0.1,0.1,0.1v0.1
							C14,49.6,14,49.6,13.9,49.6z M14,49.4C14,49.4,13.9,49.3,14,49.4l-0.1-0.1c0,0-0.1,0-0.1,0.1v0.1c0,0,0,0.1,0.1,0.1h0.1
							c0,0,0.1,0,0.1-0.1C14,49.5,14,49.4,14,49.4z"/>
						<path d="M14.3,49.4L14.3,49.4l-0.1-0.1v0.3h-0.1v-0.4h0.2C14.4,49.3,14.4,49.3,14.3,49.4L14.3,49.4
							C14.4,49.4,14.3,49.4,14.3,49.4z"/>
						<path d="M14.6,49.5L14.6,49.5c0,0.1,0,0.1,0.1,0.1h0.2v0.1h-0.2C14.6,49.6,14.5,49.6,14.6,49.5L14.6,49.5
							c-0.1-0.2,0-0.2,0.1-0.2h0.1c0.1,0,0.1,0.1,0.1,0.1v0.1H14.6z M14.8,49.4C14.8,49.4,14.7,49.3,14.8,49.4l-0.1-0.1
							c0,0-0.1,0-0.1,0.1v0L14.8,49.4C14.8,49.4,14.8,49.4,14.8,49.4z"/>
						<path d="M15.4,49.4v0.2h-0.1L15.4,49.4c-0.1,0-0.1-0.1-0.1-0.1h-0.1v0.3h-0.1v-0.3H15v0.3h-0.1v-0.4h0.4
							C15.4,49.3,15.4,49.3,15.4,49.4z"/>
						<path d="M15.8,49.2L15.8,49.2L15.8,49.2L15.8,49.2L15.8,49.2z M15.8,49.6v-0.4h0.1L15.8,49.6L15.8,49.6z"/>
						<path d="M16.2,49.6H16v0.2H16v-0.5h0.2c0.1,0,0.1,0.1,0.1,0.1v0.1C16.3,49.6,16.2,49.6,16.2,49.6z M16.2,49.4
							C16.2,49.4,16.2,49.3,16.2,49.4L16,49.3v0.2h0.1c0,0,0.1,0,0.1-0.1C16.2,49.5,16.2,49.4,16.2,49.4z"/>
					</g>
					<g>
						<path d="M26.9,68.4v-0.5H27L26.9,68.4l0.2-0.1v0.1C27.1,68.4,26.9,68.4,26.9,68.4z"/>
						<path d="M27.4,68.4L27.4,68.4c-0.1,0-0.2-0.1-0.2-0.1v-0.1c0-0.1,0.1-0.1,0.1-0.1h0.1c0.1,0,0.1,0.1,0.1,0.1v0.1
							C27.5,68.3,27.5,68.4,27.4,68.4z M27.5,68.1C27.5,68.1,27.4,68.1,27.5,68.1l-0.1-0.1c0,0-0.1,0-0.1,0.1v0.1c0,0,0,0.1,0.1,0.1
							h0.1c0,0,0.1,0,0.1-0.1V68.1z"/>
						<path d="M27.8,68.1L27.8,68.1l-0.1-0.1v0.3h-0.1V68h0.2C27.9,68,27.9,68,27.8,68.1L27.8,68.1C27.9,68.1,27.8,68.1,27.8,68.1z"
							/>
						<path d="M28.1,68.2L28.1,68.2c0,0.1,0,0.1,0.1,0.1h0.2v0.1h-0.2C28,68.4,28,68.3,28.1,68.2L28.1,68.2C28,68,28,68,28.1,68h0.1
							c0.1,0,0.1,0.1,0.1,0.1v0.1C28.3,68.2,28.1,68.2,28.1,68.2z M28.2,68.1C28.2,68.1,28.2,68.1,28.2,68.1l-0.1-0.1
							c0,0-0.1,0-0.1,0.1v0L28.2,68.1C28.2,68.1,28.2,68.1,28.2,68.1z"/>
						<path d="M28.9,68.1v0.2h-0.1L28.9,68.1c-0.1,0-0.1-0.1-0.1-0.1h-0.1v0.3h-0.1v-0.3h-0.2v0.3h-0.1V68h0.4
							C28.9,68,28.9,68,28.9,68.1z"/>
						<path d="M29.3,67.9L29.3,67.9L29.3,67.9L29.3,67.9L29.3,67.9z M29.3,68.4V68h0.1L29.3,68.4L29.3,68.4z"/>
						<path d="M29.6,68.4h-0.1v0.2h-0.1V68h0.2c0.1,0,0.1,0.1,0.1,0.1v0.1C29.8,68.3,29.7,68.4,29.6,68.4z M29.7,68.1
							C29.7,68.1,29.7,68.1,29.7,68.1l-0.2-0.1v0.2h0.1c0,0,0.1,0,0.1-0.1V68.1z"/>
					</g>
					<g>
						<path d="M13.4,77.5V77h0.1L13.4,77.5l0.2-0.1v0.1C13.6,77.5,13.4,77.5,13.4,77.5z"/>
						<path d="M13.9,77.5L13.9,77.5c-0.1,0-0.2-0.1-0.2-0.1v-0.1c0-0.1,0.1-0.1,0.1-0.1h0.1c0.1,0,0.1,0.1,0.1,0.1v0.1
							C14,77.5,14,77.5,13.9,77.5z M14,77.3C14,77.2,13.9,77.2,14,77.3l-0.1-0.1c0,0-0.1,0-0.1,0.1v0.1c0,0,0,0.1,0.1,0.1h0.1
							c0,0,0.1,0,0.1-0.1C14,77.4,14,77.3,14,77.3z"/>
						<path d="M14.3,77.3L14.3,77.3l-0.1-0.1v0.3h-0.1v-0.4h0.2C14.4,77.1,14.4,77.2,14.3,77.3L14.3,77.3
							C14.4,77.3,14.3,77.3,14.3,77.3z"/>
						<path d="M14.6,77.3L14.6,77.3c0,0.1,0,0.1,0.1,0.1h0.2v0.1h-0.2C14.6,77.5,14.5,77.5,14.6,77.3L14.6,77.3
							c-0.1-0.2,0-0.2,0.1-0.2h0.1c0.1,0,0.1,0.1,0.1,0.1v0.1C14.8,77.3,14.6,77.3,14.6,77.3z M14.8,77.3
							C14.8,77.2,14.7,77.2,14.8,77.3l-0.1-0.1c0,0-0.1,0-0.1,0.1v0L14.8,77.3C14.8,77.3,14.8,77.3,14.8,77.3z"/>
						<path d="M15.4,77.3v0.2h-0.1L15.4,77.3c-0.1,0-0.1-0.1-0.1-0.1h-0.1v0.3h-0.1v-0.3H15v0.3h-0.1v-0.4h0.4
							C15.4,77.1,15.4,77.2,15.4,77.3z"/>
						<path d="M15.8,77L15.8,77L15.8,77L15.8,77L15.8,77z M15.8,77.5v-0.4h0.1L15.8,77.5L15.8,77.5z"/>
						<path d="M16.2,77.5H16v0.2H16v-0.5h0.2c0.1,0,0.1,0.1,0.1,0.1v0.1C16.3,77.5,16.2,77.5,16.2,77.5z M16.2,77.3
							C16.2,77.2,16.2,77.2,16.2,77.3L16,77.2v0.2h0.1c0,0,0.1,0,0.1-0.1V77.3z"/>
					</g>
					<g>
						<path d="M27.1,49.6h-0.2v-0.5h0.2c0.1,0,0.2,0.1,0.2,0.2v0.1C27.2,49.6,27.2,49.6,27.1,49.6z M27.2,49.3c0-0.1,0-0.1-0.1-0.1
							H27v0.4h0.1c0.1,0,0.1-0.1,0.1-0.1V49.3z"/>
						<path d="M27.5,49.6L27.5,49.6c-0.1,0-0.2-0.1-0.2-0.1v-0.2h0.1v0.3C27.4,49.6,27.4,49.6,27.5,49.6L27.5,49.6
							c0-0.1,0.1-0.1,0.1-0.1v-0.3h0.1v0.2C27.7,49.6,27.6,49.6,27.5,49.6z"/>
						<path d="M27.8,49.2L27.8,49.2L27.8,49.2L27.8,49.2L27.8,49.2z M27.8,49.6v-0.4h0.1L27.8,49.6L27.8,49.6z"/>
						<path d="M28.2,49.6H28v-0.1L28.2,49.6l0-0.2H28c0,0-0.1,0-0.1-0.1v-0.1c0,0,0-0.1,0.1-0.1h0.2v0.1H28v0.1h0.2
							c0,0,0.1,0,0.1,0.1L28.2,49.6C28.2,49.6,28.2,49.6,28.2,49.6z"/>
						<path d="M28.7,49.6L28.7,49.6c-0.1,0-0.2-0.1-0.2-0.1v-0.2h0.1v0.3C28.6,49.6,28.7,49.6,28.7,49.6L28.7,49.6
							c0-0.1,0.1-0.1,0.1-0.1v-0.3h0.1v0.2C28.9,49.6,28.8,49.6,28.7,49.6z"/>
						<path d="M29.2,49.6h-0.1c0,0-0.1,0-0.1-0.1v-0.2h-0.1v-0.1H29v-0.1h0.1v0.1h0.1v0.1h-0.1v0.2L29.2,49.6
							C29.2,49.6,29.2,49.6,29.2,49.6z"/>
					</g>
					<g>
						<path d="M20.9,49.6h-0.2v-0.1L20.9,49.6C20.9,49.6,20.9,49.6,20.9,49.6l0-0.2c0,0,0,0,0,0h-0.1c0,0-0.1,0-0.1-0.1v-0.1
							c0,0,0-0.1,0.1-0.1h0.2v0.1h-0.2c0,0,0,0,0,0v0.1c0,0,0,0,0,0h0.1c0,0,0.1,0,0.1,0.1L20.9,49.6C21,49.6,20.9,49.6,20.9,49.6z"
							/>
						<path d="M21.1,49.5L21.1,49.5c0,0.1,0,0.1,0.1,0.1h0.2v0.1h-0.2C21.1,49.6,21,49.6,21.1,49.5L21.1,49.5
							c-0.1-0.2,0-0.2,0.1-0.2h0.1c0.1,0,0.1,0.1,0.1,0.1v0.1H21.1z M21.3,49.4C21.3,49.4,21.3,49.3,21.3,49.4l-0.1-0.1
							c0,0-0.1,0-0.1,0.1v0L21.3,49.4C21.3,49.4,21.3,49.4,21.3,49.4z"/>
						<path d="M21.6,49.6c-0.1,0-0.1-0.1-0.1-0.1v-0.1c0-0.1,0.1-0.1,0.1-0.1h0.1v-0.2h0.1v0.6H21.6z M21.7,49.3h-0.1
							c0,0-0.1,0-0.1,0.1v0.1c0,0,0,0.1,0.1,0.1h0.1C21.7,49.6,21.7,49.3,21.7,49.3z"/>
						<path d="M22.1,49.2L22.1,49.2L22.1,49.2L22.1,49.2L22.1,49.2z M22.1,49.6v-0.4h0.1L22.1,49.6L22.1,49.6z"/>
						<path d="M22.6,49.6v-0.3c0,0,0-0.1-0.1-0.1h-0.1v0.3h-0.1v-0.4h0.2c0.1,0,0.1,0.1,0.1,0.1L22.6,49.6L22.6,49.6z"/>
					</g>
					<g>
						<path d="M20.9,68.4h-0.2v-0.1L20.9,68.4C20.9,68.3,20.9,68.3,20.9,68.4l0-0.2c0,0,0,0,0,0h-0.1c0,0-0.1,0-0.1-0.1V68
							c0,0,0-0.1,0.1-0.1h0.2v0.1h-0.2c0,0,0,0,0,0v0.1c0,0,0,0,0,0h0.1c0,0,0.1,0,0.1,0.1L20.9,68.4C21,68.3,20.9,68.4,20.9,68.4z"
							/>
						<path d="M21.1,68.2L21.1,68.2c0,0.1,0,0.1,0.1,0.1h0.2v0.1h-0.2C21.1,68.4,21,68.3,21.1,68.2L21.1,68.2C21,68,21.1,68,21.2,68
							h0.1c0.1,0,0.1,0.1,0.1,0.1v0.1C21.4,68.2,21.1,68.2,21.1,68.2z M21.3,68.1C21.3,68.1,21.3,68.1,21.3,68.1l-0.1-0.1
							c0,0-0.1,0-0.1,0.1v0L21.3,68.1C21.3,68.1,21.3,68.1,21.3,68.1z"/>
						<path d="M21.6,68.4c-0.1,0-0.1-0.1-0.1-0.1v-0.1c0-0.1,0.1-0.1,0.1-0.1h0.1v-0.2h0.1v0.6C21.8,68.4,21.6,68.4,21.6,68.4z
							 M21.7,68.1h-0.1c0,0-0.1,0-0.1,0.1v0.1c0,0,0,0.1,0.1,0.1h0.1V68.1z"/>
						<path d="M22.1,67.9L22.1,67.9L22.1,67.9L22.1,67.9L22.1,67.9z M22.1,68.4V68h0.1L22.1,68.4L22.1,68.4z"/>
						<path d="M22.6,68.4v-0.3c0,0,0-0.1-0.1-0.1h-0.1v0.3h-0.1V68h0.2c0.1,0,0.1,0.1,0.1,0.1L22.6,68.4L22.6,68.4z"/>
					</g>
					<g>
						<path d="M40.4,77.5h-0.2v-0.1L40.4,77.5C40.4,77.4,40.4,77.4,40.4,77.5l0-0.2c0,0,0,0,0,0h-0.1c0,0-0.1,0-0.1-0.1v-0.1
							c0,0,0-0.1,0.1-0.1h0.2v0.1h-0.2c0,0,0,0,0,0v0.1c0,0,0,0,0,0h0.1c0,0,0.1,0,0.1,0.1L40.4,77.5C40.5,77.5,40.5,77.5,40.4,77.5
							z"/>
						<path d="M40.7,77.3L40.7,77.3c0,0.1,0,0.1,0.1,0.1h0.2v0.1h-0.2C40.7,77.5,40.6,77.5,40.7,77.3L40.7,77.3
							c-0.1-0.2,0-0.2,0.1-0.2h0.1c0.1,0,0.1,0.1,0.1,0.1v0.1C40.9,77.3,40.7,77.3,40.7,77.3z M40.9,77.3
							C40.9,77.2,40.8,77.2,40.9,77.3l-0.1-0.1c0,0-0.1,0-0.1,0.1v0L40.9,77.3C40.9,77.3,40.9,77.3,40.9,77.3z"/>
						<path d="M41.2,77.5c-0.1,0-0.1-0.1-0.1-0.1v-0.1c0-0.1,0.1-0.1,0.1-0.1h0.1V77h0.1v0.6H41.2z M41.3,77.2h-0.1
							c0,0-0.1,0-0.1,0.1v0.1c0,0,0,0.1,0.1,0.1h0.1V77.2z"/>
						<path d="M41.7,77L41.7,77L41.7,77L41.7,77L41.7,77z M41.7,77.5v-0.4h0.1L41.7,77.5L41.7,77.5z"/>
						<path d="M42.1,77.5v-0.3c0,0,0-0.1-0.1-0.1h-0.1v0.3h-0.1v-0.4h0.2c0.1,0,0.1,0.1,0.1,0.1L42.1,77.5L42.1,77.5z"/>
					</g>
					<g>
						<path d="M14,58.9h-0.2v-0.1L14,58.9C14,58.8,14,58.8,14,58.9l0-0.2c0,0,0,0,0,0h-0.1c0,0-0.1,0-0.1-0.1v-0.1
							c0,0,0-0.1,0.1-0.1h0.2v0.1h-0.2c0,0,0,0,0,0v0.1c0,0,0,0,0,0H14c0,0,0.1,0,0.1,0.1L14,58.9C14.1,58.8,14.1,58.9,14,58.9z"/>
						<path d="M14.3,58.7L14.3,58.7c0,0.1,0,0.1,0.1,0.1h0.2v0.1h-0.2C14.3,58.9,14.2,58.8,14.3,58.7L14.3,58.7
							c-0.1-0.2,0-0.2,0.1-0.2h0.1c0.1,0,0.1,0.1,0.1,0.1v0.1C14.5,58.7,14.3,58.7,14.3,58.7z M14.5,58.6
							C14.5,58.6,14.4,58.6,14.5,58.6l-0.1-0.1c0,0-0.1,0-0.1,0.1v0L14.5,58.6C14.5,58.6,14.5,58.6,14.5,58.6z"/>
						<path d="M14.8,58.9c-0.1,0-0.1-0.1-0.1-0.1v-0.1c0-0.1,0.1-0.1,0.1-0.1h0.1v-0.2H15v0.6H14.8z M14.9,58.6h-0.1
							c0,0-0.1,0-0.1,0.1v0.1c0,0,0,0.1,0.1,0.1h0.1C14.9,58.8,14.9,58.6,14.9,58.6z"/>
						<path d="M15.3,58.4L15.3,58.4L15.3,58.4L15.3,58.4L15.3,58.4z M15.3,58.9v-0.4h0.1L15.3,58.9L15.3,58.9z"/>
						<path d="M15.7,58.9v-0.3c0,0,0-0.1-0.1-0.1h-0.1v0.3h-0.1v-0.4h0.2c0.1,0,0.1,0.1,0.1,0.1L15.7,58.9
							C15.8,58.9,15.7,58.9,15.7,58.9z"/>
					</g>
					<g>
						<path d="M34,49.6h-0.2v-0.1L34,49.6C34,49.6,34,49.6,34,49.6l0-0.2c0,0,0,0,0,0h-0.1c0,0-0.1,0-0.1-0.1v-0.1
							c0,0,0-0.1,0.1-0.1h0.2v0.1h-0.2c0,0,0,0,0,0v0.1c0,0,0,0,0,0H34c0,0,0.1,0,0.1,0.1L34,49.6C34.1,49.6,34,49.6,34,49.6z"/>
						<path d="M34.3,49.5L34.3,49.5c0,0.1,0,0.1,0.1,0.1h0.2v0.1h-0.2C34.2,49.6,34.2,49.6,34.3,49.5L34.3,49.5
							c-0.1-0.2,0-0.2,0.1-0.2h0.1c0.1,0,0.1,0.1,0.1,0.1v0.1C34.5,49.5,34.3,49.5,34.3,49.5z M34.4,49.4
							C34.4,49.4,34.4,49.3,34.4,49.4l-0.1-0.1c0,0-0.1,0-0.1,0.1v0L34.4,49.4C34.4,49.4,34.4,49.4,34.4,49.4z"/>
						<path d="M34.7,49.6c-0.1,0-0.1-0.1-0.1-0.1v-0.1c0-0.1,0.1-0.1,0.1-0.1h0.1v-0.2h0.1v0.6H34.7z M34.9,49.3h-0.1
							c0,0-0.1,0-0.1,0.1v0.1c0,0,0,0.1,0.1,0.1h0.1C34.9,49.6,34.9,49.3,34.9,49.3z"/>
						<path d="M35.5,49.6h-0.1v0.2h-0.1v-0.5h0.2c0.1,0,0.1,0.1,0.1,0.1v0.1C35.6,49.6,35.5,49.6,35.5,49.6z M35.5,49.4
							C35.5,49.4,35.5,49.3,35.5,49.4l-0.2-0.1v0.2h0.1c0,0,0.1,0,0.1-0.1C35.5,49.5,35.5,49.4,35.5,49.4z"/>
						<path d="M35.9,49.4L35.9,49.4l-0.1-0.1v0.3h-0.1v-0.4h0.2C35.9,49.3,36,49.3,35.9,49.4L35.9,49.4C36,49.4,35.9,49.4,35.9,49.4
							z"/>
					</g>
					<g>
						<path d="M34,68.4h-0.2v-0.1L34,68.4C34,68.3,34,68.3,34,68.4l0-0.2c0,0,0,0,0,0h-0.1c0,0-0.1,0-0.1-0.1V68c0,0,0-0.1,0.1-0.1
							h0.2v0.1h-0.2c0,0,0,0,0,0v0.1c0,0,0,0,0,0H34c0,0,0.1,0,0.1,0.1L34,68.4C34.1,68.3,34,68.4,34,68.4z"/>
						<path d="M34.3,68.2L34.3,68.2c0,0.1,0,0.1,0.1,0.1h0.2v0.1h-0.2C34.2,68.4,34.2,68.3,34.3,68.2L34.3,68.2
							c-0.1-0.2,0-0.2,0.1-0.2h0.1c0.1,0,0.1,0.1,0.1,0.1v0.1C34.5,68.2,34.3,68.2,34.3,68.2z M34.4,68.1
							C34.4,68.1,34.4,68.1,34.4,68.1l-0.1-0.1c0,0-0.1,0-0.1,0.1v0L34.4,68.1C34.4,68.1,34.4,68.1,34.4,68.1z"/>
						<path d="M34.7,68.4c-0.1,0-0.1-0.1-0.1-0.1v-0.1c0-0.1,0.1-0.1,0.1-0.1h0.1v-0.2h0.1v0.6C34.9,68.4,34.7,68.4,34.7,68.4z
							 M34.9,68.1h-0.1c0,0-0.1,0-0.1,0.1v0.1c0,0,0,0.1,0.1,0.1h0.1V68.1z"/>
						<path d="M35.5,68.4h-0.1v0.2h-0.1V68h0.2c0.1,0,0.1,0.1,0.1,0.1v0.1C35.6,68.3,35.5,68.4,35.5,68.4z M35.5,68.1
							C35.5,68.1,35.5,68.1,35.5,68.1l-0.2-0.1v0.2h0.1c0,0,0.1,0,0.1-0.1V68.1z"/>
						<path d="M35.9,68.1L35.9,68.1l-0.1-0.1v0.3h-0.1V68h0.2C35.9,68,36,68,35.9,68.1L35.9,68.1C36,68.1,35.9,68.1,35.9,68.1z"/>
					</g>
					<g>
						<path d="M47.3,77.5h-0.2v-0.1L47.3,77.5C47.3,77.4,47.3,77.4,47.3,77.5l0-0.2c0,0,0,0,0,0h-0.1c0,0-0.1,0-0.1-0.1v-0.1
							c0,0,0-0.1,0.1-0.1h0.2v0.1h-0.2c0,0,0,0,0,0v0.1c0,0,0,0,0,0h0.1c0,0,0.1,0,0.1,0.1L47.3,77.5C47.4,77.5,47.3,77.5,47.3,77.5
							z"/>
						<path d="M47.5,77.3L47.5,77.3c0,0.1,0,0.1,0.1,0.1h0.2v0.1h-0.2C47.5,77.5,47.5,77.5,47.5,77.3L47.5,77.3
							c-0.1-0.2,0-0.2,0.1-0.2h0.1c0.1,0,0.1,0.1,0.1,0.1v0.1C47.8,77.3,47.5,77.3,47.5,77.3z M47.7,77.3
							C47.7,77.2,47.7,77.2,47.7,77.3l-0.1-0.1c0,0-0.1,0-0.1,0.1v0L47.7,77.3L47.7,77.3z"/>
						<path d="M48,77.5c-0.1,0-0.1-0.1-0.1-0.1v-0.1c0-0.1,0.1-0.1,0.1-0.1h0.1V77h0.1v0.6C48.2,77.5,48,77.5,48,77.5z M48.1,77.2
							H48c0,0-0.1,0-0.1,0.1v0.1c0,0,0,0.1,0.1,0.1h0.1V77.2z"/>
						<path d="M48.7,77.5h-0.1v0.2h-0.1v-0.5h0.2c0.1,0,0.1,0.1,0.1,0.1v0.1C48.9,77.5,48.8,77.5,48.7,77.5z M48.8,77.3
							C48.8,77.2,48.8,77.2,48.8,77.3l-0.2-0.1v0.2h0.1c0,0,0.1,0,0.1-0.1V77.3z"/>
						<path d="M49.2,77.3L49.2,77.3L49,77.2v0.3H49v-0.4h0.2C49.2,77.1,49.2,77.2,49.2,77.3L49.2,77.3
							C49.2,77.3,49.2,77.3,49.2,77.3z"/>
					</g>
					<g>
						<path d="M20.9,58.9h-0.2v-0.1L20.9,58.9C20.9,58.8,20.9,58.8,20.9,58.9l0-0.2c0,0,0,0,0,0h-0.1c0,0-0.1,0-0.1-0.1v-0.1
							c0,0,0-0.1,0.1-0.1h0.2v0.1h-0.2c0,0,0,0,0,0v0.1c0,0,0,0,0,0h0.1c0,0,0.1,0,0.1,0.1L20.9,58.9C21,58.8,20.9,58.9,20.9,58.9z"
							/>
						<path d="M21.1,58.7L21.1,58.7c0,0.1,0,0.1,0.1,0.1h0.2v0.1h-0.2C21.1,58.9,21,58.8,21.1,58.7L21.1,58.7
							c-0.1-0.2,0-0.2,0.1-0.2h0.1c0.1,0,0.1,0.1,0.1,0.1v0.1C21.4,58.7,21.1,58.7,21.1,58.7z M21.3,58.6
							C21.3,58.6,21.3,58.6,21.3,58.6l-0.1-0.1c0,0-0.1,0-0.1,0.1v0L21.3,58.6C21.3,58.6,21.3,58.6,21.3,58.6z"/>
						<path d="M21.6,58.9c-0.1,0-0.1-0.1-0.1-0.1v-0.1c0-0.1,0.1-0.1,0.1-0.1h0.1v-0.2h0.1v0.6H21.6z M21.7,58.6h-0.1
							c0,0-0.1,0-0.1,0.1v0.1c0,0,0,0.1,0.1,0.1h0.1C21.7,58.8,21.7,58.6,21.7,58.6z"/>
						<path d="M22.3,58.9h-0.1V59h-0.1v-0.5h0.2c0.1,0,0.1,0.1,0.1,0.1v0.1C22.5,58.8,22.4,58.9,22.3,58.9z M22.4,58.6
							C22.4,58.6,22.4,58.6,22.4,58.6l-0.2-0.1v0.2h0.1c0,0,0.1,0,0.1-0.1C22.4,58.7,22.4,58.6,22.4,58.6z"/>
						<path d="M22.8,58.6L22.8,58.6l-0.1-0.1v0.3h-0.1v-0.4h0.2C22.8,58.5,22.8,58.5,22.8,58.6L22.8,58.6
							C22.8,58.6,22.8,58.6,22.8,58.6z"/>
					</g>
					<g>
						<path d="M40.7,49.6C40.6,49.6,40.6,49.6,40.7,49.6l-0.2-0.4v0.4h-0.1v-0.5h0c0,0,0,0,0.1,0l0.2,0.3v-0.4h0.1L40.7,49.6
							L40.7,49.6z"/>
						<path d="M41,49.6L41,49.6c-0.1,0-0.2-0.1-0.2-0.1v-0.2h0.1v0.3C40.9,49.6,40.9,49.6,41,49.6L41,49.6c0-0.1,0.1-0.1,0.1-0.1
							v-0.3h0.1v0.2C41.1,49.6,41.1,49.6,41,49.6z"/>
						<path d="M41.5,49.6v-0.3c0,0,0-0.1-0.1-0.1h-0.1v0.3h-0.1v-0.4h0.2c0.1,0,0.1,0.1,0.1,0.1L41.5,49.6L41.5,49.6z"/>
						<path d="M41.8,49.6c-0.1,0-0.1-0.1-0.1-0.1v-0.1c0-0.1,0.1-0.1,0.1-0.1h0.1c0,0,0.1,0,0.1,0.1v0.1h-0.1v-0.1h-0.1
							c0,0-0.1,0-0.1,0.1v0.1C41.7,49.6,41.8,49.6,41.8,49.6l0.2-0.1v0.1C42,49.6,41.8,49.6,41.8,49.6z"/>
						<path d="M42.5,49.6h-0.2v-0.1L42.5,49.6l0-0.2h-0.2c0,0-0.1,0-0.1-0.1v-0.1c0,0,0-0.1,0.1-0.1h0.2v0.1h-0.2v0.1h0.2
							c0,0,0.1,0,0.1,0.1L42.5,49.6C42.6,49.6,42.5,49.6,42.5,49.6z"/>
						<path d="M42.9,49.6L42.9,49.6c-0.1,0-0.2-0.1-0.2-0.1v-0.2h0.1v0.3C42.8,49.6,42.8,49.6,42.9,49.6L42.9,49.6
							c0-0.1,0.1-0.1,0.1-0.1v-0.3H43v0.2C43,49.6,42.9,49.6,42.9,49.6z"/>
					</g>
					<g>
						<path d="M40.7,68.4C40.6,68.4,40.6,68.4,40.7,68.4L40.5,68v0.4h-0.1v-0.5h0c0,0,0,0,0.1,0l0.2,0.3v-0.4h0.1L40.7,68.4
							L40.7,68.4z"/>
						<path d="M41,68.4L41,68.4c-0.1,0-0.2-0.1-0.2-0.1V68h0.1v0.3C40.9,68.3,40.9,68.3,41,68.4L41,68.4c0-0.1,0.1-0.1,0.1-0.1V68
							h0.1v0.2C41.1,68.3,41.1,68.4,41,68.4z"/>
						<path d="M41.5,68.4v-0.3c0,0,0-0.1-0.1-0.1h-0.1v0.3h-0.1V68h0.2c0.1,0,0.1,0.1,0.1,0.1L41.5,68.4L41.5,68.4z"/>
						<path d="M41.8,68.4c-0.1,0-0.1-0.1-0.1-0.1v-0.1c0-0.1,0.1-0.1,0.1-0.1h0.1c0,0,0.1,0,0.1,0.1v0.1h-0.1v-0.1h-0.1
							c0,0-0.1,0-0.1,0.1v0.1C41.7,68.3,41.8,68.3,41.8,68.4l0.2-0.1v0.1L41.8,68.4L41.8,68.4z"/>
						<path d="M42.5,68.4h-0.2v-0.1L42.5,68.4l0-0.2h-0.2c0,0-0.1,0-0.1-0.1v-0.1c0,0,0-0.1,0.1-0.1h0.2v0.1h-0.2v0.1h0.2
							c0,0,0.1,0,0.1,0.1L42.5,68.4C42.6,68.3,42.5,68.4,42.5,68.4z"/>
						<path d="M42.9,68.4L42.9,68.4c-0.1,0-0.2-0.1-0.2-0.1V68h0.1v0.3C42.8,68.3,42.8,68.3,42.9,68.4L42.9,68.4
							c0-0.1,0.1-0.1,0.1-0.1V68H43v0.2C43,68.3,42.9,68.4,42.9,68.4z"/>
					</g>
					<g>
						<path d="M20.2,77.5C20.2,77.5,20.2,77.5,20.2,77.5L20,77.2v0.4h-0.1V77h0c0,0,0,0,0.1,0l0.2,0.3V77h0.1L20.2,77.5
							C20.3,77.5,20.2,77.5,20.2,77.5z"/>
						<path d="M20.6,77.5L20.6,77.5c-0.1,0-0.2-0.1-0.2-0.1v-0.2h0.1v0.3C20.4,77.4,20.5,77.4,20.6,77.5L20.6,77.5
							c0-0.1,0.1-0.1,0.1-0.1v-0.3h0.1v0.2C20.7,77.5,20.6,77.5,20.6,77.5z"/>
						<path d="M21,77.5v-0.3c0,0,0-0.1-0.1-0.1h-0.1v0.3h-0.1v-0.4H21c0.1,0,0.1,0.1,0.1,0.1L21,77.5L21,77.5z"/>
						<path d="M21.3,77.5c-0.1,0-0.1-0.1-0.1-0.1v-0.1c0-0.1,0.1-0.1,0.1-0.1h0.1c0,0,0.1,0,0.1,0.1v0.1h-0.1v-0.1h-0.1
							c0,0-0.1,0-0.1,0.1v0.1C21.3,77.4,21.3,77.4,21.3,77.5l0.2-0.1v0.1C21.5,77.5,21.3,77.5,21.3,77.5z"/>
						<path d="M22.1,77.5h-0.2v-0.1L22.1,77.5l0-0.2h-0.2c0,0-0.1,0-0.1-0.1v-0.1c0,0,0-0.1,0.1-0.1h0.2v0.1h-0.2v0.1h0.2
							c0,0,0.1,0,0.1,0.1L22.1,77.5C22.1,77.5,22.1,77.5,22.1,77.5z"/>
						<path d="M22.4,77.5L22.4,77.5c-0.1,0-0.2-0.1-0.2-0.1v-0.2h0.1v0.3C22.3,77.4,22.3,77.4,22.4,77.5L22.4,77.5
							c0-0.1,0.1-0.1,0.1-0.1v-0.3h0.1v0.2C22.5,77.5,22.5,77.5,22.4,77.5z"/>
					</g>
					<g>
						<path d="M13.9,68.4C13.8,68.4,13.8,68.4,13.9,68.4L13.6,68v0.4h-0.1v-0.5h0c0,0,0,0,0.1,0l0.2,0.3v-0.4h0.1L13.9,68.4
							C13.9,68.4,13.9,68.4,13.9,68.4z"/>
						<path d="M14.2,68.4L14.2,68.4c-0.1,0-0.2-0.1-0.2-0.1V68h0.1v0.3C14.1,68.3,14.1,68.3,14.2,68.4L14.2,68.4
							c0-0.1,0.1-0.1,0.1-0.1V68h0.1v0.2C14.3,68.3,14.3,68.4,14.2,68.4z"/>
						<path d="M14.7,68.4v-0.3c0,0,0-0.1-0.1-0.1h-0.1v0.3h-0.1V68h0.2c0.1,0,0.1,0.1,0.1,0.1L14.7,68.4L14.7,68.4z"/>
						<path d="M15,68.4c-0.1,0-0.1-0.1-0.1-0.1v-0.1c0-0.1,0.1-0.1,0.1-0.1h0.1c0,0,0.1,0,0.1,0.1v0.1h-0.1v-0.1H15
							c0,0-0.1,0-0.1,0.1v0.1C14.9,68.3,15,68.3,15,68.4l0.2-0.1v0.1L15,68.4L15,68.4z"/>
						<path d="M15.7,68.4h-0.2v-0.1L15.7,68.4l0-0.2h-0.2c0,0-0.1,0-0.1-0.1v-0.1c0,0,0-0.1,0.1-0.1h0.2v0.1h-0.2v0.1h0.2
							c0,0,0.1,0,0.1,0.1L15.7,68.4C15.8,68.3,15.7,68.4,15.7,68.4z"/>
						<path d="M16.1,68.4L16.1,68.4c-0.1,0-0.2-0.1-0.2-0.1V68h0.1v0.3C15.9,68.3,16,68.3,16.1,68.4L16.1,68.4
							c0-0.1,0.1-0.1,0.1-0.1V68h0.1v0.2C16.2,68.3,16.1,68.4,16.1,68.4z"/>
					</g>
					<g>
						<path d="M34.1,77.5C34.1,77.5,34,77.5,34.1,77.5l-0.2-0.4v0.4h-0.1V77h0c0,0,0,0,0.1,0l0.2,0.3V77h0.1L34.1,77.5L34.1,77.5z"
							/>
						<path d="M34.4,77.5L34.4,77.5c-0.1,0-0.2-0.1-0.2-0.1v-0.2h0.1v0.3C34.3,77.4,34.3,77.4,34.4,77.5L34.4,77.5
							c0-0.1,0.1-0.1,0.1-0.1v-0.3h0.1v0.2C34.5,77.5,34.5,77.5,34.4,77.5z"/>
						<path d="M34.9,77.5v-0.3c0,0,0-0.1-0.1-0.1h-0.1v0.3h-0.1v-0.4h0.2c0.1,0,0.1,0.1,0.1,0.1L34.9,77.5L34.9,77.5z"/>
						<path d="M35.2,77.5c-0.1,0-0.1-0.1-0.1-0.1v-0.1c0-0.1,0.1-0.1,0.1-0.1h0.1c0,0,0.1,0,0.1,0.1v0.1h-0.1v-0.1h-0.1
							c0,0-0.1,0-0.1,0.1v0.1C35.1,77.4,35.2,77.4,35.2,77.5l0.2-0.1v0.1C35.4,77.5,35.2,77.5,35.2,77.5z"/>
						<path d="M35.9,77.5h-0.2v-0.1L35.9,77.5l0-0.2h-0.2c0,0-0.1,0-0.1-0.1v-0.1c0,0,0-0.1,0.1-0.1H36v0.1h-0.2v0.1h0.2
							c0,0,0.1,0,0.1,0.1L35.9,77.5C36,77.5,36,77.5,35.9,77.5z"/>
						<path d="M36.3,77.5L36.3,77.5c-0.1,0-0.2-0.1-0.2-0.1v-0.2h0.1v0.3C36.2,77.4,36.2,77.4,36.3,77.5L36.3,77.5
							c0-0.1,0.1-0.1,0.1-0.1v-0.3h0.1v0.2C36.4,77.5,36.3,77.5,36.3,77.5z"/>
					</g>
					<g>
						<path d="M47.3,49.5L47.3,49.5c0,0.1,0,0.1,0.1,0.1h0.2v0.1h-0.2C47.3,49.6,47.2,49.6,47.3,49.5L47.3,49.5
							c-0.1-0.2,0-0.2,0.1-0.2h0.1c0.1,0,0.1,0.1,0.1,0.1v0.1H47.3z M47.5,49.4C47.5,49.4,47.5,49.3,47.5,49.4l-0.1-0.1
							c0,0-0.1,0-0.1,0.1v0L47.5,49.4C47.5,49.4,47.5,49.4,47.5,49.4z"/>
						<path d="M47.7,49.6v-0.6h0.1L47.7,49.6L47.7,49.6z"/>
						<path d="M47.9,49.2L47.9,49.2L47.9,49.2L47.9,49.2L47.9,49.2z M47.9,49.6v-0.4h0.1L47.9,49.6L47.9,49.6z"/>
						<path d="M48.3,49.6h-0.1c0,0-0.1,0-0.1-0.1v-0.2H48v-0.1h0.1v-0.1h0.1v0.1h0.1v0.1h-0.1v0.2L48.3,49.6L48.3,49.6z"/>
						<path d="M48.8,49.6L48.8,49.6c-0.1,0-0.2-0.1-0.2-0.1v-0.2h0.1v0.3C48.6,49.6,48.7,49.6,48.8,49.6L48.8,49.6
							c0-0.1,0.1-0.1,0.1-0.1v-0.3h0.1v0.2C48.9,49.6,48.8,49.6,48.8,49.6z"/>
						<path d="M49.2,49.6h-0.1c0,0-0.1,0-0.1-0.1v-0.2H49v-0.1H49v-0.1h0.1v0.1h0.1v0.1h-0.1v0.2L49.2,49.6
							C49.2,49.6,49.2,49.6,49.2,49.6z"/>
					</g>
					<g>
						<path d="M47.3,68L47.3,68c0,0.1,0,0.1,0.1,0.1h0.2v0.1h-0.2C47.3,68.1,47.2,68.1,47.3,68L47.3,68c-0.1-0.2,0-0.2,0.1-0.2h0.1
							c0.1,0,0.1,0.1,0.1,0.1V68C47.6,68,47.3,68,47.3,68z M47.5,67.9C47.5,67.8,47.5,67.8,47.5,67.9l-0.1-0.1c0,0-0.1,0-0.1,0.1v0
							L47.5,67.9C47.5,67.9,47.5,67.9,47.5,67.9z"/>
						<path d="M47.7,68.1v-0.6h0.1L47.7,68.1L47.7,68.1z"/>
						<path d="M47.9,67.7L47.9,67.7L47.9,67.7L47.9,67.7L47.9,67.7z M47.9,68.1v-0.4h0.1L47.9,68.1C47.9,68.1,47.9,68.1,47.9,68.1z"
							/>
						<path d="M48.3,68.1h-0.1c0,0-0.1,0-0.1-0.1v-0.2H48v-0.1h0.1v-0.1h0.1v0.1h0.1v0.1h-0.1v0.2L48.3,68.1L48.3,68.1z"/>
						<path d="M48.8,68.1L48.8,68.1c-0.1,0-0.2-0.1-0.2-0.1v-0.2h0.1V68C48.6,68,48.7,68.1,48.8,68.1L48.8,68.1
							c0-0.1,0.1-0.1,0.1-0.1v-0.3h0.1V68C48.9,68.1,48.8,68.1,48.8,68.1z"/>
						<path d="M49.2,68.1h-0.1c0,0-0.1,0-0.1-0.1v-0.2H49v-0.1H49v-0.1h0.1v0.1h0.1v0.1h-0.1v0.2L49.2,68.1
							C49.2,68.1,49.2,68.1,49.2,68.1z"/>
					</g>
					<g>
						<path d="M27.3,77.3L27.3,77.3c0,0.1,0,0.1,0.1,0.1h0.2v0.1h-0.2C27.3,77.5,27.3,77.5,27.3,77.3L27.3,77.3
							c-0.1-0.2,0-0.2,0.1-0.2h0.1c0.1,0,0.1,0.1,0.1,0.1v0.1C27.6,77.3,27.3,77.3,27.3,77.3z M27.5,77.3
							C27.5,77.2,27.5,77.2,27.5,77.3l-0.1-0.1c0,0-0.1,0-0.1,0.1v0L27.5,77.3C27.5,77.3,27.5,77.3,27.5,77.3z"/>
						<path d="M27.7,77.5V77h0.1L27.7,77.5L27.7,77.5z"/>
						<path d="M27.9,77L27.9,77L27.9,77L27.9,77L27.9,77z M27.9,77.5v-0.4h0.1L27.9,77.5L27.9,77.5z"/>
						<path d="M28.3,77.5h-0.1c0,0-0.1,0-0.1-0.1v-0.2H28v-0.1h0.1V77h0.1v0.1h0.1v0.1h-0.1v0.2L28.3,77.5
							C28.3,77.4,28.3,77.5,28.3,77.5z"/>
						<path d="M28.8,77.5L28.8,77.5c-0.1,0-0.2-0.1-0.2-0.1v-0.2h0.1v0.3C28.7,77.4,28.7,77.4,28.8,77.5L28.8,77.5
							c0-0.1,0.1-0.1,0.1-0.1v-0.3h0.1v0.2C28.9,77.5,28.9,77.5,28.8,77.5z"/>
						<path d="M29.3,77.5h-0.1c0,0-0.1,0-0.1-0.1v-0.2H29v-0.1h0.1V77h0.1v0.1h0.1v0.1h-0.1v0.2L29.3,77.5
							C29.3,77.4,29.3,77.5,29.3,77.5z"/>
					</g>
				</g>
				<g>
					
						<image style="overflow:visible;opacity:0.57;enable-background:new    ;" width="28" height="31" xlink:href="4EDBF199.png"  transform="matrix(0.2486 0 0 0.2486 18.2919 37.8994)">
					</image>
				</g>
				<g>
					
						<image style="overflow:visible;opacity:0.57;enable-background:new    ;" width="26" height="31" xlink:href="4EDBF19F.png"  transform="matrix(0.2555 0 0 0.2555 37.2906 37.7923)">
					</image>
				</g>
				<g>
					
						<image style="overflow:visible;enable-background:new    ;" width="25" height="27" xlink:href="4EDBF198.png"  transform="matrix(0.2496 0 0 0.2496 18.2919 37.9027)">
					</image>
					<g>
						<rect x="18.8" y="38.3" class="st1" width="5.3" height="4.1"/>
						<g>
							<defs>
								<rect id="SVGID_1_" x="18.8" y="38.3" width="5.3" height="4.1"/>
							</defs>
							<clipPath id="SVGID_00000009587317533816487800000013720773600006717372_">
								<use xlink:href="#SVGID_1_"  style="overflow:visible;"/>
							</clipPath>
							<g style="clip-path:url(#SVGID_00000009587317533816487800000013720773600006717372_);">
								<g>
									<path d="M21.5,44.8c-1.5,0-2.7-1.2-2.7-2.7c0-1.5,1.2-2.7,2.7-2.7c1.5,0,2.7,1.2,2.7,2.7C24.2,43.6,22.9,44.8,21.5,44.8z
										 M21.5,39.5c-1.5,0-2.6,1.2-2.6,2.6c0,1.5,1.2,2.6,2.6,2.6s2.6-1.2,2.6-2.6C24.1,40.6,22.9,39.5,21.5,39.5z"/>
									<g>
										<polygon points="19.3,40.7 19.2,40.8 19.5,41 19.6,40.8 										"/>
										<path d="M20.3,39.8C20.3,39.8,20.3,39.8,20.3,39.8C20.2,39.8,20.2,39.8,20.3,39.8c-0.1,0.1-0.2,0.1-0.2,0.1l0.2,0.3
											c0,0,0,0,0.1,0c0,0,0,0,0,0c0,0,0,0,0,0S20.3,39.8,20.3,39.8z"/>
										<polygon points="18.9,41.9 18.9,42.1 19.4,42.1 19.4,41.9 										"/>
										<path d="M22.8,39.9C22.8,39.9,22.8,39.9,22.8,39.9c-0.1-0.1-0.1-0.1-0.1-0.1c0,0,0,0,0,0l-0.1,0.3c0,0,0,0,0,0
											c0,0,0,0,0,0c0,0,0.1,0,0.1,0S22.8,39.9,22.8,39.9z"/>
										<path d="M21.5,39.5C21.5,39.5,21.5,39.5,21.5,39.5c-0.1,0-0.2,0-0.2,0l0,0.5c0,0,0,0,0.1,0c0,0,0.1,0,0.1,0L21.5,39.5z"/>
										<polygon points="23.7,40.8 23.6,40.7 23.3,40.8 23.4,41 										"/>
										<polygon points="24,42.1 24,41.9 23.5,41.9 23.5,42.1 										"/>
									</g>
									<path d="M20.8,42.8L20.8,42.8c0,0,0-0.1,0-0.1l2-2.4c0,0,0,0,0,0l0,0c0,0,0,0,0,0l-1.9,2.5C20.9,42.8,20.8,42.9,20.8,42.8z
										"/>
									<g>
										<path d="M19.7,42.2h-0.1c-0.1,0-0.1-0.1-0.1-0.1v-0.2c0-0.1,0.1-0.1,0.1-0.1h0.1c0.1,0,0.1,0.1,0.1,0.1v0.2
											C19.9,42.2,19.8,42.2,19.7,42.2z M19.8,41.9C19.8,41.9,19.8,41.8,19.8,41.9l-0.2-0.1c0,0,0,0,0,0.1v0.2c0,0,0,0.1,0,0.1
											h0.1c0,0,0,0,0-0.1V41.9z"/>
										<g>
											<path d="M21.1,40.6v-0.4H21v-0.1h0.1L21.1,40.6C21.1,40.6,21.1,40.6,21.1,40.6z"/>
											<path d="M21.3,40.6L21.3,40.6l0.2-0.5h0.1L21.3,40.6z"/>
											<path d="M21.8,40.4L21.8,40.4C21.7,40.4,21.7,40.5,21.8,40.4l-0.1,0.1h0.2v0.1h-0.3v-0.1C21.6,40.4,21.7,40.4,21.8,40.4
												L21.8,40.4c0-0.1,0.1-0.1,0.1-0.1v0c0,0,0-0.1,0-0.1h-0.2v-0.1h0.2c0.1,0,0.1,0,0.1,0.1v0C21.9,40.4,21.8,40.4,21.8,40.4
												z"/>
										</g>
										<path d="M23.3,42.2v-0.4h-0.1v-0.1h0.1L23.3,42.2C23.4,42.2,23.3,42.2,23.3,42.2z"/>
									</g>
								</g>
							</g>
						</g>
					</g>
					<g class="st3">
						<g>
							<defs>
								<rect id="SVGID_00000004532348149558421850000011719674157619853977_" x="18.8" y="38.3" width="5.3" height="4.1"/>
							</defs>
							<clipPath id="SVGID_00000129201545188129780870000004745457471126210452_">
								<use xlink:href="#SVGID_00000004532348149558421850000011719674157619853977_"  style="overflow:visible;"/>
							</clipPath>
							<g style="clip-path:url(#SVGID_00000129201545188129780870000004745457471126210452_);">
								<g>
									
										<image style="overflow:visible;enable-background:new    ;" width="32" height="22" xlink:href="4EDBF19B.png"  transform="matrix(0.24 0 0 0.24 16.3719 38.2723)">
									</image>
									
										<image style="overflow:visible;opacity:0.44;enable-background:new    ;" width="33" height="24" xlink:href="4EDBF1A7.png"  transform="matrix(0.2473 0 0 0.2473 17.3319 36.745)">
									</image>
									
										<image style="overflow:visible;opacity:0.6;enable-background:new    ;" width="34" height="23" xlink:href="4EDBF197.png"  transform="matrix(0.24 0 0 0.24 20.6919 35.7523)">
									</image>
								</g>
							</g>
						</g>
					</g>
				</g>
				<g>
					
						<image style="overflow:visible;enable-background:new    ;" width="24" height="27" xlink:href="4EDBF1A9.png"  transform="matrix(0.2578 0 0 0.2578 37.2786 37.7923)">
					</image>
					<g>
						<rect x="37.7" y="38.3" class="st1" width="5.3" height="4.1"/>
						<g>
							<defs>
								<rect id="SVGID_00000067936820326966695550000003906463864227520905_" x="37.7" y="38.3" width="5.3" height="4.1"/>
							</defs>
							<clipPath id="SVGID_00000173162836980294073380000002352953258645469366_">
								<use xlink:href="#SVGID_00000067936820326966695550000003906463864227520905_"  style="overflow:visible;"/>
							</clipPath>
							<g style="clip-path:url(#SVGID_00000173162836980294073380000002352953258645469366_);">
								<path d="M40.3,44.8c-1.5,0-2.7-1.2-2.7-2.7c0-1.5,1.2-2.7,2.7-2.7c1.5,0,2.7,1.2,2.7,2.7C43,43.6,41.8,44.8,40.3,44.8z
									 M40.3,39.5c-1.5,0-2.6,1.2-2.6,2.6c0,1.5,1.2,2.6,2.6,2.6s2.6-1.2,2.6-2.6C43,40.6,41.8,39.5,40.3,39.5z"/>
								<g>
									<path d="M40.5,42.1C40.5,42.1,40.5,42.1,40.5,42.1C40.5,42.1,40.5,42.1,40.5,42.1c0,0.1,0,0.1,0,0.1c0,0,0,0.1-0.1,0.1
										c0,0-0.1,0-0.1,0c0,0,0,0,0,0c0,0,0,0,0,0c0,0,0,0-0.1,0c0,0-0.1-0.1-0.1-0.1c0,0,0-0.1,0-0.1c0,0,0-0.1,0-0.1
										c0,0,0.1-0.1,0.1-0.1c0,0,0.1,0,0.1,0c0,0,0.1,0,0.1,0c0,0,0.1,0.1,0.1,0.1C40.5,42,40.5,42,40.5,42.1
										C40.5,42,40.5,42.1,40.5,42.1C40.5,42.1,40.5,42.1,40.5,42.1z"/>
									<g>
										<polygon points="38.2,40.7 38.1,40.8 38.3,41 38.4,40.9 										"/>
										<path d="M39.1,39.8C39.1,39.8,39.1,39.8,39.1,39.8C39.1,39.9,39.1,39.9,39.1,39.8C39,39.9,39,39.9,39,39.9l0.2,0.3l0.1,0
											c0,0,0,0,0,0c0,0,0,0,0,0S39.1,39.8,39.1,39.8z"/>
										<polygon points="37.8,41.9 37.7,42.1 38.3,42.1 38.3,42 										"/>
										<path d="M41.6,39.9C41.6,39.9,41.6,39.9,41.6,39.9c-0.1-0.1-0.1-0.1-0.1-0.1c0,0,0,0,0,0l-0.1,0.3c0,0,0,0,0,0
											c0,0,0,0,0,0l0.1,0C41.4,40.2,41.6,39.9,41.6,39.9z"/>
										<path d="M40.4,39.6C40.4,39.6,40.3,39.6,40.4,39.6c-0.1,0-0.2,0-0.2,0l0,0.5c0,0,0,0,0.1,0c0,0,0.1,0,0.1,0L40.4,39.6z"/>
										<polygon points="42.5,40.8 42.4,40.7 42.1,40.9 42.2,41 										"/>
										<polygon points="42.8,42.1 42.8,41.9 42.3,42 42.3,42.1 										"/>
									</g>
									<path d="M40.8,42.9L40.8,42.9c0,0-0.1,0-0.1-0.1L39,40.3c0,0,0,0,0,0l0,0c0,0,0,0,0,0l1.8,2.5
										C40.9,42.8,40.9,42.9,40.8,42.9z"/>
									<g>
										<g>
											<path d="M38.5,42.3h-0.2v-0.1L38.5,42.3c0-0.1,0-0.1,0-0.1v-0.1c0,0,0-0.1,0-0.1h-0.2v-0.2h0.3v0.1h-0.2V42h0.1
												c0.1,0,0.1,0.1,0.1,0.1v0.1C38.6,42.2,38.6,42.3,38.5,42.3z"/>
											<path d="M39,42.3h-0.1c-0.1,0-0.1-0.1-0.1-0.1v-0.2c0-0.1,0.1-0.1,0.1-0.1H39c0.1,0,0.1,0.1,0.1,0.1v0.2
												C39.1,42.2,39,42.3,39,42.3z M39,41.9C39,41.9,39,41.9,39,41.9l-0.1-0.1c0,0,0,0,0,0.1v0.2c0,0,0,0.1,0,0.1H39
												c0,0,0,0,0-0.1V41.9z"/>
										</g>
										<g>
											<path d="M39.8,40.7v-0.4h-0.1v-0.1h0.1L39.8,40.7C39.9,40.7,39.8,40.7,39.8,40.7z"/>
											<path d="M40.2,40.7h-0.1c-0.1,0-0.1-0.1-0.1-0.1v-0.2c0-0.1,0.1-0.1,0.1-0.1h0.1c0.1,0,0.1,0.1,0.1,0.1v0.2
												C40.3,40.6,40.3,40.7,40.2,40.7z M40.2,40.3C40.2,40.3,40.2,40.3,40.2,40.3l-0.1-0.1c0,0,0,0,0,0.1v0.2c0,0,0,0.1,0,0.1
												h0.1c0,0,0,0,0-0.1V40.3z"/>
											<path d="M40.6,40.7h-0.1c-0.1,0-0.1-0.1-0.1-0.1v-0.2c0-0.1,0.1-0.1,0.1-0.1h0.1c0.1,0,0.1,0.1,0.1,0.1v0.2
												C40.8,40.6,40.7,40.7,40.6,40.7z M40.7,40.3C40.7,40.3,40.7,40.3,40.7,40.3l-0.1-0.1c0,0,0,0,0,0.1v0.2c0,0,0,0.1,0,0.1
												h0.1c0,0,0,0,0-0.1V40.3z"/>
										</g>
										<g>
											<path d="M41.3,42.3v-0.4h-0.1v-0.1h0.1L41.3,42.3C41.4,42.3,41.3,42.3,41.3,42.3z"/>
											<path d="M41.7,42.3h-0.2v-0.1L41.7,42.3c0-0.1,0-0.1,0-0.1v-0.1c0,0,0-0.1,0-0.1h-0.2v-0.2h0.3v0.1h-0.2V42h0.1
												c0.1,0,0.1,0.1,0.1,0.1v0.1C41.8,42.2,41.7,42.3,41.7,42.3z"/>
											<path d="M42.1,42.3H42c-0.1,0-0.1-0.1-0.1-0.1v-0.2c0-0.1,0.1-0.1,0.1-0.1h0.1c0.1,0,0.1,0.1,0.1,0.1v0.2
												C42.2,42.2,42.2,42.3,42.1,42.3z M42.2,41.9C42.2,41.9,42.1,41.9,42.2,41.9L42,41.9c0,0,0,0,0,0.1v0.2c0,0,0,0.1,0,0.1
												h0.1c0,0,0,0,0-0.1V41.9z"/>
										</g>
									</g>
									<g>
										<path d="M40.5,41.6h-0.2c-0.1,0-0.2-0.1-0.2-0.2v-0.2c0-0.1,0.1-0.1,0.1-0.1h0.1c0,0,0.1,0,0.1,0.1v0.1h-0.1v-0.1
											c0,0,0,0,0,0h-0.1c0,0,0,0,0,0.1v0.2c0,0.1,0,0.1,0.1,0.1L40.5,41.6C40.5,41.5,40.5,41.6,40.5,41.6z"/>
										<path d="M40.1,41.3C40,41.3,40,41.2,40.1,41.3c-0.1-0.1,0-0.2,0-0.2S40.2,41.2,40.1,41.3C40.2,41.2,40.1,41.3,40.1,41.3z
											 M40.1,41.1C40.1,41.1,40,41.2,40.1,41.1c-0.1,0.1,0,0.1,0,0.1S40.1,41.2,40.1,41.1C40.1,41.2,40.1,41.1,40.1,41.1z"/>
									</g>
								</g>
							</g>
						</g>
					</g>
					<g class="st3">
						<g>
							<defs>
								<rect id="SVGID_00000020358911452209058220000014210051110084073348_" x="37.7" y="38.3" width="5.3" height="4.1"/>
							</defs>
							<clipPath id="SVGID_00000018947102581705452780000009695159370301618317_">
								<use xlink:href="#SVGID_00000020358911452209058220000014210051110084073348_"  style="overflow:visible;"/>
							</clipPath>
							<g style="clip-path:url(#SVGID_00000018947102581705452780000009695159370301618317_);">
								<g>
									
										<image style="overflow:visible;enable-background:new    ;" width="31" height="22" xlink:href="4EDBF1AB.png"  transform="matrix(0.24 0 0 0.24 35.3319 38.2723)">
									</image>
									
										<image style="overflow:visible;opacity:0.44;enable-background:new    ;" width="33" height="24" xlink:href="4EDBF1A8.png"  transform="matrix(0.2473 0 0 0.2473 36.2919 36.745)">
									</image>
									
										<image style="overflow:visible;opacity:0.6;enable-background:new    ;" width="34" height="23" xlink:href="4EDBF1AF.png"  transform="matrix(0.2471 0 0 0.2471 39.4119 35.6711)">
									</image>
								</g>
							</g>
						</g>
					</g>
				</g>
			</g>
			<g>
				<g>
					
						<image style="overflow:visible;opacity:0.57;enable-background:new    ;" width="18" height="28" xlink:href="65C9C6F3.png"  transform="matrix(0.2657 0 0 0.2657 78.0605 53.3923)">
					</image>
				</g>
				<g>
					
						<image style="overflow:visible;opacity:0.57;enable-background:new    ;" width="20" height="28" xlink:href="65C9C6FD.png"  transform="matrix(0.24 0 0 0.24 84.5319 53.7523)">
					</image>
				</g>
				<g>
					
						<image style="overflow:visible;opacity:0.57;enable-background:new    ;" width="18" height="28" xlink:href="65C9C6FF.png"  transform="matrix(0.2657 0 0 0.2657 91.2605 53.3923)">
					</image>
				</g>
				<g>
					
						<image style="overflow:visible;opacity:0.57;enable-background:new    ;" width="17" height="28" xlink:href="65C9C6F2.png"  transform="matrix(0.2657 0 0 0.2657 98.1133 53.3923)">
					</image>
				</g>
				<g>
					
						<image style="overflow:visible;opacity:0.57;enable-background:new    ;" width="19" height="28" xlink:href="65C9C6F1.png"  transform="matrix(0.24 0 0 0.24 104.6919 53.7523)">
					</image>
				</g>
				<g>
					
						<image style="overflow:visible;opacity:0.57;enable-background:new    ;" width="18" height="28" xlink:href="65C9C6F5.png"  transform="matrix(0.2657 0 0 0.2657 111.1805 53.3923)">
					</image>
				</g>
				<g>
					
						<image style="overflow:visible;opacity:0.57;enable-background:new    ;" width="19" height="30" xlink:href="65C9C6F7.png"  transform="matrix(0.24 0 0 0.24 104.6919 62.0323)">
					</image>
				</g>
				<g>
					
						<image style="overflow:visible;opacity:0.57;enable-background:new    ;" width="17" height="30" xlink:href="65C9C6F0.png"  transform="matrix(0.256 0 0 0.256 98.1959 61.7923)">
					</image>
				</g>
				<g>
					
						<image style="overflow:visible;opacity:0.57;enable-background:new    ;" width="18" height="30" xlink:href="65C9C6EF.png"  transform="matrix(0.256 0 0 0.256 91.3479 61.7923)">
					</image>
				</g>
				<g>
					
						<image style="overflow:visible;opacity:0.57;enable-background:new    ;" width="20" height="30" xlink:href="65C9C6CD.png"  transform="matrix(0.24 0 0 0.24 84.5319 62.0323)">
					</image>
				</g>
				<g>
					
						<image style="overflow:visible;opacity:0.57;enable-background:new    ;" width="17" height="31" xlink:href="65C9C6D2.png"  transform="matrix(0.2477 0 0 0.2477 89.1461 69.9523)">
					</image>
				</g>
				<g>
					
						<image style="overflow:visible;opacity:0.57;enable-background:new    ;" width="19" height="31" xlink:href="65C9C6CC.png"  transform="matrix(0.2477 0 0 0.2477 94.4184 69.9523)">
					</image>
				</g>
				<g>
					
						<image style="overflow:visible;opacity:0.57;enable-background:new    ;" width="19" height="31" xlink:href="65C9C6CE.png"  transform="matrix(0.2477 0 0 0.2477 100.4184 69.9523)">
					</image>
				</g>
				<g>
					
						<image style="overflow:visible;opacity:0.57;enable-background:new    ;" width="18" height="28" xlink:href="65C9C6CB.png"  transform="matrix(0.2667 0 0 0.2667 91.2519 79.419)">
					</image>
				</g>
				<g>
					
						<image style="overflow:visible;opacity:0.57;enable-background:new    ;" width="17" height="28" xlink:href="65C9C6B2.png"  transform="matrix(0.2743 0 0 0.2743 98.0405 79.3123)">
					</image>
				</g>
				<g>
					<g>
						<rect x="91.4" y="79.5" class="st0" width="4.2" height="6.9"/>
						<g>
							<g>
								
									<image style="overflow:visible;enable-background:new    ;" width="11" height="12" xlink:href="65C9C6B5.png"  transform="matrix(0.28 0 0 0.28 91.9919 82.6723)">
								</image>
							</g>
							
								<image style="overflow:visible;enable-background:new    ;" width="10" height="11" xlink:href="65C9C6B6.png"  transform="matrix(0.2618 0 0 0.2618 92.2228 82.9123)">
							</image>
						</g>
						<rect x="91.7" y="79.7" class="st1" width="3.7" height="2.8"/>
						<g>
							<path d="M93,81.8h-0.3c-0.2,0-0.3-0.2-0.3-0.3v-0.7c0-0.2,0.2-0.3,0.3-0.3H93c0.2,0,0.3,0.2,0.3,0.3v0.7
								C93.3,81.7,93.1,81.8,93,81.8z M93.1,80.8c0-0.1-0.1-0.2-0.1-0.2h-0.3c-0.1,0-0.1,0.1-0.1,0.2v0.7c0,0.1,0.1,0.2,0.1,0.2H93
								c0.1,0,0.1-0.1,0.1-0.2V80.8z"/>
							<path d="M94.4,81.8c-0.1,0-0.1,0-0.1-0.1l-0.5-0.9v1h-0.2v-1.4h0.1c0.1,0,0.1,0,0.1,0.1l0.5,0.9v-1h0.2v1.4
								C94.5,81.8,94.4,81.8,94.4,81.8z"/>
						</g>
					</g>
					<g>
						<rect x="98.1" y="79.5" class="st0" width="4.2" height="6.9"/>
						<g>
							<g>
								
									<image style="overflow:visible;enable-background:new    ;" width="14" height="12" xlink:href="65C9C6B4.png"  transform="matrix(0.2571 0 0 0.2571 98.4519 82.8094)">
								</image>
							</g>
							
								<image style="overflow:visible;enable-background:new    ;" width="12" height="11" xlink:href="65C9C6B3.png"  transform="matrix(0.24 0 0 0.24 98.6919 83.0323)">
							</image>
						</g>
						<rect x="98.4" y="79.7" class="st1" width="3.7" height="2.8"/>
						<g>
							<path d="M99.6,81.8h-0.3c-0.2,0-0.3-0.2-0.3-0.3v-0.7c0-0.2,0.2-0.3,0.3-0.3h0.3c0.2,0,0.3,0.2,0.3,0.3v0.7
								C100,81.7,99.8,81.8,99.6,81.8z M99.8,80.8c0-0.1-0.1-0.2-0.1-0.2h-0.3c-0.1,0-0.1,0.1-0.1,0.2v0.7c0,0.1,0.1,0.2,0.1,0.2
								h0.3c0.1,0,0.1-0.1,0.1-0.2V80.8z"/>
							<path d="M101.1,81.8c-0.1,0-0.1,0-0.1-0.1l-0.5-0.9v1h-0.2v-1.4h0.1c0.1,0,0.1,0,0.1,0.1l0.5,0.9v-1h0.2v1.4
								C101.2,81.8,101.1,81.8,101.1,81.8z"/>
						</g>
					</g>
				</g>
				<g>
					<g>
						<rect x="88.9" y="70.1" class="st0" width="4.2" height="6.9"/>
						<g>
							<g>
								
									<image style="overflow:visible;enable-background:new    ;" width="13" height="11" xlink:href="65C9C6BD.png"  transform="matrix(0.2585 0 0 0.2585 89.3319 73.6908)">
								</image>
							</g>
							
								<image style="overflow:visible;enable-background:new    ;" width="12" height="9" xlink:href="65C9C699.png"  transform="matrix(0.24 0 0 0.24 89.5719 73.9123)">
							</image>
						</g>
						<rect x="89.2" y="70.3" class="st1" width="3.7" height="2.8"/>
						<g>
							<path d="M90.2,72.5h-0.3c-0.2,0-0.3-0.2-0.3-0.3v-0.7c0-0.2,0.2-0.3,0.3-0.3h0.3c0.2,0,0.3,0.2,0.3,0.3v0.7
								C90.5,72.4,90.3,72.5,90.2,72.5z M90.3,71.5c0-0.1-0.1-0.2-0.1-0.2h-0.3c-0.1,0-0.1,0.1-0.1,0.2v0.7c0,0.1,0.1,0.2,0.1,0.2
								h0.3c0.1,0,0.1-0.1,0.1-0.2V71.5z"/>
							<path d="M91,71.9v0.6h-0.2v-1.4h0.8v0.2H91v0.4h0.6v0.2H91z"/>
							<path d="M92,71.9v0.6h-0.2v-1.4h0.8v0.2H92v0.4h0.6v0.2H92z"/>
						</g>
					</g>
					<g>
						<rect x="100.6" y="70.1" class="st0" width="4.2" height="6.9"/>
						<g>
							<g>
								
									<image style="overflow:visible;enable-background:new    ;" width="12" height="11" xlink:href="65C9C69B.png"  transform="matrix(0.3 0 0 0.3 100.8519 73.4623)">
								</image>
							</g>
							
								<image style="overflow:visible;enable-background:new    ;" width="11" height="9" xlink:href="65C9C698.png"  transform="matrix(0.2618 0 0 0.2618 101.3319 73.8141)">
							</image>
						</g>
						<rect x="100.9" y="70.3" class="st1" width="3.7" height="2.8"/>
						<g>
							<path d="M101.8,72.5h-0.3c-0.2,0-0.3-0.2-0.3-0.3v-0.7c0-0.2,0.2-0.3,0.3-0.3h0.3c0.2,0,0.3,0.2,0.3,0.3v0.7
								C102.2,72.4,102,72.5,101.8,72.5z M102,71.5c0-0.1-0.1-0.2-0.1-0.2h-0.3c-0.1,0-0.1,0.1-0.1,0.2v0.7c0,0.1,0.1,0.2,0.1,0.2
								h0.3c0.1,0,0.1-0.1,0.1-0.2V71.5z"/>
							<path d="M102.7,71.9v0.6h-0.2v-1.4h0.8v0.2h-0.6v0.4h0.6v0.2H102.7z"/>
							<path d="M103.7,71.9v0.6h-0.2v-1.4h0.8v0.2h-0.6v0.4h0.6v0.2H103.7z"/>
						</g>
					</g>
					<g>
						<rect x="94.5" y="70.1" class="st0" width="4.2" height="6.9"/>
						<g>
							<g>
								
									<image style="overflow:visible;enable-background:new    ;" width="12" height="11" xlink:href="65C9C69F.png"  transform="matrix(0.3 0 0 0.3 94.8519 73.4623)">
								</image>
							</g>
							
								<image style="overflow:visible;enable-background:new    ;" width="11" height="9" xlink:href="65C9C69A.png"  transform="matrix(0.2836 0 0 0.2836 95.0919 73.7159)">
							</image>
						</g>
						<rect x="94.8" y="70.3" class="st1" width="3.7" height="2.8"/>
						<g>
							<path d="M95.9,71.9C95.8,71.9,95.8,71.8,95.9,71.9l-0.2-0.4v0.4h-0.1v-0.5h0c0,0,0,0,0.1,0l0.2,0.3v-0.4h0.1L95.9,71.9
								L95.9,71.9z"/>
							<path d="M96.2,71.9L96.2,71.9c-0.1,0-0.2-0.1-0.2-0.1v-0.2h0.1v0.3C96.1,71.8,96.1,71.8,96.2,71.9L96.2,71.9
								c0-0.1,0.1-0.1,0.1-0.1v-0.3h0.1v0.2C96.3,71.8,96.3,71.9,96.2,71.9z"/>
							<path d="M96.7,71.9v-0.3c0,0,0-0.1-0.1-0.1h-0.1v0.3h-0.1v-0.4h0.2c0.1,0,0.1,0.1,0.1,0.1L96.7,71.9L96.7,71.9z"/>
							<path d="M97,71.9c-0.1,0-0.1-0.1-0.1-0.1v-0.1c0-0.1,0.1-0.1,0.1-0.1h0.1c0,0,0.1,0,0.1,0.1v0.1h-0.1v-0.1H97
								c0,0-0.1,0-0.1,0.1v0.1C96.9,71.8,97,71.8,97,71.9l0.2-0.1v0.1L97,71.9L97,71.9z"/>
							<path d="M97.7,71.9h-0.2v-0.1L97.7,71.9l0-0.2h-0.2c0,0-0.1,0-0.1-0.1v-0.1c0,0,0-0.1,0.1-0.1h0.2v0.1h-0.2v0.1h0.2
								c0,0,0.1,0,0.1,0.1L97.7,71.9C97.8,71.8,97.7,71.9,97.7,71.9z"/>
							<path d="M98.1,71.9L98.1,71.9c-0.1,0-0.2-0.1-0.2-0.1v-0.2H98v0.3C98,71.8,98,71.8,98.1,71.9L98.1,71.9
								c0-0.1,0.1-0.1,0.1-0.1v-0.3h0.1v0.2C98.2,71.8,98.1,71.9,98.1,71.9z"/>
						</g>
					</g>
				</g>
				<g>
					<g>
						<rect x="78.1" y="53.4" class="st0" width="4.2" height="6.9"/>
						<g>
							<g>
								
									<image style="overflow:visible;enable-background:new    ;" width="14" height="12" xlink:href="65C9C666.png"  transform="matrix(0.24 0 0 0.24 78.5319 56.8723)">
								</image>
							</g>
							
								<image style="overflow:visible;enable-background:new    ;" width="8" height="11" xlink:href="65C9C667.png"  transform="matrix(0.2836 0 0 0.2836 79.0774 56.7523)">
							</image>
						</g>
						<rect x="78.4" y="53.6" class="st1" width="3.7" height="2.8"/>
						<g>
							<path d="M78.7,55.1v-0.5h0.1L78.7,55.1L79,55v0.1H78.7z"/>
							<path d="M79.3,55.1L79.3,55.1c-0.1,0-0.2-0.1-0.2-0.1v-0.1c0-0.1,0.1-0.1,0.1-0.1h0.1c0.1,0,0.1,0.1,0.1,0.1V55
								C79.4,55,79.3,55.1,79.3,55.1z M79.3,54.8C79.3,54.8,79.3,54.8,79.3,54.8l-0.1-0.1c0,0-0.1,0-0.1,0.1V55c0,0,0,0.1,0.1,0.1
								h0.1c0,0,0.1,0,0.1-0.1V54.8z"/>
							<path d="M79.7,54.9L79.7,54.9l-0.1-0.1v0.3h-0.1v-0.4h0.2C79.7,54.7,79.8,54.7,79.7,54.9L79.7,54.9
								C79.8,54.9,79.7,54.9,79.7,54.9z"/>
							<path d="M79.9,54.9L79.9,54.9c0,0.1,0,0.1,0.1,0.1h0.2v0.1H80C79.9,55.1,79.8,55,79.9,54.9L79.9,54.9c-0.1-0.2,0-0.2,0.1-0.2
								H80c0.1,0,0.1,0.1,0.1,0.1v0.1C80.2,54.9,79.9,54.9,79.9,54.9z M80.1,54.8C80.1,54.8,80.1,54.8,80.1,54.8L80,54.8
								c0,0-0.1,0-0.1,0.1v0L80.1,54.8L80.1,54.8z"/>
							<path d="M80.8,54.8v0.2h-0.1L80.8,54.8c-0.1,0-0.1-0.1-0.1-0.1h-0.1v0.3h-0.1v-0.3h-0.2v0.3h-0.1v-0.4h0.4
								C80.7,54.7,80.8,54.8,80.8,54.8z"/>
							<path d="M81.1,54.6L81.1,54.6L81.1,54.6L81.1,54.6L81.1,54.6z M81.1,55.1v-0.4h0.1L81.1,55.1L81.1,55.1z"/>
							<path d="M81.5,55.1h-0.1v0.2h-0.1v-0.5h0.2c0.1,0,0.1,0.1,0.1,0.1V55C81.6,55,81.6,55.1,81.5,55.1z M81.6,54.8
								C81.6,54.8,81.5,54.8,81.6,54.8l-0.2-0.1V55h0.1c0,0,0.1,0,0.1-0.1C81.6,55,81.6,54.8,81.6,54.8z"/>
						</g>
					</g>
					<g>
						<rect x="91.4" y="53.4" class="st0" width="4.2" height="6.9"/>
						<g>
							<g>
								
									<image style="overflow:visible;enable-background:new    ;" width="11" height="12" xlink:href="65C9C697.png"  transform="matrix(0.3 0 0 0.3 91.8819 56.5123)">
								</image>
							</g>
							
								<image style="overflow:visible;enable-background:new    ;" width="10" height="11" xlink:href="65C9C669.png"  transform="matrix(0.2836 0 0 0.2836 92.1137 56.7523)">
							</image>
						</g>
						<rect x="91.7" y="53.6" class="st1" width="3.7" height="2.8"/>
						<g>
							<path d="M92.4,55.1h-0.2v-0.5h0.2c0.1,0,0.2,0.1,0.2,0.2v0.1C92.6,55,92.5,55.1,92.4,55.1z M92.5,54.8c0-0.1,0-0.1-0.1-0.1
								h-0.1V55h0.1c0.1,0,0.1-0.1,0.1-0.1C92.5,54.9,92.5,54.8,92.5,54.8z"/>
							<path d="M92.9,55.1L92.9,55.1c-0.1,0-0.2-0.1-0.2-0.1v-0.2h0.1V55C92.8,55,92.8,55,92.9,55.1L92.9,55.1
								c0-0.1,0.1-0.1,0.1-0.1v-0.3H93V55C93,55,92.9,55.1,92.9,55.1z"/>
							<path d="M93.1,54.6L93.1,54.6L93.1,54.6L93.1,54.6L93.1,54.6z M93.1,55.1v-0.4h0.1L93.1,55.1L93.1,55.1z"/>
							<path d="M93.5,55.1h-0.2V55L93.5,55.1l0-0.2h-0.2c0,0-0.1,0-0.1-0.1v-0.1c0,0,0-0.1,0.1-0.1h0.2v0.1h-0.2v0.1h0.2
								c0,0,0.1,0,0.1,0.1L93.5,55.1C93.6,55,93.5,55.1,93.5,55.1z"/>
							<path d="M94.1,55.1L94.1,55.1c-0.1,0-0.2-0.1-0.2-0.1v-0.2H94V55C94,55,94,55,94.1,55.1L94.1,55.1c0-0.1,0.1-0.1,0.1-0.1
								v-0.3h0.1V55C94.2,55,94.2,55.1,94.1,55.1z"/>
							<path d="M94.6,55.1h-0.1c0,0-0.1,0-0.1-0.1v-0.2h-0.1v-0.1h0.1v-0.1h0.1v0.1h0.1v0.1h-0.1V55L94.6,55.1L94.6,55.1z"/>
						</g>
					</g>
					<g>
						<rect x="84.8" y="53.4" class="st0" width="4.2" height="6.9"/>
						<g>
							<g>
								
									<image style="overflow:visible;enable-background:new    ;" width="12" height="12" xlink:href="65C9C66B.png"  transform="matrix(0.3 0 0 0.3 85.0119 56.5123)">
								</image>
							</g>
							
								<image style="overflow:visible;enable-background:new    ;" width="11" height="11" xlink:href="65C9C784.png"  transform="matrix(0.2618 0 0 0.2618 85.4919 56.8723)">
							</image>
						</g>
						<rect x="85" y="53.6" class="st1" width="3.7" height="2.8"/>
						<g>
							<path d="M86.2,55.1H86V55L86.2,55.1C86.2,55,86.2,55,86.2,55.1l0-0.2c0,0,0,0,0,0h-0.1c0,0-0.1,0-0.1-0.1v-0.1
								c0,0,0-0.1,0.1-0.1h0.2v0.1h-0.2c0,0,0,0,0,0v0.1c0,0,0,0,0,0h0.1c0,0,0.1,0,0.1,0.1L86.2,55.1C86.3,55,86.3,55.1,86.2,55.1z
								"/>
							<path d="M86.5,54.9L86.5,54.9c0,0.1,0,0.1,0.1,0.1h0.2v0.1h-0.2C86.4,55.1,86.4,55,86.5,54.9L86.5,54.9
								c-0.1-0.2,0-0.2,0.1-0.2h0.1c0.1,0,0.1,0.1,0.1,0.1v0.1C86.7,54.9,86.5,54.9,86.5,54.9z M86.6,54.8
								C86.6,54.8,86.6,54.8,86.6,54.8l-0.1-0.1c0,0-0.1,0-0.1,0.1v0L86.6,54.8L86.6,54.8z"/>
							<path d="M86.9,55.1c-0.1,0-0.1-0.1-0.1-0.1v-0.1c0-0.1,0.1-0.1,0.1-0.1h0.1v-0.2h0.1v0.6C87.1,55.1,86.9,55.1,86.9,55.1z
								 M87.1,54.8h-0.1c0,0-0.1,0-0.1,0.1V55c0,0,0,0.1,0.1,0.1h0.1C87.1,55,87.1,54.8,87.1,54.8z"/>
							<path d="M87.5,54.6L87.5,54.6L87.5,54.6L87.5,54.6L87.5,54.6z M87.5,55.1v-0.4h0.1L87.5,55.1L87.5,55.1z"/>
							<path d="M87.9,55.1v-0.3c0,0,0-0.1-0.1-0.1h-0.1v0.3h-0.1v-0.4h0.2c0.1,0,0.1,0.1,0.1,0.1L87.9,55.1
								C88,55.1,87.9,55.1,87.9,55.1z"/>
						</g>
					</g>
					<g>
						<rect x="98.1" y="53.4" class="st0" width="4.2" height="6.9"/>
						<g>
							<g>
								
									<image style="overflow:visible;enable-background:new    ;" width="14" height="12" xlink:href="65C9C783.png"  transform="matrix(0.2571 0 0 0.2571 98.4519 56.7694)">
								</image>
							</g>
							
								<image style="overflow:visible;enable-background:new    ;" width="12" height="11" xlink:href="65C9C78C.png"  transform="matrix(0.24 0 0 0.24 98.6919 56.9923)">
							</image>
						</g>
						<rect x="98.4" y="53.6" class="st1" width="3.7" height="2.8"/>
						<g>
							<path d="M99.3,55.1h-0.2V55L99.3,55.1C99.3,55,99.4,55,99.3,55.1l0-0.2c0,0,0,0,0,0h-0.1c0,0-0.1,0-0.1-0.1v-0.1
								c0,0,0-0.1,0.1-0.1h0.2v0.1h-0.2c0,0,0,0,0,0v0.1c0,0,0,0,0,0h0.1c0,0,0.1,0,0.1,0.1L99.3,55.1C99.4,55,99.4,55.1,99.3,55.1z
								"/>
							<path d="M99.6,54.9L99.6,54.9c0,0.1,0,0.1,0.1,0.1h0.2v0.1h-0.2C99.6,55.1,99.5,55,99.6,54.9L99.6,54.9
								c-0.1-0.2,0-0.2,0.1-0.2h0.1c0.1,0,0.1,0.1,0.1,0.1v0.1C99.9,54.9,99.6,54.9,99.6,54.9z M99.8,54.8
								C99.8,54.8,99.8,54.8,99.8,54.8l-0.1-0.1c0,0-0.1,0-0.1,0.1v0L99.8,54.8C99.8,54.9,99.8,54.8,99.8,54.8z"/>
							<path d="M100.1,55.1c-0.1,0-0.1-0.1-0.1-0.1v-0.1c0-0.1,0.1-0.1,0.1-0.1h0.1v-0.2h0.1v0.6C100.3,55.1,100.1,55.1,100.1,55.1z
								 M100.2,54.8h-0.1c0,0-0.1,0-0.1,0.1V55c0,0,0,0.1,0.1,0.1h0.1C100.2,55,100.2,54.8,100.2,54.8z"/>
							<path d="M100.8,55.1h-0.1v0.2h-0.1v-0.5h0.2c0.1,0,0.1,0.1,0.1,0.1V55C100.9,55,100.9,55.1,100.8,55.1z M100.9,54.8
								C100.9,54.8,100.8,54.8,100.9,54.8l-0.2-0.1V55h0.1c0,0,0.1,0,0.1-0.1C100.9,55,100.9,54.8,100.9,54.8z"/>
							<path d="M101.2,54.9L101.2,54.9l-0.1-0.1v0.3H101v-0.4h0.2C101.3,54.7,101.3,54.7,101.2,54.9L101.2,54.9
								C101.3,54.9,101.2,54.9,101.2,54.9z"/>
						</g>
					</g>
					<g>
						<rect x="104.7" y="53.4" class="st0" width="4.2" height="6.9"/>
						<g>
							<g>
								
									<image style="overflow:visible;enable-background:new    ;" width="12" height="12" xlink:href="65C9C78F.png"  transform="matrix(0.28 0 0 0.28 105.1719 56.6323)">
								</image>
							</g>
							
								<image style="overflow:visible;enable-background:new    ;" width="11" height="11" xlink:href="65C9C78D.png"  transform="matrix(0.2618 0 0 0.2618 105.4119 56.8723)">
							</image>
						</g>
						<rect x="105" y="53.6" class="st1" width="3.7" height="2.8"/>
						<g>
							<path d="M106,55.1C106,55.1,106,55.1,106,55.1l-0.2-0.4v0.4h-0.1v-0.5h0c0,0,0,0,0.1,0l0.2,0.3v-0.4h0.1L106,55.1L106,55.1z"
								/>
							<path d="M106.4,55.1L106.4,55.1c-0.1,0-0.2-0.1-0.2-0.1v-0.2h0.1V55C106.2,55,106.3,55,106.4,55.1L106.4,55.1
								c0-0.1,0.1-0.1,0.1-0.1v-0.3h0.1V55C106.5,55,106.4,55.1,106.4,55.1z"/>
							<path d="M106.8,55.1v-0.3c0,0,0-0.1-0.1-0.1h-0.1v0.3h-0.1v-0.4h0.2c0.1,0,0.1,0.1,0.1,0.1L106.8,55.1
								C106.9,55.1,106.8,55.1,106.8,55.1z"/>
							<path d="M107.1,55.1c-0.1,0-0.1-0.1-0.1-0.1v-0.1c0-0.1,0.1-0.1,0.1-0.1h0.1c0,0,0.1,0,0.1,0.1v0.1h-0.1v-0.1h-0.1
								c0,0-0.1,0-0.1,0.1V55C107.1,55,107.1,55,107.1,55.1l0.2-0.1v0.1C107.3,55.1,107.1,55.1,107.1,55.1z"/>
							<path d="M107.9,55.1h-0.2V55L107.9,55.1l0-0.2h-0.2c0,0-0.1,0-0.1-0.1v-0.1c0,0,0-0.1,0.1-0.1h0.2v0.1h-0.2v0.1h0.2
								c0,0,0.1,0,0.1,0.1L107.9,55.1C107.9,55,107.9,55.1,107.9,55.1z"/>
							<path d="M108.2,55.1L108.2,55.1c-0.1,0-0.2-0.1-0.2-0.1v-0.2h0.1V55C108.1,55,108.1,55,108.2,55.1L108.2,55.1
								c0-0.1,0.1-0.1,0.1-0.1v-0.3h0.1V55C108.3,55,108.3,55.1,108.2,55.1z"/>
						</g>
					</g>
					<g>
						<rect x="111.4" y="53.4" class="st0" width="4.2" height="6.9"/>
						<g>
							<g>
								
									<image style="overflow:visible;enable-background:new    ;" width="15" height="12" xlink:href="65C9C782.png"  transform="matrix(0.24 0 0 0.24 111.6519 56.8723)">
								</image>
							</g>
							
								<image style="overflow:visible;enable-background:new    ;" width="10" height="11" xlink:href="65C9C785.png"  transform="matrix(0.2836 0 0 0.2836 112.1537 56.7523)">
							</image>
						</g>
						<rect x="111.7" y="53.6" class="st1" width="3.7" height="2.8"/>
						<g>
							<path d="M112.7,54.9L112.7,54.9c0,0.1,0,0.1,0.1,0.1h0.2v0.1h-0.2C112.6,55.1,112.6,55,112.7,54.9L112.7,54.9
								c-0.1-0.2,0-0.2,0.1-0.2h0.1c0.1,0,0.1,0.1,0.1,0.1v0.1C112.9,54.9,112.7,54.9,112.7,54.9z M112.8,54.8
								C112.8,54.8,112.8,54.8,112.8,54.8l-0.1-0.1c0,0-0.1,0-0.1,0.1v0L112.8,54.8L112.8,54.8z"/>
							<path d="M113,55.1v-0.6h0.1L113,55.1L113,55.1z"/>
							<path d="M113.2,54.6L113.2,54.6L113.2,54.6L113.2,54.6L113.2,54.6z M113.2,55.1v-0.4h0.1L113.2,55.1L113.2,55.1z"/>
							<path d="M113.6,55.1h-0.1c0,0-0.1,0-0.1-0.1v-0.2h-0.1v-0.1h0.1v-0.1h0.1v0.1h0.1v0.1h-0.1V55L113.6,55.1
								C113.6,55,113.6,55.1,113.6,55.1z"/>
							<path d="M114.1,55.1L114.1,55.1c-0.1,0-0.2-0.1-0.2-0.1v-0.2h0.1V55C114,55,114,55,114.1,55.1L114.1,55.1
								c0-0.1,0.1-0.1,0.1-0.1v-0.3h0.1V55C114.2,55,114.2,55.1,114.1,55.1z"/>
							<path d="M114.6,55.1h-0.1c0,0-0.1,0-0.1-0.1v-0.2h-0.1v-0.1h0.1v-0.1h0.1v0.1h0.1v0.1h-0.1V55L114.6,55.1
								C114.6,55,114.6,55.1,114.6,55.1z"/>
						</g>
					</g>
				</g>
				<g>
					<g>
						<rect x="84.8" y="62" class="st0" width="4.2" height="6.9"/>
						<g>
							<g>
								
									<image style="overflow:visible;enable-background:new    ;" width="12" height="15" xlink:href="65C9C787.png"  transform="matrix(0.24 0 0 0.24 85.3719 65.1523)">
								</image>
							</g>
							
								<image style="overflow:visible;enable-background:new    ;" width="11" height="9" xlink:href="65C9C780.png"  transform="matrix(0.2618 0 0 0.2618 85.4919 65.6541)">
							</image>
						</g>
						<rect x="85" y="62.2" class="st1" width="3.7" height="2.8"/>
						<g>
							<path d="M85.6,63.9v-0.5h0.1L85.6,63.9l0.2-0.1v0.1H85.6z"/>
							<path d="M86.1,63.9L86.1,63.9c-0.1,0-0.2-0.1-0.2-0.1v-0.1c0-0.1,0.1-0.1,0.1-0.1h0.1c0.1,0,0.1,0.1,0.1,0.1v0.1
								C86.2,63.8,86.2,63.9,86.1,63.9z M86.1,63.6C86.1,63.6,86.1,63.6,86.1,63.6L86,63.6c0,0-0.1,0-0.1,0.1v0.1c0,0,0,0.1,0.1,0.1
								h0.1c0,0,0.1,0,0.1-0.1V63.6z"/>
							<path d="M86.5,63.6L86.5,63.6l-0.1-0.1v0.3h-0.1v-0.4h0.2C86.6,63.5,86.6,63.5,86.5,63.6L86.5,63.6
								C86.6,63.6,86.5,63.6,86.5,63.6z"/>
							<path d="M86.7,63.7L86.7,63.7c0,0.1,0,0.1,0.1,0.1H87v0.1h-0.2C86.7,63.9,86.7,63.8,86.7,63.7L86.7,63.7
								c-0.1-0.2,0-0.2,0.1-0.2h0.1c0.1,0,0.1,0.1,0.1,0.1v0.1C87,63.7,86.7,63.7,86.7,63.7z M86.9,63.6
								C86.9,63.6,86.9,63.6,86.9,63.6l-0.1-0.1c0,0-0.1,0-0.1,0.1v0L86.9,63.6C86.9,63.6,86.9,63.6,86.9,63.6z"/>
							<path d="M87.6,63.6v0.2h-0.1L87.6,63.6c-0.1,0-0.1-0.1-0.1-0.1h-0.1v0.3h-0.1v-0.3h-0.2v0.3h-0.1v-0.4h0.4
								C87.6,63.5,87.6,63.5,87.6,63.6z"/>
							<path d="M88,63.4L88,63.4L88,63.4L88,63.4L88,63.4z M88,63.9v-0.4H88L88,63.9L88,63.9z"/>
							<path d="M88.3,63.9h-0.1V64h-0.1v-0.5h0.2c0.1,0,0.1,0.1,0.1,0.1v0.1C88.5,63.8,88.4,63.9,88.3,63.9z M88.4,63.6
								C88.4,63.6,88.4,63.6,88.4,63.6l-0.2-0.1v0.2h0.1c0,0,0.1,0,0.1-0.1C88.4,63.7,88.4,63.6,88.4,63.6z"/>
						</g>
					</g>
					<g>
						<rect x="91.4" y="62" class="st0" width="4.2" height="6.9"/>
						<g>
							<g>
								
									<image style="overflow:visible;enable-background:new    ;" width="11" height="15" xlink:href="65C9C781.png"  transform="matrix(0.24 0 0 0.24 92.2119 65.1523)">
								</image>
							</g>
							
								<image style="overflow:visible;enable-background:new    ;" width="10" height="9" xlink:href="65C9C7A7.png"  transform="matrix(0.312 0 0 0.312 91.9719 65.4283)">
							</image>
						</g>
						<rect x="91.7" y="62.2" class="st1" width="3.7" height="2.8"/>
						<g>
							<path d="M92.7,63.9h-0.2v-0.1L92.7,63.9C92.7,63.8,92.7,63.8,92.7,63.9l0-0.2c0,0,0,0,0,0h-0.1c0,0-0.1,0-0.1-0.1v-0.1
								c0,0,0-0.1,0.1-0.1h0.2v0.1h-0.2c0,0,0,0,0,0v0.1c0,0,0,0,0,0h0.1c0,0,0.1,0,0.1,0.1L92.7,63.9
								C92.8,63.8,92.7,63.9,92.7,63.9z"/>
							<path d="M92.9,63.7L92.9,63.7c0,0.1,0,0.1,0.1,0.1h0.2v0.1H93C92.9,63.9,92.9,63.8,92.9,63.7L92.9,63.7
								c-0.1-0.2,0-0.2,0.1-0.2h0.1c0.1,0,0.1,0.1,0.1,0.1v0.1C93.2,63.7,92.9,63.7,92.9,63.7z M93.1,63.6
								C93.1,63.6,93.1,63.6,93.1,63.6L93,63.6c0,0-0.1,0-0.1,0.1v0L93.1,63.6C93.1,63.6,93.1,63.6,93.1,63.6z"/>
							<path d="M93.4,63.9c-0.1,0-0.1-0.1-0.1-0.1v-0.1c0-0.1,0.1-0.1,0.1-0.1h0.1v-0.2h0.1v0.6H93.4z M93.5,63.6h-0.1
								c0,0-0.1,0-0.1,0.1v0.1c0,0,0,0.1,0.1,0.1h0.1C93.5,63.8,93.5,63.6,93.5,63.6z"/>
							<path d="M94.2,63.9H94V64h-0.1v-0.5h0.2c0.1,0,0.1,0.1,0.1,0.1v0.1C94.3,63.8,94.2,63.9,94.2,63.9z M94.2,63.6
								C94.2,63.6,94.2,63.6,94.2,63.6L94,63.6v0.2h0.1c0,0,0.1,0,0.1-0.1C94.2,63.7,94.2,63.6,94.2,63.6z"/>
							<path d="M94.6,63.6L94.6,63.6l-0.1-0.1v0.3h-0.1v-0.4h0.2C94.6,63.5,94.7,63.5,94.6,63.6L94.6,63.6
								C94.7,63.6,94.6,63.6,94.6,63.6z"/>
						</g>
					</g>
					<g>
						<rect x="98.1" y="62" class="st0" width="4.2" height="6.9"/>
						<g>
							<g>
								
									<image style="overflow:visible;enable-background:new    ;" width="14" height="15" xlink:href="65C9C7A1.png"  transform="matrix(0.24 0 0 0.24 98.5719 65.1523)">
								</image>
							</g>
							
								<image style="overflow:visible;enable-background:new    ;" width="12" height="9" xlink:href="65C9C7A3.png"  transform="matrix(0.24 0 0 0.24 98.6919 65.7523)">
							</image>
						</g>
						<rect x="98.4" y="62.2" class="st1" width="3.7" height="2.8"/>
						<g>
							<path d="M99.4,63.9C99.3,63.9,99.3,63.9,99.4,63.9l-0.2-0.4v0.4h-0.1v-0.5h0c0,0,0,0,0.1,0l0.2,0.3v-0.4h0.1L99.4,63.9
								C99.4,63.9,99.4,63.9,99.4,63.9z"/>
							<path d="M99.7,63.9L99.7,63.9c-0.1,0-0.2-0.1-0.2-0.1v-0.2h0.1v0.3C99.6,63.8,99.6,63.8,99.7,63.9L99.7,63.9
								c0-0.1,0.1-0.1,0.1-0.1v-0.3h0.1v0.2C99.8,63.8,99.8,63.9,99.7,63.9z"/>
							<path d="M100.2,63.9v-0.3c0,0,0-0.1-0.1-0.1H100v0.3h-0.1v-0.4h0.2c0.1,0,0.1,0.1,0.1,0.1L100.2,63.9L100.2,63.9z"/>
							<path d="M100.5,63.9c-0.1,0-0.1-0.1-0.1-0.1v-0.1c0-0.1,0.1-0.1,0.1-0.1h0.1c0,0,0.1,0,0.1,0.1v0.1h-0.1v-0.1h-0.1
								c0,0-0.1,0-0.1,0.1v0.1C100.4,63.8,100.5,63.8,100.5,63.9l0.2-0.1v0.1C100.7,63.9,100.5,63.9,100.5,63.9z"/>
							<path d="M101.2,63.9H101v-0.1L101.2,63.9l0-0.2H101c0,0-0.1,0-0.1-0.1v-0.1c0,0,0-0.1,0.1-0.1h0.2v0.1H101v0.1h0.2
								c0,0,0.1,0,0.1,0.1L101.2,63.9C101.3,63.8,101.2,63.9,101.2,63.9z"/>
							<path d="M101.6,63.9L101.6,63.9c-0.1,0-0.2-0.1-0.2-0.1v-0.2h0.1v0.3C101.4,63.8,101.5,63.8,101.6,63.9L101.6,63.9
								c0-0.1,0.1-0.1,0.1-0.1v-0.3h0.1v0.2C101.7,63.8,101.6,63.9,101.6,63.9z"/>
						</g>
					</g>
					<g>
						<rect x="104.7" y="62" class="st0" width="4.2" height="6.9"/>
						<g>
							<g>
								
									<image style="overflow:visible;enable-background:new    ;" width="12" height="15" xlink:href="65C9C7BE.png"  transform="matrix(0.24 0 0 0.24 105.4119 65.1523)">
								</image>
							</g>
							
								<image style="overflow:visible;enable-background:new    ;" width="11" height="9" xlink:href="65C9C7BF.png"  transform="matrix(0.2618 0 0 0.2618 105.4119 65.6541)">
							</image>
						</g>
						<rect x="105" y="62.2" class="st1" width="3.7" height="2.8"/>
						<g>
							<path d="M106,63.5L106,63.5c0,0.1,0,0.1,0.1,0.1h0.2v0.1h-0.2C106,63.6,105.9,63.6,106,63.5L106,63.5c-0.1-0.2,0-0.2,0.1-0.2
								h0.1c0.1,0,0.1,0.1,0.1,0.1v0.1C106.3,63.5,106,63.5,106,63.5z M106.2,63.4C106.2,63.3,106.2,63.3,106.2,63.4l-0.1-0.1
								c0,0-0.1,0-0.1,0.1v0L106.2,63.4C106.2,63.4,106.2,63.4,106.2,63.4z"/>
							<path d="M106.4,63.6v-0.6h0.1L106.4,63.6L106.4,63.6z"/>
							<path d="M106.5,63.2L106.5,63.2L106.5,63.2L106.5,63.2L106.5,63.2z M106.5,63.6v-0.4h0.1L106.5,63.6L106.5,63.6z"/>
							<path d="M107,63.6h-0.1c0,0-0.1,0-0.1-0.1v-0.2h-0.1v-0.1h0.1v-0.1h0.1v0.1h0.1v0.1h-0.1v0.2L107,63.6
								C107,63.6,107,63.6,107,63.6z"/>
							<path d="M107.4,63.6L107.4,63.6c-0.1,0-0.2-0.1-0.2-0.1v-0.2h0.1v0.3C107.3,63.5,107.4,63.6,107.4,63.6L107.4,63.6
								c0-0.1,0.1-0.1,0.1-0.1v-0.3h0.1v0.2C107.6,63.6,107.5,63.6,107.4,63.6z"/>
							<path d="M107.9,63.6h-0.1c0,0-0.1,0-0.1-0.1v-0.2h-0.1v-0.1h0.1v-0.1h0.1v0.1h0.1v0.1h-0.1v0.2L107.9,63.6L107.9,63.6z"/>
						</g>
					</g>
				</g>
				<g>
					
						<image style="overflow:visible;opacity:0.57;enable-background:new    ;" width="27" height="32" xlink:href="65C9C7A2.png"  transform="matrix(0.2475 0 0 0.2475 84.1907 34.9123)">
					</image>
				</g>
				<g>
					
						<image style="overflow:visible;opacity:0.57;enable-background:new    ;" width="25" height="32" xlink:href="65C9C7A5.png"  transform="matrix(0.2475 0 0 0.2475 103.1581 34.9123)">
					</image>
				</g>
				<g>
					
						<image style="overflow:visible;opacity:0.57;enable-background:new    ;" width="45" height="33" xlink:href="65C9C7A6.png"  transform="matrix(0.24 0 0 0.24 91.4919 44.2723)">
					</image>
				</g>
				<g>
					
						<image style="overflow:visible;enable-background:new    ;" width="24" height="28" xlink:href="65C9C7A4.png"  transform="matrix(0.2486 0 0 0.2486 84.189 34.9123)">
					</image>
					<g>
						<rect x="84.5" y="35.3" class="st1" width="5.3" height="4.1"/>
						<g>
							<defs>
								<rect id="SVGID_00000055701362166240540960000010101376261793208205_" x="84.5" y="35.3" width="5.3" height="4.1"/>
							</defs>
							<clipPath id="SVGID_00000050637757532575896810000009711594533272159648_">
								<use xlink:href="#SVGID_00000055701362166240540960000010101376261793208205_"  style="overflow:visible;"/>
							</clipPath>
							<g style="clip-path:url(#SVGID_00000050637757532575896810000009711594533272159648_);">
								<g>
									<path d="M87.2,41.8c-1.5,0-2.7-1.2-2.7-2.7c0-1.5,1.2-2.7,2.7-2.7c1.5,0,2.7,1.2,2.7,2.7C89.9,40.6,88.7,41.8,87.2,41.8z
										 M87.2,36.4c-1.5,0-2.6,1.2-2.6,2.6c0,1.5,1.2,2.6,2.6,2.6s2.6-1.2,2.6-2.6C89.8,37.6,88.7,36.4,87.2,36.4z"/>
									<g>
										<polygon points="85,37.7 85,37.8 85.2,38 85.3,37.8 										"/>
										<path d="M86,36.8C86,36.8,86,36.8,86,36.8C86,36.8,86,36.8,86,36.8c-0.1,0.1-0.2,0.1-0.2,0.1l0.2,0.3c0,0,0,0,0.1,0
											c0,0,0,0,0,0c0,0,0,0,0,0S86,36.8,86,36.8z"/>
										<polygon points="84.6,38.9 84.6,39.1 85.1,39.1 85.2,38.9 										"/>
										<path d="M88.5,36.9C88.5,36.9,88.5,36.8,88.5,36.9c-0.1-0.1-0.1-0.1-0.1-0.1c0,0,0,0,0,0l-0.1,0.3c0,0,0,0,0,0
											c0,0,0,0,0,0c0,0,0.1,0,0.1,0S88.5,36.9,88.5,36.9z"/>
										<path d="M87.3,36.5L87.3,36.5h-0.2l0,0.5c0,0,0,0,0.1,0l0.1,0L87.3,36.5z"/>
										<polygon points="89.4,37.8 89.4,37.7 89.1,37.8 89.2,38 										"/>
										<polygon points="89.8,39.1 89.8,38.9 89.2,38.9 89.3,39.1 										"/>
									</g>
									<path d="M86.6,39.8L86.6,39.8c0,0,0-0.1,0-0.1l2-2.4c0,0,0,0,0,0l0,0c0,0,0,0,0,0l-1.9,2.5C86.6,39.8,86.6,39.8,86.6,39.8z
										"/>
									<g>
										<path d="M85.5,39.2h-0.1c-0.1,0-0.1-0.1-0.1-0.1v-0.2c0-0.1,0.1-0.1,0.1-0.1h0.1c0.1,0,0.1,0.1,0.1,0.1v0.2
											C85.6,39.2,85.6,39.2,85.5,39.2z M85.5,38.9C85.5,38.8,85.5,38.8,85.5,38.9l-0.2-0.1c0,0,0,0,0,0.1v0.2c0,0,0,0.1,0,0.1
											h0.1c0,0,0,0,0-0.1V38.9z"/>
										<g>
											<path d="M86.8,37.6v-0.4h-0.1v-0.1h0.1L86.8,37.6C86.9,37.6,86.8,37.6,86.8,37.6z"/>
											<path d="M87,37.6L87,37.6l0.2-0.5h0.1C87.3,37.1,87,37.6,87,37.6z"/>
											<path d="M87.5,37.4L87.5,37.4C87.4,37.4,87.4,37.4,87.5,37.4l-0.1,0.1h0.2v0.1h-0.3v-0.1C87.3,37.4,87.4,37.3,87.5,37.4
												L87.5,37.4c0-0.1,0.1-0.1,0.1-0.1v0c0,0,0-0.1,0-0.1h-0.2v-0.1h0.2c0.1,0,0.1,0,0.1,0.1v0C87.6,37.4,87.6,37.4,87.5,37.4
												z"/>
										</g>
										<path d="M89.1,39.2v-0.4H89v-0.1h0.1L89.1,39.2L89.1,39.2z"/>
									</g>
								</g>
							</g>
						</g>
					</g>
					<g class="st3">
						<g>
							<defs>
								<rect id="SVGID_00000074442894936115576200000011960872180024123802_" x="84.5" y="35.3" width="5.3" height="4.1"/>
							</defs>
							<clipPath id="SVGID_00000106113603436968257950000001819943258218209688_">
								<use xlink:href="#SVGID_00000074442894936115576200000011960872180024123802_"  style="overflow:visible;"/>
							</clipPath>
							<g style="clip-path:url(#SVGID_00000106113603436968257950000001819943258218209688_);">
								<g>
									
										<image style="overflow:visible;enable-background:new    ;" width="31" height="23" xlink:href="65C9C7AC.png"  transform="matrix(0.24 0 0 0.24 82.2519 35.1523)">
									</image>
									
										<image style="overflow:visible;opacity:0.44;enable-background:new    ;" width="32" height="23" xlink:href="65C9C7C6.png"  transform="matrix(0.255 0 0 0.255 83.0919 33.6598)">
									</image>
									
										<image style="overflow:visible;opacity:0.6;enable-background:new    ;" width="33" height="22" xlink:href="65C9C7C9.png"  transform="matrix(0.2473 0 0 0.2473 86.4519 32.7923)">
									</image>
								</g>
							</g>
						</g>
					</g>
				</g>
				<g>
					
						<image style="overflow:visible;enable-background:new    ;" width="23" height="28" xlink:href="65C9C7CA.png"  transform="matrix(0.2486 0 0 0.2486 103.1533 34.9123)">
					</image>
					<g>
						<rect x="103.4" y="35.3" class="st1" width="5.3" height="4.1"/>
						<g>
							<defs>
								<rect id="SVGID_00000136374553890899621250000013148872149312456631_" x="103.4" y="35.3" width="5.3" height="4.1"/>
							</defs>
							<clipPath id="SVGID_00000020360959678217836200000017960829824988981653_">
								<use xlink:href="#SVGID_00000136374553890899621250000013148872149312456631_"  style="overflow:visible;"/>
							</clipPath>
							<g style="clip-path:url(#SVGID_00000020360959678217836200000017960829824988981653_);">
								<path d="M106.1,41.8c-1.5,0-2.7-1.2-2.7-2.7c0-1.5,1.2-2.7,2.7-2.7c1.5,0,2.7,1.2,2.7,2.7C108.8,40.6,107.6,41.8,106.1,41.8
									z M106.1,36.4c-1.5,0-2.6,1.2-2.6,2.6c0,1.5,1.2,2.6,2.6,2.6s2.6-1.2,2.6-2.6C108.7,37.6,107.5,36.4,106.1,36.4z"/>
								<g>
									<path d="M106.3,39.1C106.3,39.1,106.3,39.1,106.3,39.1C106.3,39.1,106.3,39.1,106.3,39.1c0,0.1,0,0.1,0,0.1
										c0,0,0,0.1-0.1,0.1c0,0-0.1,0-0.1,0c0,0,0,0,0,0c0,0,0,0,0,0c0,0,0,0-0.1,0c0,0-0.1-0.1-0.1-0.1c0,0,0-0.1,0-0.1
										c0,0,0-0.1,0-0.1c0,0,0.1-0.1,0.1-0.1c0,0,0.1,0,0.1,0c0,0,0.1,0,0.1,0c0,0,0.1,0.1,0.1,0.1C106.3,39,106.3,39,106.3,39.1
										C106.3,39,106.3,39,106.3,39.1C106.3,39.1,106.3,39.1,106.3,39.1z"/>
									<g>
										<polygon points="103.9,37.7 103.8,37.8 104.1,38 104.2,37.8 										"/>
										<path d="M104.9,36.8C104.9,36.8,104.9,36.8,104.9,36.8C104.8,36.8,104.8,36.8,104.9,36.8c-0.1,0.1-0.2,0.1-0.2,0.1
											l0.2,0.3l0.1,0c0,0,0,0,0,0c0,0,0,0,0,0S104.9,36.8,104.9,36.8z"/>
										<polygon points="103.5,38.9 103.5,39.1 104,39.1 104,38.9 										"/>
										<path d="M107.4,36.9C107.4,36.9,107.3,36.9,107.4,36.9c-0.1-0.1-0.1-0.1-0.1-0.1c0,0,0,0,0,0l-0.1,0.3c0,0,0,0,0,0
											c0,0,0,0,0,0l0.1,0C107.2,37.2,107.4,36.9,107.4,36.9z"/>
										<path d="M106.1,36.5C106.1,36.5,106.1,36.5,106.1,36.5c-0.1,0-0.2,0-0.2,0l0,0.5c0,0,0,0,0.1,0l0.1,0L106.1,36.5z"/>
										<polygon points="108.2,37.8 108.2,37.7 107.9,37.8 108,38 										"/>
										<polygon points="108.6,39.1 108.6,38.9 108,38.9 108.1,39.1 										"/>
									</g>
									<path d="M106.6,39.8L106.6,39.8c0,0-0.1,0-0.1-0.1l-1.8-2.5c0,0,0,0,0,0l0,0c0,0,0,0,0,0l1.8,2.5
										C106.6,39.8,106.6,39.8,106.6,39.8z"/>
									<g>
										<g>
											<path d="M104.3,39.2h-0.2v-0.1L104.3,39.2c0-0.1,0-0.1,0-0.1v-0.1c0,0,0-0.1,0-0.1h-0.2v-0.2h0.3v0.1h-0.2v0.1h0.1
												c0.1,0,0.1,0.1,0.1,0.1v0.1C104.4,39.2,104.3,39.2,104.3,39.2z"/>
											<path d="M104.7,39.2h-0.1c-0.1,0-0.1-0.1-0.1-0.1v-0.2c0-0.1,0.1-0.1,0.1-0.1h0.1c0.1,0,0.1,0.1,0.1,0.1v0.2
												C104.8,39.2,104.8,39.2,104.7,39.2z M104.8,38.9C104.8,38.9,104.7,38.8,104.8,38.9l-0.1-0.1c0,0,0,0,0,0.1v0.2
												c0,0,0,0.1,0,0.1h0.1c0,0,0,0,0-0.1V38.9z"/>
										</g>
										<g>
											<path d="M105.6,37.7v-0.4h-0.1v-0.1h0.1L105.6,37.7C105.6,37.7,105.6,37.7,105.6,37.7z"/>
											<path d="M106,37.7h-0.1c-0.1,0-0.1-0.1-0.1-0.1v-0.2c0-0.1,0.1-0.1,0.1-0.1h0.1c0.1,0,0.1,0.1,0.1,0.1v0.2
												C106.1,37.6,106,37.7,106,37.7z M106,37.3C106,37.3,106,37.3,106,37.3l-0.1-0.1c0,0,0,0,0,0.1v0.2c0,0,0,0.1,0,0.1h0.1
												c0,0,0,0,0-0.1V37.3z"/>
											<path d="M106.4,37.7h-0.1c-0.1,0-0.1-0.1-0.1-0.1v-0.2c0-0.1,0.1-0.1,0.1-0.1h0.1c0.1,0,0.1,0.1,0.1,0.1v0.2
												C106.5,37.6,106.5,37.7,106.4,37.7z M106.4,37.3C106.4,37.3,106.4,37.3,106.4,37.3l-0.1-0.1c0,0,0,0,0,0.1v0.2
												c0,0,0,0.1,0,0.1h0.1c0,0,0,0,0-0.1V37.3z"/>
										</g>
										<g>
											<path d="M107.1,39.2v-0.4H107v-0.1h0.1L107.1,39.2L107.1,39.2z"/>
											<path d="M107.4,39.2h-0.2v-0.1L107.4,39.2c0-0.1,0-0.1,0-0.1v-0.1c0,0,0-0.1,0-0.1h-0.2v-0.2h0.3v0.1h-0.2v0.1h0.1
												c0.1,0,0.1,0.1,0.1,0.1v0.1C107.5,39.2,107.5,39.2,107.4,39.2z"/>
											<path d="M107.9,39.2h-0.1c-0.1,0-0.1-0.1-0.1-0.1v-0.2c0-0.1,0.1-0.1,0.1-0.1h0.1c0.1,0,0.1,0.1,0.1,0.1v0.2
												C108,39.2,107.9,39.2,107.9,39.2z M107.9,38.9C107.9,38.9,107.9,38.8,107.9,38.9l-0.1-0.1c0,0,0,0,0,0.1v0.2
												c0,0,0,0.1,0,0.1h0.1c0,0,0,0,0-0.1V38.9z"/>
										</g>
									</g>
									<g>
										<path d="M106.3,38.6h-0.2c-0.1,0-0.2-0.1-0.2-0.2v-0.2c0-0.1,0.1-0.1,0.1-0.1h0.1c0,0,0.1,0,0.1,0.1v0.1h-0.1v-0.1
											c0,0,0,0,0,0H106c0,0,0,0,0,0.1v0.2c0,0.1,0,0.1,0.1,0.1L106.3,38.6C106.3,38.5,106.3,38.6,106.3,38.6z"/>
										<path d="M105.8,38.3C105.8,38.3,105.7,38.2,105.8,38.3c-0.1-0.1,0-0.2,0-0.2S105.9,38.1,105.8,38.3
											C105.9,38.2,105.9,38.3,105.8,38.3z M105.8,38.1C105.8,38.1,105.8,38.2,105.8,38.1c-0.1,0.1,0,0.1,0,0.1
											C105.9,38.2,105.9,38.2,105.8,38.1C105.9,38.2,105.9,38.1,105.8,38.1z"/>
									</g>
								</g>
							</g>
						</g>
					</g>
					<g class="st3">
						<g>
							<defs>
								<rect id="SVGID_00000016777245779654682960000000422839613454850726_" x="103.4" y="35.3" width="5.3" height="4.1"/>
							</defs>
							<clipPath id="SVGID_00000029006327933912675700000016041505612735552177_">
								<use xlink:href="#SVGID_00000016777245779654682960000000422839613454850726_"  style="overflow:visible;"/>
							</clipPath>
							<g style="clip-path:url(#SVGID_00000029006327933912675700000016041505612735552177_);">
								<g>
									
										<image style="overflow:visible;enable-background:new    ;" width="30" height="23" xlink:href="65C9C7C8.png"  transform="matrix(0.24 0 0 0.24 101.2119 35.1523)">
									</image>
									
										<image style="overflow:visible;opacity:0.44;enable-background:new    ;" width="32" height="23" xlink:href="65C9C7CE.png"  transform="matrix(0.2625 0 0 0.2625 101.8119 33.5736)">
									</image>
									
										<image style="overflow:visible;opacity:0.6;enable-background:new    ;" width="33" height="22" xlink:href="65C9C7CB.png"  transform="matrix(0.2545 0 0 0.2545 105.1719 32.7123)">
									</image>
								</g>
							</g>
						</g>
					</g>
				</g>
				<g>
					<g>
						<path class="st11" d="M92.7,44.3h8c0.6,0,1,0.5,1,1v4.3c0,0.6-0.5,1-1,1h-8c-0.6,0-1-0.5-1-1v-4.3
							C91.6,44.8,92.1,44.3,92.7,44.3z"/>
						<path class="st12" d="M92.7,44.4h8c0.5,0,1,0.4,1,1v4.3c0,0.5-0.4,1-1,1h-8c-0.5,0-1-0.4-1-1v-4.3
							C91.7,44.8,92.1,44.4,92.7,44.4z"/>
					</g>
					<g>
						
							<linearGradient id="SVGID_00000171717729612818693580000017978785793597790141_" gradientUnits="userSpaceOnUse" x1="96.3286" y1="99.7474" x2="96.9383" y2="97.1064" gradientTransform="matrix(1 0 0 -1 0 144)">
							<stop  offset="0" style="stop-color:#000000"/>
							<stop  offset="0.1552" style="stop-color:#030303"/>
							<stop  offset="0.3046" style="stop-color:#0F0F0F"/>
							<stop  offset="0.4517" style="stop-color:#222222"/>
							<stop  offset="0.5975" style="stop-color:#3E3E3E"/>
							<stop  offset="0.7422" style="stop-color:#616161"/>
							<stop  offset="0.8842" style="stop-color:#8B8B8B"/>
							<stop  offset="1" style="stop-color:#B4B4B4"/>
						</linearGradient>
						<path style="fill:url(#SVGID_00000171717729612818693580000017978785793597790141_);" d="M99.5,46.3h-5.7
							c-0.1,0-0.3-0.1-0.3-0.3l0-0.9c0-0.1,0-0.1,0.1-0.2c0.1,0,0.1-0.1,0.2-0.1h5.7c0.1,0,0.1,0,0.2,0.1c0.1,0,0.1,0.1,0.1,0.2
							l0,0.9C99.8,46.2,99.6,46.3,99.5,46.3L99.5,46.3z M93.8,45C93.8,45,93.7,45,93.8,45c-0.1,0-0.1,0.1-0.1,0.1l0,0.9
							c0,0.1,0,0.1,0.1,0.1h5.7c0.1,0,0.1,0,0.1-0.1l0-0.9c0,0,0-0.1,0-0.1c0,0,0,0-0.1,0C99.5,45,93.8,45,93.8,45z"/>
						<path class="st14" d="M99.5,46.2h-5.7c-0.1,0-0.2-0.1-0.2-0.2l0-0.9c0-0.1,0.1-0.2,0.2-0.2h5.7c0.1,0,0.2,0.1,0.2,0.2l0,0.9
							C99.7,46.1,99.6,46.2,99.5,46.2L99.5,46.2z"/>
					</g>
				</g>
			</g>
		</g>
	</g>
</g>
</svg>
