<?xml version="1.0" encoding="utf-8"?>
<!-- Generator: Adobe Illustrator 27.3.1, SVG Export Plug-In . SVG Version: 6.00 Build 0)  -->
<svg version="1.1" id="Layer_1" xmlns="http://www.w3.org/2000/svg" xmlns:xlink="http://www.w3.org/1999/xlink" x="0px" y="0px"
	 viewBox="0 0 128.3 142" style="enable-background:new 0 0 128.3 142;" xml:space="preserve">
<style type="text/css">
	.st0{fill:#1E1E1E;}
	.st1{fill:#ADADAD;}
	.st2{clip-path:url(#SVGID_00000067940572873190842890000015020444066314755228_);}
	.st3{opacity:0.73;}
	.st4{clip-path:url(#SVGID_00000064324734289309128740000004209981268614168727_);}
	.st5{clip-path:url(#SVGID_00000143575456257922436690000007306655967126997691_);}
	.st6{clip-path:url(#SVGID_00000054238213252560242240000015110069073509371062_);}
	.st7{clip-path:url(#SVGID_00000165912647135606840890000008153825301487298456_);}
	.st8{clip-path:url(#SVGID_00000054261752218858345230000009179174548452163487_);}
	.st9{clip-path:url(#SVGID_00000117636451296310238980000001417509837197872298_);}
	.st10{clip-path:url(#SVGID_00000088119448018952198250000014803750534614618753_);}
	.st11{fill:#242424;}
	.st12{fill:#B3B3B3;}
	.st13{fill:url(#SVGID_00000043422591859167412980000013844495488044697740_);}
	.st14{fill:#17181A;}
</style>
<g>
	<g id="Layer_1_00000074439517764505872660000005321632257973749893_">
		<g>
			<g>
				<g>
					<g>
						<g>
							
								<image style="overflow:visible;enable-background:new    ;" width="533" height="592" xlink:href="24906ED9.png"  transform="matrix(0.2414 0 0 0.2414 6.493400e-02 -0.1277)">
							</image>
							
								<image style="overflow:visible;opacity:0.55;enable-background:new    ;" width="533" height="591" xlink:href="24906EDB.png"  transform="matrix(0.2414 0 0 0.2414 6.475011e-02 -0.1277)">
							</image>
						</g>
						
							<image style="overflow:visible;enable-background:new    ;" width="533" height="25" xlink:href="24906EDE.png"  transform="matrix(0.241 0 0 0.241 0.1734 136.7731)">
						</image>
					</g>
					<g>
						
							<image style="overflow:visible;opacity:0.26;enable-background:new    ;" width="533" height="9" xlink:href="24906EDF.png"  transform="matrix(0.2424 0 0 0.2424 -0.1881 134.4773)">
						</image>
					</g>
				</g>
				
					<image style="overflow:visible;opacity:0.5;enable-background:new    ;" width="5" height="568" xlink:href="24906EDA.png"  transform="matrix(0.241 0 0 0.241 63.9239 -7.188708e-03)">
				</image>
			</g>
			<g>
				<g>
					
						<image style="overflow:visible;opacity:0.57;enable-background:new    ;" width="20" height="31" xlink:href="24906ED5.png"  transform="matrix(0.241 0 0 0.241 12.5861 48.1973)">
					</image>
				</g>
				<g>
					
						<image style="overflow:visible;opacity:0.57;enable-background:new    ;" width="18" height="31" xlink:href="24906ED6.png"  transform="matrix(0.2488 0 0 0.2488 19.5058 48.0768)">
					</image>
				</g>
				<g>
					
						<image style="overflow:visible;opacity:0.57;enable-background:new    ;" width="17" height="31" xlink:href="24906ED7.png"  transform="matrix(0.2488 0 0 0.2488 26.3788 48.0768)">
					</image>
				</g>
				<g>
					
						<image style="overflow:visible;opacity:0.57;enable-background:new    ;" width="19" height="31" xlink:href="24906EE9.png"  transform="matrix(0.241 0 0 0.241 32.832 48.1973)">
					</image>
				</g>
				<g>
					
						<image style="overflow:visible;opacity:0.57;enable-background:new    ;" width="18" height="31" xlink:href="48E00562.png"  transform="matrix(0.2488 0 0 0.2488 39.5107 48.0768)">
					</image>
				</g>
				<g>
					
						<image style="overflow:visible;opacity:0.57;enable-background:new    ;" width="17" height="31" xlink:href="48E00565.png"  transform="matrix(0.2488 0 0 0.2488 46.3837 48.0768)">
					</image>
				</g>
				<g>
					
						<image style="overflow:visible;opacity:0.57;enable-background:new    ;" width="20" height="31" xlink:href="48E00566.png"  transform="matrix(0.241 0 0 0.241 12.5861 57.4767)">
					</image>
				</g>
				<g>
					
						<image style="overflow:visible;opacity:0.57;enable-background:new    ;" width="18" height="31" xlink:href="48E00564.png"  transform="matrix(0.241 0 0 0.241 19.5758 57.4767)">
					</image>
				</g>
				<g>
					
						<image style="overflow:visible;opacity:0.57;enable-background:new    ;" width="17" height="31" xlink:href="48E00563.png"  transform="matrix(0.241 0 0 0.241 26.4449 57.4767)">
					</image>
				</g>
				<g>
					
						<image style="overflow:visible;opacity:0.57;enable-background:new    ;" width="19" height="31" xlink:href="48E0057D.png"  transform="matrix(0.241 0 0 0.241 32.832 57.4767)">
					</image>
				</g>
				<g>
					
						<image style="overflow:visible;opacity:0.57;enable-background:new    ;" width="18" height="31" xlink:href="48E0057E.png"  transform="matrix(0.241 0 0 0.241 39.5806 57.4767)">
					</image>
				</g>
				<g>
					
						<image style="overflow:visible;opacity:0.57;enable-background:new    ;" width="17" height="31" xlink:href="48E0057C.png"  transform="matrix(0.241 0 0 0.241 46.4498 57.4767)">
					</image>
				</g>
				<g>
					
						<image style="overflow:visible;opacity:0.57;enable-background:new    ;" width="20" height="29" xlink:href="48E00567.png"  transform="matrix(0.241 0 0 0.241 12.5861 66.9971)">
					</image>
				</g>
				<g>
					
						<image style="overflow:visible;opacity:0.57;enable-background:new    ;" width="18" height="29" xlink:href="48E00569.png"  transform="matrix(0.266 0 0 0.266 19.3514 66.6356)">
					</image>
				</g>
				<g>
					
						<image style="overflow:visible;opacity:0.57;enable-background:new    ;" width="17" height="29" xlink:href="48E00599.png"  transform="matrix(0.266 0 0 0.266 26.233 66.6356)">
					</image>
				</g>
				<g>
					
						<image style="overflow:visible;opacity:0.57;enable-background:new    ;" width="19" height="29" xlink:href="48E0059B.png"  transform="matrix(0.241 0 0 0.241 32.832 66.9971)">
					</image>
				</g>
				<g>
					
						<image style="overflow:visible;opacity:0.57;enable-background:new    ;" width="18" height="29" xlink:href="48E00598.png"  transform="matrix(0.266 0 0 0.266 39.3562 66.6356)">
					</image>
				</g>
				<g>
					
						<image style="overflow:visible;opacity:0.57;enable-background:new    ;" width="17" height="29" xlink:href="48E00587.png"  transform="matrix(0.266 0 0 0.266 46.2378 66.6356)">
					</image>
				</g>
				<g>
					
						<image style="overflow:visible;opacity:0.57;enable-background:new    ;" width="20" height="30" xlink:href="48E00589.png"  transform="matrix(0.241 0 0 0.241 12.5861 76.2765)">
					</image>
				</g>
				<g>
					
						<image style="overflow:visible;opacity:0.57;enable-background:new    ;" width="18" height="30" xlink:href="48E0058B.png"  transform="matrix(0.2571 0 0 0.2571 19.4311 76.0354)">
					</image>
				</g>
				<g>
					
						<image style="overflow:visible;opacity:0.57;enable-background:new    ;" width="17" height="30" xlink:href="48E00588.png"  transform="matrix(0.2571 0 0 0.2571 26.3083 76.0354)">
					</image>
				</g>
				<g>
					
						<image style="overflow:visible;opacity:0.57;enable-background:new    ;" width="17" height="32" xlink:href="48E0058F.png"  transform="matrix(0.241 0 0 0.241 26.4449 85.4353)">
					</image>
				</g>
				<g>
					
						<image style="overflow:visible;opacity:0.57;enable-background:new    ;" width="19" height="32" xlink:href="48E0058A.png"  transform="matrix(0.241 0 0 0.241 32.832 85.4353)">
					</image>
				</g>
				<g>
					
						<image style="overflow:visible;opacity:0.57;enable-background:new    ;" width="17" height="28" xlink:href="48E005B6.png"  transform="matrix(0.2668 0 0 0.2668 26.2254 94.8352)">
					</image>
				</g>
				<g>
					
						<image style="overflow:visible;opacity:0.57;enable-background:new    ;" width="19" height="28" xlink:href="48E005AC.png"  transform="matrix(0.241 0 0 0.241 32.832 95.1967)">
					</image>
				</g>
				<g>
					
						<image style="overflow:visible;opacity:0.57;enable-background:new    ;" width="19" height="30" xlink:href="48E00593.png"  transform="matrix(0.241 0 0 0.241 32.832 76.2765)">
					</image>
				</g>
				<g>
					
						<image style="overflow:visible;opacity:0.57;enable-background:new    ;" width="18" height="30" xlink:href="48E00594.png"  transform="matrix(0.2571 0 0 0.2571 39.436 76.0354)">
					</image>
				</g>
				<g>
					
						<image style="overflow:visible;opacity:0.57;enable-background:new    ;" width="17" height="30" xlink:href="48E00597.png"  transform="matrix(0.2571 0 0 0.2571 46.3132 76.0354)">
					</image>
				</g>
				<g>
					<rect x="12.8" y="48.2" class="st0" width="4.2" height="7"/>
					<g>
						<g>
							
								<image style="overflow:visible;enable-background:new    ;" width="12" height="14" xlink:href="48E00595.png"  transform="matrix(0.2582 0 0 0.2582 13.3264 51.2101)">
							</image>
						</g>
						
							<image style="overflow:visible;enable-background:new    ;" width="11" height="9" xlink:href="48E00592.png"  transform="matrix(0.2629 0 0 0.2629 13.5502 51.9551)">
						</image>
					</g>
					<rect x="19.5" y="48.2" class="st0" width="4.2" height="7"/>
					<g>
						<g>
							
								<image style="overflow:visible;enable-background:new    ;" width="11" height="14" xlink:href="48E0059C.png"  transform="matrix(0.2582 0 0 0.2582 20.2041 51.2101)">
							</image>
						</g>
						
							<image style="overflow:visible;enable-background:new    ;" width="10" height="9" xlink:href="48E0059F.png"  transform="matrix(0.3133 0 0 0.3133 20.0578 51.7283)">
						</image>
					</g>
					<rect x="26.2" y="48.2" class="st0" width="4.2" height="7"/>
					<g>
						<g>
							
								<image style="overflow:visible;enable-background:new    ;" width="14" height="14" xlink:href="48E0059D.png"  transform="matrix(0.2582 0 0 0.2582 26.5654 51.2101)">
							</image>
						</g>
						
							<image style="overflow:visible;enable-background:new    ;" width="12" height="9" xlink:href="48E00591.png"  transform="matrix(0.241 0 0 0.241 26.8064 52.0537)">
						</image>
					</g>
					<rect x="32.9" y="48.2" class="st0" width="4.2" height="7"/>
					<g>
						<g>
							
								<image style="overflow:visible;enable-background:new    ;" width="12" height="14" xlink:href="48E005FF.png"  transform="matrix(0.2582 0 0 0.2582 33.4518 51.2101)">
							</image>
						</g>
						
							<image style="overflow:visible;enable-background:new    ;" width="11" height="9" xlink:href="48E005F1.png"  transform="matrix(0.2629 0 0 0.2629 33.5551 51.9551)">
						</image>
					</g>
					<rect x="39.6" y="48.2" class="st0" width="4.2" height="7"/>
					<g>
						<g>
							
								<image style="overflow:visible;enable-background:new    ;" width="15" height="14" xlink:href="48E005F3.png"  transform="matrix(0.241 0 0 0.241 39.8217 51.3306)">
							</image>
						</g>
						
							<image style="overflow:visible;enable-background:new    ;" width="10" height="9" xlink:href="48E005F6.png"  transform="matrix(0.2892 0 0 0.2892 40.3037 51.8368)">
						</image>
					</g>
					<rect x="46.3" y="48.2" class="st0" width="4.2" height="7"/>
					<g>
						<g>
							
								<image style="overflow:visible;enable-background:new    ;" width="14" height="14" xlink:href="48E005F7.png"  transform="matrix(0.2582 0 0 0.2582 46.5703 51.2101)">
							</image>
						</g>
						
							<image style="overflow:visible;enable-background:new    ;" width="13" height="9" xlink:href="48E005F2.png"  transform="matrix(0.241 0 0 0.241 46.8113 52.0537)">
						</image>
					</g>
					<rect x="12.8" y="57.5" class="st0" width="4.2" height="7"/>
					<g>
						<g>
							
								<image style="overflow:visible;enable-background:new    ;" width="12" height="12" xlink:href="48E005ED.png"  transform="matrix(0.3013 0 0 0.3013 13.0681 60.61)">
							</image>
						</g>
						
							<image style="overflow:visible;enable-background:new    ;" width="11" height="11" xlink:href="48E005EE.png"  transform="matrix(0.2629 0 0 0.2629 13.5502 60.9715)">
						</image>
					</g>
					<rect x="19.5" y="57.5" class="st0" width="4.2" height="7"/>
					<g>
						<g>
							
								<image style="overflow:visible;enable-background:new    ;" width="11" height="12" xlink:href="48E005EF.png"  transform="matrix(0.3013 0 0 0.3013 19.9674 60.61)">
							</image>
						</g>
						
							<image style="overflow:visible;enable-background:new    ;" width="10" height="11" xlink:href="48E005D1.png"  transform="matrix(0.2848 0 0 0.2848 20.2002 60.851)">
						</image>
					</g>
					<rect x="26.2" y="57.5" class="st0" width="4.2" height="7"/>
					<g>
						<g>
							
								<image style="overflow:visible;enable-background:new    ;" width="14" height="12" xlink:href="48E005CE.png"  transform="matrix(0.2582 0 0 0.2582 26.5654 60.8682)">
							</image>
						</g>
						
							<image style="overflow:visible;enable-background:new    ;" width="12" height="11" xlink:href="48E005C9.png"  transform="matrix(0.241 0 0 0.241 26.8064 61.092)">
						</image>
					</g>
					<rect x="32.9" y="57.5" class="st0" width="4.2" height="7"/>
					<g>
						<g>
							
								<image style="overflow:visible;enable-background:new    ;" width="12" height="12" xlink:href="48E005CA.png"  transform="matrix(0.2812 0 0 0.2812 33.314 60.7305)">
							</image>
						</g>
						
							<image style="overflow:visible;enable-background:new    ;" width="11" height="11" xlink:href="48E005C8.png"  transform="matrix(0.2629 0 0 0.2629 33.5551 60.9715)">
						</image>
					</g>
					<rect x="39.6" y="57.5" class="st0" width="4.2" height="7"/>
					<g>
						<g>
							
								<image style="overflow:visible;enable-background:new    ;" width="15" height="12" xlink:href="48E00636.png"  transform="matrix(0.241 0 0 0.241 39.8217 60.9715)">
							</image>
						</g>
						
							<image style="overflow:visible;enable-background:new    ;" width="10" height="11" xlink:href="48E00639.png"  transform="matrix(0.2848 0 0 0.2848 40.3256 60.851)">
						</image>
					</g>
					<rect x="46.3" y="57.5" class="st0" width="4.2" height="7"/>
					<g>
						<g>
							
								<image style="overflow:visible;enable-background:new    ;" width="14" height="12" xlink:href="48E0063A.png"  transform="matrix(0.2582 0 0 0.2582 46.5703 60.8682)">
							</image>
						</g>
						
							<image style="overflow:visible;enable-background:new    ;" width="13" height="11" xlink:href="48E00638.png"  transform="matrix(0.241 0 0 0.241 46.8113 61.092)">
						</image>
					</g>
					<rect x="12.8" y="66.8" class="st0" width="4.2" height="7"/>
					<g>
						<g>
							
								<image style="overflow:visible;enable-background:new    ;" width="12" height="12" xlink:href="48E0063E.png"  transform="matrix(0.2812 0 0 0.2812 13.1887 70.0099)">
							</image>
						</g>
						
							<image style="overflow:visible;enable-background:new    ;" width="11" height="11" xlink:href="48E0063B.png"  transform="matrix(0.2629 0 0 0.2629 13.5502 70.2509)">
						</image>
					</g>
					<rect x="19.5" y="66.8" class="st0" width="4.2" height="7"/>
					<g>
						<g>
							
								<image style="overflow:visible;enable-background:new    ;" width="11" height="12" xlink:href="48E0061D.png"  transform="matrix(0.2812 0 0 0.2812 20.0779 70.0099)">
							</image>
						</g>
						
							<image style="overflow:visible;enable-background:new    ;" width="10" height="11" xlink:href="48E0061F.png"  transform="matrix(0.2629 0 0 0.2629 20.3098 70.2509)">
						</image>
					</g>
					<rect x="26.2" y="66.8" class="st0" width="4.2" height="7"/>
					<g>
						<g>
							
								<image style="overflow:visible;enable-background:new    ;" width="14" height="12" xlink:href="48E0061C.png"  transform="matrix(0.2582 0 0 0.2582 26.5654 70.1476)">
							</image>
						</g>
						
							<image style="overflow:visible;enable-background:new    ;" width="12" height="11" xlink:href="48E0061B.png"  transform="matrix(0.241 0 0 0.241 26.8064 70.3714)">
						</image>
					</g>
					<rect x="32.9" y="66.8" class="st0" width="4.2" height="7"/>
					<g>
						<g>
							
								<image style="overflow:visible;enable-background:new    ;" width="12" height="12" xlink:href="48E00665.png"  transform="matrix(0.2812 0 0 0.2812 33.314 70.0099)">
							</image>
						</g>
						
							<image style="overflow:visible;enable-background:new    ;" width="11" height="11" xlink:href="48E00667.png"  transform="matrix(0.2629 0 0 0.2629 33.5551 70.2509)">
						</image>
					</g>
					<rect x="39.6" y="66.8" class="st0" width="4.2" height="7"/>
					<g>
						<g>
							
								<image style="overflow:visible;enable-background:new    ;" width="15" height="12" xlink:href="48E00664.png"  transform="matrix(0.241 0 0 0.241 39.8217 70.2509)">
							</image>
						</g>
						
							<image style="overflow:visible;enable-background:new    ;" width="10" height="11" xlink:href="48E0066B.png"  transform="matrix(0.2629 0 0 0.2629 40.4352 70.2509)">
						</image>
					</g>
					<rect x="46.3" y="66.8" class="st0" width="4.2" height="7"/>
					<g>
						<g>
							
								<image style="overflow:visible;enable-background:new    ;" width="14" height="12" xlink:href="48E0066D.png"  transform="matrix(0.2582 0 0 0.2582 46.5703 70.1476)">
							</image>
						</g>
						
							<image style="overflow:visible;enable-background:new    ;" width="13" height="11" xlink:href="48E0066F.png"  transform="matrix(0.241 0 0 0.241 46.8113 70.3714)">
						</image>
					</g>
					<rect x="12.8" y="76.1" class="st0" width="4.2" height="7"/>
					<g>
						<g>
							
								<image style="overflow:visible;enable-background:new    ;" width="12" height="14" xlink:href="48E00600.png"  transform="matrix(0.2582 0 0 0.2582 13.3264 79.1687)">
							</image>
						</g>
						
							<image style="overflow:visible;enable-background:new    ;" width="11" height="8" xlink:href="48E0060F.png"  transform="matrix(0.2629 0 0 0.2629 13.5502 80.0452)">
						</image>
					</g>
					<rect x="19.5" y="76.1" class="st0" width="4.2" height="7"/>
					<g>
						<g>
							
								<image style="overflow:visible;enable-background:new    ;" width="11" height="14" xlink:href="48E00601.png"  transform="matrix(0.2582 0 0 0.2582 20.2041 79.1687)">
							</image>
						</g>
						
							<image style="overflow:visible;enable-background:new    ;" width="10" height="8" xlink:href="48E00603.png"  transform="matrix(0.3133 0 0 0.3133 20.0578 79.8436)">
						</image>
					</g>
					<rect x="26.2" y="76.1" class="st0" width="4.2" height="7"/>
					<g>
						<g>
							
								<image style="overflow:visible;enable-background:new    ;" width="14" height="14" xlink:href="48E00606.png"  transform="matrix(0.2582 0 0 0.2582 26.5654 79.1687)">
							</image>
						</g>
						
							<image style="overflow:visible;enable-background:new    ;" width="12" height="8" xlink:href="48E00607.png"  transform="matrix(0.241 0 0 0.241 26.8064 80.1328)">
						</image>
					</g>
					<rect x="32.9" y="76.1" class="st0" width="4.2" height="7"/>
					<g>
						<g>
							
								<image style="overflow:visible;enable-background:new    ;" width="12" height="14" xlink:href="48E00602.png"  transform="matrix(0.2582 0 0 0.2582 33.4518 79.1687)">
							</image>
						</g>
						
							<image style="overflow:visible;enable-background:new    ;" width="11" height="8" xlink:href="48E0061E.png"  transform="matrix(0.2629 0 0 0.2629 33.5551 80.0452)">
						</image>
					</g>
					<rect x="26.2" y="85.5" class="st0" width="4.2" height="7"/>
					<g>
						<g>
							
								<image style="overflow:visible;enable-background:new    ;" width="14" height="15" xlink:href="48E0061A.png"  transform="matrix(0.241 0 0 0.241 26.6859 88.5686)">
							</image>
						</g>
						
							<image style="overflow:visible;enable-background:new    ;" width="12" height="10" xlink:href="48E00619.png"  transform="matrix(0.241 0 0 0.241 26.8064 89.2917)">
						</image>
					</g>
					<rect x="32.9" y="85.5" class="st0" width="4.2" height="7"/>
					<g>
						<g>
							
								<image style="overflow:visible;enable-background:new    ;" width="12" height="15" xlink:href="48E0063F.png"  transform="matrix(0.241 0 0 0.241 33.5551 88.5686)">
							</image>
						</g>
						
							<image style="overflow:visible;enable-background:new    ;" width="11" height="10" xlink:href="48E0063D.png"  transform="matrix(0.2629 0 0 0.2629 33.5551 89.1821)">
						</image>
					</g>
					<rect x="26.2" y="94.8" class="st0" width="4.2" height="7"/>
					<g>
						<g>
							
								<image style="overflow:visible;enable-background:new    ;" width="14" height="12" xlink:href="48E00635.png"  transform="matrix(0.2582 0 0 0.2582 26.5654 98.2267)">
							</image>
						</g>
						
							<image style="overflow:visible;enable-background:new    ;" width="12" height="11" xlink:href="48E00637.png"  transform="matrix(0.241 0 0 0.241 26.8064 98.4505)">
						</image>
					</g>
					<rect x="32.9" y="94.8" class="st0" width="4.2" height="7"/>
					<g>
						<g>
							
								<image style="overflow:visible;enable-background:new    ;" width="12" height="12" xlink:href="48E00634.png"  transform="matrix(0.2812 0 0 0.2812 33.314 98.089)">
							</image>
						</g>
						
							<image style="overflow:visible;enable-background:new    ;" width="11" height="11" xlink:href="48E00625.png"  transform="matrix(0.2629 0 0 0.2629 33.5551 98.33)">
						</image>
					</g>
					<rect x="39.6" y="76.1" class="st0" width="4.2" height="7"/>
					<g>
						<g>
							
								<image style="overflow:visible;enable-background:new    ;" width="15" height="14" xlink:href="48E00627.png"  transform="matrix(0.241 0 0 0.241 39.8217 79.2892)">
							</image>
						</g>
						
							<image style="overflow:visible;enable-background:new    ;" width="10" height="8" xlink:href="48E0062A.png"  transform="matrix(0.2892 0 0 0.2892 40.3037 79.94)">
						</image>
					</g>
					<rect x="46.3" y="76.1" class="st0" width="4.2" height="7"/>
					<g>
						<g>
							
								<image style="overflow:visible;enable-background:new    ;" width="14" height="14" xlink:href="48E0062B.png"  transform="matrix(0.2582 0 0 0.2582 46.5703 79.1687)">
							</image>
						</g>
						
							<image style="overflow:visible;enable-background:new    ;" width="13" height="8" xlink:href="48E0062D.png"  transform="matrix(0.241 0 0 0.241 46.8113 80.1328)">
						</image>
					</g>
					<rect x="13.1" y="48.4" class="st1" width="3.7" height="2.8"/>
					<rect x="19.8" y="48.4" class="st1" width="3.7" height="2.8"/>
					<rect x="26.5" y="48.4" class="st1" width="3.7" height="2.8"/>
					<rect x="33.2" y="48.4" class="st1" width="3.7" height="2.8"/>
					<rect x="39.8" y="48.4" class="st1" width="3.7" height="2.8"/>
					<rect x="46.5" y="48.4" class="st1" width="3.7" height="2.8"/>
					<rect x="13.1" y="57.7" class="st1" width="3.7" height="2.8"/>
					<rect x="19.8" y="57.7" class="st1" width="3.7" height="2.8"/>
					<rect x="26.5" y="57.7" class="st1" width="3.7" height="2.8"/>
					<rect x="33.2" y="57.7" class="st1" width="3.7" height="2.8"/>
					<rect x="39.8" y="57.7" class="st1" width="3.7" height="2.8"/>
					<rect x="46.5" y="57.7" class="st1" width="3.7" height="2.8"/>
					<rect x="13.1" y="67" class="st1" width="3.7" height="2.8"/>
					<rect x="19.8" y="67" class="st1" width="3.7" height="2.8"/>
					<rect x="26.5" y="67" class="st1" width="3.7" height="2.8"/>
					<rect x="33.2" y="67" class="st1" width="3.7" height="2.8"/>
					<rect x="39.8" y="67" class="st1" width="3.7" height="2.8"/>
					<rect x="46.5" y="67" class="st1" width="3.7" height="2.8"/>
					<rect x="13.1" y="76.3" class="st1" width="3.7" height="2.8"/>
					<rect x="19.8" y="76.3" class="st1" width="3.7" height="2.8"/>
					<rect x="26.5" y="76.3" class="st1" width="3.7" height="2.8"/>
					<rect x="33.2" y="76.3" class="st1" width="3.7" height="2.8"/>
					<rect x="26.5" y="85.8" class="st1" width="3.7" height="2.8"/>
					<rect x="33.2" y="85.8" class="st1" width="3.7" height="2.8"/>
					<rect x="26.5" y="95.1" class="st1" width="3.7" height="2.8"/>
					<rect x="33.2" y="95.1" class="st1" width="3.7" height="2.8"/>
					<rect x="39.8" y="76.3" class="st1" width="3.7" height="2.8"/>
					<rect x="46.5" y="76.3" class="st1" width="3.7" height="2.8"/>
					<g>
						<path d="M27.7,59.9h-0.3c-0.2,0-0.3-0.2-0.3-0.3v-0.7c0-0.2,0.2-0.3,0.3-0.3h0.3c0.2,0,0.3,0.2,0.3,0.3v0.7
							C28.1,59.7,27.9,59.9,27.7,59.9z M27.9,58.8c0-0.1-0.1-0.2-0.1-0.2h-0.3c-0.1,0-0.1,0.1-0.1,0.2v0.7c0,0.1,0.1,0.2,0.1,0.2
							h0.3c0.1,0,0.1-0.1,0.1-0.2V58.8z"/>
						<path d="M29.2,59.9c-0.1,0-0.1,0-0.2-0.1l-0.5-0.9v1h-0.2v-1.4h0.1c0.1,0,0.1,0,0.2,0.1l0.5,0.9v-1h0.2v1.4
							C29.3,59.9,29.2,59.9,29.2,59.9z"/>
					</g>
					<g>
						<path d="M34.4,59.9h-0.3c-0.2,0-0.3-0.2-0.3-0.3v-0.7c0-0.2,0.2-0.3,0.3-0.3h0.3c0.2,0,0.3,0.2,0.3,0.3v0.7
							C34.8,59.7,34.6,59.9,34.4,59.9z M34.6,58.8c0-0.1-0.1-0.2-0.1-0.2h-0.3c-0.1,0-0.1,0.1-0.1,0.2v0.7c0,0.1,0.1,0.2,0.1,0.2
							h0.3c0.1,0,0.1-0.1,0.1-0.2V58.8z"/>
						<path d="M35.9,59.9c-0.1,0-0.1,0-0.2-0.1l-0.5-0.9v1H35v-1.4h0.1c0.1,0,0.1,0,0.2,0.1l0.5,0.9v-1H36v1.4
							C36,59.9,35.9,59.9,35.9,59.9z"/>
					</g>
					<g>
						<path d="M27.7,87.9h-0.3c-0.2,0-0.3-0.2-0.3-0.3v-0.7c0-0.2,0.2-0.3,0.3-0.3h0.3c0.2,0,0.3,0.2,0.3,0.3v0.7
							C28.1,87.7,27.9,87.9,27.7,87.9z M27.9,86.8c0-0.1-0.1-0.2-0.1-0.2h-0.3c-0.1,0-0.1,0.1-0.1,0.2v0.7c0,0.1,0.1,0.2,0.1,0.2
							h0.3c0.1,0,0.1-0.1,0.1-0.2V86.8z"/>
						<path d="M29.2,87.9c-0.1,0-0.1,0-0.2-0.1l-0.5-0.9v1h-0.2v-1.4h0.1c0.1,0,0.1,0,0.2,0.1l0.5,0.9v-1h0.2v1.4
							C29.3,87.9,29.2,87.9,29.2,87.9z"/>
					</g>
					<g>
						<path d="M34.4,87.9h-0.3c-0.2,0-0.3-0.2-0.3-0.3v-0.7c0-0.2,0.2-0.3,0.3-0.3h0.3c0.2,0,0.3,0.2,0.3,0.3v0.7
							C34.8,87.7,34.6,87.9,34.4,87.9z M34.6,86.8c0-0.1-0.1-0.2-0.1-0.2h-0.3c-0.1,0-0.1,0.1-0.1,0.2v0.7c0,0.1,0.1,0.2,0.1,0.2
							h0.3c0.1,0,0.1-0.1,0.1-0.2V86.8z"/>
						<path d="M35.9,87.9c-0.1,0-0.1,0-0.2-0.1l-0.5-0.9v1H35v-1.4h0.1c0.1,0,0.1,0,0.2,0.1l0.5,0.9v-1H36v1.4
							C36,87.9,35.9,87.9,35.9,87.9z"/>
					</g>
					<g>
						<path d="M27.7,97.1h-0.3c-0.2,0-0.3-0.2-0.3-0.3v-0.7c0-0.2,0.2-0.3,0.3-0.3h0.3c0.2,0,0.3,0.2,0.3,0.3v0.7
							C28.1,97,27.9,97.1,27.7,97.1z M27.9,96.1c0-0.1-0.1-0.2-0.1-0.2h-0.3c-0.1,0-0.1,0.1-0.1,0.2v0.7c0,0.1,0.1,0.2,0.1,0.2h0.3
							c0.1,0,0.1-0.1,0.1-0.2V96.1z"/>
						<path d="M29.2,97.1c-0.1,0-0.1,0-0.2-0.1l-0.5-0.9v1h-0.2v-1.4h0.1c0.1,0,0.1,0,0.2,0.1l0.5,0.9v-1h0.2v1.4
							C29.3,97.1,29.2,97.1,29.2,97.1z"/>
					</g>
					<g>
						<path d="M34.4,97.1h-0.3c-0.2,0-0.3-0.2-0.3-0.3v-0.7c0-0.2,0.2-0.3,0.3-0.3h0.3c0.2,0,0.3,0.2,0.3,0.3v0.7
							C34.8,97,34.6,97.1,34.4,97.1z M34.6,96.1c0-0.1-0.1-0.2-0.1-0.2h-0.3C34,95.9,34,96,34,96.1v0.7c0,0.1,0.1,0.2,0.1,0.2h0.3
							c0.1,0,0.1-0.1,0.1-0.2V96.1z"/>
						<path d="M35.9,97.1c-0.1,0-0.1,0-0.2-0.1l-0.5-0.9v1H35v-1.4h0.1c0.1,0,0.1,0,0.2,0.1l0.5,0.9v-1H36v1.4
							C36,97.1,35.9,97.1,35.9,97.1z"/>
					</g>
					<g>
						<path d="M40.8,59.9h-0.3c-0.2,0-0.3-0.2-0.3-0.3v-0.7c0-0.2,0.2-0.3,0.3-0.3h0.3c0.2,0,0.3,0.2,0.3,0.3v0.7
							C41.1,59.7,41,59.9,40.8,59.9z M40.9,58.8c0-0.1-0.1-0.2-0.1-0.2h-0.3c-0.1,0-0.1,0.1-0.1,0.2v0.7c0,0.1,0.1,0.2,0.1,0.2h0.3
							c0.1,0,0.1-0.1,0.1-0.2V58.8z"/>
						<path d="M41.6,59.2v0.7h-0.2v-1.4h0.8v0.2h-0.6v0.4h0.6v0.2C42.2,59.2,41.6,59.2,41.6,59.2z"/>
						<path d="M42.7,59.2v0.7h-0.2v-1.4h0.8v0.2h-0.6v0.4h0.6v0.2C43.3,59.2,42.7,59.2,42.7,59.2z"/>
					</g>
					<g>
						<path d="M47.5,59.9h-0.3c-0.2,0-0.3-0.2-0.3-0.3v-0.7c0-0.2,0.2-0.3,0.3-0.3h0.3c0.2,0,0.3,0.2,0.3,0.3v0.7
							C47.8,59.7,47.7,59.9,47.5,59.9z M47.6,58.8c0-0.1-0.1-0.2-0.1-0.2h-0.3c-0.1,0-0.1,0.1-0.1,0.2v0.7c0,0.1,0.1,0.2,0.1,0.2
							h0.3c0.1,0,0.1-0.1,0.1-0.2V58.8z"/>
						<path d="M48.3,59.2v0.7h-0.2v-1.4h0.8v0.2h-0.6v0.4h0.6v0.2C48.9,59.2,48.3,59.2,48.3,59.2z"/>
						<path d="M49.4,59.2v0.7h-0.2v-1.4h0.8v0.2h-0.6v0.4h0.6v0.2C49.9,59.2,49.4,59.2,49.4,59.2z"/>
					</g>
					<g>
						<path d="M13.4,49.9v-0.5h0.1L13.4,49.9l0.3-0.1v0.1C13.7,49.9,13.4,49.9,13.4,49.9z"/>
						<path d="M14,49.9L14,49.9c-0.1,0-0.2-0.1-0.2-0.1v-0.1c0-0.1,0.1-0.1,0.1-0.1H14c0.1,0,0.1,0.1,0.1,0.1v0.1
							C14.1,49.8,14,49.9,14,49.9z M14,49.6C14,49.6,14,49.5,14,49.6l-0.1-0.1c0,0-0.1,0-0.1,0.1v0.1c0,0,0,0.1,0.1,0.1H14
							c0,0,0.1,0,0.1-0.1C14,49.7,14,49.6,14,49.6z"/>
						<path d="M14.4,49.6L14.4,49.6l-0.1-0.1v0.3h-0.1v-0.4h0.2C14.5,49.5,14.5,49.5,14.4,49.6L14.4,49.6
							C14.5,49.6,14.4,49.6,14.4,49.6z"/>
						<path d="M14.6,49.7L14.6,49.7c0,0.1,0,0.1,0.1,0.1h0.2v0.1h-0.2C14.6,49.9,14.6,49.8,14.6,49.7L14.6,49.7
							c-0.1-0.2,0-0.2,0.1-0.2h0.1c0.1,0,0.1,0.1,0.1,0.1v0.1H14.6z M14.8,49.6C14.8,49.6,14.8,49.5,14.8,49.6l-0.1-0.1
							c0,0-0.1,0-0.1,0.1v0L14.8,49.6C14.8,49.6,14.8,49.6,14.8,49.6z"/>
						<path d="M15.5,49.6v0.3h-0.1L15.5,49.6c-0.1,0-0.1-0.1-0.1-0.1h-0.1v0.3h-0.1v-0.3h-0.2v0.3H15v-0.4h0.4
							C15.5,49.5,15.5,49.5,15.5,49.6z"/>
						<path d="M15.8,49.4L15.8,49.4L15.8,49.4L15.8,49.4L15.8,49.4z M15.8,49.9v-0.4h0.1L15.8,49.9L15.8,49.9z"/>
						<path d="M16.2,49.9h-0.1V50H16v-0.5h0.2c0.1,0,0.1,0.1,0.1,0.1v0.1C16.4,49.8,16.3,49.9,16.2,49.9z M16.3,49.6
							C16.3,49.6,16.3,49.5,16.3,49.6l-0.2-0.1v0.3h0.1c0,0,0.1,0,0.1-0.1C16.3,49.7,16.3,49.6,16.3,49.6z"/>
					</g>
					<g>
						<path d="M27,68.7v-0.5h0.1L27,68.7l0.3-0.1v0.1C27.3,68.7,27,68.7,27,68.7z"/>
						<path d="M27.5,68.7L27.5,68.7c-0.1,0-0.2-0.1-0.2-0.1v-0.1c0-0.1,0.1-0.1,0.1-0.1h0.1c0.1,0,0.1,0.1,0.1,0.1v0.1
							C27.7,68.6,27.6,68.7,27.5,68.7z M27.6,68.4C27.6,68.4,27.6,68.3,27.6,68.4l-0.1-0.1c0,0-0.1,0-0.1,0.1v0.1c0,0,0,0.1,0.1,0.1
							h0.1c0,0,0.1,0,0.1-0.1V68.4z"/>
						<path d="M28,68.4L28,68.4l-0.1-0.1v0.3h-0.1v-0.4H28C28,68.3,28,68.3,28,68.4L28,68.4C28,68.4,28,68.4,28,68.4z"/>
						<path d="M28.2,68.5L28.2,68.5c0,0.1,0,0.1,0.1,0.1h0.2v0.1h-0.2C28.2,68.7,28.1,68.6,28.2,68.5L28.2,68.5
							c-0.1-0.2,0-0.2,0.1-0.2h0.1c0.1,0,0.1,0.1,0.1,0.1v0.1C28.4,68.5,28.2,68.5,28.2,68.5z M28.4,68.4
							C28.4,68.4,28.3,68.3,28.4,68.4l-0.1-0.1c0,0-0.1,0-0.1,0.1v0L28.4,68.4C28.4,68.4,28.4,68.4,28.4,68.4z"/>
						<path d="M29.1,68.4v0.3H29L29.1,68.4c-0.1,0-0.1-0.1-0.1-0.1h-0.1v0.3h-0.1v-0.3h-0.2v0.3h-0.1v-0.4h0.4
							C29,68.3,29.1,68.3,29.1,68.4z"/>
						<path d="M29.4,68.2L29.4,68.2L29.4,68.2L29.4,68.2L29.4,68.2z M29.4,68.7v-0.4h0.1L29.4,68.7L29.4,68.7z"/>
						<path d="M29.8,68.7h-0.1v0.2h-0.1v-0.5h0.2c0.1,0,0.1,0.1,0.1,0.1v0.1C29.9,68.6,29.8,68.7,29.8,68.7z M29.8,68.4
							C29.8,68.4,29.8,68.3,29.8,68.4l-0.2-0.1v0.3h0.1c0,0,0.1,0,0.1-0.1V68.4z"/>
					</g>
					<g>
						<path d="M13.4,77.8v-0.5h0.1L13.4,77.8l0.3-0.1v0.1C13.7,77.8,13.4,77.8,13.4,77.8z"/>
						<path d="M14,77.8L14,77.8c-0.1,0-0.2-0.1-0.2-0.1v-0.1c0-0.1,0.1-0.1,0.1-0.1H14c0.1,0,0.1,0.1,0.1,0.1v0.1
							C14.1,77.8,14,77.8,14,77.8z M14,77.6C14,77.6,14,77.5,14,77.6l-0.1-0.1c0,0-0.1,0-0.1,0.1v0.1c0,0,0,0.1,0.1,0.1H14
							c0,0,0.1,0,0.1-0.1C14,77.7,14,77.6,14,77.6z"/>
						<path d="M14.4,77.6L14.4,77.6l-0.1-0.1v0.3h-0.1v-0.4h0.2C14.5,77.5,14.5,77.5,14.4,77.6L14.4,77.6
							C14.5,77.6,14.4,77.6,14.4,77.6z"/>
						<path d="M14.6,77.7L14.6,77.7c0,0.1,0,0.1,0.1,0.1h0.2v0.1h-0.2C14.6,77.8,14.6,77.8,14.6,77.7L14.6,77.7
							c-0.1-0.2,0-0.2,0.1-0.2h0.1c0.1,0,0.1,0.1,0.1,0.1v0.1C14.9,77.7,14.6,77.7,14.6,77.7z M14.8,77.6
							C14.8,77.6,14.8,77.5,14.8,77.6l-0.1-0.1c0,0-0.1,0-0.1,0.1v0L14.8,77.6C14.8,77.6,14.8,77.6,14.8,77.6z"/>
						<path d="M15.5,77.6v0.3h-0.1L15.5,77.6c-0.1,0-0.1-0.1-0.1-0.1h-0.1v0.3h-0.1v-0.3h-0.2v0.3H15v-0.4h0.4
							C15.5,77.5,15.5,77.5,15.5,77.6z"/>
						<path d="M15.8,77.4L15.8,77.4L15.8,77.4L15.8,77.4L15.8,77.4z M15.8,77.8v-0.4h0.1L15.8,77.8L15.8,77.8z"/>
						<path d="M16.2,77.8h-0.1V78H16v-0.5h0.2c0.1,0,0.1,0.1,0.1,0.1v0.1C16.4,77.8,16.3,77.8,16.2,77.8z M16.3,77.6
							C16.3,77.6,16.3,77.5,16.3,77.6l-0.2-0.1v0.3h0.1c0,0,0.1,0,0.1-0.1V77.6z"/>
					</g>
					<g>
						<path d="M27.2,49.9H27v-0.5h0.2c0.1,0,0.2,0.1,0.2,0.2v0.1C27.4,49.8,27.3,49.9,27.2,49.9z M27.3,49.5c0-0.1-0.1-0.1-0.1-0.1
							h-0.1v0.4h0.1c0.1,0,0.1-0.1,0.1-0.1V49.5z"/>
						<path d="M27.7,49.9L27.7,49.9c-0.1,0-0.2-0.1-0.2-0.1v-0.3h0.1v0.3C27.5,49.8,27.6,49.8,27.7,49.9L27.7,49.9
							c0-0.1,0.1-0.1,0.1-0.1v-0.3h0.1v0.3C27.8,49.8,27.7,49.9,27.7,49.9z"/>
						<path d="M27.9,49.4L27.9,49.4L27.9,49.4L27.9,49.4L27.9,49.4z M27.9,49.9v-0.4H28L27.9,49.9L27.9,49.9z"/>
						<path d="M28.3,49.9h-0.2v-0.1L28.3,49.9l0-0.2h-0.2c0,0-0.1,0-0.1-0.1v-0.1c0,0,0-0.1,0.1-0.1h0.2v0.1h-0.2v0.1h0.2
							c0,0,0.1,0,0.1,0.1L28.3,49.9C28.4,49.8,28.3,49.9,28.3,49.9z"/>
						<path d="M28.9,49.9L28.9,49.9c-0.1,0-0.2-0.1-0.2-0.1v-0.3h0.1v0.3C28.7,49.8,28.8,49.8,28.9,49.9L28.9,49.9
							c0-0.1,0.1-0.1,0.1-0.1v-0.3H29v0.3C29,49.8,28.9,49.9,28.9,49.9z"/>
						<path d="M29.3,49.9h-0.1c0,0-0.1,0-0.1-0.1v-0.3h-0.1v-0.1h0.1v-0.1h0.1v0.1h0.1v0.1h-0.1v0.3L29.3,49.9
							C29.3,49.8,29.3,49.9,29.3,49.9z"/>
					</g>
					<g>
						<path d="M21,49.9h-0.2v-0.1L21,49.9C21,49.8,21,49.8,21,49.9l0-0.2c0,0,0,0,0,0h-0.1c-0.1,0-0.1,0-0.1-0.1v-0.1
							c0-0.1,0-0.1,0.1-0.1H21v0.1h-0.2c0,0,0,0,0,0v0.1c0,0,0,0,0,0H21c0.1,0,0.1,0,0.1,0.1L21,49.9C21,49.8,21,49.9,21,49.9z"/>
						<path d="M21.2,49.7L21.2,49.7c0,0.1,0,0.1,0.1,0.1h0.2v0.1h-0.2C21.2,49.9,21.1,49.8,21.2,49.7L21.2,49.7
							c-0.1-0.2,0-0.2,0.1-0.2h0.1c0.1,0,0.1,0.1,0.1,0.1v0.1H21.2z M21.4,49.6C21.4,49.6,21.4,49.5,21.4,49.6l-0.1-0.1
							c0,0-0.1,0-0.1,0.1v0L21.4,49.6C21.4,49.6,21.4,49.6,21.4,49.6z"/>
						<path d="M21.7,49.9c-0.1,0-0.1-0.1-0.1-0.1v-0.1c0-0.1,0.1-0.1,0.1-0.1h0.1v-0.2h0.1v0.6H21.7z M21.8,49.5h-0.1
							c0,0-0.1,0-0.1,0.1v0.1c0,0,0,0.1,0.1,0.1h0.1C21.8,49.8,21.8,49.5,21.8,49.5z"/>
						<path d="M22.2,49.4L22.2,49.4L22.2,49.4L22.2,49.4L22.2,49.4z M22.2,49.9v-0.4h0.1L22.2,49.9L22.2,49.9z"/>
						<path d="M22.6,49.9v-0.3c0,0,0-0.1-0.1-0.1h-0.1v0.3h-0.1v-0.4h0.2c0.1,0,0.1,0.1,0.1,0.1L22.6,49.9L22.6,49.9z"/>
					</g>
					<g>
						<path d="M21,68.7h-0.2v-0.1L21,68.7C21,68.6,21,68.6,21,68.7l0-0.2c0,0,0,0,0,0h-0.1c-0.1,0-0.1,0-0.1-0.1v-0.1
							c0-0.1,0-0.1,0.1-0.1H21v0.1h-0.2c0,0,0,0,0,0v0.1c0,0,0,0,0,0H21c0.1,0,0.1,0,0.1,0.1L21,68.7C21,68.6,21,68.7,21,68.7z"/>
						<path d="M21.2,68.5L21.2,68.5c0,0.1,0,0.1,0.1,0.1h0.2v0.1h-0.2C21.2,68.7,21.1,68.6,21.2,68.5L21.2,68.5
							c-0.1-0.2,0-0.2,0.1-0.2h0.1c0.1,0,0.1,0.1,0.1,0.1v0.1C21.5,68.5,21.2,68.5,21.2,68.5z M21.4,68.4
							C21.4,68.4,21.4,68.3,21.4,68.4l-0.1-0.1c0,0-0.1,0-0.1,0.1v0L21.4,68.4C21.4,68.4,21.4,68.4,21.4,68.4z"/>
						<path d="M21.7,68.7c-0.1,0-0.1-0.1-0.1-0.1v-0.1c0-0.1,0.1-0.1,0.1-0.1h0.1v-0.2h0.1v0.6C21.9,68.7,21.7,68.7,21.7,68.7z
							 M21.8,68.3h-0.1c0,0-0.1,0-0.1,0.1v0.1c0,0,0,0.1,0.1,0.1h0.1V68.3z"/>
						<path d="M22.2,68.2L22.2,68.2L22.2,68.2L22.2,68.2L22.2,68.2z M22.2,68.7v-0.4h0.1L22.2,68.7L22.2,68.7z"/>
						<path d="M22.6,68.7v-0.3c0,0,0-0.1-0.1-0.1h-0.1v0.3h-0.1v-0.4h0.2c0.1,0,0.1,0.1,0.1,0.1L22.6,68.7L22.6,68.7z"/>
					</g>
					<g>
						<path d="M40.6,77.8h-0.2v-0.1L40.6,77.8C40.6,77.8,40.6,77.8,40.6,77.8l0-0.2c0,0,0,0,0,0h-0.1c-0.1,0-0.1,0-0.1-0.1v-0.1
							c0-0.1,0-0.1,0.1-0.1h0.2v0.1h-0.2c0,0,0,0,0,0v0.1c0,0,0,0,0,0h0.1c0.1,0,0.1,0,0.1,0.1L40.6,77.8
							C40.7,77.8,40.6,77.8,40.6,77.8z"/>
						<path d="M40.8,77.7L40.8,77.7c0,0.1,0,0.1,0.1,0.1h0.2v0.1h-0.2C40.8,77.8,40.8,77.8,40.8,77.7L40.8,77.7
							c-0.1-0.2,0-0.2,0.1-0.2H41c0.1,0,0.1,0.1,0.1,0.1v0.1C41.1,77.7,40.8,77.7,40.8,77.7z M41,77.6C41,77.6,41,77.5,41,77.6
							l-0.1-0.1c0,0-0.1,0-0.1,0.1v0L41,77.6C41,77.6,41,77.6,41,77.6z"/>
						<path d="M41.3,77.8c-0.1,0-0.1-0.1-0.1-0.1v-0.1c0-0.1,0.1-0.1,0.1-0.1h0.1v-0.2h0.1v0.6H41.3z M41.5,77.5h-0.1
							c0,0-0.1,0-0.1,0.1v0.1c0,0,0,0.1,0.1,0.1h0.1V77.5z"/>
						<path d="M41.9,77.4L41.9,77.4L41.9,77.4L41.9,77.4L41.9,77.4z M41.9,77.8v-0.4h0.1L41.9,77.8L41.9,77.8z"/>
						<path d="M42.3,77.8v-0.3c0,0,0-0.1-0.1-0.1h-0.1v0.3H42v-0.4h0.2c0.1,0,0.1,0.1,0.1,0.1L42.3,77.8L42.3,77.8z"/>
					</g>
					<g>
						<path d="M14.1,59.1h-0.2v-0.1L14.1,59.1C14.1,59.1,14.1,59,14.1,59.1l0-0.2c0,0,0,0,0,0H14c-0.1,0-0.1,0-0.1-0.1v-0.1
							c0-0.1,0-0.1,0.1-0.1h0.2v0.1H14c0,0,0,0,0,0v0.1c0,0,0,0,0,0h0.1c0.1,0,0.1,0,0.1,0.1L14.1,59.1
							C14.2,59.1,14.1,59.1,14.1,59.1z"/>
						<path d="M14.3,59L14.3,59c0,0.1,0,0.1,0.1,0.1h0.2v0.1h-0.2C14.3,59.1,14.3,59.1,14.3,59L14.3,59c-0.1-0.2,0-0.2,0.1-0.2h0.1
							c0.1,0,0.1,0.1,0.1,0.1V59C14.6,59,14.3,59,14.3,59z M14.5,58.9C14.5,58.8,14.5,58.8,14.5,58.9l-0.1-0.1c0,0-0.1,0-0.1,0.1v0
							L14.5,58.9C14.5,58.9,14.5,58.9,14.5,58.9z"/>
						<path d="M14.8,59.1c-0.1,0-0.1-0.1-0.1-0.1v-0.1c0-0.1,0.1-0.1,0.1-0.1H15v-0.2H15v0.6H14.8z M15,58.8h-0.1c0,0-0.1,0-0.1,0.1
							V59c0,0,0,0.1,0.1,0.1H15C15,59.1,15,58.8,15,58.8z"/>
						<path d="M15.4,58.6L15.4,58.6L15.4,58.6L15.4,58.6L15.4,58.6z M15.4,59.1v-0.4h0.1L15.4,59.1L15.4,59.1z"/>
						<path d="M15.8,59.1v-0.3c0,0,0-0.1-0.1-0.1h-0.1v0.3h-0.1v-0.4h0.2c0.1,0,0.1,0.1,0.1,0.1L15.8,59.1
							C15.9,59.1,15.8,59.1,15.8,59.1z"/>
					</g>
					<g>
						<path d="M34.1,49.9h-0.2v-0.1L34.1,49.9C34.1,49.8,34.2,49.8,34.1,49.9l0-0.2c0,0,0,0,0,0H34c-0.1,0-0.1,0-0.1-0.1v-0.1
							c0-0.1,0-0.1,0.1-0.1h0.2v0.1H34c0,0,0,0,0,0v0.1c0,0,0,0,0,0h0.1c0.1,0,0.1,0,0.1,0.1L34.1,49.9
							C34.2,49.8,34.2,49.9,34.1,49.9z"/>
						<path d="M34.4,49.7L34.4,49.7c0,0.1,0,0.1,0.1,0.1h0.2v0.1h-0.2C34.4,49.9,34.3,49.8,34.4,49.7L34.4,49.7
							c-0.1-0.2,0-0.2,0.1-0.2h0.1c0.1,0,0.1,0.1,0.1,0.1v0.1C34.7,49.7,34.4,49.7,34.4,49.7z M34.6,49.6
							C34.6,49.6,34.6,49.5,34.6,49.6l-0.1-0.1c0,0-0.1,0-0.1,0.1v0L34.6,49.6C34.6,49.6,34.6,49.6,34.6,49.6z"/>
						<path d="M34.9,49.9c-0.1,0-0.1-0.1-0.1-0.1v-0.1c0-0.1,0.1-0.1,0.1-0.1H35v-0.2h0.1v0.6H34.9z M35,49.5h-0.1
							c0,0-0.1,0-0.1,0.1v0.1c0,0,0,0.1,0.1,0.1H35C35,49.8,35,49.5,35,49.5z"/>
						<path d="M35.6,49.9h-0.1V50h-0.1v-0.5h0.2c0.1,0,0.1,0.1,0.1,0.1v0.1C35.7,49.8,35.7,49.9,35.6,49.9z M35.7,49.6
							C35.7,49.6,35.6,49.5,35.7,49.6l-0.2-0.1v0.3h0.1c0,0,0.1,0,0.1-0.1C35.7,49.7,35.7,49.6,35.7,49.6z"/>
						<path d="M36.1,49.6L36.1,49.6l-0.1-0.1v0.3h-0.1v-0.4h0.2C36.1,49.5,36.1,49.5,36.1,49.6L36.1,49.6
							C36.1,49.6,36.1,49.6,36.1,49.6z"/>
					</g>
					<g>
						<path d="M34.1,68.7h-0.2v-0.1L34.1,68.7C34.1,68.6,34.2,68.6,34.1,68.7l0-0.2c0,0,0,0,0,0H34c-0.1,0-0.1,0-0.1-0.1v-0.1
							c0-0.1,0-0.1,0.1-0.1h0.2v0.1H34c0,0,0,0,0,0v0.1c0,0,0,0,0,0h0.1c0.1,0,0.1,0,0.1,0.1L34.1,68.7
							C34.2,68.6,34.2,68.7,34.1,68.7z"/>
						<path d="M34.4,68.5L34.4,68.5c0,0.1,0,0.1,0.1,0.1h0.2v0.1h-0.2C34.4,68.7,34.3,68.6,34.4,68.5L34.4,68.5
							c-0.1-0.2,0-0.2,0.1-0.2h0.1c0.1,0,0.1,0.1,0.1,0.1v0.1C34.7,68.5,34.4,68.5,34.4,68.5z M34.6,68.4
							C34.6,68.4,34.6,68.3,34.6,68.4l-0.1-0.1c0,0-0.1,0-0.1,0.1v0L34.6,68.4C34.6,68.4,34.6,68.4,34.6,68.4z"/>
						<path d="M34.9,68.7c-0.1,0-0.1-0.1-0.1-0.1v-0.1c0-0.1,0.1-0.1,0.1-0.1H35v-0.2h0.1v0.6C35.1,68.7,34.9,68.7,34.9,68.7z
							 M35,68.3h-0.1c0,0-0.1,0-0.1,0.1v0.1c0,0,0,0.1,0.1,0.1H35V68.3z"/>
						<path d="M35.6,68.7h-0.1v0.2h-0.1v-0.5h0.2c0.1,0,0.1,0.1,0.1,0.1v0.1C35.7,68.6,35.7,68.7,35.6,68.7z M35.7,68.4
							C35.7,68.4,35.6,68.3,35.7,68.4l-0.2-0.1v0.3h0.1c0,0,0.1,0,0.1-0.1V68.4z"/>
						<path d="M36.1,68.4L36.1,68.4l-0.1-0.1v0.3h-0.1v-0.4h0.2C36.1,68.3,36.1,68.3,36.1,68.4L36.1,68.4
							C36.1,68.4,36.1,68.4,36.1,68.4z"/>
					</g>
					<g>
						<path d="M47.5,77.8h-0.2v-0.1L47.5,77.8C47.5,77.8,47.5,77.8,47.5,77.8l0-0.2c0,0,0,0,0,0h-0.1c-0.1,0-0.1,0-0.1-0.1v-0.1
							c0-0.1,0-0.1,0.1-0.1h0.2v0.1h-0.2c0,0,0,0,0,0v0.1c0,0,0,0,0,0h0.1c0.1,0,0.1,0,0.1,0.1L47.5,77.8
							C47.6,77.8,47.5,77.8,47.5,77.8z"/>
						<path d="M47.7,77.7L47.7,77.7c0,0.1,0,0.1,0.1,0.1H48v0.1h-0.2C47.7,77.8,47.7,77.8,47.7,77.7L47.7,77.7
							c-0.1-0.2,0-0.2,0.1-0.2h0.1c0.1,0,0.1,0.1,0.1,0.1v0.1C48,77.7,47.7,77.7,47.7,77.7z M47.9,77.6
							C47.9,77.6,47.9,77.5,47.9,77.6l-0.1-0.1c0,0-0.1,0-0.1,0.1v0L47.9,77.6L47.9,77.6z"/>
						<path d="M48.2,77.8c-0.1,0-0.1-0.1-0.1-0.1v-0.1c0-0.1,0.1-0.1,0.1-0.1h0.1v-0.2h0.1v0.6C48.4,77.8,48.2,77.8,48.2,77.8z
							 M48.3,77.5h-0.1c0,0-0.1,0-0.1,0.1v0.1c0,0,0,0.1,0.1,0.1h0.1V77.5z"/>
						<path d="M48.9,77.8h-0.1V78h-0.1v-0.5h0.2c0.1,0,0.1,0.1,0.1,0.1v0.1C49.1,77.8,49,77.8,48.9,77.8z M49,77.6
							C49,77.6,49,77.5,49,77.6l-0.2-0.1v0.3h0.1c0,0,0.1,0,0.1-0.1V77.6z"/>
						<path d="M49.4,77.6L49.4,77.6l-0.1-0.1v0.3h-0.1v-0.4h0.2C49.4,77.5,49.5,77.5,49.4,77.6L49.4,77.6
							C49.5,77.6,49.4,77.6,49.4,77.6z"/>
					</g>
					<g>
						<path d="M21,59.1h-0.2v-0.1L21,59.1C21,59.1,21,59,21,59.1l0-0.2c0,0,0,0,0,0h-0.1c-0.1,0-0.1,0-0.1-0.1v-0.1
							c0-0.1,0-0.1,0.1-0.1H21v0.1h-0.2c0,0,0,0,0,0v0.1c0,0,0,0,0,0H21c0.1,0,0.1,0,0.1,0.1L21,59.1C21,59.1,21,59.1,21,59.1z"/>
						<path d="M21.2,59L21.2,59c0,0.1,0,0.1,0.1,0.1h0.2v0.1h-0.2C21.2,59.1,21.1,59.1,21.2,59L21.2,59c-0.1-0.2,0-0.2,0.1-0.2h0.1
							c0.1,0,0.1,0.1,0.1,0.1V59C21.5,59,21.2,59,21.2,59z M21.4,58.9C21.4,58.8,21.4,58.8,21.4,58.9l-0.1-0.1c0,0-0.1,0-0.1,0.1v0
							L21.4,58.9C21.4,58.9,21.4,58.9,21.4,58.9z"/>
						<path d="M21.7,59.1c-0.1,0-0.1-0.1-0.1-0.1v-0.1c0-0.1,0.1-0.1,0.1-0.1h0.1v-0.2h0.1v0.6H21.7z M21.8,58.8h-0.1
							c0,0-0.1,0-0.1,0.1V59c0,0,0,0.1,0.1,0.1h0.1C21.8,59.1,21.8,58.8,21.8,58.8z"/>
						<path d="M22.4,59.1h-0.1v0.2h-0.1v-0.5h0.2c0.1,0,0.1,0.1,0.1,0.1V59C22.6,59.1,22.5,59.1,22.4,59.1z M22.5,58.9
							C22.5,58.8,22.5,58.8,22.5,58.9l-0.2-0.1v0.3h0.1c0,0,0.1,0,0.1-0.1C22.5,59,22.5,58.9,22.5,58.9z"/>
						<path d="M22.9,58.9L22.9,58.9l-0.1-0.1v0.3h-0.1v-0.4h0.2C22.9,58.7,22.9,58.8,22.9,58.9L22.9,58.9
							C22.9,58.9,22.9,58.9,22.9,58.9z"/>
					</g>
					<g>
						<path d="M40.9,49.9C40.8,49.9,40.8,49.9,40.9,49.9l-0.2-0.4v0.4h-0.1v-0.5h0c0,0,0,0,0.1,0l0.2,0.3v-0.4h0.1L40.9,49.9
							L40.9,49.9z"/>
						<path d="M41.2,49.9L41.2,49.9c-0.1,0-0.2-0.1-0.2-0.1v-0.3h0.1v0.3C41.1,49.8,41.1,49.8,41.2,49.9L41.2,49.9
							c0-0.1,0.1-0.1,0.1-0.1v-0.3h0.1v0.3C41.3,49.8,41.3,49.9,41.2,49.9z"/>
						<path d="M41.7,49.9v-0.3c0,0,0-0.1-0.1-0.1h-0.1v0.3h-0.1v-0.4h0.2c0.1,0,0.1,0.1,0.1,0.1L41.7,49.9L41.7,49.9z"/>
						<path d="M42,49.9c-0.1,0-0.1-0.1-0.1-0.1v-0.1c0-0.1,0.1-0.1,0.1-0.1h0.1c0,0,0.1,0,0.1,0.1v0.1h-0.1v-0.1H42
							c0,0-0.1,0-0.1,0.1v0.1C41.9,49.8,41.9,49.8,42,49.9l0.2-0.1v0.1C42.1,49.9,42,49.9,42,49.9z"/>
						<path d="M42.7,49.9h-0.2v-0.1L42.7,49.9l0-0.2h-0.2c0,0-0.1,0-0.1-0.1v-0.1c0,0,0-0.1,0.1-0.1h0.2v0.1h-0.2v0.1h0.2
							c0,0,0.1,0,0.1,0.1L42.7,49.9C42.8,49.8,42.7,49.9,42.7,49.9z"/>
						<path d="M43.1,49.9L43.1,49.9c-0.1,0-0.2-0.1-0.2-0.1v-0.3h0.1v0.3C42.9,49.8,43,49.8,43.1,49.9L43.1,49.9
							c0-0.1,0.1-0.1,0.1-0.1v-0.3h0.1v0.3C43.2,49.8,43.1,49.9,43.1,49.9z"/>
					</g>
					<g>
						<path d="M40.9,68.7C40.8,68.7,40.8,68.6,40.9,68.7l-0.2-0.4v0.4h-0.1v-0.5h0c0,0,0,0,0.1,0l0.2,0.3v-0.4h0.1L40.9,68.7
							L40.9,68.7z"/>
						<path d="M41.2,68.7L41.2,68.7c-0.1,0-0.2-0.1-0.2-0.1v-0.3h0.1v0.3C41.1,68.6,41.1,68.6,41.2,68.7L41.2,68.7
							c0-0.1,0.1-0.1,0.1-0.1v-0.3h0.1v0.3C41.3,68.6,41.3,68.7,41.2,68.7z"/>
						<path d="M41.7,68.7v-0.3c0,0,0-0.1-0.1-0.1h-0.1v0.3h-0.1v-0.4h0.2c0.1,0,0.1,0.1,0.1,0.1L41.7,68.7L41.7,68.7z"/>
						<path d="M42,68.7c-0.1,0-0.1-0.1-0.1-0.1v-0.1c0-0.1,0.1-0.1,0.1-0.1h0.1c0,0,0.1,0,0.1,0.1v0.1h-0.1v-0.1H42
							c0,0-0.1,0-0.1,0.1v0.1C41.9,68.6,41.9,68.6,42,68.7l0.2-0.1v0.1L42,68.7L42,68.7z"/>
						<path d="M42.7,68.7h-0.2v-0.1L42.7,68.7l0-0.2h-0.2c0,0-0.1,0-0.1-0.1v-0.1c0,0,0-0.1,0.1-0.1h0.2v0.1h-0.2v0.1h0.2
							c0,0,0.1,0,0.1,0.1L42.7,68.7C42.8,68.6,42.7,68.7,42.7,68.7z"/>
						<path d="M43.1,68.7L43.1,68.7c-0.1,0-0.2-0.1-0.2-0.1v-0.3h0.1v0.3C42.9,68.6,43,68.6,43.1,68.7L43.1,68.7
							c0-0.1,0.1-0.1,0.1-0.1v-0.3h0.1v0.3C43.2,68.6,43.1,68.7,43.1,68.7z"/>
					</g>
					<g>
						<path d="M20.3,77.8C20.3,77.8,20.3,77.8,20.3,77.8l-0.2-0.4v0.4H20v-0.5h0c0,0,0,0,0.1,0l0.2,0.3v-0.4h0.1L20.3,77.8
							C20.4,77.8,20.3,77.8,20.3,77.8z"/>
						<path d="M20.7,77.8L20.7,77.8c-0.1,0-0.2-0.1-0.2-0.1v-0.3h0.1v0.3C20.5,77.8,20.6,77.8,20.7,77.8L20.7,77.8
							c0-0.1,0.1-0.1,0.1-0.1v-0.3h0.1v0.3C20.8,77.8,20.7,77.8,20.7,77.8z"/>
						<path d="M21.1,77.8v-0.3c0,0,0-0.1-0.1-0.1H21v0.3h-0.1v-0.4h0.2c0.1,0,0.1,0.1,0.1,0.1L21.1,77.8L21.1,77.8z"/>
						<path d="M21.4,77.8c-0.1,0-0.1-0.1-0.1-0.1v-0.1c0-0.1,0.1-0.1,0.1-0.1h0.1c0,0,0.1,0,0.1,0.1v0.1h-0.1v-0.1h-0.1
							c0,0-0.1,0-0.1,0.1v0.1C21.4,77.8,21.4,77.8,21.4,77.8l0.2-0.1v0.1C21.6,77.8,21.4,77.8,21.4,77.8z"/>
						<path d="M22.2,77.8h-0.2v-0.1L22.2,77.8l0-0.2H22c0,0-0.1,0-0.1-0.1v-0.1c0,0,0-0.1,0.1-0.1h0.2v0.1H22v0.1h0.2
							c0,0,0.1,0,0.1,0.1L22.2,77.8C22.2,77.8,22.2,77.8,22.2,77.8z"/>
						<path d="M22.5,77.8L22.5,77.8c-0.1,0-0.2-0.1-0.2-0.1v-0.3h0.1v0.3C22.4,77.8,22.4,77.8,22.5,77.8L22.5,77.8
							c0-0.1,0.1-0.1,0.1-0.1v-0.3h0.1v0.3C22.6,77.8,22.6,77.8,22.5,77.8z"/>
					</g>
					<g>
						<path d="M13.9,68.7C13.9,68.7,13.9,68.6,13.9,68.7l-0.2-0.4v0.4h-0.1v-0.5h0c0,0,0,0,0.1,0l0.2,0.3v-0.4H14L13.9,68.7
							C14,68.7,13.9,68.7,13.9,68.7z"/>
						<path d="M14.3,68.7L14.3,68.7c-0.1,0-0.2-0.1-0.2-0.1v-0.3h0.1v0.3C14.2,68.6,14.2,68.6,14.3,68.7L14.3,68.7
							c0-0.1,0.1-0.1,0.1-0.1v-0.3h0.1v0.3C14.4,68.6,14.3,68.7,14.3,68.7z"/>
						<path d="M14.7,68.7v-0.3c0,0,0-0.1-0.1-0.1h-0.1v0.3h-0.1v-0.4h0.2c0.1,0,0.1,0.1,0.1,0.1L14.7,68.7L14.7,68.7z"/>
						<path d="M15,68.7c-0.1,0-0.1-0.1-0.1-0.1v-0.1c0-0.1,0.1-0.1,0.1-0.1h0.1c0,0,0.1,0,0.1,0.1v0.1h-0.1v-0.1H15
							c0,0-0.1,0-0.1,0.1v0.1C15,68.6,15,68.6,15,68.7l0.2-0.1v0.1L15,68.7L15,68.7z"/>
						<path d="M15.8,68.7h-0.2v-0.1L15.8,68.7l0-0.2h-0.2c0,0-0.1,0-0.1-0.1v-0.1c0,0,0-0.1,0.1-0.1h0.2v0.1h-0.2v0.1h0.2
							c0,0,0.1,0,0.1,0.1L15.8,68.7C15.8,68.6,15.8,68.7,15.8,68.7z"/>
						<path d="M16.1,68.7L16.1,68.7c-0.1,0-0.2-0.1-0.2-0.1v-0.3H16v0.3C16,68.6,16,68.6,16.1,68.7L16.1,68.7c0-0.1,0.1-0.1,0.1-0.1
							v-0.3h0.1v0.3C16.3,68.6,16.2,68.7,16.1,68.7z"/>
					</g>
					<g>
						<path d="M34.2,77.8C34.2,77.8,34.2,77.8,34.2,77.8L34,77.5v0.4h-0.1v-0.5h0c0,0,0,0,0.1,0l0.2,0.3v-0.4h0.1L34.2,77.8
							L34.2,77.8z"/>
						<path d="M34.6,77.8L34.6,77.8c-0.1,0-0.2-0.1-0.2-0.1v-0.3h0.1v0.3C34.5,77.8,34.5,77.8,34.6,77.8L34.6,77.8
							c0-0.1,0.1-0.1,0.1-0.1v-0.3h0.1v0.3C34.7,77.8,34.6,77.8,34.6,77.8z"/>
						<path d="M35.1,77.8v-0.3c0,0,0-0.1-0.1-0.1h-0.1v0.3h-0.1v-0.4H35c0.1,0,0.1,0.1,0.1,0.1L35.1,77.8L35.1,77.8z"/>
						<path d="M35.4,77.8c-0.1,0-0.1-0.1-0.1-0.1v-0.1c0-0.1,0.1-0.1,0.1-0.1h0.1c0,0,0.1,0,0.1,0.1v0.1h-0.1v-0.1h-0.1
							c0,0-0.1,0-0.1,0.1v0.1C35.3,77.8,35.3,77.8,35.4,77.8l0.2-0.1v0.1C35.5,77.8,35.4,77.8,35.4,77.8z"/>
						<path d="M36.1,77.8h-0.2v-0.1L36.1,77.8l0-0.2h-0.2c0,0-0.1,0-0.1-0.1v-0.1c0,0,0-0.1,0.1-0.1h0.2v0.1h-0.2v0.1h0.2
							c0,0,0.1,0,0.1,0.1L36.1,77.8C36.1,77.8,36.1,77.8,36.1,77.8z"/>
						<path d="M36.4,77.8L36.4,77.8c-0.1,0-0.2-0.1-0.2-0.1v-0.3h0.1v0.3C36.3,77.8,36.3,77.8,36.4,77.8L36.4,77.8
							c0-0.1,0.1-0.1,0.1-0.1v-0.3h0.1v0.3C36.6,77.8,36.5,77.8,36.4,77.8z"/>
					</g>
					<g>
						<path d="M47.5,49.7L47.5,49.7c0,0.1,0,0.1,0.1,0.1h0.2v0.1h-0.2C47.5,49.9,47.4,49.8,47.5,49.7L47.5,49.7
							c-0.1-0.2,0-0.2,0.1-0.2h0.1c0.1,0,0.1,0.1,0.1,0.1v0.1H47.5z M47.7,49.6C47.7,49.6,47.7,49.5,47.7,49.6l-0.1-0.1
							c0,0-0.1,0-0.1,0.1v0L47.7,49.6C47.7,49.6,47.7,49.6,47.7,49.6z"/>
						<path d="M47.9,49.9v-0.6H48L47.9,49.9L47.9,49.9z"/>
						<path d="M48.1,49.4L48.1,49.4L48.1,49.4L48.1,49.4L48.1,49.4z M48.1,49.9v-0.4h0.1L48.1,49.9L48.1,49.9z"/>
						<path d="M48.5,49.9h-0.1c0,0-0.1,0-0.1-0.1v-0.3h-0.1v-0.1h0.1v-0.1h0.1v0.1h0.1v0.1h-0.1v0.3L48.5,49.9L48.5,49.9z"/>
						<path d="M49,49.9L49,49.9c-0.1,0-0.2-0.1-0.2-0.1v-0.3h0.1v0.3C48.9,49.8,48.9,49.8,49,49.9L49,49.9c0-0.1,0.1-0.1,0.1-0.1
							v-0.3h0.1v0.3C49.1,49.8,49,49.9,49,49.9z"/>
						<path d="M49.4,49.9h-0.1c0,0-0.1,0-0.1-0.1v-0.3h-0.1v-0.1h0.1v-0.1h0.1v0.1h0.1v0.1h-0.1v0.3L49.4,49.9
							C49.4,49.8,49.4,49.9,49.4,49.9z"/>
					</g>
					<g>
						<path d="M47.5,68.3L47.5,68.3c0,0.1,0,0.1,0.1,0.1h0.2v0.1h-0.2C47.5,68.4,47.4,68.4,47.5,68.3L47.5,68.3
							c-0.1-0.2,0-0.2,0.1-0.2h0.1c0.1,0,0.1,0.1,0.1,0.1v0.1C47.8,68.3,47.5,68.3,47.5,68.3z M47.7,68.2
							C47.7,68.1,47.7,68.1,47.7,68.2l-0.1-0.1c0,0-0.1,0-0.1,0.1v0L47.7,68.2C47.7,68.2,47.7,68.2,47.7,68.2z"/>
						<path d="M47.9,68.4v-0.6H48L47.9,68.4L47.9,68.4z"/>
						<path d="M48.1,68L48.1,68L48.1,68L48.1,68L48.1,68z M48.1,68.4v-0.4h0.1L48.1,68.4C48.1,68.4,48.1,68.4,48.1,68.4z"/>
						<path d="M48.5,68.4h-0.1c0,0-0.1,0-0.1-0.1v-0.3h-0.1v-0.1h0.1v-0.1h0.1v0.1h0.1v0.1h-0.1v0.3L48.5,68.4L48.5,68.4z"/>
						<path d="M49,68.4L49,68.4c-0.1,0-0.2-0.1-0.2-0.1v-0.3h0.1v0.3C48.9,68.3,48.9,68.4,49,68.4L49,68.4c0-0.1,0.1-0.1,0.1-0.1
							v-0.3h0.1v0.3C49.1,68.4,49,68.4,49,68.4z"/>
						<path d="M49.4,68.4h-0.1c0,0-0.1,0-0.1-0.1v-0.3h-0.1v-0.1h0.1v-0.1h0.1v0.1h0.1v0.1h-0.1v0.3L49.4,68.4
							C49.4,68.4,49.4,68.4,49.4,68.4z"/>
					</g>
					<g>
						<path d="M27.5,77.7L27.5,77.7c0,0.1,0,0.1,0.1,0.1h0.2v0.1h-0.2C27.4,77.8,27.4,77.8,27.5,77.7L27.5,77.7
							c-0.1-0.2,0-0.2,0.1-0.2h0.1c0.1,0,0.1,0.1,0.1,0.1v0.1C27.7,77.7,27.5,77.7,27.5,77.7z M27.6,77.6
							C27.6,77.6,27.6,77.5,27.6,77.6l-0.1-0.1c0,0-0.1,0-0.1,0.1v0L27.6,77.6C27.6,77.6,27.6,77.6,27.6,77.6z"/>
						<path d="M27.8,77.8v-0.6h0.1L27.8,77.8L27.8,77.8z"/>
						<path d="M28,77.4L28,77.4L28,77.4L28,77.4L28,77.4z M28,77.8v-0.4h0.1L28,77.8L28,77.8z"/>
						<path d="M28.4,77.8h-0.1c0,0-0.1,0-0.1-0.1v-0.3h-0.1v-0.1h0.1v-0.1h0.1v0.1h0.1v0.1h-0.1v0.3L28.4,77.8
							C28.4,77.8,28.4,77.8,28.4,77.8z"/>
						<path d="M28.9,77.8L28.9,77.8c-0.1,0-0.2-0.1-0.2-0.1v-0.3h0.1v0.3C28.8,77.8,28.8,77.8,28.9,77.8L28.9,77.8
							c0-0.1,0.1-0.1,0.1-0.1v-0.3H29v0.3C29,77.8,29,77.8,28.9,77.8z"/>
						<path d="M29.4,77.8h-0.1c0,0-0.1,0-0.1-0.1v-0.3h-0.1v-0.1h0.1v-0.1h0.1v0.1h0.1v0.1h-0.1v0.3L29.4,77.8
							C29.4,77.8,29.4,77.8,29.4,77.8z"/>
					</g>
				</g>
				<g>
					
						<image style="overflow:visible;opacity:0.57;enable-background:new    ;" width="28" height="31" xlink:href="48E006CA.png"  transform="matrix(0.2496 0 0 0.2496 18.3706 38.0615)">
					</image>
				</g>
				<g>
					
						<image style="overflow:visible;opacity:0.57;enable-background:new    ;" width="26" height="31" xlink:href="48E006CD.png"  transform="matrix(0.2566 0 0 0.2566 37.4503 37.9539)">
					</image>
				</g>
				<g>
					
						<image style="overflow:visible;enable-background:new    ;" width="25" height="27" xlink:href="48E006CE.png"  transform="matrix(0.2507 0 0 0.2507 18.3706 38.0647)">
					</image>
					<g>
						<rect x="18.9" y="38.5" class="st1" width="5.3" height="4.1"/>
						<g>
							<defs>
								<rect id="SVGID_1_" x="18.9" y="38.5" width="5.3" height="4.1"/>
							</defs>
							<clipPath id="SVGID_00000096026420587068100670000016647190178016604089_">
								<use xlink:href="#SVGID_1_"  style="overflow:visible;"/>
							</clipPath>
							<g style="clip-path:url(#SVGID_00000096026420587068100670000016647190178016604089_);">
								<g>
									<path d="M21.5,45c-1.5,0-2.7-1.2-2.7-2.7c0-1.5,1.2-2.7,2.7-2.7c1.5,0,2.7,1.2,2.7,2.7C24.3,43.8,23,45,21.5,45z
										 M21.5,39.6c-1.5,0-2.6,1.2-2.6,2.6c0,1.5,1.2,2.6,2.6,2.6s2.6-1.2,2.6-2.6C24.2,40.8,23,39.6,21.5,39.6z"/>
									<g>
										<polygon points="19.4,40.8 19.3,41 19.6,41.2 19.6,41 										"/>
										<path d="M20.4,40C20.4,40,20.3,40,20.4,40C20.3,40,20.3,40,20.4,40c-0.1,0.1-0.2,0.1-0.2,0.1l0.2,0.3c0,0,0,0,0.1,0
											c0,0,0,0,0,0c0,0,0,0,0,0S20.4,40,20.4,40z"/>
										<polygon points="19,42.1 19,42.3 19.5,42.3 19.5,42.1 										"/>
										<path d="M22.9,40.1C22.9,40.1,22.9,40,22.9,40.1C22.8,40,22.8,40,22.8,40c0,0,0,0,0,0l-0.1,0.3c0,0,0,0,0,0c0,0,0,0,0,0
											c0,0,0.1,0,0.1,0S22.9,40.1,22.9,40.1z"/>
										<path d="M21.6,39.7C21.6,39.7,21.6,39.7,21.6,39.7c-0.1,0-0.2,0-0.2,0l0,0.5c0,0,0,0,0.1,0c0,0,0.1,0,0.1,0L21.6,39.7z"/>
										<polygon points="23.8,41 23.7,40.8 23.4,41 23.5,41.2 										"/>
										<polygon points="24.1,42.3 24.1,42.1 23.6,42.1 23.6,42.3 										"/>
									</g>
									<path d="M20.9,43L20.9,43c0,0,0-0.1,0-0.1l2-2.4c0,0,0,0,0,0l0,0c0,0,0,0,0,0L21,43C21,43,20.9,43,20.9,43z"/>
									<g>
										<path d="M19.8,42.4h-0.1c-0.1,0-0.1-0.1-0.1-0.1v-0.2c0-0.1,0.1-0.1,0.1-0.1h0.1c0.1,0,0.1,0.1,0.1,0.1v0.2
											C19.9,42.4,19.9,42.4,19.8,42.4z M19.9,42.1C19.9,42,19.8,42,19.9,42.1L19.7,42c0,0,0,0,0,0.1v0.2c0,0,0,0.1,0,0.1h0.1
											c0,0,0,0,0-0.1V42.1z"/>
										<g>
											<path d="M21.2,40.8v-0.4h-0.1v-0.1h0.1L21.2,40.8C21.2,40.8,21.2,40.8,21.2,40.8z"/>
											<path d="M21.4,40.8L21.4,40.8l0.2-0.5h0.1L21.4,40.8z"/>
											<path d="M21.9,40.6L21.9,40.6C21.8,40.6,21.8,40.6,21.9,40.6l-0.1,0.1H22v0.1h-0.3v-0.1C21.7,40.6,21.8,40.5,21.9,40.6
												L21.9,40.6c0-0.1,0.1-0.1,0.1-0.1v0c0,0,0-0.1,0-0.1h-0.2v-0.1h0.2c0.1,0,0.1,0.1,0.1,0.1v0C22,40.5,21.9,40.6,21.9,40.6
												z"/>
										</g>
										<path d="M23.4,42.4V42h-0.1v-0.1h0.1L23.4,42.4C23.5,42.4,23.4,42.4,23.4,42.4z"/>
									</g>
								</g>
							</g>
						</g>
					</g>
					<g class="st3">
						<g>
							<defs>
								<rect id="SVGID_00000161597894088826246560000014286407209696679845_" x="18.9" y="38.5" width="5.3" height="4.1"/>
							</defs>
							<clipPath id="SVGID_00000119797971547991837800000001718482314521337023_">
								<use xlink:href="#SVGID_00000161597894088826246560000014286407209696679845_"  style="overflow:visible;"/>
							</clipPath>
							<g style="clip-path:url(#SVGID_00000119797971547991837800000001718482314521337023_);">
								<g>
									
										<image style="overflow:visible;enable-background:new    ;" width="32" height="22" xlink:href="48E006CC.png"  transform="matrix(0.241 0 0 0.241 16.4425 38.4359)">
									</image>
									
										<image style="overflow:visible;opacity:0.44;enable-background:new    ;" width="33" height="24" xlink:href="48E006CB.png"  transform="matrix(0.2483 0 0 0.2483 17.4065 36.9021)">
									</image>
									
										<image style="overflow:visible;opacity:0.6;enable-background:new    ;" width="34" height="23" xlink:href="48E006F5.png"  transform="matrix(0.241 0 0 0.241 20.7809 35.9052)">
									</image>
								</g>
							</g>
						</g>
					</g>
				</g>
				<g>
					
						<image style="overflow:visible;enable-background:new    ;" width="24" height="27" xlink:href="48E006F6.png"  transform="matrix(0.2589 0 0 0.2589 37.4382 37.9539)">
					</image>
					<g>
						<rect x="37.8" y="38.5" class="st1" width="5.3" height="4.1"/>
						<g>
							<defs>
								<rect id="SVGID_00000038390139489937604180000002585474312355999396_" x="37.8" y="38.5" width="5.3" height="4.1"/>
							</defs>
							<clipPath id="SVGID_00000082357859743316454080000009905073001525518513_">
								<use xlink:href="#SVGID_00000038390139489937604180000002585474312355999396_"  style="overflow:visible;"/>
							</clipPath>
							<g style="clip-path:url(#SVGID_00000082357859743316454080000009905073001525518513_);">
								<path d="M40.5,45c-1.5,0-2.7-1.2-2.7-2.7c0-1.5,1.2-2.7,2.7-2.7c1.5,0,2.7,1.2,2.7,2.7C43.2,43.8,42,45,40.5,45z M40.5,39.6
									c-1.5,0-2.6,1.2-2.6,2.6c0,1.5,1.2,2.6,2.6,2.6s2.6-1.2,2.6-2.6C43.1,40.8,42,39.6,40.5,39.6z"/>
								<g>
									<path d="M40.7,42.3C40.7,42.3,40.7,42.3,40.7,42.3C40.7,42.3,40.7,42.3,40.7,42.3c0,0.1,0,0.1,0,0.1c0,0,0,0.1-0.1,0.1
										c0,0-0.1,0-0.1,0c0,0,0,0,0,0c0,0,0,0,0,0c0,0,0,0-0.1,0c0,0-0.1-0.1-0.1-0.1c0,0,0-0.1,0-0.1c0-0.1,0-0.1,0-0.1
										c0,0,0.1-0.1,0.1-0.1c0,0,0.1,0,0.1,0c0,0,0.1,0,0.1,0c0,0,0.1,0.1,0.1,0.1C40.7,42.2,40.7,42.2,40.7,42.3
										C40.7,42.2,40.7,42.2,40.7,42.3C40.7,42.3,40.7,42.3,40.7,42.3z"/>
									<g>
										<polygon points="38.3,40.9 38.2,41 38.5,41.2 38.6,41 										"/>
										<path d="M39.3,40C39.3,40,39.3,40,39.3,40C39.2,40,39.2,40,39.3,40c-0.1,0.1-0.2,0.1-0.2,0.1l0.2,0.3l0.1,0c0,0,0,0,0,0
											c0,0,0,0,0,0S39.3,40,39.3,40z"/>
										<polygon points="37.9,42.1 37.9,42.3 38.4,42.3 38.4,42.1 										"/>
										<path d="M41.8,40.1C41.8,40.1,41.7,40.1,41.8,40.1C41.7,40,41.7,40,41.7,40c0,0,0,0,0,0l-0.1,0.3c0,0,0,0,0,0c0,0,0,0,0,0
											l0.1,0C41.6,40.4,41.8,40.1,41.8,40.1z"/>
										<path d="M40.5,39.7C40.5,39.7,40.5,39.7,40.5,39.7c-0.1,0-0.2,0-0.2,0l0,0.5c0,0,0,0,0.1,0c0,0,0.1,0,0.1,0L40.5,39.7z"/>
										<polygon points="42.7,41 42.6,40.9 42.3,41 42.4,41.2 										"/>
										<polygon points="43,42.3 43,42.1 42.5,42.1 42.5,42.3 										"/>
									</g>
									<path d="M41,43.1L41,43.1c0,0-0.1,0-0.1-0.1l-1.8-2.6c0,0,0,0,0,0l0,0c0,0,0,0,0,0l1.8,2.5C41,43,41,43,41,43.1z"/>
									<g>
										<g>
											<path d="M38.7,42.4h-0.2v-0.1L38.7,42.4c0-0.1,0-0.1,0-0.1v-0.1c0,0,0-0.1,0-0.1h-0.2V42h0.3V42h-0.2v0.1h0.1
												c0.1,0,0.1,0.1,0.1,0.1v0.1C38.8,42.4,38.8,42.4,38.7,42.4z"/>
											<path d="M39.1,42.4H39c-0.1,0-0.1-0.1-0.1-0.1v-0.2C38.9,42,39,42,39,42h0.1c0.1,0,0.1,0.1,0.1,0.1v0.2
												C39.2,42.4,39.2,42.4,39.1,42.4z M39.2,42.1C39.2,42.1,39.2,42,39.2,42.1L39,42c0,0,0,0,0,0.1v0.2c0,0,0,0.1,0,0.1h0.1
												c0,0,0,0,0-0.1V42.1z"/>
										</g>
										<g>
											<path d="M40,40.9v-0.4h-0.1v-0.1H40L40,40.9C40,40.9,40,40.9,40,40.9z"/>
											<path d="M40.4,40.9h-0.1c-0.1,0-0.1-0.1-0.1-0.1v-0.2c0-0.1,0.1-0.1,0.1-0.1h0.1c0.1,0,0.1,0.1,0.1,0.1v0.2
												C40.5,40.8,40.4,40.9,40.4,40.9z M40.4,40.5C40.4,40.5,40.4,40.5,40.4,40.5l-0.2-0.1c0,0,0,0,0,0.1v0.2c0,0,0,0.1,0,0.1
												h0.1c0,0,0,0,0-0.1V40.5z"/>
											<path d="M40.8,40.9h-0.1c-0.1,0-0.1-0.1-0.1-0.1v-0.2c0-0.1,0.1-0.1,0.1-0.1h0.1c0.1,0,0.1,0.1,0.1,0.1v0.2
												C40.9,40.8,40.9,40.9,40.8,40.9z M40.9,40.5C40.9,40.5,40.8,40.5,40.9,40.5l-0.2-0.1c0,0,0,0,0,0.1v0.2c0,0,0,0.1,0,0.1
												h0.1c0,0,0,0,0-0.1V40.5z"/>
										</g>
										<g>
											<path d="M41.5,42.4V42h-0.1V42h0.1L41.5,42.4C41.6,42.4,41.5,42.4,41.5,42.4z"/>
											<path d="M41.9,42.4h-0.2v-0.1L41.9,42.4c0-0.1,0-0.1,0-0.1v-0.1c0,0,0-0.1,0-0.1h-0.2V42h0.3V42h-0.2v0.1h0.1
												c0.1,0,0.1,0.1,0.1,0.1v0.1C42,42.4,41.9,42.4,41.9,42.4z"/>
											<path d="M42.3,42.4h-0.1c-0.1,0-0.1-0.1-0.1-0.1v-0.2c0-0.1,0.1-0.1,0.1-0.1h0.1c0.1,0,0.1,0.1,0.1,0.1v0.2
												C42.4,42.4,42.4,42.4,42.3,42.4z M42.3,42.1C42.3,42.1,42.3,42,42.3,42.1L42.2,42c0,0,0,0,0,0.1v0.2c0,0,0,0.1,0,0.1h0.1
												c0,0,0,0,0-0.1V42.1z"/>
										</g>
									</g>
									<g>
										<path d="M40.7,41.8h-0.2c-0.1,0-0.2-0.1-0.2-0.2v-0.2c0-0.1,0.1-0.1,0.1-0.1h0.1c0,0,0.1,0,0.1,0.1v0.1h-0.1v-0.1
											c0,0,0,0,0,0h-0.1c0,0,0,0,0,0.1v0.2c0,0.1,0,0.1,0.1,0.1L40.7,41.8C40.7,41.7,40.7,41.8,40.7,41.8z"/>
										<path d="M40.3,41.5C40.2,41.5,40.2,41.4,40.3,41.5c-0.1-0.1,0-0.2,0-0.2C40.3,41.3,40.3,41.3,40.3,41.5
											C40.3,41.4,40.3,41.5,40.3,41.5z M40.3,41.3C40.2,41.3,40.2,41.3,40.3,41.3c-0.1,0.1,0,0.1,0,0.1S40.3,41.4,40.3,41.3
											C40.3,41.3,40.3,41.3,40.3,41.3z"/>
									</g>
								</g>
							</g>
						</g>
					</g>
					<g class="st3">
						<g>
							<defs>
								<rect id="SVGID_00000153705238037164558150000008064155838921360538_" x="37.8" y="38.5" width="5.3" height="4.1"/>
							</defs>
							<clipPath id="SVGID_00000075124929715562643990000017173993930497845895_">
								<use xlink:href="#SVGID_00000153705238037164558150000008064155838921360538_"  style="overflow:visible;"/>
							</clipPath>
							<g style="clip-path:url(#SVGID_00000075124929715562643990000017173993930497845895_);">
								<g>
									
										<image style="overflow:visible;enable-background:new    ;" width="31" height="22" xlink:href="48E006F4.png"  transform="matrix(0.241 0 0 0.241 35.4832 38.4359)">
									</image>
									
										<image style="overflow:visible;opacity:0.44;enable-background:new    ;" width="33" height="24" xlink:href="48E006FA.png"  transform="matrix(0.2483 0 0 0.2483 36.4473 36.9021)">
									</image>
									
										<image style="overflow:visible;opacity:0.6;enable-background:new    ;" width="34" height="23" xlink:href="48E006FD.png"  transform="matrix(0.2481 0 0 0.2481 39.5806 35.8237)">
									</image>
								</g>
							</g>
						</g>
					</g>
				</g>
			</g>
			<g>
				<g>
					
						<image style="overflow:visible;opacity:0.57;enable-background:new    ;" width="18" height="28" xlink:href="8860C85C.png"  transform="matrix(0.2668 0 0 0.2668 78.3939 53.6203)">
					</image>
				</g>
				<g>
					
						<image style="overflow:visible;opacity:0.57;enable-background:new    ;" width="20" height="28" xlink:href="8860C85F.png"  transform="matrix(0.241 0 0 0.241 84.8929 53.9819)">
					</image>
				</g>
				<g>
					
						<image style="overflow:visible;opacity:0.57;enable-background:new    ;" width="18" height="28" xlink:href="8860C85D.png"  transform="matrix(0.2668 0 0 0.2668 91.6501 53.6203)">
					</image>
				</g>
				<g>
					
						<image style="overflow:visible;opacity:0.57;enable-background:new    ;" width="17" height="28" xlink:href="8860C853.png"  transform="matrix(0.2668 0 0 0.2668 98.5322 53.6203)">
					</image>
				</g>
				<g>
					
						<image style="overflow:visible;opacity:0.57;enable-background:new    ;" width="19" height="28" xlink:href="8860C854.png"  transform="matrix(0.241 0 0 0.241 105.1388 53.9819)">
					</image>
				</g>
				<g>
					
						<image style="overflow:visible;opacity:0.57;enable-background:new    ;" width="18" height="28" xlink:href="8860C857.png"  transform="matrix(0.2668 0 0 0.2668 111.655 53.6203)">
					</image>
				</g>
				<g>
					
						<image style="overflow:visible;opacity:0.57;enable-background:new    ;" width="19" height="30" xlink:href="8860C855.png"  transform="matrix(0.241 0 0 0.241 105.1388 62.2972)">
					</image>
				</g>
				<g>
					
						<image style="overflow:visible;opacity:0.57;enable-background:new    ;" width="17" height="30" xlink:href="8860C852.png"  transform="matrix(0.2571 0 0 0.2571 98.6151 62.0561)">
					</image>
				</g>
				<g>
					
						<image style="overflow:visible;opacity:0.57;enable-background:new    ;" width="18" height="30" xlink:href="8860C82C.png"  transform="matrix(0.2571 0 0 0.2571 91.7379 62.0561)">
					</image>
				</g>
				<g>
					
						<image style="overflow:visible;opacity:0.57;enable-background:new    ;" width="20" height="30" xlink:href="8860C82F.png"  transform="matrix(0.241 0 0 0.241 84.8929 62.2972)">
					</image>
				</g>
				<g>
					
						<image style="overflow:visible;opacity:0.57;enable-background:new    ;" width="17" height="31" xlink:href="8860C833.png"  transform="matrix(0.2488 0 0 0.2488 89.5267 70.2509)">
					</image>
				</g>
				<g>
					
						<image style="overflow:visible;opacity:0.57;enable-background:new    ;" width="19" height="31" xlink:href="8860C831.png"  transform="matrix(0.2488 0 0 0.2488 94.8215 70.2509)">
					</image>
				</g>
				<g>
					
						<image style="overflow:visible;opacity:0.57;enable-background:new    ;" width="19" height="31" xlink:href="8860C82E.png"  transform="matrix(0.2488 0 0 0.2488 100.847 70.2509)">
					</image>
				</g>
				<g>
					
						<image style="overflow:visible;opacity:0.57;enable-background:new    ;" width="18" height="28" xlink:href="8860C811.png"  transform="matrix(0.2678 0 0 0.2678 91.6415 79.7579)">
					</image>
				</g>
				<g>
					
						<image style="overflow:visible;opacity:0.57;enable-background:new    ;" width="17" height="28" xlink:href="8860C813.png"  transform="matrix(0.2755 0 0 0.2755 98.459 79.6508)">
					</image>
				</g>
				<g>
					<g>
						<rect x="91.8" y="79.8" class="st0" width="4.2" height="7"/>
						<g>
							<g>
								
									<image style="overflow:visible;enable-background:new    ;" width="11" height="12" xlink:href="8860C816.png"  transform="matrix(0.2812 0 0 0.2812 92.3847 83.0251)">
								</image>
							</g>
							
								<image style="overflow:visible;enable-background:new    ;" width="10" height="11" xlink:href="8860C817.png"  transform="matrix(0.2629 0 0 0.2629 92.6166 83.2661)">
							</image>
						</g>
						<rect x="92.1" y="80" class="st1" width="3.7" height="2.8"/>
						<g>
							<path d="M93.3,82.2H93c-0.2,0-0.3-0.2-0.3-0.3v-0.7c0-0.2,0.2-0.3,0.3-0.3h0.3c0.2,0,0.3,0.2,0.3,0.3v0.7
								C93.7,82,93.5,82.2,93.3,82.2z M93.5,81.1c0-0.1-0.1-0.2-0.1-0.2H93c-0.1,0-0.1,0.1-0.1,0.2v0.7c0,0.1,0.1,0.2,0.1,0.2h0.3
								c0.1,0,0.1-0.1,0.1-0.2V81.1z"/>
							<path d="M94.8,82.2c-0.1,0-0.1,0-0.2-0.1l-0.5-0.9v1H94v-1.4h0.1c0.1,0,0.1,0,0.2,0.1l0.5,0.9v-1h0.2v1.4
								C94.9,82.2,94.8,82.2,94.8,82.2z"/>
						</g>
					</g>
					<g>
						<rect x="98.5" y="79.8" class="st0" width="4.2" height="7"/>
						<g>
							<g>
								
									<image style="overflow:visible;enable-background:new    ;" width="14" height="12" xlink:href="8860C812.png"  transform="matrix(0.2582 0 0 0.2582 98.8722 83.1628)">
								</image>
							</g>
							
								<image style="overflow:visible;enable-background:new    ;" width="12" height="11" xlink:href="8860C81D.png"  transform="matrix(0.241 0 0 0.241 99.1132 83.3866)">
							</image>
						</g>
						<rect x="98.8" y="80" class="st1" width="3.7" height="2.8"/>
						<g>
							<path d="M100,82.2h-0.3c-0.2,0-0.3-0.2-0.3-0.3v-0.7c0-0.2,0.2-0.3,0.3-0.3h0.3c0.2,0,0.3,0.2,0.3,0.3v0.7
								C100.4,82,100.2,82.2,100,82.2z M100.2,81.1c0-0.1-0.1-0.2-0.1-0.2h-0.3c-0.1,0-0.1,0.1-0.1,0.2v0.7c0,0.1,0.1,0.2,0.1,0.2
								h0.3c0.1,0,0.1-0.1,0.1-0.2V81.1z"/>
							<path d="M101.5,82.2c-0.1,0-0.1,0-0.2-0.1l-0.5-0.9v1h-0.2v-1.4h0.1c0.1,0,0.1,0,0.2,0.1l0.5,0.9v-1h0.2v1.4
								C101.6,82.2,101.5,82.2,101.5,82.2z"/>
						</g>
					</g>
				</g>
				<g>
					<g>
						<rect x="89.3" y="70.4" class="st0" width="4.2" height="7"/>
						<g>
							<g>
								
									<image style="overflow:visible;enable-background:new    ;" width="13" height="11" xlink:href="8860C81E.png"  transform="matrix(0.2596 0 0 0.2596 89.7133 74.0053)">
								</image>
							</g>
							
								<image style="overflow:visible;enable-background:new    ;" width="12" height="9" xlink:href="8860C8FA.png"  transform="matrix(0.241 0 0 0.241 89.9543 74.2278)">
							</image>
						</g>
						<rect x="89.6" y="70.6" class="st1" width="3.7" height="2.8"/>
						<g>
							<path d="M90.5,72.8h-0.3c-0.2,0-0.3-0.2-0.3-0.3v-0.7c0-0.2,0.2-0.3,0.3-0.3h0.3c0.2,0,0.3,0.2,0.3,0.3v0.7
								C90.9,72.7,90.7,72.8,90.5,72.8z M90.7,71.8c0-0.1-0.1-0.2-0.1-0.2h-0.3c-0.1,0-0.1,0.1-0.1,0.2v0.7c0,0.1,0.1,0.2,0.1,0.2
								h0.3c0.1,0,0.1-0.1,0.1-0.2V71.8z"/>
							<path d="M91.4,72.2v0.7h-0.2v-1.4h0.8v0.2h-0.6V72h0.6v0.2H91.4z"/>
							<path d="M92.4,72.2v0.7h-0.2v-1.4H93v0.2h-0.6V72H93v0.2H92.4z"/>
						</g>
					</g>
					<g>
						<rect x="101" y="70.4" class="st0" width="4.2" height="7"/>
						<g>
							<g>
								
									<image style="overflow:visible;enable-background:new    ;" width="12" height="11" xlink:href="8860C8F9.png"  transform="matrix(0.3013 0 0 0.3013 101.2824 73.7759)">
								</image>
							</g>
							
								<image style="overflow:visible;enable-background:new    ;" width="11" height="9" xlink:href="8860C8FE.png"  transform="matrix(0.2629 0 0 0.2629 101.7645 74.1292)">
							</image>
						</g>
						<rect x="101.3" y="70.6" class="st1" width="3.7" height="2.8"/>
						<g>
							<path d="M102.2,72.8h-0.3c-0.2,0-0.3-0.2-0.3-0.3v-0.7c0-0.2,0.2-0.3,0.3-0.3h0.3c0.2,0,0.3,0.2,0.3,0.3v0.7
								C102.6,72.7,102.4,72.8,102.2,72.8z M102.4,71.8c0-0.1-0.1-0.2-0.1-0.2h-0.3c-0.1,0-0.1,0.1-0.1,0.2v0.7
								c0,0.1,0.1,0.2,0.1,0.2h0.3c0.1,0,0.1-0.1,0.1-0.2V71.8z"/>
							<path d="M103.1,72.2v0.7h-0.2v-1.4h0.8v0.2h-0.6V72h0.6v0.2H103.1z"/>
							<path d="M104.1,72.2v0.7h-0.2v-1.4h0.8v0.2h-0.6V72h0.6v0.2H104.1z"/>
						</g>
					</g>
					<g>
						<rect x="94.9" y="70.4" class="st0" width="4.2" height="7"/>
						<g>
							<g>
								
									<image style="overflow:visible;enable-background:new    ;" width="12" height="11" xlink:href="8860C8F8.png"  transform="matrix(0.3013 0 0 0.3013 95.2568 73.7759)">
								</image>
							</g>
							
								<image style="overflow:visible;enable-background:new    ;" width="11" height="9" xlink:href="8860C8FB.png"  transform="matrix(0.2848 0 0 0.2848 95.4979 74.0306)">
							</image>
						</g>
						<rect x="95.2" y="70.6" class="st1" width="3.7" height="2.8"/>
						<g>
							<path d="M96.3,72.2C96.3,72.2,96.2,72.2,96.3,72.2l-0.2-0.4v0.4H96v-0.5h0c0,0,0,0,0.1,0l0.2,0.3v-0.4h0.1L96.3,72.2
								L96.3,72.2z"/>
							<path d="M96.6,72.2L96.6,72.2c-0.1,0-0.2-0.1-0.2-0.1v-0.3h0.1V72C96.5,72.1,96.5,72.1,96.6,72.2L96.6,72.2
								c0-0.1,0.1-0.1,0.1-0.1v-0.3h0.1V72C96.8,72.1,96.7,72.2,96.6,72.2z"/>
							<path d="M97.1,72.2v-0.3c0,0,0-0.1-0.1-0.1h-0.1v0.3h-0.1v-0.4h0.2c0.1,0,0.1,0.1,0.1,0.1L97.1,72.2L97.1,72.2z"/>
							<path d="M97.4,72.2c-0.1,0-0.1-0.1-0.1-0.1v-0.1c0-0.1,0.1-0.1,0.1-0.1h0.1c0,0,0.1,0,0.1,0.1v0.1h-0.1v-0.1h-0.1
								c0,0-0.1,0-0.1,0.1V72C97.4,72.1,97.4,72.1,97.4,72.2l0.2-0.1v0.1L97.4,72.2L97.4,72.2z"/>
							<path d="M98.1,72.2h-0.2v-0.1L98.1,72.2l0-0.2H98c0,0-0.1,0-0.1-0.1v-0.1c0,0,0-0.1,0.1-0.1h0.2v0.1H98v0.1h0.2
								c0,0,0.1,0,0.1,0.1L98.1,72.2C98.2,72.1,98.2,72.2,98.1,72.2z"/>
							<path d="M98.5,72.2L98.5,72.2c-0.1,0-0.2-0.1-0.2-0.1v-0.3h0.1V72C98.4,72.1,98.4,72.1,98.5,72.2L98.5,72.2
								c0-0.1,0.1-0.1,0.1-0.1v-0.3h0.1V72C98.6,72.1,98.6,72.2,98.5,72.2z"/>
						</g>
					</g>
				</g>
				<g>
					<g>
						<rect x="78.4" y="53.6" class="st0" width="4.2" height="7"/>
						<g>
							<g>
								
									<image style="overflow:visible;enable-background:new    ;" width="14" height="12" xlink:href="8860C807.png"  transform="matrix(0.241 0 0 0.241 78.8673 57.1152)">
								</image>
							</g>
							
								<image style="overflow:visible;enable-background:new    ;" width="8" height="11" xlink:href="8860C8F6.png"  transform="matrix(0.2848 0 0 0.2848 79.4151 56.9947)">
							</image>
						</g>
						<rect x="78.7" y="53.8" class="st1" width="3.7" height="2.8"/>
						<g>
							<path d="M79.1,55.3v-0.5h0.1L79.1,55.3l0.3-0.1v0.1H79.1z"/>
							<path d="M79.6,55.3L79.6,55.3c-0.1,0-0.2-0.1-0.2-0.1v-0.1c0-0.1,0.1-0.1,0.1-0.1h0.1c0.1,0,0.1,0.1,0.1,0.1v0.1
								C79.7,55.3,79.7,55.3,79.6,55.3z M79.7,55.1C79.7,55,79.6,55,79.7,55.1L79.5,55c0,0-0.1,0-0.1,0.1v0.1c0,0,0,0.1,0.1,0.1h0.1
								c0,0,0.1,0,0.1-0.1V55.1z"/>
							<path d="M80,55.1L80,55.1L79.9,55v0.3h-0.1v-0.4H80C80.1,54.9,80.1,55,80,55.1L80,55.1C80.1,55.1,80,55.1,80,55.1z"/>
							<path d="M80.3,55.1L80.3,55.1c0,0.1,0,0.1,0.1,0.1h0.2v0.1h-0.2C80.2,55.3,80.2,55.3,80.3,55.1L80.3,55.1
								c-0.1-0.2,0-0.2,0.1-0.2h0.1c0.1,0,0.1,0.1,0.1,0.1v0.1C80.5,55.1,80.3,55.1,80.3,55.1z M80.4,55.1
								C80.4,55,80.4,55,80.4,55.1L80.3,55c0,0-0.1,0-0.1,0.1v0L80.4,55.1L80.4,55.1z"/>
							<path d="M81.1,55.1v0.3h-0.1L81.1,55.1C81.1,55,81,55,81,55h-0.1v0.3h-0.1V55h-0.2v0.3h-0.1v-0.4H81
								C81.1,54.9,81.1,55,81.1,55.1z"/>
							<path d="M81.5,54.8L81.5,54.8L81.5,54.8L81.5,54.8L81.5,54.8z M81.5,55.3v-0.4h0.1L81.5,55.3L81.5,55.3z"/>
							<path d="M81.8,55.3h-0.1v0.2h-0.1v-0.5h0.2c0.1,0,0.1,0.1,0.1,0.1v0.1C82,55.3,81.9,55.3,81.8,55.3z M81.9,55.1
								C81.9,55,81.9,55,81.9,55.1L81.7,55v0.3h0.1c0,0,0.1,0,0.1-0.1C81.9,55.2,81.9,55.1,81.9,55.1z"/>
						</g>
					</g>
					<g>
						<rect x="91.8" y="53.6" class="st0" width="4.2" height="7"/>
						<g>
							<g>
								
									<image style="overflow:visible;enable-background:new    ;" width="11" height="12" xlink:href="8860C809.png"  transform="matrix(0.3013 0 0 0.3013 92.2742 56.7536)">
								</image>
							</g>
							
								<image style="overflow:visible;enable-background:new    ;" width="10" height="11" xlink:href="8860C80A.png"  transform="matrix(0.2848 0 0 0.2848 92.507 56.9947)">
							</image>
						</g>
						<rect x="92.1" y="53.8" class="st1" width="3.7" height="2.8"/>
						<g>
							<path d="M92.8,55.3h-0.2v-0.5h0.2c0.1,0,0.2,0.1,0.2,0.2v0.1C93,55.2,92.9,55.3,92.8,55.3z M92.9,55c0-0.1-0.1-0.1-0.1-0.1
								h-0.1v0.4h0.1c0.1,0,0.1-0.1,0.1-0.1C92.9,55.1,92.9,55,92.9,55z"/>
							<path d="M93.3,55.3L93.3,55.3c-0.1,0-0.2-0.1-0.2-0.1v-0.3h0.1v0.3C93.2,55.2,93.2,55.2,93.3,55.3L93.3,55.3
								c0-0.1,0.1-0.1,0.1-0.1v-0.3h0.1v0.3C93.4,55.3,93.3,55.3,93.3,55.3z"/>
							<path d="M93.5,54.8L93.5,54.8L93.5,54.8L93.5,54.8L93.5,54.8z M93.5,55.3v-0.4h0.1L93.5,55.3L93.5,55.3z"/>
							<path d="M93.9,55.3h-0.2v-0.1L93.9,55.3l0-0.2h-0.2c0,0-0.1,0-0.1-0.1V55c0,0,0-0.1,0.1-0.1H94V55h-0.2v0.1h0.2
								c0,0,0.1,0,0.1,0.1L93.9,55.3C94,55.3,93.9,55.3,93.9,55.3z"/>
							<path d="M94.5,55.3L94.5,55.3c-0.1,0-0.2-0.1-0.2-0.1v-0.3h0.1v0.3C94.4,55.2,94.4,55.2,94.5,55.3L94.5,55.3
								c0-0.1,0.1-0.1,0.1-0.1v-0.3h0.1v0.3C94.6,55.3,94.6,55.3,94.5,55.3z"/>
							<path d="M95,55.3h-0.1c0,0-0.1,0-0.1-0.1V55h-0.1v-0.1h0.1v-0.1h0.1v0.1H95V55h-0.1v0.3L95,55.3L95,55.3z"/>
						</g>
					</g>
					<g>
						<rect x="85.1" y="53.6" class="st0" width="4.2" height="7"/>
						<g>
							<g>
								
									<image style="overflow:visible;enable-background:new    ;" width="12" height="12" xlink:href="8860C808.png"  transform="matrix(0.3013 0 0 0.3013 85.3749 56.7536)">
								</image>
							</g>
							
								<image style="overflow:visible;enable-background:new    ;" width="11" height="11" xlink:href="8860C825.png"  transform="matrix(0.2629 0 0 0.2629 85.857 57.1152)">
							</image>
						</g>
						<rect x="85.4" y="53.8" class="st1" width="3.7" height="2.8"/>
						<g>
							<path d="M86.6,55.3h-0.2v-0.1L86.6,55.3C86.6,55.2,86.6,55.2,86.6,55.3l0-0.2c0,0,0,0,0,0h-0.1c-0.1,0-0.1,0-0.1-0.1v-0.1
								c0-0.1,0-0.1,0.1-0.1h0.2v0.1h-0.2c0,0,0,0,0,0V55c0,0,0,0,0,0h0.1c0.1,0,0.1,0,0.1,0.1L86.6,55.3
								C86.7,55.3,86.6,55.3,86.6,55.3z"/>
							<path d="M86.8,55.1L86.8,55.1c0,0.1,0,0.1,0.1,0.1h0.2v0.1h-0.2C86.8,55.3,86.8,55.3,86.8,55.1L86.8,55.1
								c-0.1-0.2,0-0.2,0.1-0.2H87c0.1,0,0.1,0.1,0.1,0.1v0.1C87.1,55.1,86.8,55.1,86.8,55.1z M87,55.1C87,55,87,55,87,55.1L86.9,55
								c0,0-0.1,0-0.1,0.1v0L87,55.1L87,55.1z"/>
							<path d="M87.3,55.3c-0.1,0-0.1-0.1-0.1-0.1v-0.1c0-0.1,0.1-0.1,0.1-0.1h0.1v-0.2h0.1v0.6C87.5,55.3,87.3,55.3,87.3,55.3z
								 M87.4,55h-0.1c0,0-0.1,0-0.1,0.1v0.1c0,0,0,0.1,0.1,0.1h0.1C87.4,55.2,87.4,55,87.4,55z"/>
							<path d="M87.8,54.8L87.8,54.8L87.8,54.8L87.8,54.8L87.8,54.8z M87.8,55.3v-0.4h0.1L87.8,55.3L87.8,55.3z"/>
							<path d="M88.3,55.3v-0.3c0,0,0-0.1-0.1-0.1h-0.1v0.3H88v-0.4h0.2c0.1,0,0.1,0.1,0.1,0.1L88.3,55.3
								C88.3,55.3,88.3,55.3,88.3,55.3z"/>
						</g>
					</g>
					<g>
						<rect x="98.5" y="53.6" class="st0" width="4.2" height="7"/>
						<g>
							<g>
								
									<image style="overflow:visible;enable-background:new    ;" width="14" height="12" xlink:href="8860C82B.png"  transform="matrix(0.2582 0 0 0.2582 98.8722 57.0119)">
								</image>
							</g>
							
								<image style="overflow:visible;enable-background:new    ;" width="12" height="11" xlink:href="8860C82D.png"  transform="matrix(0.241 0 0 0.241 99.1132 57.2357)">
							</image>
						</g>
						<rect x="98.8" y="53.8" class="st1" width="3.7" height="2.8"/>
						<g>
							<path d="M99.8,55.3h-0.2v-0.1L99.8,55.3C99.8,55.2,99.8,55.2,99.8,55.3l0-0.2c0,0,0,0,0,0h-0.1c-0.1,0-0.1,0-0.1-0.1v-0.1
								c0-0.1,0-0.1,0.1-0.1h0.2v0.1h-0.2c0,0,0,0,0,0V55c0,0,0,0,0,0h0.1c0.1,0,0.1,0,0.1,0.1L99.8,55.3
								C99.9,55.3,99.8,55.3,99.8,55.3z"/>
							<path d="M100,55.1L100,55.1c0,0.1,0,0.1,0.1,0.1h0.2v0.1h-0.2C100,55.3,100,55.3,100,55.1L100,55.1c-0.1-0.2,0-0.2,0.1-0.2
								h0.1c0.1,0,0.1,0.1,0.1,0.1v0.1C100.3,55.1,100,55.1,100,55.1z M100.2,55.1C100.2,55,100.2,55,100.2,55.1l-0.1-0.1
								c0,0-0.1,0-0.1,0.1v0L100.2,55.1C100.2,55.1,100.2,55.1,100.2,55.1z"/>
							<path d="M100.5,55.3c-0.1,0-0.1-0.1-0.1-0.1v-0.1c0-0.1,0.1-0.1,0.1-0.1h0.1v-0.2h0.1v0.6C100.7,55.3,100.5,55.3,100.5,55.3z
								 M100.6,55h-0.1c0,0-0.1,0-0.1,0.1v0.1c0,0,0,0.1,0.1,0.1h0.1C100.6,55.2,100.6,55,100.6,55z"/>
							<path d="M101.2,55.3h-0.1v0.2H101v-0.5h0.2c0.1,0,0.1,0.1,0.1,0.1v0.1C101.4,55.3,101.3,55.3,101.2,55.3z M101.3,55.1
								C101.3,55,101.3,55,101.3,55.1l-0.2-0.1v0.3h0.1c0,0,0.1,0,0.1-0.1C101.3,55.2,101.3,55.1,101.3,55.1z"/>
							<path d="M101.7,55.1L101.7,55.1l-0.1-0.1v0.3h-0.1v-0.4h0.2C101.7,54.9,101.7,55,101.7,55.1L101.7,55.1
								C101.7,55.1,101.7,55.1,101.7,55.1z"/>
						</g>
					</g>
					<g>
						<rect x="105.2" y="53.6" class="st0" width="4.2" height="7"/>
						<g>
							<g>
								
									<image style="overflow:visible;enable-background:new    ;" width="12" height="12" xlink:href="8860C822.png"  transform="matrix(0.2812 0 0 0.2812 105.6208 56.8741)">
								</image>
							</g>
							
								<image style="overflow:visible;enable-background:new    ;" width="11" height="11" xlink:href="8860C823.png"  transform="matrix(0.2629 0 0 0.2629 105.8618 57.1152)">
							</image>
						</g>
						<rect x="105.5" y="53.8" class="st1" width="3.7" height="2.8"/>
						<g>
							<path d="M106.5,55.3C106.4,55.3,106.4,55.3,106.5,55.3l-0.2-0.4v0.4h-0.1v-0.5h0c0,0,0,0,0.1,0l0.2,0.3v-0.4h0.1L106.5,55.3
								L106.5,55.3z"/>
							<path d="M106.8,55.3L106.8,55.3c-0.1,0-0.2-0.1-0.2-0.1v-0.3h0.1v0.3C106.7,55.2,106.7,55.2,106.8,55.3L106.8,55.3
								c0-0.1,0.1-0.1,0.1-0.1v-0.3h0.1v0.3C106.9,55.3,106.9,55.3,106.8,55.3z"/>
							<path d="M107.3,55.3v-0.3c0,0,0-0.1-0.1-0.1h-0.1v0.3h-0.1v-0.4h0.2c0.1,0,0.1,0.1,0.1,0.1L107.3,55.3
								C107.4,55.3,107.3,55.3,107.3,55.3z"/>
							<path d="M107.6,55.3c-0.1,0-0.1-0.1-0.1-0.1v-0.1c0-0.1,0.1-0.1,0.1-0.1h0.1c0,0,0.1,0,0.1,0.1v0.1h-0.1V55h-0.1
								c0,0-0.1,0-0.1,0.1v0.1C107.5,55.2,107.6,55.2,107.6,55.3l0.2-0.1v0.1C107.8,55.3,107.6,55.3,107.6,55.3z"/>
							<path d="M108.3,55.3h-0.2v-0.1L108.3,55.3l0-0.2h-0.2c0,0-0.1,0-0.1-0.1V55c0,0,0-0.1,0.1-0.1h0.2V55h-0.2v0.1h0.2
								c0,0,0.1,0,0.1,0.1L108.3,55.3C108.4,55.3,108.4,55.3,108.3,55.3z"/>
							<path d="M108.7,55.3L108.7,55.3c-0.1,0-0.2-0.1-0.2-0.1v-0.3h0.1v0.3C108.6,55.2,108.6,55.2,108.7,55.3L108.7,55.3
								c0-0.1,0.1-0.1,0.1-0.1v-0.3h0.1v0.3C108.8,55.3,108.7,55.3,108.7,55.3z"/>
						</g>
					</g>
					<g>
						<rect x="111.9" y="53.6" class="st0" width="4.2" height="7"/>
						<g>
							<g>
								
									<image style="overflow:visible;enable-background:new    ;" width="15" height="12" xlink:href="8860C824.png"  transform="matrix(0.241 0 0 0.241 112.1284 57.1152)">
								</image>
							</g>
							
								<image style="overflow:visible;enable-background:new    ;" width="10" height="11" xlink:href="8860C827.png"  transform="matrix(0.2848 0 0 0.2848 112.6324 56.9947)">
							</image>
						</g>
						<rect x="112.2" y="53.8" class="st1" width="3.7" height="2.8"/>
						<g>
							<path d="M113.1,55.1L113.1,55.1c0,0.1,0,0.1,0.1,0.1h0.2v0.1h-0.2C113.1,55.3,113.1,55.3,113.1,55.1L113.1,55.1
								c-0.1-0.2,0-0.2,0.1-0.2h0.1c0.1,0,0.1,0.1,0.1,0.1v0.1C113.4,55.1,113.1,55.1,113.1,55.1z M113.3,55.1
								C113.3,55,113.3,55,113.3,55.1l-0.1-0.1c0,0-0.1,0-0.1,0.1v0L113.3,55.1L113.3,55.1z"/>
							<path d="M113.5,55.3v-0.6h0.1L113.5,55.3L113.5,55.3z"/>
							<path d="M113.7,54.8L113.7,54.8L113.7,54.8L113.7,54.8L113.7,54.8z M113.7,55.3v-0.4h0.1L113.7,55.3L113.7,55.3z"/>
							<path d="M114.1,55.3H114c0,0-0.1,0-0.1-0.1V55h-0.1v-0.1h0.1v-0.1h0.1v0.1h0.1V55H114v0.3L114.1,55.3
								C114.1,55.2,114.1,55.3,114.1,55.3z"/>
							<path d="M114.6,55.3L114.6,55.3c-0.1,0-0.2-0.1-0.2-0.1v-0.3h0.1v0.3C114.5,55.2,114.5,55.2,114.6,55.3L114.6,55.3
								c0-0.1,0.1-0.1,0.1-0.1v-0.3h0.1v0.3C114.7,55.3,114.7,55.3,114.6,55.3z"/>
							<path d="M115.1,55.3h-0.1c0,0-0.1,0-0.1-0.1V55h-0.1v-0.1h0.1v-0.1h0.1v0.1h0.1V55h-0.1v0.3L115.1,55.3
								C115.1,55.2,115.1,55.3,115.1,55.3z"/>
						</g>
					</g>
				</g>
				<g>
					<g>
						<rect x="85.1" y="62.3" class="st0" width="4.2" height="7"/>
						<g>
							<g>
								
									<image style="overflow:visible;enable-background:new    ;" width="12" height="15" xlink:href="8860C820.png"  transform="matrix(0.241 0 0 0.241 85.7365 65.4304)">
								</image>
							</g>
							
								<image style="overflow:visible;enable-background:new    ;" width="11" height="9" xlink:href="8860C821.png"  transform="matrix(0.2629 0 0 0.2629 85.857 65.9344)">
							</image>
						</g>
						<rect x="85.4" y="62.5" class="st1" width="3.7" height="2.8"/>
						<g>
							<path d="M85.9,64.1v-0.5H86L85.9,64.1l0.3-0.1v0.1H85.9z"/>
							<path d="M86.5,64.1L86.5,64.1c-0.1,0-0.2-0.1-0.2-0.1v-0.1c0-0.1,0.1-0.1,0.1-0.1h0.1c0.1,0,0.1,0.1,0.1,0.1V64
								C86.6,64.1,86.5,64.1,86.5,64.1z M86.5,63.9C86.5,63.8,86.5,63.8,86.5,63.9l-0.1-0.1c0,0-0.1,0-0.1,0.1V64c0,0,0,0.1,0.1,0.1
								h0.1c0,0,0.1,0,0.1-0.1V63.9z"/>
							<path d="M86.9,63.9L86.9,63.9l-0.1-0.1v0.3h-0.1v-0.4h0.2C86.9,63.8,87,63.8,86.9,63.9L86.9,63.9
								C87,63.9,86.9,63.9,86.9,63.9z"/>
							<path d="M87.1,64L87.1,64c0,0.1,0,0.1,0.1,0.1h0.2v0.1h-0.2C87.1,64.1,87,64.1,87.1,64L87.1,64c-0.1-0.2,0-0.2,0.1-0.2h0.1
								c0.1,0,0.1,0.1,0.1,0.1V64C87.4,64,87.1,64,87.1,64z M87.3,63.9C87.3,63.8,87.3,63.8,87.3,63.9l-0.1-0.1c0,0-0.1,0-0.1,0.1v0
								L87.3,63.9C87.3,63.9,87.3,63.9,87.3,63.9z"/>
							<path d="M88,63.9v0.3h-0.1L88,63.9c-0.1,0-0.1-0.1-0.1-0.1h-0.1v0.3h-0.1v-0.3h-0.2v0.3h-0.1v-0.4h0.4
								C87.9,63.8,88,63.8,88,63.9z"/>
							<path d="M88.3,63.7L88.3,63.7L88.3,63.7L88.3,63.7L88.3,63.7z M88.3,64.1v-0.4h0.1L88.3,64.1L88.3,64.1z"/>
							<path d="M88.7,64.1h-0.1v0.2h-0.1v-0.5h0.2c0.1,0,0.1,0.1,0.1,0.1V64C88.8,64.1,88.8,64.1,88.7,64.1z M88.8,63.9
								C88.8,63.8,88.7,63.8,88.8,63.9l-0.2-0.1v0.3h0.1c0,0,0.1,0,0.1-0.1C88.8,64,88.8,63.9,88.8,63.9z"/>
						</g>
					</g>
					<g>
						<rect x="91.8" y="62.3" class="st0" width="4.2" height="7"/>
						<g>
							<g>
								
									<image style="overflow:visible;enable-background:new    ;" width="11" height="15" xlink:href="8860C83B.png"  transform="matrix(0.241 0 0 0.241 92.6056 65.4304)">
								</image>
							</g>
							
								<image style="overflow:visible;enable-background:new    ;" width="10" height="9" xlink:href="8860C840.png"  transform="matrix(0.3133 0 0 0.3133 92.3646 65.7076)">
							</image>
						</g>
						<rect x="92.1" y="62.5" class="st1" width="3.7" height="2.8"/>
						<g>
							<path d="M93.1,64.1h-0.2v-0.1L93.1,64.1C93.1,64.1,93.1,64.1,93.1,64.1l0-0.2c0,0,0,0,0,0h-0.1c-0.1,0-0.1,0-0.1-0.1v-0.1
								c0-0.1,0-0.1,0.1-0.1h0.2v0.1h-0.2c0,0,0,0,0,0v0.1c0,0,0,0,0,0h0.1c0.1,0,0.1,0,0.1,0.1L93.1,64.1
								C93.2,64.1,93.1,64.1,93.1,64.1z"/>
							<path d="M93.3,64L93.3,64c0,0.1,0,0.1,0.1,0.1h0.2v0.1h-0.2C93.3,64.1,93.3,64.1,93.3,64L93.3,64c-0.1-0.2,0-0.2,0.1-0.2h0.1
								c0.1,0,0.1,0.1,0.1,0.1V64C93.6,64,93.3,64,93.3,64z M93.5,63.9C93.5,63.8,93.5,63.8,93.5,63.9l-0.1-0.1c0,0-0.1,0-0.1,0.1v0
								L93.5,63.9C93.5,63.9,93.5,63.9,93.5,63.9z"/>
							<path d="M93.8,64.1c-0.1,0-0.1-0.1-0.1-0.1v-0.1c0-0.1,0.1-0.1,0.1-0.1h0.1v-0.2H94v0.6H93.8z M93.9,63.8h-0.1
								c0,0-0.1,0-0.1,0.1V64c0,0,0,0.1,0.1,0.1h0.1C93.9,64.1,93.9,63.8,93.9,63.8z"/>
							<path d="M94.6,64.1h-0.1v0.2h-0.1v-0.5h0.2c0.1,0,0.1,0.1,0.1,0.1V64C94.7,64.1,94.6,64.1,94.6,64.1z M94.6,63.9
								C94.6,63.8,94.6,63.8,94.6,63.9l-0.2-0.1v0.3h0.1c0,0,0.1,0,0.1-0.1C94.6,64,94.6,63.9,94.6,63.9z"/>
							<path d="M95,63.9L95,63.9l-0.1-0.1v0.3h-0.1v-0.4H95C95,63.8,95.1,63.8,95,63.9L95,63.9C95.1,63.9,95,63.9,95,63.9z"/>
						</g>
					</g>
					<g>
						<rect x="98.5" y="62.3" class="st0" width="4.2" height="7"/>
						<g>
							<g>
								
									<image style="overflow:visible;enable-background:new    ;" width="14" height="15" xlink:href="8860C843.png"  transform="matrix(0.241 0 0 0.241 98.9927 65.4304)">
								</image>
							</g>
							
								<image style="overflow:visible;enable-background:new    ;" width="12" height="9" xlink:href="8860C841.png"  transform="matrix(0.241 0 0 0.241 99.1132 66.033)">
							</image>
						</g>
						<rect x="98.8" y="62.5" class="st1" width="3.7" height="2.8"/>
						<g>
							<path d="M99.8,64.1C99.8,64.1,99.7,64.1,99.8,64.1l-0.2-0.4v0.4h-0.1v-0.5h0c0,0,0,0,0.1,0l0.2,0.3v-0.4h0.1L99.8,64.1
								C99.8,64.1,99.8,64.1,99.8,64.1z"/>
							<path d="M100.1,64.1L100.1,64.1c-0.1,0-0.2-0.1-0.2-0.1v-0.3h0.1V64C100,64,100,64.1,100.1,64.1L100.1,64.1
								c0-0.1,0.1-0.1,0.1-0.1v-0.3h0.1V64C100.3,64.1,100.2,64.1,100.1,64.1z"/>
							<path d="M100.6,64.1v-0.3c0,0,0-0.1-0.1-0.1h-0.1v0.3h-0.1v-0.4h0.2c0.1,0,0.1,0.1,0.1,0.1L100.6,64.1L100.6,64.1z"/>
							<path d="M100.9,64.1c-0.1,0-0.1-0.1-0.1-0.1v-0.1c0-0.1,0.1-0.1,0.1-0.1h0.1c0,0,0.1,0,0.1,0.1v0.1H101v-0.1h-0.1
								c0,0-0.1,0-0.1,0.1V64C100.9,64,100.9,64.1,100.9,64.1l0.2-0.1v0.1C101.1,64.1,100.9,64.1,100.9,64.1z"/>
							<path d="M101.6,64.1h-0.2v-0.1L101.6,64.1l0-0.2h-0.2c0,0-0.1,0-0.1-0.1v-0.1c0,0,0-0.1,0.1-0.1h0.2v0.1h-0.2v0.1h0.2
								c0,0,0.1,0,0.1,0.1L101.6,64.1C101.7,64.1,101.7,64.1,101.6,64.1z"/>
							<path d="M102,64.1L102,64.1c-0.1,0-0.2-0.1-0.2-0.1v-0.3h0.1V64C101.9,64,101.9,64.1,102,64.1L102,64.1
								c0-0.1,0.1-0.1,0.1-0.1v-0.3h0.1V64C102.1,64.1,102.1,64.1,102,64.1z"/>
						</g>
					</g>
					<g>
						<rect x="105.2" y="62.3" class="st0" width="4.2" height="7"/>
						<g>
							<g>
								
									<image style="overflow:visible;enable-background:new    ;" width="12" height="15" xlink:href="8860C85E.png"  transform="matrix(0.241 0 0 0.241 105.8618 65.4304)">
								</image>
							</g>
							
								<image style="overflow:visible;enable-background:new    ;" width="11" height="9" xlink:href="8860C842.png"  transform="matrix(0.2629 0 0 0.2629 105.8618 65.9344)">
							</image>
						</g>
						<rect x="105.5" y="62.5" class="st1" width="3.7" height="2.8"/>
						<g>
							<path d="M106.5,63.7L106.5,63.7c0,0.1,0,0.1,0.1,0.1h0.2v0.1h-0.2C106.4,63.9,106.4,63.8,106.5,63.7L106.5,63.7
								c-0.1-0.2,0-0.2,0.1-0.2h0.1c0.1,0,0.1,0.1,0.1,0.1v0.1C106.7,63.7,106.5,63.7,106.5,63.7z M106.6,63.6
								C106.6,63.6,106.6,63.6,106.6,63.6l-0.1-0.1c0,0-0.1,0-0.1,0.1v0L106.6,63.6C106.6,63.7,106.6,63.6,106.6,63.6z"/>
							<path d="M106.8,63.9v-0.6h0.1L106.8,63.9L106.8,63.9z"/>
							<path d="M107,63.4L107,63.4L107,63.4L107,63.4L107,63.4z M107,63.9v-0.4h0.1L107,63.9L107,63.9z"/>
							<path d="M107.4,63.9h-0.1c0,0-0.1,0-0.1-0.1v-0.3h-0.1v-0.1h0.1v-0.1h0.1v0.1h0.1v0.1h-0.1v0.3L107.4,63.9
								C107.4,63.8,107.4,63.9,107.4,63.9z"/>
							<path d="M107.9,63.9L107.9,63.9c-0.1,0-0.2-0.1-0.2-0.1v-0.3h0.1v0.3C107.8,63.8,107.8,63.8,107.9,63.9L107.9,63.9
								c0-0.1,0.1-0.1,0.1-0.1v-0.3h0.1v0.3C108,63.8,108,63.9,107.9,63.9z"/>
							<path d="M108.4,63.9h-0.1c0,0-0.1,0-0.1-0.1v-0.3h-0.1v-0.1h0.1v-0.1h0.1v0.1h0.1v0.1h-0.1v0.3L108.4,63.9L108.4,63.9z"/>
						</g>
					</g>
				</g>
				<g>
					
						<image style="overflow:visible;opacity:0.57;enable-background:new    ;" width="27" height="32" xlink:href="8860C845.png"  transform="matrix(0.2486 0 0 0.2486 84.5502 35.0616)">
					</image>
				</g>
				<g>
					
						<image style="overflow:visible;opacity:0.57;enable-background:new    ;" width="25" height="32" xlink:href="8860C846.png"  transform="matrix(0.2486 0 0 0.2486 103.5985 35.0616)">
					</image>
				</g>
				<g>
					
						<image style="overflow:visible;opacity:0.57;enable-background:new    ;" width="45" height="33" xlink:href="8860C847.png"  transform="matrix(0.241 0 0 0.241 91.8825 44.4615)">
					</image>
				</g>
				<g>
					
						<image style="overflow:visible;enable-background:new    ;" width="24" height="28" xlink:href="8860C84C.png"  transform="matrix(0.2496 0 0 0.2496 84.5486 35.0616)">
					</image>
					<g>
						<rect x="84.9" y="35.5" class="st1" width="5.3" height="4.1"/>
						<g>
							<defs>
								<rect id="SVGID_00000160169083736210235980000009999037550671245753_" x="84.9" y="35.5" width="5.3" height="4.1"/>
							</defs>
							<clipPath id="SVGID_00000078726441097768145470000017103577994039087504_">
								<use xlink:href="#SVGID_00000160169083736210235980000009999037550671245753_"  style="overflow:visible;"/>
							</clipPath>
							<g style="clip-path:url(#SVGID_00000078726441097768145470000017103577994039087504_);">
								<g>
									<path d="M87.6,41.9c-1.5,0-2.7-1.2-2.7-2.7c0-1.5,1.2-2.7,2.7-2.7c1.5,0,2.7,1.2,2.7,2.7C90.3,40.7,89.1,41.9,87.6,41.9z
										 M87.6,36.6c-1.5,0-2.6,1.2-2.6,2.6c0,1.5,1.2,2.6,2.6,2.6c1.5,0,2.6-1.2,2.6-2.6C90.2,37.8,89,36.6,87.6,36.6z"/>
									<g>
										<polygon points="85.4,37.8 85.3,38 85.6,38.1 85.7,38 										"/>
										<path d="M86.4,36.9C86.4,36.9,86.4,36.9,86.4,36.9C86.3,37,86.3,37,86.4,36.9C86.3,37,86.2,37,86.2,37l0.2,0.3
											c0,0,0,0,0.1,0c0,0,0,0,0,0c0,0,0,0,0,0S86.4,36.9,86.4,36.9z"/>
										<polygon points="85,39.1 85,39.2 85.5,39.2 85.5,39.1 										"/>
										<path d="M88.9,37C88.9,37,88.9,37,88.9,37c-0.1-0.1-0.1-0.1-0.1-0.1c0,0,0,0,0,0l-0.1,0.3c0,0,0,0,0,0c0,0,0,0,0,0
											c0,0,0.1,0,0.1,0S88.9,37,88.9,37z"/>
										<path d="M87.7,36.7L87.7,36.7h-0.2l0,0.5c0,0,0,0,0.1,0l0.1,0L87.7,36.7z"/>
										<polygon points="89.8,38 89.7,37.8 89.5,38 89.6,38.1 										"/>
										<polygon points="90.2,39.2 90.2,39.1 89.6,39.1 89.6,39.2 										"/>
									</g>
									<path d="M86.9,40L86.9,40c0,0,0-0.1,0-0.1l2-2.4c0,0,0,0,0,0l0,0c0,0,0,0,0,0l-2,2.5C87,40,87,40,86.9,40z"/>
									<g>
										<path d="M85.9,39.4h-0.1c-0.1,0-0.1-0.1-0.1-0.1V39c0-0.1,0.1-0.1,0.1-0.1h0.1c0.1,0,0.1,0.1,0.1,0.1v0.2
											C86,39.3,85.9,39.4,85.9,39.4z M85.9,39C85.9,39,85.9,39,85.9,39L85.7,39c0,0,0,0,0,0.1v0.2c0,0,0,0.1,0,0.1h0.1
											c0,0,0,0,0-0.1V39z"/>
										<g>
											<path d="M87.2,37.8v-0.4h-0.1v-0.1h0.1L87.2,37.8C87.3,37.8,87.2,37.8,87.2,37.8z"/>
											<path d="M87.4,37.8L87.4,37.8l0.2-0.5h0.1C87.6,37.3,87.4,37.8,87.4,37.8z"/>
											<path d="M87.9,37.6L87.9,37.6C87.8,37.6,87.8,37.6,87.9,37.6l-0.1,0.1H88v0.1h-0.3v-0.1C87.7,37.6,87.8,37.5,87.9,37.6
												L87.9,37.6c0-0.1,0.1-0.1,0.1-0.1v0c0,0,0-0.1,0-0.1h-0.2v-0.1h0.2c0.1,0,0.1,0.1,0.1,0.1v0C88,37.5,88,37.6,87.9,37.6z"
												/>
										</g>
										<path d="M89.4,39.4V39h-0.1v-0.1h0.1L89.4,39.4L89.4,39.4z"/>
									</g>
								</g>
							</g>
						</g>
					</g>
					<g class="st3">
						<g>
							<defs>
								<rect id="SVGID_00000068641081794409594050000007384376207221819036_" x="84.9" y="35.5" width="5.3" height="4.1"/>
							</defs>
							<clipPath id="SVGID_00000014606608006646588170000008035308165658362762_">
								<use xlink:href="#SVGID_00000068641081794409594050000007384376207221819036_"  style="overflow:visible;"/>
							</clipPath>
							<g style="clip-path:url(#SVGID_00000014606608006646588170000008035308165658362762_);">
								<g>
									
										<image style="overflow:visible;enable-background:new    ;" width="31" height="23" xlink:href="8860C84D.png"  transform="matrix(0.241 0 0 0.241 82.6032 35.3026)">
									</image>
									
										<image style="overflow:visible;opacity:0.44;enable-background:new    ;" width="32" height="23" xlink:href="8860C867.png"  transform="matrix(0.2561 0 0 0.2561 83.4467 33.8038)">
									</image>
									
										<image style="overflow:visible;opacity:0.6;enable-background:new    ;" width="33" height="22" xlink:href="8860C865.png"  transform="matrix(0.2483 0 0 0.2483 86.8211 32.9326)">
									</image>
								</g>
							</g>
						</g>
					</g>
				</g>
				<g>
					
						<image style="overflow:visible;enable-background:new    ;" width="23" height="28" xlink:href="8860C86B.png"  transform="matrix(0.2496 0 0 0.2496 103.5936 35.0616)">
					</image>
					<g>
						<rect x="103.8" y="35.5" class="st1" width="5.3" height="4.1"/>
						<g>
							<defs>
								<rect id="SVGID_00000071537854011238531820000009847284977399575702_" x="103.8" y="35.5" width="5.3" height="4.1"/>
							</defs>
							<clipPath id="SVGID_00000142862344620158707630000006320659148692022151_">
								<use xlink:href="#SVGID_00000071537854011238531820000009847284977399575702_"  style="overflow:visible;"/>
							</clipPath>
							<g style="clip-path:url(#SVGID_00000142862344620158707630000006320659148692022151_);">
								<path d="M106.5,41.9c-1.5,0-2.7-1.2-2.7-2.7c0-1.5,1.2-2.7,2.7-2.7c1.5,0,2.7,1.2,2.7,2.7C109.2,40.7,108,41.9,106.5,41.9z
									 M106.5,36.6c-1.5,0-2.6,1.2-2.6,2.6c0,1.5,1.2,2.6,2.6,2.6s2.6-1.2,2.6-2.6C109.2,37.8,108,36.6,106.5,36.6z"/>
								<g>
									<path d="M106.7,39.2C106.7,39.2,106.7,39.2,106.7,39.2C106.7,39.3,106.7,39.3,106.7,39.2c0,0.1,0,0.1,0,0.1
										c0,0,0,0.1-0.1,0.1c0,0-0.1,0-0.1,0c0,0,0,0,0,0c0,0,0,0,0,0c0,0,0,0-0.1,0c0,0-0.1-0.1-0.1-0.1c0,0,0-0.1,0-0.1
										c0-0.1,0-0.1,0-0.1c0,0,0.1-0.1,0.1-0.1c0,0,0.1,0,0.1,0c0,0,0.1,0,0.1,0c0,0,0.1,0.1,0.1,0.1
										C106.7,39.1,106.7,39.1,106.7,39.2C106.7,39.2,106.7,39.2,106.7,39.2C106.7,39.2,106.7,39.2,106.7,39.2z"/>
									<g>
										<polygon points="104.4,37.8 104.3,38 104.5,38.1 104.6,38 										"/>
										<path d="M105.3,37C105.3,37,105.3,37,105.3,37C105.3,37,105.3,37,105.3,37c-0.1,0.1-0.2,0.1-0.2,0.1l0.2,0.3l0.1,0
											c0,0,0,0,0,0c0,0,0,0,0,0S105.3,37,105.3,37z"/>
										<polygon points="103.9,39.1 103.9,39.2 104.5,39.2 104.5,39.1 										"/>
										<path d="M107.8,37.1C107.8,37.1,107.8,37,107.8,37.1c-0.1-0.1-0.1-0.1-0.1-0.1c0,0,0,0,0,0l-0.1,0.3c0,0,0,0,0,0
											c0,0,0,0,0,0l0.1,0C107.6,37.3,107.8,37.1,107.8,37.1z"/>
										<path d="M106.6,36.7C106.6,36.7,106.5,36.7,106.6,36.7c-0.1,0-0.2,0-0.2,0l0,0.5c0,0,0,0,0.1,0l0.1,0L106.6,36.7z"/>
										<polygon points="108.7,38 108.6,37.8 108.4,38 108.4,38.1 										"/>
										<polygon points="109,39.2 109,39.1 108.5,39.1 108.5,39.2 										"/>
									</g>
									<path d="M107,40L107,40c0,0-0.1,0-0.1-0.1l-1.8-2.6c0,0,0,0,0,0l0,0c0,0,0,0,0,0l1.8,2.5C107.1,39.9,107.1,40,107,40z"/>
									<g>
										<g>
											<path d="M104.7,39.4h-0.2v-0.1L104.7,39.4c0-0.1,0-0.1,0-0.1v-0.1c0,0,0-0.1,0-0.1h-0.2v-0.2h0.3V39h-0.2v0.1h0.1
												c0.1,0,0.1,0.1,0.1,0.1v0.1C104.8,39.4,104.8,39.4,104.7,39.4z"/>
											<path d="M105.2,39.4h-0.1c-0.1,0-0.1-0.1-0.1-0.1v-0.2c0-0.1,0.1-0.1,0.1-0.1h0.1c0.1,0,0.1,0.1,0.1,0.1v0.2
												C105.3,39.4,105.2,39.4,105.2,39.4z M105.2,39.1C105.2,39,105.2,39,105.2,39.1l-0.2-0.1c0,0,0,0,0,0.1v0.2
												c0,0,0,0.1,0,0.1h0.1c0,0,0,0,0-0.1V39.1z"/>
										</g>
										<g>
											<path d="M106,37.8v-0.4h-0.1v-0.1h0.1L106,37.8C106.1,37.8,106,37.8,106,37.8z"/>
											<path d="M106.4,37.8h-0.1c-0.1,0-0.1-0.1-0.1-0.1v-0.2c0-0.1,0.1-0.1,0.1-0.1h0.1c0.1,0,0.1,0.1,0.1,0.1v0.2
												C106.5,37.8,106.5,37.8,106.4,37.8z M106.4,37.5C106.4,37.4,106.4,37.4,106.4,37.5l-0.2-0.1c0,0,0,0,0,0.1v0.2
												c0,0,0,0.1,0,0.1h0.1c0,0,0,0,0-0.1V37.5z"/>
											<path d="M106.8,37.8h-0.1c-0.1,0-0.1-0.1-0.1-0.1v-0.2c0-0.1,0.1-0.1,0.1-0.1h0.1c0.1,0,0.1,0.1,0.1,0.1v0.2
												C107,37.8,106.9,37.8,106.8,37.8z M106.9,37.5C106.9,37.4,106.9,37.4,106.9,37.5l-0.2-0.1c0,0,0,0,0,0.1v0.2
												c0,0,0,0.1,0,0.1h0.1c0,0,0,0,0-0.1V37.5z"/>
										</g>
										<g>
											<path d="M107.5,39.4V39h-0.1v-0.1h0.1L107.5,39.4L107.5,39.4z"/>
											<path d="M107.9,39.4h-0.2v-0.1L107.9,39.4c0-0.1,0-0.1,0-0.1v-0.1c0,0,0-0.1,0-0.1h-0.2v-0.2h0.3V39h-0.2v0.1h0.1
												c0.1,0,0.1,0.1,0.1,0.1v0.1C108,39.4,108,39.4,107.9,39.4z"/>
											<path d="M108.3,39.4h-0.1c-0.1,0-0.1-0.1-0.1-0.1v-0.2c0-0.1,0.1-0.1,0.1-0.1h0.1c0.1,0,0.1,0.1,0.1,0.1v0.2
												C108.4,39.4,108.4,39.4,108.3,39.4z M108.4,39.1C108.4,39,108.4,39,108.4,39.1l-0.2-0.1c0,0,0,0,0,0.1v0.2
												c0,0,0,0.1,0,0.1h0.1c0,0,0,0,0-0.1V39.1z"/>
										</g>
									</g>
									<g>
										<path d="M106.7,38.7h-0.2c-0.1,0-0.2-0.1-0.2-0.2v-0.2c0-0.1,0.1-0.1,0.1-0.1h0.1c0,0,0.1,0,0.1,0.1v0.1h-0.1v-0.1
											c0,0,0,0,0,0h-0.1c0,0,0,0,0,0.1v0.2c0,0.1,0,0.1,0.1,0.1L106.7,38.7C106.7,38.7,106.7,38.7,106.7,38.7z"/>
										<path d="M106.3,38.4C106.2,38.4,106.2,38.4,106.3,38.4c-0.1-0.1,0-0.2,0-0.2S106.4,38.3,106.3,38.4
											C106.4,38.4,106.3,38.4,106.3,38.4z M106.3,38.3C106.3,38.3,106.2,38.3,106.3,38.3c-0.1,0.1,0,0.1,0,0.1
											C106.3,38.4,106.3,38.4,106.3,38.3C106.3,38.3,106.3,38.3,106.3,38.3z"/>
									</g>
								</g>
							</g>
						</g>
					</g>
					<g class="st3">
						<g>
							<defs>
								<rect id="SVGID_00000103258312111172215050000017625143699570097314_" x="103.8" y="35.5" width="5.3" height="4.1"/>
							</defs>
							<clipPath id="SVGID_00000169527860387733411810000007568425678811224761_">
								<use xlink:href="#SVGID_00000103258312111172215050000017625143699570097314_"  style="overflow:visible;"/>
							</clipPath>
							<g style="clip-path:url(#SVGID_00000169527860387733411810000007568425678811224761_);">
								<g>
									
										<image style="overflow:visible;enable-background:new    ;" width="30" height="23" xlink:href="8860C86D.png"  transform="matrix(0.241 0 0 0.241 101.6439 35.3026)">
									</image>
									
										<image style="overflow:visible;opacity:0.44;enable-background:new    ;" width="32" height="23" xlink:href="8860C86F.png"  transform="matrix(0.2636 0 0 0.2636 102.2465 33.7171)">
									</image>
									
										<image style="overflow:visible;opacity:0.6;enable-background:new    ;" width="33" height="22" xlink:href="8860C86A.png"  transform="matrix(0.2556 0 0 0.2556 105.6208 32.8522)">
									</image>
								</g>
							</g>
						</g>
					</g>
				</g>
				<g>
					<g>
						<path class="st11" d="M93,44.5h8c0.6,0,1.1,0.5,1.1,1.1v4.3c0,0.6-0.5,1.1-1.1,1.1h-8c-0.6,0-1.1-0.5-1.1-1.1v-4.3
							C92,45,92.5,44.5,93,44.5z"/>
						<path class="st12" d="M93,44.6h8c0.5,0,1,0.4,1,1v4.3c0,0.5-0.4,1-1,1h-8c-0.5,0-1-0.4-1-1v-4.3C92.1,45,92.5,44.6,93,44.6z"
							/>
					</g>
					<g>
						
							<linearGradient id="SVGID_00000136398723699784622560000017005358367992241312_" gradientUnits="userSpaceOnUse" x1="96.7398" y1="99.5583" x2="97.3521" y2="96.9061" gradientTransform="matrix(1 0 0 -1 0 144)">
							<stop  offset="0" style="stop-color:#000000"/>
							<stop  offset="0.1552" style="stop-color:#030303"/>
							<stop  offset="0.3046" style="stop-color:#0F0F0F"/>
							<stop  offset="0.4517" style="stop-color:#222222"/>
							<stop  offset="0.5975" style="stop-color:#3E3E3E"/>
							<stop  offset="0.7422" style="stop-color:#616161"/>
							<stop  offset="0.8842" style="stop-color:#8B8B8B"/>
							<stop  offset="1" style="stop-color:#B4B4B4"/>
						</linearGradient>
						<path style="fill:url(#SVGID_00000136398723699784622560000017005358367992241312_);" d="M99.9,46.5h-5.8
							c-0.1,0-0.3-0.1-0.3-0.3l0-0.9c0-0.1,0-0.1,0.1-0.2c0.1,0,0.1-0.1,0.2-0.1h5.7c0.1,0,0.1,0,0.2,0.1c0.1,0,0.1,0.1,0.1,0.2
							l0,0.9C100.2,46.4,100.1,46.5,99.9,46.5L99.9,46.5z M94.2,45.2C94.2,45.2,94.1,45.2,94.2,45.2c-0.1,0-0.1,0.1-0.1,0.1l0,0.9
							c0,0.1,0,0.1,0.1,0.1h5.7c0.1,0,0.1,0,0.1-0.1l0-0.9c0,0,0-0.1,0-0.1c0,0,0,0-0.1,0C99.9,45.2,94.2,45.2,94.2,45.2z"/>
						<path class="st14" d="M99.9,46.4h-5.7c-0.1,0-0.2-0.1-0.2-0.2l0-0.9c0-0.1,0.1-0.2,0.2-0.2h5.7c0.1,0,0.2,0.1,0.2,0.2l0,0.9
							C100.1,46.3,100,46.4,99.9,46.4L99.9,46.4z"/>
					</g>
				</g>
			</g>
		</g>
	</g>
</g>
</svg>
