<?xml version="1.0" encoding="utf-8"?>
<!-- Generator: Adobe Illustrator 27.3.1, SVG Export Plug-In . SVG Version: 6.00 Build 0)  -->
<svg version="1.1" id="Layer_1" xmlns="http://www.w3.org/2000/svg" xmlns:xlink="http://www.w3.org/1999/xlink" x="0px" y="0px"
	 viewBox="0 0 516 316.5" style="enable-background:new 0 0 516 316.5;" xml:space="preserve">
<style type="text/css">
	.st0{fill:#D3D3D3;stroke:#D3D3D3;stroke-width:4.0327;stroke-linecap:round;stroke-linejoin:round;stroke-miterlimit:10;}
	.st1{fill:#D3D3D3;}
	.st2{clip-path:url(#SVGID_00000137847553833715965250000010925862420600321664_);fill:#D3D3D3;}
</style>
<line class="st0" x1="431.6" y1="219.2" x2="88" y2="219.2"/>
<path class="st1" d="M156,293.6c3.3,0,6.4-0.5,9.1-1.5c2.8-1,5.2-2.4,7.2-4.3c2.1-1.8,3.6-4.2,4.8-6.9c1.1-2.7,1.7-5.7,1.7-9.1
	c0-3.3-0.6-6.4-1.7-9c-1.2-2.7-2.8-4.9-4.8-6.8c-2.1-1.8-4.3-3.3-7-4.3s-5.5-1.5-8.5-1.5h-18.7c-2.3,0-4.2,0.7-5.4,2.1
	c-1.2,1.4-1.8,3.2-1.8,5.1v53.5c0,1.4,0.5,2.5,1.4,3.5c1,1,2.2,1.6,3.5,1.6s2.5-0.6,3.4-1.6c1-1,1.5-2.2,1.5-3.5v-17.4L156,293.6
	L156,293.6z M140.7,283.6V260h15.5c4.3,0,7.4,1.1,9.4,3.3c1.9,2.2,3,5,3,8.6c0,3.4-1,6.4-3,8.5c-2.1,2.2-5.3,3.3-9.8,3.3
	L140.7,283.6L140.7,283.6L140.7,283.6z"/>
<path class="st1" d="M217.6,277.8c2.1,1.9,3.2,4.6,3.3,7.6c0,0.8,0,1.6,0.1,2.5c0,0.9,0,1.8,0,2.9c0,1,0,1.9,0,2.9s0,1.8-0.1,2.5
	c-0.2,3.3-1.5,5.8-3.5,7.9c-2.2,1.9-4.8,3-8.2,3s-6-1-8.1-3c-2.1-1.9-3.3-4.6-3.5-7.9c-0.1-0.7-0.1-1.5-0.1-2.5
	c-0.1-0.9-0.1-1.8-0.1-2.9c0-1,0-1.9,0.1-2.9c0-0.9,0-1.8,0.1-2.5c0.2-3.1,1.4-5.7,3.4-7.6c1.9-1.9,4.8-2.9,8.2-2.9
	C212.8,275,215.5,275.9,217.6,277.8z M201,266.7c-2.5,0.9-4.8,2.2-6.6,3.8c-1.9,1.7-3.4,3.7-4.7,5.9c-1.2,2.3-1.8,4.8-2.1,7.6
	c-0.1,0.9-0.1,1.9-0.1,3.1c-0.1,1.2-0.1,2.3-0.1,3.5c0,1.2,0,2.3,0.1,3.5c0,1.2,0,2.2,0.1,3.2c0.2,2.7,0.8,5.2,2.1,7.5
	c1.2,2.3,2.7,4.3,4.7,6c1.8,1.8,4.1,3.1,6.6,4c2.6,1,5.3,1.5,8.3,1.5c3,0,5.7-0.5,8.3-1.5c2.5-0.9,4.8-2.2,6.6-4
	c1.9-1.7,3.4-3.8,4.6-6c1.2-2.3,1.8-4.8,2.1-7.5c0.1-0.9,0.1-1.9,0.2-3.2c0-1.2,0-2.3,0-3.5c0-1.2,0-2.3,0-3.5
	c-0.1-1.1-0.1-2.2-0.2-3.1c-0.2-2.8-0.8-5.3-2.1-7.6c-1.1-2.3-2.6-4.3-4.6-5.9c-1.8-1.6-4.1-2.9-6.6-3.8c-2.6-0.8-5.3-1.3-8.3-1.3
	C206.4,265.4,203.6,265.9,201,266.7z"/>
<path class="st1" d="M281.6,309.4c0.7,2.5,1.7,4.3,3.2,5.4c1.5,1.2,3.3,1.8,5.2,1.8c1.9,0,3.8-0.6,5.2-1.8c1.4-1.1,2.5-2.9,3.2-5.4
	l9.9-36.7c0.5-1.8,0.2-3.3-0.6-4.8c-0.9-1.3-2.3-1.9-4.1-1.9c-1.2,0-2.2,0.3-3.1,1.1c-0.8,0.8-1.5,1.8-1.8,3.1L290,305
	c-0.1,0.2-0.2,0.3-0.5,0.3c-0.2,0-0.4-0.1-0.5-0.3l-8-32.1c-0.6-2.2-1.5-4-2.9-5.2c-1.4-1.2-3.1-1.8-5-1.8c-1.8,0-3.5,0.6-4.9,1.8
	c-1.4,1.2-2.4,3-3,5.2l-8,32.1c-0.1,0.2-0.2,0.3-0.5,0.3c-0.2,0-0.4-0.1-0.5-0.3l-8.6-35.1c-0.3-1.4-1-2.5-1.9-3.2s-1.9-0.9-3-0.9
	c-0.8,0-1.6,0.2-2.2,0.6c-0.7,0.4-1.2,0.8-1.7,1.4c-0.5,0.7-0.8,1.3-0.8,2.2s-0.1,1.7,0.2,2.6l9.8,36.8c0.7,2.4,1.8,4.2,3.3,5.3
	c1.5,1.2,3.2,1.8,5.1,1.8c2.1,0,3.8-0.6,5.3-1.8c1.4-1.1,2.4-3,3.1-5.5l8-30.8c0-0.2,0.2-0.3,0.5-0.3c0.2,0,0.4,0.1,0.5,0.3
	L281.6,309.4z"/>
<path class="st1" d="M325.3,287.1c-0.1-3.9,0.8-7.1,2.8-9.4c1.9-2.3,4.8-3.4,8.9-3.4c3.7,0,6.4,1,8.5,3.2c1.9,2.2,2.9,5,2.6,8.6
	c-0.1,0.8-0.5,1.1-1.1,1.1L325.3,287.1L325.3,287.1z M357.7,286.3c0-3.1-0.5-5.9-1.5-8.6c-1-2.5-2.4-4.8-4.2-6.6
	c-1.8-1.8-4-3.2-6.5-4.2s-5.4-1.5-8.5-1.5c-2.9,0-5.6,0.5-8.1,1.3c-2.5,0.9-4.8,2.2-6.6,3.9c-1.8,1.8-3.3,3.8-4.5,6.3
	c-1.1,2.4-1.8,5.1-2.1,8.1c-0.1,0.8-0.1,1.6-0.1,2.5c-0.1,1-0.1,1.9-0.1,3c0,1,0,2.2,0.1,3.2c0,1,0,2.1,0.1,2.9
	c0.2,2.9,0.8,5.6,1.9,8c1,2.5,2.5,4.6,4.3,6.4s4.1,3.2,6.7,4.2c2.5,1,5.4,1.5,8.7,1.5c1.4,0,2.8-0.1,4.3-0.2
	c1.4-0.1,2.8-0.3,4.2-0.7c1.3-0.2,2.5-0.6,3.8-1c1.1-0.3,2.1-0.8,2.9-1.3c1-0.7,1.8-1.3,2.1-2.1c0.2-0.7,0.5-1.4,0.5-2.2
	c0-0.7-0.2-1.3-0.5-1.9c-0.2-0.7-0.8-1.1-1.3-1.6c-0.7-0.4-1.3-0.7-2.2-0.8s-1.8,0.1-2.8,0.5c-1.8,0.7-3.7,1.2-5.4,1.6
	c-1.8,0.5-3.6,0.7-5.3,0.7c-3.7,0-6.6-1-8.9-3c-2.3-1.9-3.4-4.8-3.4-8.6V295h26.4c2.1,0,3.5-0.6,4.6-1.7c0.9-1.1,1.4-2.5,1.4-4.3
	v-2.8L357.7,286.3L357.7,286.3z"/>
<path class="st1" d="M389.4,265.7c-1.6-0.2-3.2-0.2-4.8-0.2c-5.1,0-8.9,1.4-11.6,4.1c-2.7,2.8-4,6.5-4,11.3v30.3
	c0,1.4,0.5,2.6,1.5,3.5c0.9,0.9,2.1,1.4,3.3,1.4c1.4,0,2.6-0.5,3.7-1.4c0.9-0.9,1.4-2.2,1.4-3.5v-28.7c0-2.6,0.6-4.5,1.6-5.7
	c1-1.1,2.7-1.7,4.8-1.8c1.6-0.1,2.9,0.1,4,0.3s2.2,0.5,3,0.5c1.6,0,2.8-0.6,3.5-1.6c0.8-1,1.1-2.1,1.1-3.1c0-1.1-0.2-2.1-0.8-2.9
	c-0.6-0.8-1.6-1.3-3-1.8C392,266.2,390.9,265.9,389.4,265.7z"/>
<g>
	<g>
		<g>
			<g>
				<defs>
					<path id="SVGID_1_" d="M489.6,32.5L489.6,32.5c7.5,0,13.4-6.4,13.4-13.9s-5.9-13.4-13.4-13.4c-8,0-13.7,5.9-13.7,13.4
						C475.9,26.1,481.5,32.5,489.6,32.5 M206,140.5L206,140.5c-4.6,3.4-16.4,8.3-26.3,8.3c-17.6,0-27-9.1-28.6-26.7
						c-0.7-7.1-0.4-20.5,0-26.7c0.9-16.7,9.1-25.4,26.5-25.4c11.9,0,23.5,4.1,28.1,7.1v63.5L206,140.5L206,140.5L206,140.5z
						 M218.4,5.9L218.4,5.9c-6.6,0-12.4,5.5-12.4,12.4v34.2c-7.5-3.4-18.9-6.6-29.9-6.6c-29.7,0-46.6,17.6-49.1,46.2
						c-0.7,8.3-0.7,24.5,0,32.6c2.5,28.1,21.2,47.3,52.3,47.3c22.1,0,40.7-9.9,46.6-14.2c3.7-2.5,4.3-5,4.3-9.1V18.5
						C230.5,11.7,225.2,5.9,218.4,5.9z M411,46.2L411,46.2c-24,0-40.7,7.5-47.5,12.6c-3.4,2.2-4.8,4.8-4.8,9.4v90
						c0,6.9,5.7,12.4,12.1,12.4c6.9,0,12.1-5.5,12.1-12.4V75.9c5.3-3.2,16-6.4,27.4-6.4c14.2,0,26.5,7.8,26.5,26.1v62.6
						c0,6.9,5.7,12.4,12.1,12.4c7.1,0,12.1-5.5,12.1-12.4V94.4C461.2,63.6,444.3,46.2,411,46.2z M319.1,143.7L319.1,143.7
						c-2.2,1.8-10.9,7.1-26.7,7.1c-16.2,0-25.1-6.9-25.1-19.2c0-10.9,10-17.4,24-17.4c10.3,0,17.8,1.3,27.9,3.9L319.1,143.7
						L319.1,143.7z M294.9,46.2L294.9,46.2c-13.9,0-28.3,3.7-35,6.8c-6.2,2.8-8,7.4-8,11.2c0,7.1,6.6,12.6,16.7,9.1
						c6.4-2.2,15.5-5,24.9-5c17.8,0,25.5,6.6,25.5,22.1V98C308.6,95.5,300.5,94,290,94c-32.2,0-46.6,18-46.6,37.9
						c0,22.4,15.5,39.7,47.1,39.7c23.8,0,41.3-8.4,47.8-12.8c3.4-2.2,4.3-4.8,4.3-8.9V90.4C342.4,59.6,324.4,46.2,294.9,46.2z
						 M489.6,48.3L489.6,48.3c-6.8,0-12.4,5.5-12.4,12.4v98c0,6.9,5.7,12.4,12.4,12.4c6.8,0,12.1-5.5,12.1-12.4V60.5
						C501.9,53.7,496.4,48.3,489.6,48.3z M89,143.7L89,143.7c-2.2,1.8-10.8,7.1-26.7,7.1c-16.2,0-25.1-6.9-25.1-19.2
						c0-10.9,10-17.4,24-17.4c10.3,0,17.8,1.3,27.9,3.9V143.7z M65.1,46.2c-13.9,0-28.3,3.7-35,6.8c-6.2,2.8-8,7.4-8,11.2
						c0,7.1,6.6,12.6,16.7,9.1c6.4-2.2,15.5-5,24.9-5c18,0,25.5,6.6,25.5,22.1V98C78.7,95.5,70.7,94,60,94
						c-32,0.2-46.6,18.2-46.6,38.1c0,22.4,15.5,39.7,47.1,39.7c23.8,0,41.3-8.4,47.8-12.8c3.4-2.2,4.3-4.8,4.3-8.9V90.5
						C112.6,59.6,94.3,46.2,65.1,46.2z"/>
				</defs>
				<use xlink:href="#SVGID_1_"  style="overflow:visible;fill:#D3D3D3;"/>
				<clipPath id="SVGID_00000016038597234479828800000006652537215511421877_">
					<use xlink:href="#SVGID_1_"  style="overflow:visible;"/>
				</clipPath>
				<polygon style="clip-path:url(#SVGID_00000016038597234479828800000006652537215511421877_);fill:#D3D3D3;" points="17.1,214.6 
					517.7,170.9 499.4,-37.7 -1,6.2 				"/>
			</g>
		</g>
	</g>
</g>
</svg>
