<?xml version="1.0" encoding="utf-8"?>
<!-- Generator: Adobe Illustrator 27.3.1, SVG Export Plug-In . SVG Version: 6.00 Build 0)  -->
<svg version="1.1" id="Layer_1" xmlns="http://www.w3.org/2000/svg" xmlns:xlink="http://www.w3.org/1999/xlink" x="0px" y="0px"
	 viewBox="0 0 233.4 278.9" style="enable-background:new 0 0 233.4 278.9;" xml:space="preserve">
<style type="text/css">
	.st0{fill:#D3D3D3;}
</style>
<path class="st0" d="M106.3,0.5c3.5-0.2,7-0.2,10.5-0.5c4.2,0.4,8.5,0.1,12.7,0.8c16.3,1.8,32.2,7,46.3,15.3
	c7.4,4.2,14.1,9.5,20.5,15.2c2.7,2.8,5.7,5.4,8.1,8.4c6,6.5,11,14,15.3,21.7c1.2,2.5,2.7,4.8,3.5,7.4c3,6.1,4.9,12.6,6.9,19.1
	c1.5,6.3,2.6,12.7,3.2,19.1c0.2,6.2,0.2,12.4,0,18.6c-0.7,6.7-1.8,13.4-3.4,20c-1.2,3.3-1.9,6.7-3.2,9.9
	c-6.3,17.6-17.2,33.7-31,46.3c-2.8,2.7-5.8,5-8.9,7.5c-3.5,2.2-6.5,4.9-10.3,6.7c-6.5,4.1-13.7,7.2-20.9,9.9c-3.2,0.9-6.2,2-9.2,2.9
	c-7.1,1.5-14.2,3.2-21.5,3.3c-4.6,0.6-9.1,0.5-13.5,0.2c-2.6-0.5-5.1-0.1-7.7-0.7c-1.6-0.2-3.3-0.2-4.9-0.6
	c-5-1.2-10.2-1.8-15.1-3.4c-5.4-1.8-10.9-3.5-16-6.2c-4.3-1.8-8.3-4.3-12.4-6.5c-6.7-4.4-13.3-9.1-19-14.7
	c-13.7-12.8-24.2-29.1-30.1-46.8c-0.7-1.6-1.3-3.3-1.5-5c-3.5-12-5-24.6-4.6-37.2c0-6,1.2-12,2.1-18c2.6-11.6,6.5-23,12.5-33.3
	c1.2-2.6,3-4.8,4.4-7.4c6.9-9.8,14.7-19.1,24.3-26.4c4.3-3.6,9-6.8,13.8-9.7c2.2-0.9,4.1-2.6,6.4-3.4c7.4-3.7,15.1-6.9,23.1-8.9
	C93,2.2,99.7,1.4,106.3,0.5 M110.5,5.1C103,5.6,95.6,6.9,88.2,8.6c-6,1.8-11.9,3.6-17.5,6.3C44.9,26.5,23.9,48.1,13.3,74.2
	c-3.6,8.3-5.7,17-7.2,25.9c-1.8,13-1.6,26.3,1.3,39c6.3,31.3,27.2,59.1,55.1,74.3c25.3,14.2,56.5,17.9,84.5,9.9
	c25.9-7.1,48.9-24,63.6-46.6c9.1-13.9,15.1-29.8,17.2-46.2c3.2-23.6-1.6-48.3-13.4-69c-9.5-16.8-23.3-30.9-39.9-40.9
	c-12.7-7.5-27-12.6-41.6-14.6C125.4,4.9,118,4.9,110.5,5.1z"/>
<path class="st0" d="M105.8,9.9c23.5-2.6,47.7,2.9,67.8,15.4c20.3,12.5,36.3,32,44.5,54.4c3.4,8.9,5.3,18.3,6.2,27.8
	c-0.1,3.6,0.7,7.2,0.4,10.7c-0.4,2.8-0.4,5.6-0.4,8.4c-0.4,4.8-1.1,9.5-2.1,14.1c-0.7,3.2-2,6.1-3,9.1c-8.9,27-28.9,50-54.4,62.4
	c-10.7,5.4-22.5,8.9-34.4,10.4c-2.3,0.5-4.7,0.2-7,0.7c-17.4,0.9-34.9-2.3-50.8-9.5c-11.6-5.4-22.3-12.6-31.3-21.6
	c-16.6-16.2-27.7-38.3-30.8-61.4c-1.2-9.3-1.3-18.8-0.1-28.1c0.4-4.9,1.8-9.7,2.8-14.5c6.9-25.6,23.7-48.2,46.1-62.2
	c7.1-4.6,14.7-8.3,22.6-11c3.6-1.5,7.5-2.2,11.3-3.3C97.6,11,101.6,10.5,105.8,9.9 M94.4,14.4c-15.5,3.5-30.3,10.5-42.7,20.4
	c-13.5,10.7-24.5,25-31.3,41c-1.6,3.7-2.8,7.6-4.3,11.4c51.8,0,103.8-0.1,155.6-0.4c15.3,0,30.7-0.1,46,0
	c-4.9-17.3-14.8-33-27.7-45.4c-13.2-12.6-29.6-21.8-47.4-26.3C127,11.1,110.3,11,94.4,14.4 M32.7,94.2c-1.4,0.8-3,2.6-2,4.3
	c0.9,2.2,4.2,2.6,5.6,0.7C38.5,97,35.5,93.1,32.7,94.2 M47.1,95.9c-2.8,1.3-5.1,3.9-6,6.9c-7.7,0.1-15.4,0-23.1,0.1c0,1.3,0,2.7,0,4
	c3.9-0.1,7.7,0,11.6,0c0.4,0.7,0.1,1.5,0.2,2.3c-3.7,0-8.1-0.1-10.9,2.7c-1.4,1.1-1.3,3-1.2,4.6c0.1,2.2,1.8,4.2,3.9,4.7
	c3.4,0.9,7.6,0,10.3,2.8c-0.7,2-2.5,3.7-4.6,3.4c-1.5-0.6-2.3-2.3-4-2.8c-1.5-0.6-3.6-0.7-4.8,0.6c-1.4,1.1-1.2,3.2-0.8,4.7
	c0.9,2.1,3.4,3.4,5.7,3.5c1.2,2.6,3,4.7,5.4,6.3c1.2-1.2,2.1-2.6,3.2-3.7c-0.8-0.7-1.9-1.3-2.1-2.5c1.2-2.1,4.2-1.3,5.7-3
	c1.1-1.4,2.2-3,2.1-4.9c0-2.6-0.4-5.7-2.8-7.1c-3.3-1.8-7.2-0.6-10.7-0.9c-1.2-0.2-0.8-1.6-0.8-2.5c4.2-0.8,8.6-0.6,13-0.5
	c0.2-2.5,0.1-5,0.1-7.5c1.5,0.2,3.3-0.4,4.7,0.2c0,8.2,0,16.5,0.1,24.6c1.8-0.1,3.5-0.1,5.3-0.1c0-8.3,0.1-16.5,0-24.7
	c4.7,0,9.3,0,14,0c0,0.9,0,1.8,0,2.7c-2.5,0-5-0.4-7.2,0.8c-1.9,0.8-3.4,2.5-3.4,4.6c-0.8,2.2,0.8,4.2,2.6,5.4
	c3.4,2.1,7.5,1.9,11.1,2.9c0,0.9,0.5,2.2-0.6,2.6c-3.2,2-7,0.6-10.2-0.6c-0.9,1.2-2,2.2-2.8,3.3c4.2,2.9,9.8,4.3,14.7,2.2
	c3.4-1.4,5.5-5.1,5.1-8.8c-0.4-1.1-1.3-1.8-2.2-2.2c-3.7-2-8.1-1.6-12-2.6c-0.1-0.6-0.1-1.2-0.2-1.8c1.3-0.9,2.9-0.6,4.4-0.7
	c2.5,0,4.9-0.1,7.5,0c0.2-2.6,0.1-5.3,0-7.8c2.1,0.2,4.7-0.8,6.3,1.1c1.1,0.9,1.8,2.3,1.4,3.9c-0.5,2.6-2.9,4-5.1,4.7
	c0.8,3.7,3.2,7.1,6.4,9c2.9,1.6,6.7,1.3,9.5-0.2c0,2.2-0.1,4.4,0,6.5c2-0.1,4-0.1,6,0c-0.2-8.3,0.2-16.5,0.2-24.6c6-0.1,12,0,18-0.1
	c-0.1,2.2-0.2,4.4-0.1,6.7c-3.9,0.5-7.7,0.1-11.4,0.2c-2.1,0-4.3,1.9-4,4.1c0,2.6,2.7,5.3,5.3,4.2c1.8-0.5,2.7-2.2,3.9-3.5
	c2,0,4,0,6,0c0,4.3,0,8.6-0.1,13c2,0,4,0.1,5.8,0c0-8.2,0.4-16.3,0.2-24.5c0.8,0,1.6-0.1,2.5-0.1c0-1.3,0-2.6,0-3.9
	c-17,0-34.2,0-51.2-0.1c-0.7-3.2-3.3-5.6-6.1-6.8C56.2,94.1,51.2,94,47.1,95.9 M154,95.1c-1.5,1.5-3.5,2.7-5.7,2.2
	c-1.4-0.1-2.5-1.1-3.5-1.9c-1.2,0-2.2,0.7-3.2,1.3c1.4,3.6,5.8,6,9.6,4.7c2.5-0.7,4.9-2.1,6.1-4.4C156.1,96.4,155.1,95.8,154,95.1
	 M123.9,102.9c-2.5,0.6-4.4,2.8-4.6,5.4c0.9,0.7,1.8,1.5,2.8,2c1.9-0.1,2.6-2.7,4.7-2.2c1.4-0.2,2.9,0.8,3,2.3
	c-0.6,2.5-2.8,4.9-5.6,4.3c0,1.1-0.1,2.1-0.1,3.3c1.9,0.2,4.8-0.8,5.6,1.5c0,1.9,0.6,4.1-0.9,5.5c-1.1,1.4-3.2,1.4-4.6,0.5
	c-1.6-0.8-2.3-2.6-3-4.2c-1.2,0.7-2.3,1.5-3.5,2.2c0.4,1.3,0.6,2.7,1.4,3.9c3.7,5,12.5,5.1,16-0.1c1.6-1.8,1.2-4.3,0.7-6.5
	c-0.2-1.5-1.5-2.5-2.6-3.4c2-1.8,2.3-4.6,2.5-7C135.6,104.7,129,101.1,123.9,102.9 M137.1,102.9c0,1.3,0,2.7,0,4
	c1.3,0,2.6,0,3.7-0.1c-0.1,2,0,3.9,0,5.8c-1.4,0-2.9,0-4.3,0c-0.1,1.8-0.1,3.6-0.1,5.4c1.4,0,2.9,0,4.3-0.1c0.1,4.6,0.1,9,0,13.5
	c2,0,4,0.1,6-0.1c-0.1-8.2,0-16.5-0.1-24.6c1.4,0,2.8,0,4.3,0c-0.1,8.2,0.1,16.3-0.1,24.5c1.9,0.1,3.6,0.1,5.5,0.1
	c-0.1-8.3-0.1-16.6,0-24.7c2.5,0.5,5.5-0.7,7.4,1.4c2.6,2.7,0.1,7.7-3.5,7.7c0.5,2.9,0.8,6.5,3.5,8.3c3.5,2.6,8.1,1.6,11.9,0.6
	c-0.1,2.3-0.1,4.7-0.1,6.9c1.9,0,3.7,0.1,5.6,0c-0.2-8.2,0.1-16.5,0-24.6c8.3,0,16.6-0.1,24.9,0c-0.1,1.9-0.1,3.7-0.1,5.6
	c-1.1,0.4-2.1,0.8-3,1.3c-2.6-1.9-5.6-3.6-8.9-3.6c-3.2-0.2-6.4,1.2-7.9,4c-1.8,2.3-1.8,5.5-1.3,8.2c1.2,4,4.1,7.1,7.6,9.2
	c0.8-1.4,1.5-2.9,2.2-4.3c-1.8-1.9-4.6-3.6-4.6-6.5c-0.2-2.2,1.5-4.1,3.4-4.7c1.3-0.4,2.6,0.4,3.3,1.4c-0.7,0.9-2,1.3-2.9,1.9
	c0.8,1.5,1.4,3,2.3,4.4c2.7-1.6,5.6-2.7,8.4-4.2c0.5-0.2,1.1-0.5,1.6-0.6c0,4.2,0.4,8.4,0.2,12.5c1.9,0.2,3.9,0.1,5.7,0.1
	c-0.1-8.2,0-16.5,0-24.6c1.5,0,3,0,4.7,0c0-1.3,0-2.7,0-4C190.1,102.9,163.6,102.9,137.1,102.9 M16.3,145.7
	c6.1,21,19.1,39.9,36.4,53.3c9,7.1,19.3,12.5,30,16.3c5.1,1.8,10.3,2.9,15.5,4.1c4.8,0.9,9.6,1.2,14.4,1.6c4.3,0,8.5,0.2,12.8-0.4
	c9-0.5,17.9-2.6,26.4-5.5c15.5-5.4,29.6-14.6,41.1-26.4c11.3-11.8,19.8-26.1,24.6-41.8c-6.7-0.1-13.4,0-20.1-0.1
	c-3.4-0.2-6.9-0.1-10.3-0.1c-16.7,0-33.5-0.1-50.2-0.2c-8.6,0.1-17.2-0.2-25.8-0.2c-18.1-0.4-36.3-0.1-54.4-0.4
	C43.3,145.8,29.7,145.9,16.3,145.7L16.3,145.7z"/>
<path class="st0" d="M46.9,103.1c0.6-3.3,4.2-4.7,7.2-4.4c2.8-0.1,5.8,1.4,6.4,4.3C55.9,102.9,51.5,103.2,46.9,103.1z"/>
<path class="st0" d="M79.8,107c1.9,0,3.9,0,5.7,0c-0.1,3.6,0.4,7.2-0.7,10.7c-0.7,2.2-3,4-5.5,3.6c-1.4,0-2.2-1.3-2.9-2.3
	c1.2-1.2,2.7-2.2,3.4-3.9C80.9,112.4,80.4,109.6,79.8,107z"/>
<path class="st0" d="M169.3,106.9c2.1,0,4.1,0,6.2,0c-0.2,3.9,0.6,7.9-0.8,11.6c-1.3,3.5-7.2,3.4-8.6,0c1.8-1.2,3.3-2.7,3.6-4.9
	C169.8,111.3,170,109,169.3,106.9z"/>
<path class="st0" d="M181.8,239.2c4.6-0.6,9.5-0.4,13.5,1.9c4.3,2.2,7.5,6.4,8.5,11.1c1.2,4.7,1.1,9.7-0.2,14.4
	c-1.4,4.9-5,9.1-9.7,11c-3.5,1.5-7.4,1.6-11.1,1.3c-5.1-0.5-10.2-3.4-12.8-7.8c-3.3-5.3-3.5-11.9-2.5-17.9
	C168.9,246.2,174.6,240.1,181.8,239.2 M182.6,246.2c-3.4,0.9-6,3.9-6.8,7.1c-0.9,4-1.1,8.2,0.4,12c1.3,3.7,5,6.8,9.1,6.8
	c3.5,0.4,7-1.3,9-4.2c2-2.9,2.3-6.5,2.3-9.9c-0.1-3.4-0.8-7-3.3-9.3C190.7,245.7,186.4,245.1,182.6,246.2L182.6,246.2z"/>
<path class="st0" d="M11.8,239.6c2.6,0,5.1,0,7.7,0c0,12.8,0,25.7,0,38.5c-2.6,0-5.1,0-7.7,0C11.8,265.3,11.7,252.5,11.8,239.6z"/>
<path class="st0" d="M77.4,239.6c2.5,0,5,0,7.5,0c0,12.8,0,25.7,0,38.5c-2.3,0-4.7,0-6.9,0c0-1.3,0-2.6,0-3.7
	c-2.1,2.7-5.4,4.7-8.9,4.4c-4.1,0.1-7.8-2.6-9.7-6.1c-2-3.6-2.1-7.8-1.8-11.9c0.4-3.4,1.8-6.9,4.6-9c2.6-2.2,6.3-2.8,9.6-2.1
	c2.2,0.5,4.1,1.9,5.7,3.4C77.4,248.7,77.4,244.2,77.4,239.6 M69.2,255.8c-1.8,0.8-3.2,2.5-3.6,4.3c-0.6,2.3-0.5,4.8-0.1,7.2
	c0.4,2.1,1.6,4.2,3.6,5.1c2,0.8,4.4,0.6,6-1.1c2.2-2,2.6-5.1,2.5-7.8c-0.1-2.3-0.5-4.9-2.2-6.7C73.7,255.4,71.2,255,69.2,255.8
	L69.2,255.8z"/>
<path class="st0" d="M91.7,239.6c2.5,0,5,0,7.5,0c0,2.2,0,4.6,0,6.8c-2.5,0-5,0-7.5,0C91.6,244.2,91.6,241.8,91.7,239.6z"/>
<path class="st0" d="M210.2,239.6c2.5,0,5,0,7.5,0c0,2.2,0,4.6,0,6.8c-2.5,0-5,0-7.5,0C210.2,244.2,210.2,242,210.2,239.6z"/>
<path class="st0" d="M224.8,239.6c2.5-0.1,5,0,7.5,0c0,12.8,0,25.7,0,38.5c-2.5,0-5,0-7.5,0C224.8,265.3,224.8,252.5,224.8,239.6z"
	/>
<path class="st0" d="M39.4,250c3.5-0.8,7.5-0.4,10.2,2.1c2.2,2.1,2.3,5.4,2.5,8.3c0,6,0,11.8,0,17.7c-2.5,0-5,0-7.5,0
	c-0.1-6.4,0.4-12.8-0.4-19.1c-0.4-3.5-4.9-4.6-7.5-2.7c-2.3,1.3-2.7,4.1-2.8,6.4c-0.1,5.1,0,10.3,0,15.5c-2.5,0-5,0-7.5,0
	c0-9.3,0-18.7,0-28c2.3,0,4.7,0,7,0c0,1.3,0,2.5,0,3.7C35.2,252.2,37.1,250.6,39.4,250z"/>
<path class="st0" d="M110.3,250.9c3.4-1.5,7.1-1.3,10.7-1.2c3.2,0.2,6.7,1.6,7.7,4.8c1.9,7.7-1.3,16.1,2.1,23.6
	c-2.6,0-5.1,0.1-7.6-0.1c-0.2-0.9-0.5-1.8-0.8-2.7c-2,1.6-4.3,3.2-7,3.4c-2.8,0.2-6,0-8.2-1.9c-3.4-2.7-3.9-8.4-0.9-11.6
	c1.8-2,4.4-2.7,7-3.3c2.9-0.6,5.7-1.2,8.5-2c0.1-1.4,0.1-3.2-1.2-4c-1.5-0.9-3.5-0.8-5.1-0.6c-1.8,0.2-2.8,1.9-3.5,3.4
	c-2.2-0.4-4.6-0.8-6.8-1.2C106,255,107.6,252.2,110.3,250.9 M114,266.9c-1.9,0.7-2.8,3.2-1.5,4.8c1.6,2.7,5.6,2.2,7.7,0.4
	c2.2-1.6,1.6-4.7,1.8-7.1C119.3,265.6,116.6,266.1,114,266.9L114,266.9z"/>
<path class="st0" d="M148.8,250.1c3.5-0.9,7.7-0.5,10.4,2.2c2.1,2.1,2.2,5.4,2.3,8.2c0,6,0,11.9,0,17.7c-2.5,0-5,0-7.5,0
	c-0.1-6.4,0.4-13-0.4-19.4c-0.5-3.6-5.4-4.4-7.8-2.2c-2.1,1.5-2.3,4.3-2.5,6.7c0,5,0,9.9,0,14.9c-2.5,0-5,0-7.5,0
	c0-9.3-0.1-18.7,0-28c2.3,0,4.7,0,7,0c0,1.2,0,2.3,0,3.6C144.7,252.2,146.5,250.7,148.8,250.1L148.8,250.1z"/>
<path class="st0" d="M91.7,250.1c2.5,0,5,0,7.5,0c0.1,9.3,0,18.7,0,28c-2.5,0-5,0-7.5,0C91.7,268.8,91.6,259.5,91.7,250.1z"/>
<path class="st0" d="M210.2,250.1c2.5,0,5,0,7.5,0c0.1,9.3,0,18.7,0,28c-2.5,0-5,0-7.5,0C210.2,268.8,210.2,259.5,210.2,250.1
	L210.2,250.1z"/>
</svg>
