<?xml version="1.0" encoding="utf-8"?>
<!-- Generator: Adobe Illustrator 27.3.1, SVG Export Plug-In . SVG Version: 6.00 Build 0)  -->
<svg version="1.1" id="Layer_1" xmlns="http://www.w3.org/2000/svg" xmlns:xlink="http://www.w3.org/1999/xlink" x="0px" y="0px"
	 viewBox="0 0 282.1 100.6" style="enable-background:new 0 0 282.1 100.6;" xml:space="preserve">
<style type="text/css">
	.st0{fill:#383838;}
	.st1{fill:#777777;}
</style>
<path class="st0" d="M56.5,78.3c-1.7-0.7-3.5-1.1-5.5-1.1c-3.8,0-7.4,2.4-7.4,6.4c0,6.3,7.7,5.5,7.7,10.1c0,1.8-1.4,4.1-4.9,4.1
	c-1.5,0-3.5-0.6-4.8-1.4l-1.1,2.9c1.8,0.7,3.6,1.3,6.3,1.3c5.5,0,7.8-3.9,7.8-7.3c0-5.9-7.7-6-7.7-9.8c0-2.7,2.4-3.5,4.5-3.5
	c1.7,0,3.1,0.4,4.1,1.1"/>
<polyline class="st0" points="76.5,77.6 59.2,77.6 58.6,80.4 65.6,80.4 61.4,100.3 64.6,100.3 68.8,80.4 75.8,80.4 "/>
<polyline class="st0" points="74.8,100.3 87.6,100.3 88.1,97.3 78.6,97.3 80.3,89.9 88.8,89.9 89.4,87.1 81,87.1 82.4,80.4 
	91.3,80.4 92,77.6 79.7,77.6 "/>
<polyline class="st0" points="92.6,100.3 105.5,100.3 106,97.3 96.5,97.3 98.2,89.9 106.7,89.9 107.3,87.1 98.9,87.1 100.3,80.4 
	109.2,80.4 109.9,77.6 97.6,77.6 "/>
<polyline class="st0" points="110.3,100.3 123.1,100.3 123.6,97.3 114.3,97.3 118.5,77.6 115.2,77.6 "/>
<path class="st0" d="M141.3,86.6c-0.8-1.1-1.5-2.2-1.5-3.6c0-2.1,1.5-3.2,3.4-3.2c1.7,0,3.1,0.8,3.1,2.8
	C146.3,84.9,143.2,86.2,141.3,86.6 M144.2,96.2c-1.5,1.4-3.4,1.8-4.6,1.8c-2.4,0-4.3-1.5-4.3-4.1c0-2.7,2.5-3.9,4.6-4.5L144.2,96.2z
	 M142.8,88.7c3.1-1.1,6.4-2.7,6.4-6.6c0-3.5-2.9-5-6.2-5c-2.9,0-6.3,2.1-6.3,5.3c0,1.8,0.6,3.4,1.7,4.9c-3.4,0.7-6.4,2.9-6.4,6.7
	c0,4.1,2.9,6.3,7.7,6.3c2.2,0,4.5-0.8,6-2.1l1.1,1.7h3.6l-2.5-3.8c2.5-2.2,3.5-5.3,4.1-8.4h-2.9c-0.4,2.1-1.1,4.3-2.7,6.2
	L142.8,88.7z"/>
<path class="st0" d="M170.6,80.4h1.7c2.7,0,5.2,0.4,5.2,3.5c0,3.6-3.5,4.3-6.9,4.3h-1.7 M163.1,100.3h3.2l2-9.1h3.2
	c6.2,0,9.4-3.2,9.4-7.7s-3.9-5.9-7.3-5.9H168L163.1,100.3z"/>
<path class="st0" d="M185.6,91.1c0-5.7,3.6-11,9.2-11c3.9,0,5.9,2.4,5.9,6.7c0,4.9-3.4,10.9-8.8,10.9
	C187.7,97.8,185.6,95.1,185.6,91.1 M182.1,91.1c0,6.3,3.2,9.7,9.5,9.7c8.3,0,12.4-7,12.4-14.3c0-5.7-3.4-9.2-9.2-9.2
	C186.6,77.2,182.1,84.6,182.1,91.1"/>
<polyline class="st0" points="209.4,100.3 213.7,100.3 222.7,80.7 222.8,80.7 223.2,100.3 227.4,100.3 239.3,77.6 235.8,77.6 
	226,96.9 226,96.9 225.3,77.6 221.1,77.6 212.2,96.9 212,96.9 210.8,77.6 207.5,77.6 "/>
<polyline class="st0" points="237.5,100.3 250.3,100.3 250.9,97.3 241.4,97.3 243.1,89.9 251.6,89.9 252.2,87.1 243.8,87.1 
	245.2,80.4 254.1,80.4 254.8,77.6 242.5,77.6 "/>
<path class="st0" d="M262.8,80.4h3.1c2.5,0,3.8,0.7,3.8,3.1c0,3.1-3.5,3.8-5.7,3.8h-2.5 M255.4,100.3h3.2l2.1-10.1h2.9
	c1.7,0,2.2,0.4,3.1,4.1l1.4,5.9h3.5l-1.3-4.8c-0.4-1.7-1-5.2-2.7-6.2c3.1-0.4,5.5-3.1,5.5-6.2c0-5.5-5.3-5.5-8.4-5.5h-4.5
	L255.4,100.3z"/>
<path class="st1" d="M180.6,26.7c-5.3,13.8,3.2,7.4,30.1-8.7c30.6-18.3,62-27.7,71.3-3.5c-17.8-9.4-43.2,4.3-79.3,28.3
	c-26.2,17.3-36.2,20-33.4,9.8c1.5-5.7,2.9-9.8,4.2-13.3c0,0.1,0.1-0.3,0,0C177.1,32.6,178.5,30.6,180.6,26.7"/>
<path class="st1" d="M159.9,8.5c4.5-1.4,10.5-2.8,16.4-4.2c16.5-3.6,10.8,9.1,4.2,22.5c-2.1,4.2-3.4,5.7-7,12.3
	c2.5-8,5.6-12.6-0.4-11.6c-6.2,1-12.9,2.9-18.2,4.6"/>
<polyline class="st1" points="46.6,69.1 52.4,41.1 60,41.1 71.7,56.2 71.9,56.2 75.1,41.1 83.5,41.1 77.6,69.1 69.8,69.1 58.2,54.4 
	58,54.4 55,69.1 "/>
<path class="st1" d="M96.9,47.4l-3.2,15.4h1.5c6.4-0.1,9.2-2,10.5-7.6c1.3-6-1.4-7.8-7.1-7.8 M82.8,69.1L88.7,41h14.8
	c9.2,0,14,5.7,12,14.7C113.4,65.9,105.9,69,95.7,69C95.7,69.1,82.8,69.1,82.8,69.1z"/>
<polyline class="st1" points="111.2,69.1 130.1,41.1 140.4,41.1 145.5,69.1 134.8,69.1 132.3,52 132.2,52 121.7,69.1 "/>
<polyline class="st1" points="147,69.1 152.9,41.1 162.5,41.1 157.9,62.8 169.2,62.8 168,69.1 "/>
<polyline class="st1" points="31.9,69.1 37.8,41.1 47.4,41.1 41.4,69.1 "/>
<polyline class="st1" points="111.2,69.1 130.1,41.1 140.4,41.1 145.5,69.1 134.8,69.1 132.3,52 132.2,52 121.7,69.1 "/>
<path class="st1" d="M2.2,66.9c14,2.9,15-4.6,15.8-8.4c0.8-3.8,5.2-24.3,5.2-24.3H34c0,0-2.9,13.6-5.5,26c-2,8.7-8.4,15.1-20.1,14.3
	C5,74.1,2.1,73,0.8,72L0,71.2l1.4-4.6C1.5,66.7,2,66.7,2.2,66.9"/>
</svg>
