<?xml version="1.0" encoding="utf-8"?>
<!-- Generator: Adobe Illustrator 27.3.1, SVG Export Plug-In . SVG Version: 6.00 Build 0)  -->
<svg version="1.1" id="Layer_1" xmlns="http://www.w3.org/2000/svg" xmlns:xlink="http://www.w3.org/1999/xlink" x="0px" y="0px"
	 viewBox="0 0 201.6 71.9" style="enable-background:new 0 0 201.6 71.9;" xml:space="preserve">
<style type="text/css">
	.st0{fill:#D3D3D3;}
</style>
<path class="st0" d="M40.4,56c-1.2-0.5-2.5-0.8-3.9-0.8c-2.7,0-5.3,1.7-5.3,4.6c0,4.5,5.5,3.9,5.5,7.2c0,1.3-1,2.9-3.5,2.9
	c-1.1,0-2.5-0.4-3.4-1L29,71c1.3,0.5,2.6,0.9,4.5,0.9c3.9,0,5.6-2.8,5.6-5.2c0-4.2-5.5-4.3-5.5-7c0-1.9,1.7-2.5,3.2-2.5
	c1.2,0,2.2,0.3,2.9,0.8"/>
<polyline class="st0" points="54.7,55.5 42.3,55.5 41.9,57.5 46.9,57.5 43.9,71.7 46.2,71.7 49.2,57.5 54.2,57.5 "/>
<polyline class="st0" points="53.5,71.7 62.6,71.7 63,69.6 56.2,69.6 57.4,64.3 63.5,64.3 63.9,62.3 57.9,62.3 58.9,57.5 65.3,57.5 
	65.8,55.5 57,55.5 "/>
<polyline class="st0" points="66.2,71.7 75.4,71.7 75.8,69.6 69,69.6 70.2,64.3 76.3,64.3 76.7,62.3 70.7,62.3 71.7,57.5 78.1,57.5 
	78.6,55.5 69.8,55.5 "/>
<polyline class="st0" points="78.9,71.7 88,71.7 88.4,69.6 81.7,69.6 84.7,55.5 82.4,55.5 "/>
<path class="st0" d="M101,61.9c-0.6-0.8-1.1-1.6-1.1-2.6c0-1.5,1.1-2.3,2.4-2.3c1.2,0,2.2,0.6,2.2,2C104.6,60.7,102.4,61.6,101,61.9
	 M103.1,68.8c-1.1,1-2.4,1.3-3.3,1.3c-1.7,0-3.1-1.1-3.1-2.9c0-1.9,1.8-2.8,3.3-3.2L103.1,68.8z M102.1,63.4
	c2.2-0.8,4.6-1.9,4.6-4.7c0-2.5-2.1-3.6-4.4-3.6c-2.1,0-4.5,1.5-4.5,3.8c0,1.3,0.4,2.4,1.2,3.5c-2.4,0.5-4.6,2.1-4.6,4.8
	c0,2.9,2.1,4.5,5.5,4.5c1.6,0,3.2-0.6,4.3-1.5l0.8,1.2h2.6l-1.8-2.7c1.8-1.6,2.5-3.8,2.9-6h-2.1c-0.3,1.5-0.8,3.1-1.9,4.4
	L102.1,63.4z"/>
<path class="st0" d="M122,57.5h1.2c1.9,0,3.7,0.3,3.7,2.5c0,2.6-2.5,3.1-4.9,3.1h-1.2 M116.6,71.7h2.3l1.4-6.5h2.3
	c4.4,0,6.7-2.3,6.7-5.5c0-3.2-2.8-4.2-5.2-4.2h-4L116.6,71.7z"/>
<path class="st0" d="M132.7,65.1c0-4.1,2.6-7.9,6.6-7.9c2.8,0,4.2,1.7,4.2,4.8c0,3.5-2.4,7.8-6.3,7.8
	C134.2,69.9,132.7,68,132.7,65.1 M130.2,65.1c0,4.5,2.3,6.9,6.8,6.9c5.9,0,8.9-5,8.9-10.2c0-4.1-2.4-6.6-6.6-6.6
	C133.4,55.2,130.2,60.5,130.2,65.1"/>
<polyline class="st0" points="149.7,71.7 152.8,71.7 159.2,57.7 159.3,57.7 159.6,71.7 162.6,71.7 171.1,55.5 168.6,55.5 
	161.6,69.3 161.6,69.3 161.1,55.5 158.1,55.5 151.7,69.3 151.6,69.3 150.7,55.5 148.4,55.5 "/>
<polyline class="st0" points="169.8,71.7 179,71.7 179.4,69.6 172.6,69.6 173.8,64.3 179.9,64.3 180.3,62.3 174.3,62.3 175.3,57.5 
	181.7,57.5 182.2,55.5 173.4,55.5 "/>
<path class="st0" d="M187.9,57.5h2.2c1.8,0,2.7,0.5,2.7,2.2c0,2.2-2.5,2.7-4.1,2.7h-1.8 M182.6,71.7h2.3l1.5-7.2h2.1
	c1.2,0,1.6,0.3,2.2,2.9l1,4.2h2.5l-0.9-3.4c-0.3-1.2-0.7-3.7-1.9-4.4c2.2-0.3,3.9-2.2,3.9-4.4c0-3.9-3.8-3.9-6-3.9h-3.2L182.6,71.7z
	"/>
<path class="st0" d="M129.1,19.1c-3.8,9.9,2.3,5.3,21.5-6.2c21.9-13.1,44.3-19.8,51-2.5c-12.7-6.7-30.9,3.1-56.7,20.2
	C126.2,43,119,44.9,121,37.6c1.1-4.1,2.1-7,3-9.5c0,0.1,0.1-0.2,0,0C126.6,23.3,127.6,21.9,129.1,19.1"/>
<path class="st0" d="M114.3,6.1c3.2-1,7.5-2,11.7-3c11.8-2.6,7.7,6.5,3,16.1c-1.5,3-2.4,4.1-5,8.8c1.8-5.7,4-9-0.3-8.3
	c-4.4,0.7-9.2,2.1-13,3.3"/>
<polyline class="st0" points="33.3,49.4 37.5,29.4 42.9,29.4 51.3,40.2 51.4,40.2 53.7,29.4 59.7,29.4 55.5,49.4 49.9,49.4 
	41.6,38.9 41.5,38.9 39.3,49.4 "/>
<path class="st0" d="M69.3,33.9L67,44.9h1.1c4.6-0.1,6.6-1.4,7.5-5.4c0.9-4.3-1-5.6-5.1-5.6 M59.2,49.4l4.2-20.1H74
	c6.6,0,10,4.1,8.6,10.5c-1.5,7.3-6.9,9.5-14.2,9.5C68.4,49.4,59.2,49.4,59.2,49.4z"/>
<polyline class="st0" points="79.5,49.4 93,29.4 100.4,29.4 104,49.4 96.4,49.4 94.6,37.2 94.5,37.2 87,49.4 "/>
<polyline class="st0" points="105.1,49.4 109.3,29.4 116.2,29.4 112.9,44.9 121,44.9 120.1,49.4 "/>
<polyline class="st0" points="22.8,49.4 27,29.4 33.9,29.4 29.6,49.4 "/>
<polyline class="st0" points="79.5,49.4 93,29.4 100.4,29.4 104,49.4 96.4,49.4 94.6,37.2 94.5,37.2 87,49.4 "/>
<path class="st0" d="M1.6,47.8c10,2.1,10.7-3.3,11.3-6c0.6-2.7,3.7-17.4,3.7-17.4h7.7c0,0-2.1,9.7-3.9,18.6
	c-1.4,6.2-6,10.8-14.4,10.2c-2.4-0.2-4.5-1-5.4-1.7L0,50.9l1-3.3C1.1,47.7,1.4,47.7,1.6,47.8"/>
</svg>
