<?xml version="1.0" encoding="utf-8"?>
<!-- Generator: Adobe Illustrator 27.3.1, SVG Export Plug-In . SVG Version: 6.00 Build 0)  -->
<svg version="1.1" id="Layer_1" xmlns="http://www.w3.org/2000/svg" xmlns:xlink="http://www.w3.org/1999/xlink" x="0px" y="0px"
	 viewBox="0 0 2279.4 620.7" style="enable-background:new 0 0 2279.4 620.7;" xml:space="preserve">
<style type="text/css">
	.st0{fill-rule:evenodd;clip-rule:evenodd;fill:#6D6D6D;}
</style>
<path class="st0" d="M1395.3,127.9h-300.5v98h100.5v209.7h98V225.9h102.1L1395.3,127.9L1395.3,127.9z M1689,434.8l-94.7-306.9H1475
	l-94.7,306.9h98l56.3-218.2l56.4,218.2H1689L1689,434.8z M1989,127.9h-300.5v98H1789v209.7h98V225.9h102.1v-98H1989z M2279.4,434.8
	l-94.7-306.9h-119.2l-94.7,306.9h98l56.3-218.2l56.3,218.2H2279.4L2279.4,434.8z M364,457c21.3-90.7,37.2-179.2,37.2-179.2
	s8-29.2-8-49.1c-15.9-19.9-65-13.3-65-13.3s-76.3,0.9-154,10.3C105,234.1,34.3,247.8,8.3,253.1C2.9,271.7,0.1,291,0,310.4
	C0,447,136.5,563,326.1,604.4C336.1,568.1,351,512.2,364,457L364,457z"/>
<path class="st0" d="M504.9,399.9c-0.9-109.9,2.2-212.4,2.2-212.4s-3.5-15.4,6.3-23c10.1-7.7,33.5-7.5,33.5-7.5s90.9,2.6,192.7,15.6
	c74.3,9.6,154.7,24.9,191,32.1C863.9,85.3,687.1,0,479.6,0C271.2,0,93.9,86,27.8,206.2c31.8-6.4,118.3-23.3,198-33.5
	c101.8-13.1,192.7-15.6,192.7-15.6s23.4-0.2,33.5,7.5c9.8,7.5,6.3,23,6.3,23s3.1,102.5,2.2,212.4c-0.7,84.2-3.3,172.6-4.9,220.3
	c8,0.3,15.9,0.4,24,0.4c10.2,0,20.2-0.3,30.3-0.7C508.2,572.1,505.7,484,504.9,399.9L504.9,399.9z"/>
<path class="st0" d="M791.2,225.7c-77.7-9.4-154-10.3-154-10.3s-49.1-6.6-65,13.3s-7.9,49.1-7.9,49.1s15.8,88.5,37.2,179.2
	c12.9,54.6,27.6,109.8,37.6,146c186.5-42.5,320.2-157.5,320.2-292.7c0-20.1-3-39.6-8.7-58.6C920.4,245.7,855.2,233.4,791.2,225.7
	L791.2,225.7z"/>
</svg>
